<svg xmlns="http://www.w3.org/2000/svg" fill="none" viewBox="0 0 500 430">
  <path fill="#000" d="M356.7 379.7H248.2c-1.4 0-2.7 0-2.3 2 .2 1.2-.5 1.5-1.4 1.6a74 74 0 0 1-3.7.1h-107l-4.5-.3c-1 0-1.7-.7-1.4-1.8.5-1.8-.5-1.6-1.7-1.6l-33.4.4H25.5c-.7 0-1.8-.2-2-.7-.8-1.2 0-2.4 1.5-2.4h15.1l86.5-.1c2.6 0 5.2-.5 8-.5 11.7-.3 23.4-.5 35.2-.6h51.9c.5-.2 1.2-.5 1.3-1 .2-.9-.5-1.1-1.3-1.1H134.5c-1.6 0-2-.6-2-2v-39.3a28.3 28.3 0 0 1 9.8-20.9l.7-.2a1.6 1.6 0 0 1 1.2.6c4.7 4.8 8.3 10.2 8.3 17.2.2 12.9 0 25.6 0 38.4 0 3 0 3.1 2.9 3.1 4.8.1 9.5 0 14.3 0 1.3 0 1.5-.5 1.4-1.6v-9.5c0-9.2.2-18.5 0-27.7a28.1 28.1 0 0 1 4.5-15.6c2.7-4.5 6.2-8.5 10.2-11.9 1.2-1 2-1 3.2.1a41 41 0 0 1 8 9.6c1.6 2.5 2.5 5.2 2.8 8 .3 2.6.4 2.6 3 2.6h1.6c4-.1 3.3.2 2.7-3.6-1-4.6-2.6-9-4.9-13a78.1 78.1 0 0 0-13.6-18.2c-.9-1-1.4-1.3-2.5 0-4.3 4.8-8.5 9.8-11.7 15.5a36 36 0 0 0-4.8 17.5V368.5c.1 1.4-.5 1.6-1.7 1.6h-10.6c-1.2 0-1.8-.3-1.8-1.6V234.6c-.2-3.2.5-6.2 2-9 .5-1 .6-2.2.5-3.4l.1-48c0-9.5 1-7-4.8-15.7-2.5-3.7-5.2-7.3-7.8-10.9-1.2-1.7-1.3-1.6-2.5.2-4 5.5-6.5 11.7-9.5 17.7a28.3 28.3 0 0 0-2.6 13l.3 137.1c0 18.2 0 36.3.2 54.4 0 3-.9 3.8-3.8 3.7l-25.4-.2H100c-1.7 0-1.4-1.3-1.4-2.3 0-1.2.8-.8 1.5-.8l13 .2c2.3 0 2.3 0 2.3-2.3l-.1-45.5-.1-13.7c0-.9.3-1.6.8-2.2 3.5-3.8 7-7.7 10.7-11.3.5-.4.9-1 1.2-1.6.2-.7.3-1.3.3-2V183c0-4.3-.3-8.6-.6-13-.3-5.3.6-10.5 2.5-15.5 2.8-7.4 5.3-15 8.6-22.1 1.8-4 2.4-8.2 3.2-12.3l7.6-41.2 7.8-40 2.6-14c.6-3.4.4-3.6-2.9-3-.6 0-1.2.2-1.8.4-1.6.3-2.5-.1-3-1.7a2.6 2.6 0 0 1 .1-2A2.7 2.7 0 0 1 154 17c1.4-.5 2.8-.9 4.3-1.2 1.4-.3 1.8-1.2 1.7-2.5l-.1-4.1c-.1-.5-.1-1 0-1.6l1.5-2c.4.6 1.2 1.3 1.3 2v4.6c0 2.1 0 2.1 2 1.7l2.6-.5a3.3 3.3 0 0 1 2.2.4 3.2 3.2 0 0 1 1.4 1.7 1.8 1.8 0 0 1-.6 2.2l-.7.4-4.8 1.4c-1.6.3-2.5 1-2.2 3 .7 3.6 1.2 7.4 1.8 11L169 62l4.2 26.3 3.3 22.6c.9 5.8 2 11.4 2.8 17.2 1.5 11.2 5.9 21.7 8 32.8.4 2 1 3.8 1.3 5.8 0 .9.7 2-.8 2.8-.3.1-.4 1.1-.4 1.7v17c0 .7.1 1.2.4 1.8.4.5.8.9 1.4 1 8 4 16.4 7.2 24.9 9.9l1 .3c1.2.4 1.8.2 1.8-1.3l-.1-33.5a2 2 0 0 0-.7-1.6c-1.6-1-1.4-2.5-1.2-4 1-8.2 3.5-16 5.8-23.8.7-2.6 1.8-5 2.4-7.7.9-4 1.5-8.3 2.2-12.4l2.9-18.6 3.5-23.1 1.6-11 3.1-18.8 3.7-24.1V16.4l-4 .4-1 .2c-1.2.3-2.4.6-3-1a2.9 2.9 0 0 1 .2-2.2 2.8 2.8 0 0 1 1.7-1.5c1.1-.4 2.4-.6 3.6-.9 2.5-.7 2.6-.8 2.6-3.5V2.8c0-.7 0-1.3.3-1.8s1-1 1.4-1c.6.3 1 .8 1.3 1.5V3l-.1 3.8c0 3.5 0 3.5 3.3 2.8 1-.4 1.9-.5 2.9-.4.8.4 1.4 1 1.7 2 .2.3-.6 1.4-1.1 1.6a16 16 0 0 1-4.8 1.5c-2 .2-2.3 1.4-2.2 3 .2 2.5.6 5.1 1 7.7l6.3 34.8 6.3 34c1.6 9.4 2.9 18.8 4.3 28.2 0 .6.2 1.2.6 1.7 2.7 3.3 3.3 7.5 4.3 11.4l6.9 26.4c.3 1.4 1.4 3.2-1.3 3.4-.2 0-.4 1-.4 1.4v54.3c0 2.7 0 2.7 2.5 3.2l39 8c3.3.6 3.3.6 3.4-2.7v-.8c0-1.3.2-2.7-.4-3.6-.3-.5-2.1.2-3.2 0-.9 0-2.1-.5-2.3-1.1-.4-1 .6-1.7 1.7-2l2-.4c2.3-.4 2.3-.4 2.3-2.7l-.2-3.5c0-.7 0-1.3.3-1.8.3-.6 1-1.2 1.5-1.1.7.3 1 .8 1.2 1.4v4.6c0 2.7 0 2.6 2.4 2.2.6-.2 1.2-.3 1.8-.2.7.2 1.2.7 1.6 1.4.3 1-.3 1.5-1.2 1.7-1 .3-2 .5-2.9.5-1.5 0-1.7.8-1.7 2v3a6.2 6.2 0 0 0 2.5 5.7c6.2 5.4 12 11.2 18 16.8l15.9 15.4a7356.3 7356.3 0 0 0 21.7 21l.7 1.9c-.7.2-1.5.8-2.1.7l-11-1.6-13.5-2-22-3.2-18-2.3-18.3-2.6h-1a4 4 0 0 0-1 .2c.3.2.4.7.6.8 1.6.4 3.2.8 4.8 1l22.7 3.2c6 .9 12 1.5 18 2.3l24.3 3.5c4.4.6 8.7 1.3 13 1.7a6 6 0 0 1 4.6 2.5c3 3.6 5.8 7.2 8.6 10.9.7 1 1 2.2 1 3.4.2 15.2.2 30.5.2 45.7 0 2.7 0 2.8 2.9 2.8H454.9c.7 0 1.3 0 1.9.2.4.3.7.8.8 1.3.1.7 0 1.5-1 1.5h-66.3c-1.4 0-2.1.2-2 2 .3 2.2.3 4.5 0 6.7 0 1.5.5 2.1 2 2h11.2c1.6 0 2.2.7 1.5 2-.5.6-1.1.9-1.9.9H276.7c-1.3 0-2.3 0-2.3 1.9 0 2 .8 2 2.3 2h188.8c.8 0 1.4.2 2 .8.7 1.2 0 2.1-1.6 2.1l-15.1.2h-94.1v-.5ZM219 300.5h-.2v-66.3a9.5 9.5 0 0 0-2.5-6.6l-18.4-22c-2.4-2.8-5.2-5.6-7.7-8.5-.8-.9-1.3-1-2 0-1 1.6-2.3 3-3.4 4.5l-14.5 18.2-8 9.4c-.6.5-2 1.2-2.2 1-2.1-1.7-1.7.2-1.9 1.2V365c0 1.5.3 2.3 2 2h3.2c3.6 0 3.2.3 3.2-3v-39.3a41 41 0 0 1 2-13.8c3-9 8.6-16.4 15.1-23 3.6-3.7 3.8-3.6 7.5.2a79 79 0 0 1 14.2 20 43.4 43.4 0 0 1 5 19.8c-.2 12.9 0 25.7 0 38.4 0 4.1 0 4.1 4 4.1 4.5 0 4.5 0 4.5-4.5v-65.4Zm128.7 69.7h18.6l16.7.1c2.4 0 2.4 0 2.4-2.3v-6.2c0-2 0-2.1-2.2-2.1h-2.4c-1.3 0-2-.5-2-2v-56.6a7.3 7.3 0 0 0-5.7-6.7c-4.2-.7-8.4-1.2-12.5-1.7l-17.5-2.4c-7.1-1-14.2-2.1-21.4-3-6.1-1-12.3-1.7-18.5-2.5l-8.3-1.3-1 .1c0 .4.2.7.3 1l.5.7 13.3 17.4a8.7 8.7 0 0 1 2 5.9v59.7c0 1.4.4 2 1.8 2h2l34-.1Zm-99.6-102.5v-93.5c0-6-.7-11.3-4.3-16l-.7-1.4-10-16.8c-.5-.6-1-1.6-1.6-.2L220.3 163a10 10 0 0 0-.8 4.2l-.3 55.4c0 2 .4 3.7 1.2 5.4.7 1.6 1 3.2 1 5 .1 24.3 0 48.6 0 73l.4 62.4c.1.8.3 1.7.6 2.4l.6-2.3v-37.1c0-2 .3-3.9.9-5.8a31 31 0 0 1 7.5-12.2c1-1.2 1.8-1 2.8 0 4.3 4.3 7.5 9.3 8 15.6.4 3.6.3 7.3.3 11l-.2 27c0 3.4 0 3.4 2.6 3.4 3.2 0 3 .6 3.2-3.2v-2.4l.1-97Zm22.6-27.8v11.7c0 1 .3 1.8.8 2.7 5.2 6.6 10.6 13.2 16 19.8.5.6 1.1 1 2 1 3.8.7 7.6 1.3 11.5 1.8l25.6 3.3 26 3.7 17.2 2.3 1 .3-.6-1-24.3-23.3-25.2-24a7.9 7.9 0 0 0-4.2-2.5c-6.7-1.2-13.4-2.7-20-4-8-1.6-16.1-3.1-24.1-4.8-1.4-.3-1.7 0-1.7 1.4v11.6Zm36.6 98.8v-29.4c0-1.5-.4-2.8-1.4-4-4.9-6.5-9.7-13.2-14.5-19.8-.6-.8-1.2-1.6-2-2.3-.5-.4-1-.7-1.8-.8l-15.2-1.6c-2.2-.3-2.3-.2-2.3 2.2v20.3c-.2 2.5.5 4.8 1.8 6.9 1.9 2.7 2.7 5.8 2.6 9.1v48.1c0 2.9 0 3 2.7 3l27.6-.2c2.8 0 2.6.3 2.6-2.5l-.1-29Zm-39.3-111.9v-56.5a33 33 0 0 0-2-12.4c-2.1-5.4-4-10.8-5.8-16.2l-.5-1c-.2.3-.5.5-.6.8-1.8 5.8-3.3 11.8-5.6 17.4-2 5.2-2.9 10.6-2.7 16.2.2 27 0 54 0 81 0 11 .3 21.9 0 32.8 0 3.6 1.3 5.4 4.1 7 3.4 2.2 6.6 4.6 9.7 7.1.8.7 1.5 1.4 2.1 2.2.2-1.1.4-2.2.4-3.3l.9-75Zm-17 106h-.2V368c0 1.4.4 2.2 2 2.2h11.3c1.7.1 1.9-.7 1.9-2v-56.5c0-1.7-.5-3.2-1.7-4.4A38 38 0 0 0 253 298c-1.7-.9-1.6-1-1.7.8v1.7l-.1 32.4Zm-6.7-239.5-1-17.4-1.7-24.7-.6-12.1-.1-1-.4 1-.8 4.7-2.9 16.4-3.8 25-4.6 29.8-1 8.2c-.2 1 0 1.6 1.2 1.3l1.9-.2c4.5-.7 9-1.5 13.5-2 2.6-.4 2.6-.3 2.4-3l-1-10.4c-.5-5.2-.8-10.4-1.1-15.6ZM128.4 334h-.3v-35.1a1 1 0 0 0-.3-.6c-.2 0-.3.1-.4.3l-7.8 8.4a5.9 5.9 0 0 0-1.5 4.4V368.3c0 1.6.5 2.2 2 2.2h6.5c1.5 0 1.8-.6 1.8-2V334ZM161 193.5h-.2v26.7l.2 1 .8-.7 2.7-3.6 8-9.8-.4-1-3.2-.2c-2.8 0-2.8-.1-2.8-2.8v-30c.1-1.8.4-3.6.8-5.3.8-3.7 5.3-4.7 7.9-3.1 3.3 2 5.4 4.7 5.6 8.8a621.6 621.6 0 0 1 .3 21l.2 1c.2 0 .4 0 .4-.2 1.2-1.7 3.3-2.9 3.3-5.3 0-10.4.9-20.9-3.8-30.8-2.4-5-4.2-10.4-7.2-15.2-.7-1-1-1-1.6 0-2.6 4.9-5.3 9.6-7.7 14.5a23 23 0 0 0-3.3 10.7v24.3Zm-1-138h.5V39.2a5 5 0 0 0-.3.7c-.6 3.2-1 6.5-1.7 9.8l-7 34.7-4.6 25.4c-1 5.3-1.9 10.6-3 15.8-.2 1.5.3 1.6 1.3 1.5h1.1c3.4-.3 6.8-.7 10.3-.9 2.4-.2 2.3 0 2.4-2.6 0-8.3.2-16.6.4-24.9l.7-29.3V55.5Zm2.3 48h-.2v1.9l-.4 18.3c0 1.7.1 2.7 2.2 3.1 3.4.6 6.7 1.8 10.1 2.7 2.7.8 2.9.6 2.5-2.1l-.2-.8-3-17.5-5-33.5c-1-7-2.3-14-3.4-21l-.8-3.3c-.4 1.1-.6 2.2-.7 3.3-.4 10.2-.8 20.4-1 30.5-.3 6.1-.1 12.3-.1 18.4Zm45.6 245.4v-15.7c0-2-.2-3.9-.4-5.8l-5.7-.1c-1.4 0-1.8.4-1.8 1.9l.1 38.9c0 1.5-.3 1.9-1.7 1.8h-15.4c-3.5 0-3.5 0-3.5-3.7l-.2-32.7V329c0-1-.5-1.4-1.5-1.4l-1.8.2c-1.6-.2-1.9.6-1.8 2l-.1 15-.1 23.2c0 2.6 0 2.6 2.4 2.6h29.4c1.7 0 2.1-.5 2.1-2v-19.6Zm-58.2 2.7V335c0-1.2-.3-1.8-1.7-1.8h-10.6c-1.4 0-1.8.6-1.8 2v33.2c0 2.1 0 2.2 2.2 2.2h9.3c2.5 0 2.6 0 2.6-2.6v-16.3Zm90 .2v-16.5c0-1.6-.4-2.2-2-2.1h-9.4c-2.3 0-2.3 0-2.3 2.4v32.6c0 1.6.4 2.3 2.1 2.2h9.6c1.6.1 2-.5 2-2.1v-16.5Zm4.8-305.4 1.4 19.8c.6 9.3 1 18.6 1.7 28l1.1 18.5.7 8c0 .8.5 1.4 1.1 1.8 2.1.7 4.2 1.1 6.4 1.7 1 .3 1.3-.1 1.3-1 0-.6-.2-1.1-.3-1.7l-1.8-10.8-5.5-33.2-3.6-20-2-12.1c0-.3-.2-.5-.3-.8l-.2.8v1ZM197.2 347h-.1v-16c0-3.7 0-3.7-4-3.6-2.4 0-2.4 0-2.4 2.5v32.7c0 4.6 0 4.6 4.6 4.5 1.4 0 2-.4 2-2v-18h-.1Zm-35.4-217.4c-.1.5-.3 1-.3 1.6a876 876 0 0 0 0 23.2l.3 1.2.8-1 8.5-14.6c1.2-2.2 2-2.2 3.3 0 1.7 2.6 3.2 5.3 4.7 8 .8 1.4 1.4 2.8 2 4.2l.6.3v-.5l-.1-1.3-3.9-14.5a4.4 4.4 0 0 0-1.3-2.4 4.5 4.5 0 0 0-2.4-1.2l-10-2.6-2.2-.4ZM188 347.7h-.1V330c0-2.6-.2-2.6-2.6-2.3h-1c-1.8-.2-2 .7-2 2.3v34.8c0 2.2 0 2.2 2 2.4h1.7c1.6.1 2-.5 2-2.2v-17.2Zm5.2-23.1h1.4c2.8-.1 3-.4 2.3-3.2l-.2-.5c-1.2-5.7-5-9.6-8.8-13.5-.5-.6-.8-.6-1.4 0-2.6 3.2-5.5 6.2-8 9.4-1.3 2-2.4 4.2-3.3 6.5-.3.5-.7 1 .4 1.4 2.3.7 4 0 5-2.1 1.1-2.2 2.4-4.6 4.4-4.7 2-.2 3.5 2.3 4.3 4.2.8 2 2.1 2.9 3.9 2.5ZM216.6 214v-7a2.1 2.1 0 0 0-.3-1.7 2 2 0 0 0-1.3-1c-6.4-2.2-12.8-4.6-19.1-7a7 7 0 0 0-1.2-.2l.7.8 9.2 10.8 10.7 12.7 1 .8.3-1.2v-7Zm-58.3-72.4h.3v-10.5c0-2.3 0-2.4-2.4-2.3l-8.9 1-4.1.7c.6 1.3 1.3 2.5 2.1 3.7a123 123 0 0 1 12.1 18.5l.8.6.1-.9v-10.8Zm223.4 187.7V354.1c0 1.1-.3 2.2 1.4 2.3 2.2.2 2.4 0 2.4-2.2v-43.5a8.5 8.5 0 0 0-2.6-6.7l-1-.8-.2 1.3v24.8ZM268.9 341h-.2V369.1c.3.5.8 1.1 1.3 1.3 1.6.3 1.9 0 1.9-2.2v-48.8c-.2-2.6-.9-5-2.1-7.2l-.5-.4-.3.6-.1 3.2V341Zm-21.4-198.4h-.1l-.6-15.9c0-1.4-.4-2-1.8-1.7l-11.3 1.5-.6.4.5.6 2.5 2.6c4.5 5.7 7.4 12.4 10.8 18.8l.5.7v-.8l.1-6.2ZM142 330.3v.1l6.6-.4c.9 0 1.2-.4 1-1.3a23.4 23.4 0 0 0-5.8-12.8c-.6-.6-1-.8-1.6 0a70.5 70.5 0 0 0-4.2 6c-1 1.8-1.8 3.8-2.4 5.9-.6 2-.1 2.4 1.8 2.5h4.6Zm45 50v.3h31l22.6-.2 1-.4-1-.3c-3-.2-6-.6-9-.6h-71.5c-8.6 0-17.1.3-25.7.5-.7 0-1.4.2-2.1.4l2.3.3h52.5Zm59.1-7h-10.9l-7.9.3c-.8 0-1.6 0-1.5 1.3 0 1.2.7 1 1.4 1 5.4.4 10.9.9 16.3 1 7 .2 13.8 0 20.7 0 1.3 0 1.9-.2 1.8-1.7 0-1.5-.3-2-2-2h-17.9Zm-116-209h.3l.1 1c.3-.3.5-.5.6-.9 1.3-2.9 2.4-6 4-8.8 2.3-4.1 4.8-8.1 7.3-12.1 1.2-1.9 2.1-1.8 3.6-.2 1 1 1.9 2.1 2.7 3.3 2.2 3 4.2 6.2 6.4 9.3l.6.8-.1-1.2-.6-1.2c-3.8-7-8.3-13.6-13.3-19.8-.6-.8-.7-.7-1 .1-1.5 3.5-3.2 6.9-4.4 10.5-2.2 6.3-4.2 12.7-6.2 19.1Zm102.5 166h4.7c2.4-.1 2.5-.2 2-2.7-.9-3.9-3-7-5.2-10.2-.8-1.1-1.3-1-2.1 0-3 3.4-5 7.3-6 11.7-.2.9 0 1.2.8 1.2h5.8Zm37.8-65.3v6c0 .9 0 1.5 1.2 1.6l11.4 1.6.8-.1a3 3 0 0 0-.4-.9l-3.8-4.4-7.9-9.4a8 8 0 0 0-1-.9l-.3 1.4v5.1Zm-20.1-123.8h-.1v8.9l.2 1.2.3-1c.6-7.5 2.3-14.7 5-21.6.7-1.5.3-2.1-1.3-2.2a16 16 0 0 1-2.6-.6c-2.1-.5-2.2-.5-2 1.9 0 4.5.3 9 .5 13.4Zm-3.7 14.8c0-.4-.2-.7-.3-1-1.6-3.6-3.3-7-5-10.5a62 62 0 0 0-7.7-12.7c-1-1.2-1.5-1.4-2.2 0-2.6 5.3-5 10.5-7.6 15.6v.8l.6-.6 5.3-10.5 2-3 3 2.5.7 1.2 9.4 15.8 1.3 2.4.4.3.1-.3Zm7.2-9.4h.2l.1 1 .5-.9.8-2.5c1-2.8 1.8-5.6 2.9-8.3.5-.9 1.1-1.7 1.9-2.4.6.7 1.1 1.4 1.6 2.3.8 2 1.4 4 2 6l.5.9v-1l-3.8-13-.8-1.3c-.4.3-.7.7-1 1.2l-.7 1.7-4.2 16.3Zm-23.2-19s0-.3-.2-.3c-.7-.4-4 .7-4.3 1.6l-4.5 15.1.2 1c0-.3.1-.5.3-.8l8.2-16.1.3-.5Zm-54.1 60v12.2c0 .6 0 1.3.2 2 .3-.7.5-1.3.6-2 0-8.5.2-17 0-25.6 0-1.8-1.3-3.6-2-5.4l-.6-.3v.6a12 12 0 0 1 1.8 7v11.5Zm96.1 88.2h-.6c-.6.2-1.8.3-1.9.6-.3 1.4 1.2 1.1 1.8 1.3a1004.3 1004.3 0 0 0 15.3 1.3c-.1-.2-.1-.5-.3-.7a3 3 0 0 0-1.3-.8l-13-1.7ZM171.4 166.7c-.6.3-1.2.5-1.3.8-.6 1.3-1 2.5-1 3.8-.3 7.5-.3 15-.4 22.5v7.6c0 .4.2.8.4 1.1.1-.3.3-.6.3-1l-.3-8.1c0-3.6.3-7.2.4-10.8 0-5-.3-10.1 2-14.8l-.1-1.1Zm1.3 22.5h-.2v7l-.1 6.7c0 .4.3.7.6 1l.3-.8v-2.2l.2-14.8v-9l-.5-2.4a19 19 0 0 0-.3 2.4v12Zm-8.7 34 .4-.4 9.6-12 .1-.8-.8.5a1731.5 1731.5 0 0 0-9.6 12.4l.3.3Zm107.9 152c0-1 .2-2.2-1.5-2.2s-1.6 1.2-1.7 2.3c0 1.2.2 1.8 1.6 1.8 1.4 0 1.8-.6 1.6-1.8Zm-87-49.8 2-1.3-1.8-2.8-1.8 3 1.6 1ZM181 201.6l.2-.2c1.7-2.1 3.4-4.3 5-6.6.2-.1 0-.5 0-.7-.2 0-.5 0-.6.2l-4.9 6.6v.5l.3.2ZM226.9 429.8l-27.3-1c-8.3-.3-16.6-.5-24.8-1-5.1-.3-10.2-1-15.3-1.6a9 9 0 0 1-1.6-.4 1.7 1.7 0 0 1-.8-1v-.7a1.7 1.7 0 0 1 1.6-1.7c3-.3 6-.9 8.9-1 8.5-.5 17-.8 25.6-1.2l16.4-.8 15-.4 18.6-.8c5.8-.1 11.7 0 17.5-.2 9.2-.2 18.5-.6 27.8-1 3.3 0 6.6-.3 10-.5l1-.3-1-.3-12.5-.7-15.7-1.3-5.2-.1-22-1.1-20.3-1.5-21.1-1.2-19.8-1.4c-1.7-.2-3.5-.3-5.2-.6-1.7-.3-2-1.2-1.3-2.6.3-.3.6-.5 1-.5 6.1.6 12.2 1.3 18.4 1.8 3.2.3 6.5.3 9.7.5l22.2 1.6 22.4 1.2 30.4 1.6 23.2 1.7c1.3.1 2.6.4 4 .7 1 .3 2.1.6 2.1 2.2s-1 1.8-2 2c-3.3.7-6.6 1.2-10 1.5-12 .5-24.1.8-36.2 1.2-8.3.2-16.6.3-24.8.6a5240.3 5240.3 0 0 0-58 2l-6.3.6-.9.3h.8c3 .3 6 .6 9 .7 15.5.6 31 1.2 46.6 1.6 6.4.2 12.9.1 19.4.2.8 0 1.5.3 2.2.9.7 1.3 0 2.2-1.8 2.2H227v-.2ZM363 386.1h134.7c.9.2 2.3-.6 2.3 1.3 0 2-1.2 1.5-2.2 1.5H228.7c-.8 0-2-.2-2.3-.7-.9-1.2 0-2.5 1.7-2.4l21 .3h114-.1ZM164.6 392.7h6.9l18-.6c9.3-.2 18.5-.5 27.8-.5 7.5 0 15 .6 22.3 2l1 .3c1.3.3 2.2 1 2.2 2.4a2.1 2.1 0 0 1-2 2.2c-2.8.6-5.6 1.1-8.5 1.4-9.3.7-18.5 1.2-27.8 1.6-12 .5-24.1.8-36.2 1-8.9.2-17.7 0-26.5-.1-3.6-.1-7.2-.7-10.8-1.1-.7-.1-1.3-.3-2-.6-.9-.3-1.7-.8-1.4-2 .2-.8.6-1.5 1.4-2 1.5-.5 3.1-1 4.8-1.3 7.2-1.6 14.5-1.7 21.8-2.1 3-.2 6 0 9 0v-.6Zm55.9 5.5 15.3-1.4 1.2-.5-1.1-.4a187 187 0 0 0-30.3-1.8c-11.5.2-23 .8-34.4 1.3-3 0-6 .3-9 .4-3.7.2-7.4.3-11 .6a568 568 0 0 0-17.2 2l.8.2c5.2.4 10.5.9 15.8 1 7.2.3 14.5.2 21.7 0 4.8 0 9.5-.2 14.3-.4l10.5-.4c7.6-.3 15.2-.4 23.4-.6ZM80.2 385.9h77.7c1.7 0 2.3.7 2 2.1-.1.8-.4 1.2-1.4 1.2L46 388.8H2.4c-1 0-2.4.6-2.4-1.4 0-.9.3-1.3 1.2-1.3h79v-.2Z"/>
  <path fill="#000" d="M136.6 192.4c0-3.7.2-7.4 0-11-.1-4.3 1.9-7.2 5-9.5l1.4-.9a4 4 0 0 1 1.6-.8 4.4 4.4 0 0 1 4.8 1.9c1.6 2.1 2.4 4.6 2.4 7.3v23c0 2.3-.3 2.5-2.6 2.8-.8 0-1.7.2-2.5.4-2 1-2 1-2.1-1.4v-22.4c0-2-.4-4.2-.6-6.2 0-.3-.4-.5-.6-.8l-.3 1c0 1.8.3 3.7.3 5.6v23c0 2.1-.4 2.6-2.6 2.8l-1 .1c-3.2.2-3.2.1-3.2-3v-11.8Zm11-3.2v11.9l.5 1.1.7-1.2v-21.5c0-.7 0-1.3-.2-2-.1-.3-.5-.6-.8-1l-.2 1.2v11.5Zm-7.2 2v-11.6l-.2-1.1c-.2.3-.6.7-.6 1l-.2 6.8c0 5.5.2 11 .3 16.4 0 .4.1.7.3 1l.4-1v-11.5ZM54.9 368.4H3.5c-1 0-1.9.3-1.9-1.4 0-1.6.5-1.9 2-1.9l94.6.2h8.5c.8 0 1.8-.2 2 1.2 0 1.4-.4 2-1.8 2l-9.8-.1H54.9ZM149.4 249.9v5.3c0 1.3-.5 1.8-1.7 1.8H140c-1 0-1.7-.3-1.7-1.5.1-6-.4-12.2 2-18l1.2-2.4c1.3-2 2.7-2 4.1 0a19 19 0 0 1 3.8 10.2v4.5Zm-8.5-2.2.4.2v1.8c0 4.1 0 4 4 4.3 1.4.1 1.5-.5 1.5-1.6 0-2.2 0-4.3-.2-6.4-.5-2.5-1.3-5-2.2-7.4-.1-.4-.6-.6-.9-1l-.6 1.2-2 9ZM206.8 252.6c-.3 8-2.7 13.9-8.1 18.2-6.8 5.3-18 3.7-22.3-3.2-2.5-4-4.4-7.9-4.9-12.6-.7-7.8 2.7-13.8 8.2-18.7 2.4-2 5-3.6 7.7-5 1-.5 2-.6 3-.3 8.4 2.7 17.2 14.2 16.4 21.6Zm-5.5 10.2a16 16 0 0 0 2.2-13.2c0-.3-.2-.5-.3-.7l-.1.8c.3 4.5-.2 8.9-1.7 13.2h-.3c-2.8 3.7-5.9 7-10.9 7.6l-.2.3c.2.2.5.5.7.4 5-1 8.7-3.5 10.6-8.4Zm-10-2.7v6.4c0 .6 0 1.1.8.8 4.7-2 9-8.8 8.3-13.9-.2-.5-.5-.9-1-1-2.1 0-4.2.2-6.3.1-1.3 0-1.8.3-1.7 1.7v5.9Zm-4.1 0v-3c0-4.6 0-4.7-4.7-4-1.4.1-3.6-1-4.2.9-.5 1.3.3 3.1.5 4.7 0 .4.2.7.3 1a12.4 12.4 0 0 0 6.1 7.2c1.7.8 2 .6 2-1.3V260Zm-4.2-13.5h1.8c2.3 0 2.2 0 2.3-2.4l.5-8.8-.1-1-.7.4a14.2 14.2 0 0 0-7 8.6c-1.1 3.8-1.1 3.2 2.4 3.2h.8Zm9.3-5.1-.5.1v3c0 1.1.4 1.6 1.5 1.5h5c1.5 0 1.7-.6 1.4-1.8-1.1-4.9-4.4-7.8-8.5-10l-.7.1v.5a904 904 0 0 0 1.8 6.6Zm-5.2 8.3v.1l11.6-.6 1.2-.3-1.3-.2a1337.9 1337.9 0 0 0-20 .9c-2.2.2-2.4.2-2.7-2l-.1-.8-.5.7c-1.7 3.7-1.1 7.4-.2 11.3 0 .2.4.4.6.7l.1-1c-.1-1.9-.4-3.7-.4-5.4 0-2.2.6-2.7 2.7-2.9l9-.5ZM326.6 327v20.2c0 2.8-.1 2.8-3 2.8l-5.7-.1c-2.3 0-2.4-.2-2.4-2.5v-39.8a22 22 0 0 1 3.7-11.6c1.4-1.7 2.1-1.7 3.5 0a17.3 17.3 0 0 1 3.8 11v20Zm-8-2h-.2v19.4c0 2.2 0 2.2 2.2 2.3h1.3c1.5.2 2-.5 2-2v-35.9c-.2-3.3-1-6.4-2.3-9.3-.1-.3-.4-.5-.7-.7-.1.2-.4.3-.4.6-.7 2.3-1.8 4.6-1.8 7-.3 6.2-.2 12.4-.2 18.6ZM363.3 329c0-6.6-.1-13.2.1-19.8.1-2.7.8-5.3 2-7.7 2-3.8 3.6-2.8 5-.2 1.9 3 2.8 6 2.8 9.5v37.8c0 3 0 3-3 3h-4.7c-2.1 0-2.3-.3-2.3-2.4v-20.3h.1Zm6.9-.7v-17a14 14 0 0 0-1.5-6.8l-.8-.9a4 4 0 0 0-.5 1c-.6 2.3-1 4.6-1 7-.2 11.2-.1 22.4-.1 33.7v1.9c0 1 .5 1.4 1.5 1.4 2.2.2 2.4 0 2.4-2.3v-18ZM351.6 328.5v20c0 2.1-.1 2.3-2.2 2.4h-6.1c-1.3 0-1.8-.7-1.8-1.9v-3l.2-37.5c0-2.8.8-5.5 2.3-7.9 1.5-2.6 3.4-2.6 5 0 1.7 2.6 2.5 5.4 2.5 8.4v19.5Zm-7-1.2v18.6c0 .6.2 1.5.6 1.8 2 1 3.5 0 3.5-2.2l-.1-35c0-2.4-1-4.7-1.6-7 0-.3-.4-.5-.6-.7l-.4.7c-.7 2-1.1 4.2-1.4 6.5-.2 5.7 0 11.5 0 17.3ZM244.7 185.7v16.2c0 1.6-.4 2.5-2.1 2.6l-4.4.8c-1 .2-1.3-.3-1.3-1.2V189l-.6-20.2c0-2.2.2-4.3.8-6.4a3.6 3.6 0 0 1 2.2-2.2c.7-.2 2 .7 2.5 1.5a12 12 0 0 1 2.6 7.2v16.8h.3Zm-3 .4v-6l-.1-9.4a3 3 0 0 0-.3-.9l-.7.7a18 18 0 0 0-.6 3.7l-.1 26.1.1 1.3c.2.4.5.6 1 .7l.6-.6V186ZM235.3 189.5v14c0 2.2-.2 2.3-2.2 2l-4-.4c-2.2-.3-2.2-.3-2.2-2.6l.1-27.3c.2-2.2.6-4.3 1.4-6.3.5-1.5 3.7-2.5 5-1.7.5.5.7 1 .8 1.6.3 1 .3 2 .5 3 .3 1.4.5 2.8.6 4.3v13.4Zm-5.2-2.1h-.2V200c0 1-.4 2.3 1.4 2.3 1.8 0 1-1.3 1-2.1v-20.3a41 41 0 0 0-.3-5.6c-.3-1-.7-2.1-1.2-3.1-.4 1-.6 2-.8 3.2v13ZM238.6 245l.3 4.2c0 1.4-.6 2.3-2.2 2.3-2.1-.1-4.2 0-6.4 0-.9 0-1.7-.2-1.7-1.3.2-5-.3-10.1 2-14.8l1-1.9c1.6-2.4 3-2.4 4.4 0 1.6 2.7 2.5 5.5 2.6 8.7v2.7Zm-2.7-.5.3-.1-1.5-6.8-1-1.5-1 1.4c-1 2.8-1 5.8-1.2 8.8 0 1.6.4 2.2 2 2 2.4 0 2.4 0 2.4-2.2v-1.6ZM296.3 323v22.5c0 2.6 0 2.7-2.5 2.7h-6.1c-1.5 0-2.1-.6-2.1-2V301a18.5 18.5 0 0 1 3.3-10.9c1.2-1.8 2.3-2 3.4 0 2.2 3.6 4.2 7.2 4.1 11.7-.1 7.1 0 14.2 0 21.4l-.1-.1Zm-2.8-1.2h-.3V301c0-2.7-1.1-4.9-2.3-7l-.5-.6c-.2.2-.4.3-.4.5-.6 2.7-1.6 5.5-1.6 8.2-.2 13.4-.1 26.8-.1 40.3v1.6l.3.9c1.4.2 2.8.2 4.2 0 .4 0 .6-1.5.6-2.3v-20.8ZM265 187v16c0 .7-.2 1.3-.5 1.9-.8-.3-1.8-.4-2.2-1-.5-.5-.8-.3-1.4-.3-1.9-.1-3.7-.5-5.4-1-.4-.2-.8-1-.8-1.5-.2-1.5-.2-2.9-.2-4.3l.1-24.9a17 17 0 0 1 3.8-10c1.3-1.7 2-1.7 3.4-.1a14.2 14.2 0 0 1 3.1 9.4c.2 5.4 0 10.6 0 16l.1-.1Zm-7.3-.5V200l.1.8.3-.9v-27a3 3 0 0 0-.3-.8l-.2 1 .1 13.5Zm4.5-5V174.8l-.2.9v11.8-.8l.2-5.4ZM263.5 244v6c0 1.9-.3 2.4-2.1 2.4-2 0-3.8-.3-5.7-.6-.7-.3-1-.8-1.2-1.4 0-4.6-.2-9.2.1-13.8.3-2.2 1-4.2 2.3-6.1 1-2 2.5-1.8 3.8 0 1.7 2.2 2.6 4.8 2.8 7.6v6-.1Zm-6.4-2.3h.4v5.7c0 1.3.4 1.9 1.8 1.9 1.6 0 1.4-1.2 1.3-2 0-3 0-6-.3-9-.2-1.4-.6-2.8-1.1-4-.1-.4-.5-.7-.8-1a7 7 0 0 0-.3 1l-1 7.4Z"/>
  <mask id="a" width="6" height="21" x="109" y="103" maskUnits="userSpaceOnUse" style="mask-type:luminance">
    <path fill="#fff" d="M114.6 103.5h-5.3v19.9h5.3v-20Z"/>
  </mask>
  <g mask="url(#a)">
    <mask id="b" width="5" height="5" x="110" y="115" maskUnits="userSpaceOnUse" style="mask-type:luminance">
      <path fill="#fff" d="M110.6 115.4h3.7v4h-3.7v-4Z"/>
    </mask>
    <g mask="url(#b)">
      <path fill="#000" d="M111.2 117.4c0-.3 0-.5.2-.7.2-.2.5-.3.8-.3.4 0 .6 0 .8.3.2.2.3.4.3.7 0 .3 0 .6-.3.8-.2.2-.4.3-.8.3-.3 0-.6-.1-.8-.3a1 1 0 0 1-.2-.8Z"/>
    </g>
  </g>
  <mask id="c" width="6" height="21" x="247" y="143" maskUnits="userSpaceOnUse" style="mask-type:luminance">
    <path fill="#fff" d="M252.6 143.3h-5.2v20h5.2v-20Z"/>
  </mask>
  <g mask="url(#c)">
    <path fill="#000" d="M248.8 158c0-.4.1-.6.4-.8.2-.2.4-.3.7-.3.4 0 .7 0 .9.3.2.2.3.4.3.7 0 .4-.1.6-.3.8-.2.2-.5.3-.9.3-.3 0-.5-.1-.7-.3a1 1 0 0 1-.4-.8Z"/>
  </g>
  <path fill="#000" d="M248.6 393.2c0-.4.2-.7.4-1 .2-.2.6-.3 1-.3.3 0 .7.1 1 .3.2.3.3.6.3 1 0 .3-.1.7-.4.9-.2.2-.6.3-1 .3-.3 0-.7 0-.9-.3-.2-.2-.4-.6-.4-1ZM167.6 255c0-.4.2-.7.4-.9.2-.2.6-.4 1-.4s.7.2 1 .4c.2.2.3.5.3 1 0 .3-.1.6-.4.8-.2.3-.5.4-1 .4-.3 0-.7-.1-.9-.4-.2-.2-.4-.5-.4-.9ZM248.6 141.4c0-.3.2-.6.4-.9.2-.2.6-.3 1-.3s.7 0 1 .3c.2.3.3.6.3 1 0 .3-.1.6-.4.9-.2.2-.5.3-1 .3-.3 0-.7-.1-.9-.3-.2-.3-.4-.6-.4-1Z"/>
</svg>
