<svg xmlns="http://www.w3.org/2000/svg" xmlns:xlink="http://www.w3.org/1999/xlink" version="1.2" viewBox="0 0 1440 810">
  <defs>
    <path id="reuse-0" fill="#fff" d="M0 0h1440v810H0z"/>
  </defs>
  <defs>
    <clipPath id="a">
      <path d="M435 321.1h93V371h-93Zm0 0"/>
    </clipPath>
    <clipPath id="b">
      <path d="M600 486h2v3.1h-2Zm0 0"/>
    </clipPath>
    <clipPath id="c">
      <path d="M606 486h2v3.1h-2Zm0 0"/>
    </clipPath>
    <clipPath id="d">
      <path d="M613 486h2v3.1h-2Zm0 0"/>
    </clipPath>
    <clipPath id="e">
      <path d="M619 486h2v3.1h-2Zm0 0"/>
    </clipPath>
    <clipPath id="f">
      <path d="M714 486h2v3.1h-2Zm0 0"/>
    </clipPath>
    <clipPath id="g">
      <path d="M707 486h2v3.1h-2Zm0 0"/>
    </clipPath>
    <clipPath id="h">
      <path d="M701 486h2v3.1h-2Zm0 0"/>
    </clipPath>
    <clipPath id="i">
      <path d="M694 486h2v3.1h-2Zm0 0"/>
    </clipPath>
    <clipPath id="k">
      <path d="M.5 2h1v1h-1Zm0 0"/>
    </clipPath>
    <clipPath id="j">
      <path d="M0 0h2v4H0z"/>
    </clipPath>
  </defs>
  <use xlink:href="#reuse-0"/>
  <use xlink:href="#reuse-0"/>
  <path fill="#ff9c27" d="M478.7 483.2s-6-51.6 12.5-87.6c0 0 6 4.5 13.5 15.5 0 0 25-10 43 2.5 0 0 7.4-12.5 15-18 0 0 18 68 11 87.6h-95"/>
  <path fill="#ff9c27" d="M573.4 482.6H479a213 213 0 0 1-.6-30v-.8l.3-4v-.9l.3-2.1v-.8a203.3 203.3 0 0 1 .6-5.6c1.7-14 5-29.3 11.7-42.4 1.4 1.1 6.7 5.8 13 15.1l.3.3.2-.1c.1 0 2.5-1 6.3-2h.7c1.3-.4 2.8-.7 4.5-1h.7a63 63 0 0 1 13-.6 42.2 42.2 0 0 1 12 3l.7.3 4.8 2.7.3.3.2-.4c0-.1 7.2-12 14.4-17.6 1 3.4 5.7 22.3 9 42l.2.8a401.9 401.9 0 0 1 1 5.6l.2 2.2.2.8.5 4 .1.8c1.5 12.6 2 24-.2 30.4Zm1-30.9v-.2l-.7-4.6v-.5c-3.5-23.9-10.2-49.4-10.7-51l-.1-.6-.5.3a74.1 74.1 0 0 0-14.8 17.8 32 32 0 0 0-5.3-2.9c-2-.9-4-1.5-6-2h-.2a43 43 0 0 0-13.4-1.1h-.7c-1.8.1-3.4.3-5 .6h-.7c-6 1-10.3 2.6-11.5 3a70 70 0 0 0-13.4-15.4l-.3-.3-.2.4c-18.4 35.8-12.6 87.3-12.6 87.8v.4H574l.1-.3c2.4-6.6 2-18.4.3-31.4"/>
  <path fill="#ff5e00" d="M573.5 451.4a27 27 0 0 1-4 1.4l-.4.2c-.9.2-3.2 1-3.8.4v-.3c0-.5.3-1 .7-1.4.8-.9 1.8-1.4 3-2l.5-.3 3.5-2 .5 4M572.4 443.7a52 52 0 0 1-4.7 1.8l-1.2.4c-1.2.5-2.5.9-2.8 0-.4-.8.6-2 1.5-2.7 1.6-1.3 4-3.1 6.4-4.4l.8 4.9M487 452.9v.3c-.6.6-3 0-3.8-.1l-.5-.1-4.2-1.2.2-4 3.8 1.7.6.3c1.1.5 2.3 1 3.1 1.8.4.3.8.8.9 1.3M488 445.7c-.2.8-1.5.5-2.8.2l-1.2-.4c-1.7-.4-3.3-.9-5-1.5l.5-4.8c2.6 1 5 2.7 6.8 3.8 1 .7 2 1.8 1.8 2.7M542 410.7c0 3.4 0 7.2-1.4 10.5-.2.7-.9 1.8-1.8 1.8-.5 0-1-.3-1.3-.8-.4-.6-.5-1.2-.6-1.8-.7-3.9-.8-7.7-.5-11.6 1.9.5 3.7 1 5.6 1.9M527.8 423.8c-.4.9-1.1 1.8-2 1.7-.3 0-.7-.4-1-.9-1.5-2-1.6-4.7-1.7-7l-.3-10h6.5l.1 1.9c.2 4.8.4 9.9-1.6 14.3M516 422.6c0 .4-.1.7-.3 1-.2.3-.6.4-1 .4-1 0-1.8-.8-2.1-1.6-.4-1-.5-2-.5-3l-.3-10.2 4.5-.9v3.1c0 3.7.1 7.5-.3 11.2"/>
  <path d="M538 459.8a.4.4 0 0 1-.4-.3c0-.2 0-.4.3-.4l19.2-3.3a.4.4 0 0 1 .1.8l-19.2 3.2M538.5 463a.4.4 0 0 1-.4-.3c0-.2.2-.4.4-.4l16.6-1.7c.2 0 .4.1.4.3 0 .2-.1.4-.3.4l-16.7 1.7M538.8 465.6a.4.4 0 0 1 0-.8l14.4-.2c.2 0 .4.1.4.3 0 .2-.2.4-.4.4l-14.4.3M513 460c.1 0 .3-.2.3-.4s-.1-.4-.3-.4l-19.2-3.2c-.2 0-.4 0-.5.3 0 .2.1.4.3.4L513 460M512.4 463.1c.2 0 .3-.1.3-.3 0-.2 0-.4-.3-.4l-16.6-1.7c-.2 0-.4.2-.4.4s0 .4.3.4l16.6 1.6M512.1 465.7c.2 0 .4-.2.4-.4s-.2-.3-.4-.3l-14.4-.3c-.2 0-.4.2-.4.4s.1.4.4.4l14.4.2M500.6 436.7h-.2c-4-2.1-4.4-7-4.4-7.2 0-.2 0-.4.3-.4.2 0 .4.1.4.3 0 0 .5 4.7 4 6.6.3 0 .3.3.2.5l-.3.2M497.6 437.6h-.2c-3.4-2-4-4.5-4-4.6-.1-.2 0-.4.2-.5.2 0 .4 0 .5.3 0 0 .6 2.3 3.7 4a.4.4 0 0 1-.2.8M495.6 439c-2.6-.5-4.3-3.7-4.4-3.8a.4.4 0 1 1 .7-.3s1.6 3 3.8 3.4c.2 0 .3.3.3.5 0 .1-.2.3-.4.3M509.3 446.3c0 .2-.2.3-.4.3a.4.4 0 0 1-.3-.5s.8-4.7-1.2-7v-.2l-.6-.5c-.7-.5-1.6-.8-2.6-.8-1.4 0-2.4.4-3.1 1.2-.4.5-.7 1.1-.9 1.7l-.1.8c-.5 2.3 0 4.8 0 4.8.1.2 0 .4-.2.5a.4.4 0 0 1-.4-.3c0-.2-1.2-5.3 1-8 .9-1 2.1-1.5 3.7-1.5a5 5 0 0 1 3.5 1.4l.3.3c2.2 2.7 1.3 7.6 1.3 7.8"/>
  <path d="M506.8 438.4c-.6 1.2-1.6 2-2.8 2.5-1.2.4-2.7.3-3.8-.4.2-.6.5-1.2.9-1.7.7-.8 1.7-1.2 3-1.2 1.1 0 2 .3 2.7.8"/>
  <path d="M507.5 438.3v.1l-.3.6c-.7 1.1-1.7 2-3 2.5a5 5 0 0 1-4.4-.5.4.4 0 0 1 0-.5c0-.2.3-.2.4 0h.2c1 .6 2.4.8 3.6.3a4.8 4.8 0 0 0 2.8-2.7l.3-.2h.2l.2.4M549.7 436.7c-.1 0-.3 0-.3-.2-.1-.2 0-.4.1-.5 3.6-1.9 4.1-6.5 4.1-6.6a.4.4 0 1 1 .8 0c0 .3-.5 5.2-4.5 7.3h-.2M552.7 437.6l-.3-.2c-.1-.2 0-.4.1-.5 3.1-1.8 3.7-4 3.7-4.1.1-.2.3-.3.5-.3s.3.3.3.5c0 0-.7 2.6-4 4.5h-.3M554.7 439a.4.4 0 0 1-.4-.2c0-.2 0-.4.3-.5 2.2-.4 3.8-3.4 3.8-3.4 0-.2.3-.3.5-.2.2.1.3.3.2.5-.1.1-1.8 3.3-4.4 3.9M550.9 446.3c0 .2-.3.3-.5.3a.4.4 0 0 1-.3-.5s1-4.9-.9-7.3l-.6-.6c-.7-.4-1.5-.6-2.5-.6a4 4 0 0 0-3.2 1.4 6.9 6.9 0 0 0-1 2.3c-.6 2.3-.2 4.8-.2 4.8 0 .2 0 .4-.3.5a.4.4 0 0 1-.4-.3c0-.2-.5-3 .2-5.5v-.3l1-2c1-1 2.3-1.6 4-1.7 1.5 0 2.7.5 3.6 1.6 2.2 2.6 1.1 7.7 1 7.9"/>
  <path d="M548.6 438.2a5.2 5.2 0 0 1-2.9 2.7c-1.2.4-2.6.3-3.7-.3a5 5 0 0 1 .9-1.6 4 4 0 0 1 3.2-1.4c1 0 1.8.2 2.5.6"/>
  <path d="m549.4 438.3-.2.4a5.8 5.8 0 0 1-3.2 2.9 5.3 5.3 0 0 1-4.7-.5l-.1-.3v-.3c.2-.1.4-.2.5 0l.3.1c1.1.6 2.5.7 3.7.3a5.2 5.2 0 0 0 3-2.9c0-.2.3-.2.5-.2.2.1.2.3.2.5M529.2 463a.6.6 0 1 1-1.3 0 .6.6 0 0 1 1.3 0M529.2 466.4a.6.6 0 1 1-1.3 0 .6.6 0 0 1 1.3 0M531 464.7a.6.6 0 1 1-1.2 0 .6.6 0 1 1 1.2 0M521.3 463c0 .4.3.6.7.6.3 0 .6-.2.6-.6 0-.3-.3-.6-.6-.6-.4 0-.7.3-.7.6M521.3 466.4c0 .4.3.6.7.6a.6.6 0 1 0-.7-.6M519.5 464.8a.6.6 0 1 0 1.2 0 .6.6 0 0 0-1.2 0M529.2 454.7c-.2-.4-.6-.7-1-.7l-5.3-.2a1.2 1.2 0 0 0-1 1.9l2.8 4.2v13.5a.4.4 0 0 0 .7 0v-13.5l3.6-4c.3-.3.4-.8.2-1.2"/>
  <path fill="#fbfbfb" d="M493.2 401.6c-.4-.4-1-.4-1.3.1a28.2 28.2 0 0 0-2.2 10.6c0 .3 0 .7.3 1 .4.6 1.2.6 1.9.5 1.5 0 3-.2 4.4-.3.5 0 1 0 1.4-.3.6-.4.8-1.1.8-1.8 0-.6-.4-1.3-.6-1.9-.4-.8-3-5.8-4.7-7.9M559.6 401.6c.4-.4 1-.4 1.3.1 1.4 2.8 2.4 8.2 2.2 10.6 0 .3 0 .7-.3 1-.4.6-1.2.6-1.9.5-1.5 0-3-.2-4.4-.3-.5 0-1 0-1.4-.3-.6-.4-.8-1.1-.8-1.8 0-.6.4-1.3.6-1.9.4-.8 3-5.8 4.7-7.9M502.9 438.8a.6.6 0 1 1-1.2 0 .6.6 0 0 1 1.2 0M545.3 438.8a.6.6 0 1 1-1.2 0 .6.6 0 0 1 1.2 0"/>
  <g clip-path="url(#a)">
    <path fill="#fbfbfb" d="M485.1 322.8c-8.4-.4-19.3-.3-29 3.8a30.8 30.8 0 0 0-18.8 20.9c-.7 3.4-.5 6.6.5 9.2 2.3 6 9 9 12.7 10.2a78.6 78.6 0 0 0 27.2 2.5c6.9-.2 13.9-.5 20.8-.9 6.1-.3 12.4-.6 18-3.2 5.8-2.7 9.6-7.9 9.7-13.2 0-3.1-1.2-6.5-3.8-10.4-3-4.4-12.1-17.8-37.3-19Zm-35 45.3c-4-1.3-11-4.5-13.4-11a17.7 17.7 0 0 1-.6-9.9 32.1 32.1 0 0 1 19.5-21.8c10-4.2 21-4.3 29.6-3.9 25.7 1.1 35.1 15 38.2 19.5 2.8 4 4.1 7.8 4 11.2 0 5.7-4.1 11.3-10.4 14.3-5.8 2.6-12.2 3-18.4 3.3a1033.3 1033.3 0 0 1-28 1c-7.1 0-14-.5-20.5-2.7"/>
  </g>
  <path fill="#fbfbfb" d="M466.3 351h32.3a.6.6 0 0 0 0-1.2h-32.3c-.3 0-.6.3-.6.7 0 .3.3.6.6.6"/>
  <path fill="#fbfbfb" d="M494.2 351a.6.6 0 0 0 .6-1l-8.4-11.3a.6.6 0 0 0-.9-.1c-.3.2-.3.6-.1.8l8.3 11.4.5.3M467 350.8c-3.5-.3-7 1.3-9.8 3.3a14 14 0 0 0-4.3 4.3c-1 1.8-2.3 4.4-1.4 6.2 4-.2 7.3-2.8 10-5 2.6-2.2 4.8-5.4 5.5-8.8-.8-3.4-2.9-6.7-5.5-8.9-2.7-2.2-6-4.7-10-5-.9 2 .4 4.5 1.4 6.3a14 14 0 0 0 4.3 4.3c2.9 2 6.3 3.6 9.8 3.3"/>
  <path fill="#fbfbfb" d="M485.3 360h.3l2.9-2.7 1.6-1.6 3.7-3.9c.3-.3.7-.7.8-1.3 0-.3-.1-.6-.5-.7-.3 0-.6.1-.7.5 0 .2-.2.4-.5.7l-3.6 3.8-1.7 1.7c-.8.8-1.7 1.7-2.7 2.4-.3.3-.4.6-.1 1l.5.2M486.6 351l.4-.2c.3-.2.4-.6.2-.9l-8.2-11a.6.6 0 1 0-1 .7 1751.2 1751.2 0 0 0 8.6 11.3M479.2 351a.6.6 0 0 0 .4-1.2c-1.1-.9-2.3-1.8-3.3-3l-1.5-1.8-3.1-4a.6.6 0 0 0-.9-.1c-.3.2-.3.6-.1.8l3.1 4 1.6 2a31.4 31.4 0 0 0 3.8 3.3"/>
  <path fill="#fbfbfb" d="M469.3 357.4c1.5-.2 2.7-1.1 3.8-2 2-1.4 4-2.8 6-4a.6.6 0 1 0-.7-1.1l-6 4.1a8 8 0 0 1-3.2 1.8c-.4 0-.6.4-.5.7 0 .3.3.5.6.5M477.1 359.2h.4l1.5-1.5.5-.5c1-1 2-1.8 3-2.6 1.6-1.2 3.2-2.4 4.4-4 .2-.3.1-.7-.2-.9a.6.6 0 0 0-.8.2c-1.1 1.4-2.6 2.5-4.1 3.7a27.7 27.7 0 0 0-5 4.5.6.6 0 0 0 .3 1.1M500.8 347.5a1.7 1.7 0 1 1 3.5 0 1.7 1.7 0 0 1-3.5 0Zm-4 12c0 .3.2.6.3.8.5.5 1.3.4 2 .2a83.1 83.1 0 0 0 15.5-6l.7-.5c.5-.5.6-1.4.3-2-.3-.8-.8-1.3-1.3-1.9l-3.1-3.2a60.4 60.4 0 0 0-11.3-9c-2.3-1.5-3 2.3-3 3 0 1.2.3 2.4.5 3.6.6 3.6.5 7.4-.3 11a11 11 0 0 0-.2 4M519 396a3 3 0 0 0-1.1 1c-.3.5-.4 1-.2 1.3 0 .4.5.7 1 1a5 5 0 0 0 1.7.2c.8 0 1.8 0 2.7-.5.6-.3 1.2-1 1.2-1.8 0-.9-1-1.5-1.8-1.6l-1-.1a5 5 0 0 0-2.5.6Zm1.3 4.8a6 6 0 0 1-2.2-.3 3 3 0 0 1-1.7-1.8c-.3-.7-.1-1.6.3-2.3.4-.6 1-1.1 1.7-1.5 1.2-.7 2.8-1 4.3-.7 1.3.3 2.8 1.3 3 2.9 0 1.2-.7 2.5-2 3.1-1 .6-2.1.7-3 .7h-.4M514.8 387a3 3 0 0 0-.4-.3 9 9 0 0 0-4-.6c-.9 0-3.9.3-3.9 2.5 0 1 1.1 2 2.2 2.2 1.6.4 3.6.4 5-.2.8-.3 1.6-1 1.8-1.8.2-.5.2-.9 0-1.3l-.7-.6Zm-6.5 5.1c-1.6-.4-3.2-1.7-3.2-3.5 0-2.3 2-3.7 5.3-3.9 1.8 0 3.3.2 4.5.7l.7.4c.4.3.8.6 1 1 .4.8.5 1.6.2 2.5a4.8 4.8 0 0 1-2.7 2.6 10 10 0 0 1-5.8.2"/>
  <path d="M524.8 474.2c-3.5 0-6.9-1.4-9.1-3.8a.4.4 0 0 1 0-.6h.5c2.2 2.4 5.5 3.8 8.8 3.7a14 14 0 0 0 9-3.7c0-.1.3-.1.4 0 .2.2.2.4 0 .6-2.6 2.4-6 3.8-9.4 3.8h-.2"/>
  <path d="M530.2 476.7h-.3c-1.7-.1-2.2-1.8-2.6-3 0-.2 0-.4.3-.5.2 0 .4 0 .4.3.4 1.3.9 2.4 2 2.5.8 0 1.8-.3 2.2-1 .5-.9-.1-2-.9-2.6a.4.4 0 0 1 .4-.6c1.1.8 1.8 2.3 1.1 3.5-.5 1-1.7 1.4-2.6 1.4"/>
  <path fill="#ffe8cd" d="M955.9 483c5.3-6.3 11-13.4 10.8-21.6-.2-5.8-3.2-11-5.1-16.4-2.2-6.3-2.8-13-1.7-19.6.6-4.3 2-8.6 2-13-.1-6.5-3.4-12.9-8.7-16.6-2.7-1.8-5.7-3-8.8-4a46 46 0 0 0-25-1.8c-2.8.7-5.7 1.9-7.9 4a19.4 19.4 0 0 0-3.9 5.7c-5.6 11.7-7 25.8-15.4 35.7-3.5 4-8 7.4-10.2 12.3-.7 1.6-1.1 3.3-1.4 5a34 34 0 0 0 10.6 30l64.7.2"/>
  <path d="M921.6 426a4.1 4.1 0 1 1-8.2 0 4.1 4.1 0 0 1 8.2 0M929 449.5c-1.3 0-1.3 2 0 2s1.3-2 0-2M928.2 453.8c-1.3 0-1.3 2 0 2 1.2 0 1.2-2 0-2M932.1 451.7c-1.3 0-1.3 2 0 2s1.3-2 0-2M918.4 449c-1.2 0-1.2 2 0 2 1.3 0 1.3-2 0-2M917.9 452.7c-1.3 0-1.3 2 0 2 1.2 0 1.2-2 0-2M914.3 450.3c-1.2 0-1.2 2 0 2 1.3 0 1.3-2 0-2"/>
  <path fill="#e7a776" d="M903.7 457.3a5.6 5.6 0 1 1-11.2 0 5.6 5.6 0 0 1 11.2 0M953.8 459.3a5.6 5.6 0 1 1-11.1 0 5.6 5.6 0 0 1 11.1 0"/>
  <path d="M933.5 444.3c-.2 2.2-4 3.6-8.4 3.2-4.4-.3-7.8-2.4-7.6-4.6.2-2.1 3.9-3.6 8.3-3.2 4.4.3 7.9 2.4 7.7 4.6"/>
  <path fill="#40362b" d="M945.8 419.4a6.7 6.7 0 0 0-6-3.5c-3 .1-5.6 2.2-6.8 5a12 12 0 0 0-.2 8.6 22.7 22.7 0 0 0 9 11.1c1.6.8 3.7 1 5.4.1 1.8-1 2.8-3 3.3-5 1.3-5-2.4-12.4-4.7-16.3M912.7 390c-5.5 1.4-10.4 4.6-15.5 7.2a48.7 48.7 0 0 0-12 8c-3.2 3-6.1 6.5-6.7 10.8-.2 1.4-.1 2.8 0 4.1.3 6.6.8 13.3 3.9 19.1a6.3 6.3 0 0 0 2.6 3c1.8.8 4 0 5.5-1.6 1.4-1.4 2.1-3.4 3-5.3a67.7 67.7 0 0 1 8.7-14.9c1.7-2.2 3.5-4.3 4.6-6.9 1.7-4.3 1-9.4 3.4-13.5 2-3.5 6-5.4 9.3-7.8.5-.3 1-.6 1.1-1.1 1.2-3-6.8-1.3-7.9-1M969.2 402.2c4.4 3.7 7.3 8.9 9.7 14.1 1.9 4 3.5 8.6 2 12.8-.5 1.4-1.3 2.6-2 3.9-2.5 3.9-4.6 8-6.3 12.1-1 2.6-2 5.3-4.2 7.1-2 1.9-5.6 2.3-7.4.1-.6-.6-.9-1.5-1.1-2.3-1-3-1.6-6-1.8-9-.2-2.9-.1-5.7-.7-8.4-.6-2.8-1.8-5.4-2.4-8-1-4.6-.4-9.3-.5-13.9 0-4.6-1-9.6-4.4-12.7-1-1-1.9-3.2-2-4.6 2-2.2 18 6 21.1 8.8"/>
  <path d="M918 458.5c-.4 0-.8 0-1.2-.2a5.3 5.3 0 0 1-3.5-3c-.1-.2 0-.5.2-.6.2 0 .4 0 .5.3a4.5 4.5 0 0 0 3 2.5c1.3.4 2.7 0 3.9-.9 1.4-1 1.9-2.8 2.3-4.5a29.4 29.4 0 0 0 1-6c.1-.1.3-.3.6-.2.2 0 .3.2.3.4a55 55 0 0 0-.3 2c-.2 1.4-.4 2.7-.8 4-.5 1.9-1 3.7-2.6 5-1 .8-2.2 1.2-3.4 1.2"/>
  <path d="M929.2 459.8c-.4 0-.8 0-1.1-.2a5.5 5.5 0 0 1-3.4-2.5c-.9-1.5-.7-6-.5-10.2 0-.2.2-.4.4-.3.3 0 .4.2.4.4-.1 2.7-.4 8.3.4 9.7.6 1 1.7 1.8 2.8 2.1 1.3.3 2.7 0 3.7-.7.5-.3 1.2-1 1.3-2 0-.3.2-.4.4-.4.3 0 .4.2.4.5-.1 1-.7 2-1.6 2.6-.9.6-2 1-3.2 1"/>
  <path d="m922.9 465-1.2-.1c-2.8-.7-5-3.7-4.7-6.8 0-.2.2-.4.4-.4s.4.2.4.5c-.2 2.6 1.7 5.3 4.1 5.9 1.2.2 2.4 0 3.5-.7a6.3 6.3 0 0 0 2.6-4 .4.4 0 0 1 .8 0 7.1 7.1 0 0 1-3 4.7c-.9.6-1.9.9-3 .9M944.9 428a4.1 4.1 0 1 1-8.2 0 4.1 4.1 0 0 1 8.2 0"/>
  <path fill="#e6dcd0" d="m610.8 483.4 2-82.1s37.5-30 91.5 0c0 0 2.3 62 0 82h-93.5"/>
  <path fill="#b39572" d="M692 457.4c-1-4.5-5.4-5.8-9.2-7.3-2.4-1-4.3-2.4-6-4.3-3.3-4.1-5.3-9.4-9.6-12.6a15 15 0 0 0-18.2 0c-4.1 3.5-6.3 8.5-9.7 12.6-1.6 2-3.6 3.4-6 4.3-3.7 1.5-8 2.8-9.2 7.3-1 4 1.2 8.3 4.5 10.3 12.6 7.7 51 5.8 59 0 3-2.3 5.4-6.3 4.5-10.3"/>
  <path d="M643.3 423.4a4.7 4.7 0 1 1-9.4 0 4.7 4.7 0 0 1 9.4 0M682.2 423.4a4.7 4.7 0 1 1-9.3 0 4.7 4.7 0 0 1 9.3 0M664.4 448.8c-1.4 0-1.4 2.2 0 2.2 1.5 0 1.5-2.2 0-2.2M664.7 453.6c-1.5 0-1.5 2.3 0 2.3 1.4 0 1.4-2.3 0-2.3M668.8 450.9c-1.4 0-1.4 2.2 0 2.2 1.5 0 1.5-2.2 0-2.2M651.4 448.5c-1.4 0-1.4 2.3 0 2.3 1.5 0 1.5-2.3 0-2.3M651.7 453.3c-1.5 0-1.5 2.2 0 2.2 1.4 0 1.4-2.2 0-2.2M647.3 451.8c-1.4 0-1.4 2.3 0 2.3 1.5 0 1.5-2.3 0-2.3"/>
  <path fill="#40270a" d="M678 392.2c3.5 9.4 15.3 39.4 27.7 45.6 0 0 13.3-7.2 8.7-37.6-1.5-10-25.8-10.9-34.4-10.9a2.1 2.1 0 0 0-2 2.9M638.7 392.2c-3.5 9.4-15.3 39.4-27.7 45.6 0 0-13.3-7.2-8.8-37.6 1.6-10 25.9-10.9 34.5-10.9 1.5 0 2.5 1.5 2 2.9"/>
  <path d="M652 437.8c-.8.5-1.5 1.7-1.5 2.6-.1 2.2 2 4.4 3.6 5.8 1.3 1.2 2.5 2.3 4.1 3.5.2.1 4-3.3 4.6-3.9 2-1.6 5.2-5.2 2.7-7.6-2.2-2.2-11.2-2.4-13.5-.4M632 417a.5.5 0 0 1-.4-.9 12 12 0 0 1 9.3-3.6c.3 0 .5.3.4.6 0 .2-.2.5-.5.4-2.9-.2-6.4 1.2-8.4 3.4l-.4.2M684.1 415.9c-.1 0-.3 0-.4-.2a11 11 0 0 0-8.3-3.3.5.5 0 0 1-.6-.5c0-.3.2-.6.5-.6a12 12 0 0 1 9.2 3.7.5.5 0 0 1-.4.9"/>
  <path d="M643.9 463.5c-3.6 0-6-1-7-3-.2-.3-.1-.5.1-.6.2-.1.4 0 .6.1 1.3 2.3 4.6 3.1 9.8 2.4 4.2-.6 7-2.1 8.6-4.7a16 16 0 0 0 2-9c0-.3.1-.5.3-.5.3 0 .4.2.4.4.2 4-.5 7.1-2 9.5-1.7 2.8-4.7 4.4-9.2 5-1.3.3-2.5.4-3.6.4"/>
  <path d="M669.7 462.7h-.9c-1.4-.1-6.1-.6-8.6-3.8a14.5 14.5 0 0 1-2.2-9c0-.3.2-.5.4-.4.2 0 .4.2.4.4-.1 2 0 5.8 2 8.5 1.8 2.3 5.4 3.3 8 3.4 4.4.2 9-1.2 12-3.8h.6v.6c-3 2.6-7.4 4-11.7 4"/>
  <path fill="#fbfbfb" d="M842 482.6c0-1.1 2.6-43.6 24.1-79 0 0-15.4-4.7-31 9.1 0 0-14-12.4-45.2-10 0 0 3.8-14.6 0-22 0 0-46.3 10.5-33.2 102.1l85.3-.2"/>
  <path d="M865.7 403.5a34.5 34.5 0 0 0-30.6 9.2c-.1 0-14.4-12.4-45.2-10 0-.1 3.7-14.4.1-21.9l-.1-.2h-.2c-2 .6-12.3 4-21.3 16.8-6.4 9-14 26-14 55.1v.3h.3c6.6.7 17.7-2.1 23.5-5.1 5.5-2.8 20.5-16.5 23.6-21.5.1-.2.3-.3.5-.2.2 0 .3.2.3.4-.7 11.1 6.6 22.7 17.8 28.3a51.1 51.1 0 0 0 24.9 5.3h.2v-.2c3-14.9 8.8-36.6 20.4-55.9l.2-.3h-.4"/>
  <path fill="#fbfbfb" d="M779.7 427.9a4.6 4.6 0 1 1-9.1 0 4.6 4.6 0 0 1 9 0M832.3 436.3a4.6 4.6 0 1 1-9.2 0 4.6 4.6 0 0 1 9.2 0"/>
  <path d="M797 457.6c-1.5 0-1.5 2.2 0 2.2 1.4 0 1.4-2.2 0-2.2M795.6 463.2c-1.4 0-1.4 2.2 0 2.2s1.4-2.2 0-2.2M799.9 461.5c-1.4 0-1.4 2.2 0 2.2s1.4-2.2 0-2.2M788.7 456c-1.4 0-1.4 2.1 0 2.1s1.4-2.2 0-2.2M787.6 461.7c-1.4 0-1.4 2.1 0 2.1s1.4-2.1 0-2.1M785.2 458.3c-1.4 0-1.4 2.1 0 2.1s1.4-2.1 0-2.1"/>
  <path fill="#fbfbfb" d="M782 402.7a41 41 0 0 0 4.3-15.9 39.2 39.2 0 0 0-13.7 15.9h9.4M848 422.2c3.6-5.7 6.3-9.3 8.5-14-10.5 1-14.7 9.8-14.5 10.3l6 3.7"/>
  <path d="M792 470.7h-1.5a12 12 0 0 1-8.7-7.1c0-.2 0-.5.2-.6.2 0 .5 0 .6.2 1.6 3.6 4.7 6.2 8 6.6 3.4.5 8-1 10.7-3.7h.6v.6c-2.6 2.5-6.6 4-10 4M797.8 444.7c-2.1 2-4 3.9-5.5 6.2-.2.3 0 .7.2.8 2 .6 4 1.2 6.1 1.3.4 0 .6-.3.6-.6-.2-2.5.1-4.8-.5-7.4 0-.4-.6-.6-.9-.3"/>
  <path d="M790.8 470.5a.4.4 0 0 1-.4-.5c.1-4 2-14 5.2-19.1 0-.2.3-.3.5-.2.2.1.3.4.1.6-3 5-4.9 14.9-5 18.8 0 .2-.2.4-.4.4M745.3 432a.3.3 0 0 1-.3-.3l.3-2.6c0-.1.1-.2.3-.2.1 0 .2.1.2.3l-.2 2.5c0 .2-.2.3-.3.3M732.3 435.1h-.3l-1.7-2.7.1-.3c.1-.1.3 0 .4 0l1.7 2.6-.1.4h-.1M727.1 447l-3-.5a.3.3 0 0 1-.3-.3l.3-.2 3 .5c.2 0 .3.1.3.3 0 .1-.1.2-.3.2M756.4 437.6h-.2v-.5l2.9-2 .4.1-.1.4-2.8 2h-.2"/>
  <path fill="#fbfbfb" d="M743.1 482.7c0-7.1-.5-14.2-1.8-21.2a13 13 0 0 0-1.7-5.2c-2.2-3.1-6.4-3.8-9.9-5.5-1.6-.9-3.3-2.4-2.7-4.3.3-.7.9-1.3 1.6-1.7 1.6-.7 3.3-.3 4.9.1a14.9 14.9 0 0 1-2.8-5c-.5-1.8 0-4 1.4-5.2 1.6-1.2 4.5-1 5.8.5a16 16 0 0 1 3.1 5.4c.2-2.2-.6-5.6.6-7.3 1.6-2.3 5.6-3.6 6.7.2.7 2.6 0 5.7-.9 8.1 1-3 3.7-5.4 6.8-6 1.1-.3 2.3 0 3 .7 1.5 1.4.9 3.2-.2 4.4-.8.9-1.8 1.6-2.7 2.4-2.8 3-2.9 7.4-2.6 11.4.5 9.5 2.2 19 4.8 28.2"/>
  <path d="M756.2 482.8c-2.6-9.2-4.2-18.7-4.8-28.3-.2-4-.1-8.6 2.7-11.6l1.3-1.1 1.4-1.3c1-1 1.6-2.8.3-4-.7-.7-1.8-1-2.8-.7-3 .7-5.6 3-6.6 6l-.5-.2c.8-2.3 1.5-5.5.8-8-.4-1.3-1.1-2-2.1-2.2-1.4-.2-3.1.7-4 2-.8 1.1-.7 3-.6 4.7v2.5l-.1 1.2-.4-1.1c-1-2.8-2-4-3.1-5.4-1.2-1.3-4-1.6-5.4-.4-1.5 1.1-1.7 3.3-1.3 5 .4 1.8 1.6 3.4 2.7 4.9l.4.5-.7-.1c-1.5-.4-3.1-.8-4.7-.1-.7.3-1.2.9-1.4 1.5-.7 2 1.8 3.5 2.6 4l3 1.2c2.6 1 5.3 2 6.9 4.4a13 13 0 0 1 1.8 5.2c1.2 7 1.8 14.2 1.8 21.3h-.6c.1-7-.5-14.2-1.8-21.2-.3-1.8-.7-3.6-1.7-5-1.5-2.2-4-3.1-6.6-4.2a38 38 0 0 1-3-1.3c-2.4-1.2-3.5-2.9-3-4.6.3-.8 1-1.4 1.8-1.8 1.5-.6 3-.4 4.3-.1-1-1.4-2-2.8-2.4-4.5-.4-1.8-.1-4.2 1.6-5.5 1.7-1.4 4.7-1.1 6 .5 1 1.1 1.9 2.2 2.8 4.2v-1c-.2-1.9-.3-3.8.6-5 1-1.6 3-2.6 4.6-2.3.8.1 2 .7 2.5 2.6.5 1.7.4 3.8 0 5.6 1.3-1.9 3.4-3.3 5.6-3.8 1.3-.3 2.5 0 3.4.8 1.5 1.4 1 3.4-.3 4.8-.4.5-1 .9-1.5 1.3l-1.2 1.1c-2.7 2.8-2.8 7.2-2.6 11.2.6 9.5 2.2 19 4.8 28.1l-.5.2"/>
  <path fill="#e7a776" d="M741.1 444.3V445.6c-.2 1-.4 1.7-1.3 2.4-2 1.7-2.3 4-.3 4.6 1.4.5 3 .2 4.4 0 1.4-.3 2.9-.7 4-1.6.5-.5 1-1.2 1-2-.2-1.1-1.4-1.7-2.5-2-1.1-.3-2.3-.6-3-1.5l-.6-1c-.2-.4-.5-.7-.9-.8-.2 0-.4 0-.6.2l-.2.4M736.7 439a1.6 1.6 0 1 1-3.3 0 1.6 1.6 0 0 1 3.3 0M747 435.8a1.5 1.5 0 1 1-3.1 0 1.5 1.5 0 0 1 3 0M755.3 439.3a1.3 1.3 0 1 1-2.5 0 1.3 1.3 0 0 1 2.5 0M731.8 447.8a1.3 1.3 0 1 1-2.5 0 1.3 1.3 0 0 1 2.5 0"/>
  <path fill="#3f3429" d="M1007 483.5H433v-1.1h574v1"/>
  <path fill="#fbfbfb" d="m483 485.4.6 2.5.7-2.7ZM468.3 485.6l.6 2.5.8-2.7ZM476 485l.8 3.4 1-3.6Zm0 0"/>
  <path fill="#ff9c27" d="M466 479a7 7 0 0 0-.5 3.4l.3 1.5c.4 1 1.3 1.9 2.4 2.2 1 .2 2.3 0 3.1-.7 1-.8 1.4-2 1.7-3.1a7 7 0 0 0 0-3.2c-.3-1-1-2-1.9-2.5-1-.5-3.7-.5-5.1 2.5"/>
  <path fill="#ff5e00" d="M469.9 476.6c-.4 0-.8 0-1.2.2-.8.3-1.8.9-2.4 2.4-.4.9-.6 2-.5 3.1 0 .7.1 1.1.3 1.5.3 1 1.2 1.7 2.2 2 1 .3 2 0 2.9-.7a5 5 0 0 0 1.5-2.9c.3-1.1.3-2.2 0-3-.2-1-.9-2-1.7-2.4l-1.1-.2Zm-.8 9.8a3.8 3.8 0 0 1-3.5-2.4l-.4-1.6c0-1.3.1-2.5.6-3.4.7-1.7 1.9-2.4 2.7-2.7 1.1-.4 2.2-.3 2.8 0 1 .5 1.6 1.5 2 2.7.2 1 .2 2.1 0 3.4a5.6 5.6 0 0 1-1.8 3.2c-.7.5-1.6.8-2.4.8"/>
  <path fill="#ff9c27" d="m473.1 477.7-.3 2.4c0 1.4.2 2.9 1 4 .7 1.2 2.1 2 3.5 1.7 1-.2 2-1.1 2.4-2.2.8-1.8 1-4.7.1-6.5-.8-1.8-2.5-2.7-4.3-2-.4.1-2 .8-2.4 2.6"/>
  <path fill="#ff5e00" d="M476.7 475.2c-.4 0-.8 0-1.1.2-.6.1-1.8.8-2.2 2.4-.2.7-.4 1.5-.4 2.3 0 1.7.3 3 1 3.9.7 1.2 2 1.8 3.2 1.6 1-.2 1.8-1 2.3-2 .8-2 .9-4.7 0-6.4-.5-1.3-1.6-2-2.8-2Zm0 11a4 4 0 0 1-3.2-2c-.7-1-1-2.3-1-4 0-1 .2-1.8.3-2.6a4 4 0 0 1 2.6-2.8c1.9-.6 3.7.2 4.7 2.2.8 1.8.8 4.7-.1 6.7a4 4 0 0 1-2.7 2.4h-.6"/>
  <path fill="#ff9c27" d="M486.5 477a3.4 3.4 0 0 0-5.6.5c-1 2-1.2 4.4-.2 6.5.3.6.7 1.2 1.3 1.6 1.2.7 2.9.4 4-.6 1-.9 1.4-2.3 1.6-3.7a6.2 6.2 0 0 0-1-4.4"/>
  <path fill="#ff5e00" d="M483.9 476h-.3c-1 0-2 .6-2.5 1.6a7 7 0 0 0-.1 6.3c.3.7.7 1.1 1.2 1.4 1 .7 2.5.5 3.5-.5.9-.7 1.5-2 1.6-3.5.2-1.7-.2-3.1-1-4.2l.2-.2-.2.2a3 3 0 0 0-2.4-1.2Zm-.4 10.2a3 3 0 0 1-1.6-.4 4 4 0 0 1-1.4-1.7c-1-2-1-4.6.1-6.8a3.6 3.6 0 0 1 3-2c1.2 0 2.4.5 3.2 1.5a6.4 6.4 0 0 1 1 4.5 6 6 0 0 1-1.7 4c-.7.6-1.7 1-2.6 1"/>
  <path fill="#fbfbfb" d="m584.7 486-.6 2.6-.7-2.7ZM570 485.8l-.6 2.5-.7-2.7ZM577 485.4l-.8 3.4-1-3.6Zm0 0"/>
  <path fill="#ff9c27" d="M587 479.5a7 7 0 0 1 .2 4.9c-.4 1-1.3 1.8-2.4 2-1 .4-2.3 0-3.1-.6-1-.8-1.4-2-1.7-3a7 7 0 0 1 0-3.3c.3-1 1-2 1.9-2.5 1-.5 3.8-.5 5.1 2.5"/>
  <path fill="#ff5e00" d="m583.1 477-1 .2c-1 .5-1.6 1.3-1.8 2.4-.3.9-.2 1.9 0 3 .3 1.4.8 2.4 1.5 3 .8.6 2 .9 3 .6 1-.2 1.8-1 2.1-2 .2-.3.3-.8.3-1.4.1-1.3 0-2.3-.4-3.2a4.1 4.1 0 0 0-2.5-2.4l-1.2-.2Zm.8 9.9c-.8 0-1.7-.3-2.4-1a5.6 5.6 0 0 1-1.7-3.1 7.2 7.2 0 0 1 0-3.4c.3-1.2 1-2.1 2-2.6.5-.3 1.6-.5 2.7 0 .8.2 2 .9 2.8 2.6a7.2 7.2 0 0 1 .1 5 3.9 3.9 0 0 1-3.5 2.5"/>
  <path fill="#ff9c27" d="m579.9 478.1.4 2.4c0 1.4-.2 2.9-1 4-.8 1.2-2.2 2-3.6 1.7-1-.2-2-1.1-2.4-2.2-.8-1.8-1-4.6-.1-6.5.8-1.7 2.5-2.6 4.3-2 .4.2 2 .8 2.4 2.6"/>
  <path fill="#ff5e00" d="M576.3 475.6c-1.2 0-2.2.7-2.9 2a8.5 8.5 0 0 0 .1 6.3c.5 1.1 1.3 1.9 2.3 2 1.1.3 2.5-.3 3.3-1.5.6-1 .9-2.2.9-3.9 0-.8-.2-1.6-.4-2.3a3.4 3.4 0 0 0-2.2-2.4c-.3-.2-.7-.2-1-.2Zm0 11h-.6a4 4 0 0 1-2.7-2.5c-.9-2-.9-4.9 0-6.7.9-2 2.7-2.8 4.6-2.1.6.2 2.1.9 2.6 2.7l.3 2.5c0 1.8-.3 3.2-1 4.2a4 4 0 0 1-3.2 1.9"/>
  <path fill="#ff9c27" d="M566.5 477.4c1.4-2 4.5-1.7 5.6.5 1 2 1.2 4.5.2 6.5-.3.6-.7 1.2-1.3 1.6-1.2.7-2.9.4-3.9-.5-1-1-1.5-2.4-1.7-3.8-.1-1.5.1-3 1-4.3"/>
  <path fill="#ff5e00" d="m566.5 477.4.2.2a6 6 0 0 0-1 4c.1 1.1.5 2.6 1.6 3.7 1 .9 2.5 1.1 3.5.5.5-.3.9-.8 1.2-1.5a7 7 0 0 0-.1-6.3 3 3 0 0 0-2.5-1.6c-1-.1-2 .3-2.7 1.1Zm3 9.3c-1 0-1.9-.4-2.6-1a6 6 0 0 1-1.7-4c-.2-1.7.2-3.3 1-4.5.8-1 2-1.5 3.2-1.4 1.3.1 2.4.8 3 2a7.6 7.6 0 0 1 .1 6.7 4 4 0 0 1-1.4 1.7 3 3 0 0 1-1.6.5"/>
  <path fill="#ffe8cd" d="m878 483.5.3 1.6.2-1.6h-.5"/>
  <path fill="#625443" d="M878.3 485.5c-.2 0-.3-.2-.3-.3v-.1a26 26 0 0 0-.2-1.6c0-.2 0-.3.2-.3h.7v.3l-.1 1.6v.1c0 .2-.2.3-.3.3"/>
  <path fill="#ffe8cd" d="m883.4 483.6.2 1.7.2-1.7h-.4"/>
  <path fill="#625443" d="M883.6 485.5a.3.3 0 0 1-.3-.2l-.2-1.6v-.1c0-.1.1-.3.3-.3h.4l.2.1.1.3-.2 1.6-.3.2"/>
  <path fill="#ffe8cd" d="m888.8 483.6.2 1.7.2-1.7h-.4"/>
  <path fill="#625443" d="M889 485.5a118.3 118.3 0 0 0-.5-2s.1-.2.3-.2h.4l.2.1.1.3-.2 1.6-.3.2"/>
  <path fill="#ffe8cd" d="m894 483.6.2 1.7.2-1.7h-.5"/>
  <path fill="#625443" d="M894.2 485.5a.3.3 0 0 1-.3-.2l-.2-1.6v-.1l.2-.3h.5l.2.1v.3l-.2 1.6c0 .1 0 .2-.2.2"/>
  <path fill="#ffe8cd" d="M880.8 479.5c0 2.2-1.2 4-2.5 4-1.4 0-2.5-1.8-2.5-4s1.1-4 2.5-4c1.3 0 2.5 1.8 2.5 4"/>
  <path fill="#625443" d="M878.3 475.8c-1.2 0-2.2 1.7-2.2 3.7s1 3.7 2.2 3.7c1.2 0 2.2-1.6 2.2-3.7 0-2-1-3.7-2.2-3.7Zm0 8c-1.5 0-2.8-2-2.8-4.3s1.3-4.2 2.8-4.2c1.5 0 2.7 1.9 2.7 4.2 0 2.4-1.2 4.3-2.7 4.3"/>
  <path fill="#ffe8cd" d="M886.3 479.2c0 2.4-1.3 4.3-2.7 4.3-1.5 0-2.8-2-2.8-4.3 0-2.4 1.3-4.3 2.8-4.3 1.4 0 2.6 1.9 2.6 4.3"/>
  <path fill="#625443" d="M883.6 475.2c-1.4 0-2.5 1.8-2.5 4s1.1 4 2.5 4c1.3 0 2.4-1.8 2.4-4s-1.1-4-2.4-4Zm0 8.6c-1.7 0-3-2-3-4.6 0-2.5 1.3-4.6 3-4.6 1.6 0 3 2 3 4.6 0 2.5-1.4 4.6-3 4.6"/>
  <path fill="#ffe8cd" d="M891.7 479.2c0 2.4-1.3 4.3-2.7 4.3-1.5 0-2.8-2-2.8-4.3 0-2.4 1.3-4.3 2.8-4.3 1.4 0 2.7 1.9 2.7 4.3"/>
  <path fill="#625443" d="M889 475.2c-1.4 0-2.5 1.8-2.5 4s1.1 4 2.5 4c1.3 0 2.4-1.8 2.4-4s-1.1-4-2.4-4Zm0 8.6c-1.7 0-3-2-3-4.6 0-2.5 1.3-4.6 3-4.6 1.6 0 3 2 3 4.6 0 2.5-1.4 4.6-3 4.6"/>
  <path fill="#ffe8cd" d="M896.6 479.5c0 2.2-1.1 4-2.5 4-1.3 0-2.5-1.8-2.5-4s1.2-4 2.5-4c1.4 0 2.5 1.8 2.5 4"/>
  <path fill="#625443" d="M894.1 475.8c-1.2 0-2.2 1.7-2.2 3.7s1 3.7 2.2 3.7c1.3 0 2.2-1.6 2.2-3.7 0-2-1-3.7-2.2-3.7Zm0 8c-1.5 0-2.7-2-2.7-4.3s1.2-4.2 2.7-4.2c1.6 0 2.8 1.9 2.8 4.2 0 2.4-1.2 4.3-2.8 4.3"/>
  <path fill="#ffe8cd" d="m967.5 484.4-.3 1.6-.2-1.6h.5"/>
  <path fill="#625443" d="M967.2 486.4a.3.3 0 0 1-.3-.3v-.1l-.2-1.6v-.2l.3-.1h.5l.2.2v.2l-.2 1.5c0 .2 0 .4-.3.4"/>
  <path fill="#ffe8cd" d="m962.1 484.5-.2 1.7-.2-1.7h.4"/>
  <path fill="#625443" d="M961.9 486.4a.3.3 0 0 1-.3-.2l-.2-1.7v-.2h.7c.2 0 .3 0 .3.2a537.5 537.5 0 0 0-.5 2"/>
  <path fill="#ffe8cd" d="m956.7 484.5-.2 1.7-.3-1.7h.5"/>
  <path fill="#625443" d="M956.5 486.4a.3.3 0 0 1-.3-.2l-.2-1.7v-.2h.7c.2 0 .3 0 .3.2l-.2 1.7-.3.2"/>
  <path fill="#ffe8cd" d="m951.6 484.5-.3 1.7-.2-1.7h.5"/>
  <path fill="#625443" d="M951.3 486.4a.3.3 0 0 1-.3-.2l-.2-1.7v-.2h.8c.1 0 .2 0 .2.2l-.2 1.7-.3.2"/>
  <path fill="#ffe8cd" d="M964.7 480.4c0 2.2 1.1 4 2.5 4s2.5-1.8 2.5-4-1.1-4-2.5-4-2.5 1.8-2.5 4"/>
  <path fill="#625443" d="M967.2 476.7c-1.2 0-2.2 1.7-2.2 3.7s1 3.7 2.2 3.7c1.2 0 2.2-1.7 2.2-3.7s-1-3.7-2.2-3.7Zm0 8c-1.5 0-2.7-2-2.7-4.3s1.2-4.2 2.7-4.2c1.5 0 2.8 1.9 2.8 4.2 0 2.4-1.3 4.2-2.8 4.2"/>
  <path fill="#ffe8cd" d="M959.2 480c0 2.4 1.3 4.4 2.7 4.4 1.5 0 2.7-2 2.7-4.3 0-2.4-1.2-4.3-2.7-4.3-1.4 0-2.7 1.9-2.7 4.3"/>
  <path fill="#625443" d="M962 476c-1.4 0-2.5 1.8-2.5 4 0 2.3 1.1 4.1 2.4 4.1 1.4 0 2.5-1.8 2.5-4 0-2.3-1.1-4-2.5-4Zm0 8.6c-1.7 0-3-2-3-4.5s1.3-4.6 3-4.6c1.6 0 3 2 3 4.6 0 2.5-1.4 4.5-3 4.5"/>
  <path fill="#ffe8cd" d="M953.8 480c0 2.4 1.2 4.4 2.7 4.4 1.5 0 2.7-2 2.7-4.3 0-2.4-1.2-4.3-2.7-4.3-1.5 0-2.7 1.9-2.7 4.3"/>
  <path fill="#625443" d="M956.5 476c-1.3 0-2.4 1.8-2.4 4 0 2.3 1.1 4.1 2.4 4.1 1.4 0 2.5-1.8 2.5-4 0-2.3-1.1-4-2.5-4Zm0 8.6c-1.6 0-3-2-3-4.5s1.4-4.6 3-4.6c1.7 0 3 2 3 4.6 0 2.5-1.3 4.5-3 4.5"/>
  <path fill="#ffe8cd" d="M948.9 480.4c0 2.2 1 4 2.5 4 1.3 0 2.5-1.8 2.5-4s-1.2-4-2.5-4c-1.4 0-2.5 1.8-2.5 4"/>
  <path fill="#625443" d="M951.4 476.7c-1.3 0-2.3 1.7-2.3 3.7s1 3.7 2.3 3.7c1.2 0 2.2-1.7 2.2-3.7s-1-3.7-2.2-3.7Zm0 8c-1.6 0-2.8-2-2.8-4.3s1.2-4.2 2.8-4.2c1.5 0 2.7 1.9 2.7 4.2 0 2.4-1.2 4.2-2.7 4.2"/>
  <path fill="#ffe8cd" d="m600.6 486.8.3 2 .3-2h-.6"/>
  <g clip-path="url(#b)">
    <path fill="#40270a" d="M600.9 489.1a80.9 80.9 0 0 0-.6-2.3l.3-.2h.8v.3l-.2 2-.3.2"/>
  </g>
  <path fill="#ffe8cd" d="m607 486.7.3 2 .3-2h-.6"/>
  <g clip-path="url(#c)">
    <path fill="#40270a" d="M607.3 489a118.4 118.4 0 0 0-.6-2.3l.3-.2h.8v.3l-.2 2-.3.2"/>
  </g>
  <path fill="#ffe8cd" d="m613.6 486.7.3 2 .3-2h-.6"/>
  <g clip-path="url(#d)">
    <path fill="#40270a" d="M613.9 489a118.4 118.4 0 0 0-.6-2.3l.3-.2h.8v.3l-.2 2-.3.2"/>
  </g>
  <path fill="#ffe8cd" d="m620 486.7.2 2 .3-2h-.6"/>
  <g clip-path="url(#e)">
    <path fill="#40270a" d="M620.2 489c-.2 0-.2 0-.3-.2a118.4 118.4 0 0 0-.3-2c0-.2.2-.3.3-.3h.8v.3l-.2 2-.3.2"/>
  </g>
  <path fill="#ffe8cd" d="M604 482c0 2.7-1.4 4.9-3.1 4.9-1.7 0-3-2.2-3-4.9 0-2.6 1.3-4.8 3-4.8s3 2.2 3 4.8"/>
  <path fill="#40270a" d="M600.9 477.5c-1.5 0-2.8 2-2.8 4.5s1.3 4.6 2.8 4.6c1.5 0 2.8-2 2.8-4.6 0-2.5-1.3-4.5-2.8-4.5Zm0 9.6c-1.8 0-3.3-2.3-3.3-5 0-2.9 1.5-5.2 3.3-5.2 1.8 0 3.3 2.3 3.3 5.1s-1.5 5.1-3.3 5.1"/>
  <path fill="#ffe8cd" d="M610.6 481.6c0 3-1.5 5.3-3.3 5.3-1.8 0-3.3-2.4-3.3-5.3s1.5-5.2 3.3-5.2c1.8 0 3.3 2.3 3.3 5.2"/>
  <path fill="#40270a" d="M607.3 476.6c-1.6 0-3 2.3-3 5 0 2.8 1.4 5 3 5 1.7 0 3-2.2 3-5 0-2.7-1.3-5-3-5Zm0 10.5c-2 0-3.5-2.4-3.5-5.5 0-3 1.6-5.5 3.5-5.5 2 0 3.6 2.5 3.6 5.5s-1.6 5.5-3.6 5.5"/>
  <path fill="#ffe8cd" d="M617.2 481.6c0 3-1.5 5.3-3.3 5.3-1.8 0-3.3-2.4-3.3-5.3s1.5-5.2 3.3-5.2c1.8 0 3.3 2.3 3.3 5.2"/>
  <path fill="#40270a" d="M613.9 476.6c-1.7 0-3 2.3-3 5 0 2.8 1.3 5 3 5s3-2.2 3-5c0-2.7-1.3-5-3-5Zm0 10.5c-2 0-3.6-2.4-3.6-5.5 0-3 1.6-5.5 3.6-5.5s3.6 2.5 3.6 5.5-1.6 5.5-3.6 5.5"/>
  <path fill="#ffe8cd" d="M623.2 482c0 2.7-1.3 4.9-3 4.9s-3-2.2-3-4.9c0-2.6 1.3-4.8 3-4.8s3 2.2 3 4.8"/>
  <path fill="#40270a" d="M620.2 477.5c-1.5 0-2.8 2-2.8 4.5s1.3 4.6 2.8 4.6c1.5 0 2.8-2 2.8-4.6 0-2.5-1.3-4.5-2.8-4.5Zm0 9.6c-1.8 0-3.3-2.3-3.3-5 0-2.9 1.5-5.2 3.3-5.2 1.8 0 3.3 2.3 3.3 5.1s-1.5 5.1-3.3 5.1"/>
  <path fill="#ffe8cd" d="m715 486.8-.3 2-.3-2h.6"/>
  <g clip-path="url(#f)">
    <path fill="#40270a" d="M714.7 489.1c.1 0 .2 0 .3-.2a140.4 140.4 0 0 1 .3-2c0-.2-.2-.3-.3-.3h-.8v.3l.2 2 .3.2"/>
  </g>
  <path fill="#ffe8cd" d="m708.6 486.7-.3 2-.3-2h.6"/>
  <g clip-path="url(#g)">
    <path fill="#40270a" d="M708.3 489c.1 0 .2 0 .2-.2a118.4 118.4 0 0 1 .3-2c0-.2-.1-.3-.2-.3h-.8v.3l.2 2c0 .1.1.2.3.2"/>
  </g>
  <path fill="#ffe8cd" d="m702 486.7-.3 2-.3-2h.6"/>
  <g clip-path="url(#h)">
    <path fill="#40270a" d="M701.7 489c.1 0 .2 0 .3-.2a118.4 118.4 0 0 1 .2-2c0-.2 0-.3-.2-.3h-.8v.3l.2 2 .3.2"/>
  </g>
  <path fill="#ffe8cd" d="m695.7 486.7-.3 2-.3-2h.6"/>
  <g clip-path="url(#i)">
    <path fill="#40270a" d="M695.4 489c.1 0 .2 0 .2-.2a118.4 118.4 0 0 1 .3-2c0-.2 0-.3-.2-.3h-.8v.3l.2 2c0 .1.1.2.3.2"/>
  </g>
  <path fill="#ffe8cd" d="M711.7 482c0 2.7 1.3 4.9 3 4.9s3-2.2 3-4.9c0-2.6-1.3-4.8-3-4.8s-3 2.2-3 4.8"/>
  <path fill="#40270a" d="M712 482c0 2.5 1.2 4.6 2.7 4.6 1.5 0 2.8-2 2.8-4.6 0-2.5-1.3-4.5-2.8-4.5-1.5 0-2.8 2-2.8 4.5Zm-.6 0c0-2.8 1.5-5 3.3-5 1.8 0 3.3 2.2 3.3 5s-1.5 5.1-3.3 5.1c-1.8 0-3.3-2.3-3.3-5"/>
  <path fill="#ffe8cd" d="M705 481.6c0 3 1.4 5.3 3.3 5.3 1.8 0 3.3-2.4 3.3-5.3s-1.5-5.2-3.3-5.2c-1.9 0-3.3 2.3-3.3 5.2"/>
  <path fill="#40270a" d="M705.2 481.6c0 2.8 1.4 5 3 5 1.7 0 3-2.2 3-5 0-2.7-1.3-5-3-5-1.6 0-3 2.3-3 5Zm-.5 0c0-3 1.6-5.5 3.6-5.5s3.5 2.5 3.5 5.5-1.6 5.5-3.5 5.5c-2 0-3.6-2.4-3.6-5.5"/>
  <path fill="#ffe8cd" d="M698.4 481.6c0 3 1.5 5.3 3.3 5.3 1.8 0 3.3-2.4 3.3-5.3s-1.5-5.2-3.3-5.2c-1.8 0-3.3 2.3-3.3 5.2"/>
  <path fill="#40270a" d="M698.7 481.6c0 2.8 1.3 5 3 5 1.6 0 3-2.2 3-5 0-2.7-1.4-5-3-5-1.7 0-3 2.3-3 5Zm-.6 0c0-3 1.6-5.5 3.6-5.5s3.5 2.5 3.5 5.5-1.6 5.5-3.5 5.5c-2 0-3.6-2.4-3.6-5.5"/>
  <path fill="#ffe8cd" d="M692.3 482c0 2.7 1.4 4.9 3 4.9 1.8 0 3.1-2.2 3.1-4.9 0-2.6-1.3-4.8-3-4.8s-3 2.2-3 4.8"/>
  <path fill="#40270a" d="M692.6 482c0 2.5 1.3 4.6 2.8 4.6 1.5 0 2.7-2 2.7-4.6 0-2.5-1.2-4.5-2.7-4.5-1.5 0-2.8 2-2.8 4.5Zm-.5 0c0-2.8 1.5-5 3.3-5 1.8 0 3.3 2.2 3.3 5s-1.5 5.1-3.3 5.1c-1.8 0-3.3-2.3-3.3-5"/>
  <path fill="#fbfbfb" d="m844.4 485.7-.6 2.2-.6-2.3ZM831.5 485.5l-.5 2.2-.6-2.3ZM837.7 485.2l-.8 3-.8-3.2Zm0 0"/>
  <path fill="#fbfbfb" d="M846.7 480.2a6.1 6.1 0 0 1-.1 4.2c-.5 1-1.3 1.6-2.3 1.7-1 .2-2-.1-2.6-.8-.8-.7-1.1-1.7-1.3-2.7-.1-1-.1-2 .2-2.8.3-1 1-1.7 1.8-2.1.9-.4 3.3-.2 4.3 2.5"/>
  <path d="M843.3 477.8a2 2 0 0 0-.8.1c-.7.4-1.3 1-1.6 2-.3.7-.4 1.6-.2 2.6.2 1.2.6 2 1.1 2.6.7.6 1.6 1 2.5.8.9-.2 1.6-.8 2-1.6a5.8 5.8 0 0 0 .1-4c-.4-1.4-1.3-2-1.9-2.2l-1.2-.3Zm.5 8.7c-.9 0-1.7-.4-2.3-1a5 5 0 0 1-1.3-3c-.2-1-.1-2 .1-2.8.4-1 1.1-1.9 2-2.3.5-.2 1.5-.3 2.4.2.7.3 1.7 1 2.3 2.5a6.4 6.4 0 0 1-.2 4.5 3.4 3.4 0 0 1-3 1.9"/>
  <path fill="#fbfbfb" d="M840.1 478.8c.2.7.4 1.4.4 2.1 0 1.2-.2 2.5-.9 3.5s-1.9 1.8-3.1 1.5c-1-.2-1.7-1-2.1-2-.8-1.6-.9-4-.1-5.6.7-1.6 2.1-2.4 3.8-1.8.3.1 1.7.7 2 2.3"/>
  <path d="M837 476.6c-1 0-2 .6-2.5 1.8a7.4 7.4 0 0 0 .1 5.5 3 3 0 0 0 2 1.7c1 .3 2.1-.3 2.8-1.3.5-.9.8-2 .8-3.4a9 9 0 0 0-.3-2 3 3 0 0 0-2-2.1c-.2-.2-.6-.2-.9-.2Zm0 9.6h-.6c-1-.2-1.8-1-2.3-2.1a8 8 0 0 1 0-6c.7-1.7 2.4-2.5 4-1.8.6.1 2 .8 2.3 2.4.2.7.3 1.4.3 2.2 0 1.5-.3 2.7-.9 3.7-.6 1-1.7 1.6-2.8 1.6"/>
  <path fill="#fbfbfb" d="M828.4 478.1a3 3 0 0 1 5 .5c.9 1.7 1 4 0 5.7-.2.5-.5 1-1 1.4-1.1.6-2.5.3-3.5-.5a5 5 0 0 1-1.4-3.3 5.4 5.4 0 0 1 .9-3.8"/>
  <path d="M828.6 478.3c-.7 1-1 2.2-.8 3.6 0 1.3.6 2.4 1.3 3.1 1 .8 2.2 1 3.1.4a3 3 0 0 0 1-1.2c.9-1.7.8-3.8 0-5.5a2.7 2.7 0 0 0-2.2-1.4c-1-.1-1.8.3-2.4 1Zm2.4 8c-.8 0-1.6-.3-2.2-.9-1.1-1-1.5-2.4-1.6-3.4-.1-1.6.2-3 1-4a3.2 3.2 0 0 1 5.4.5c1 1.8 1 4.1.1 6-.3.6-.7 1-1.2 1.4-.4.3-1 .4-1.5.4"/>
  <g clip-path="url(#j)" transform="translate(719 384)">
    <g clip-path="url(#k)">
      <path d="m1 2.6-.1-.2H1l-.1.2Zm0 0"/>
    </g>
  </g>
</svg>
