<svg xmlns="http://www.w3.org/2000/svg" fill="none" viewBox="0 0 551 431">
  <path fill="#000" d="M279.4 14.8c2.2-2.3 3.3-5.6 5.4-8C287 4.2 294.2 0 297.6.1c10 .6 25.6 13.9 36.1 17.5 8.4 2.9 13.8 1 22 1.6 8.3.5 15 4.4 19 7.8 14.7 12.2 18 33.8 34.8 43.4 8.8 5 17.8 9.4 26.6 14.4s4 1.6 6 3c14.2 10.1 12.6 31.4 17 46.5a68 68 0 0 0 10.8 21c9.5 10.8 20.2 16.2 23.1 32 1.7 8.5-.9 18.4-7.4 24.3-6.6 5.9-4.2 2.3-6.3 2.7-.7.6 2 1 2.5 1.2 10.9 4.6 13.4 19.4 10.6 29.9-2.9 10.5-12.9 18.4-20.6 27a57.5 57.5 0 0 0-14 28.3c-2 10.5-3.4 33.4-17 41.6-13.6 8.2-20.5 10.8-30.7 16.3-20 11.1-21.8 39.6-43.3 48.3-10 4.1-13.5 2.3-23.4 2.8-16.5.8-28 15-42.3 18.7-14.4 3.8-7.2.5-11.6-2.1-4.4-2.5-6.8-6.9-9.9-11.7-2 3-4 7.4-6.8 9.7-2.8 2.3-8.1 5-10.9 4.9-9.6-.3-25.8-14-36.1-17.6-10.4-3.7-15.6-.5-23.8-1.8-13.7-2.2-23-11.6-30-23-7-11.5-10.8-21.5-22.3-28-11.5-6.4-21.8-11-32.2-17.2-8.4-5.7-12.1-17.2-13.7-26.7-3-17.2-4.4-30.2-17-43.4-7.3-7.7-16.4-14.6-19.5-25.3-3-9.7-1.4-21.9 6.7-28.5 8-6.7 4.2-2.4 6.2-2.6 0-.8 0-.5-.4-.6-12.8-3.8-16-19-12.7-30.6 3.2-11.2 12.2-18 19.8-26 7.6-7.9 9.8-13 12.5-20.9 5.7-16.8 3-40.7 20.7-50.6 17.8-9.8 20.4-10.4 30.3-16 19-10.7 20.7-38 41.2-47.2 2.4-1.2 8.7-3.4 11.2-3.7 4.4-.6 9.2.4 13.5.3C230 19.3 241 9 252.8 3.4c3.9-1.7 9.3-4 13.3-2.2 4 1.8 5.5 2.9 7 4.1a31 31 0 0 1 6.5 9.8l-.2-.3Zm0 14.3c-.7 4-4 10.8-8.2 11.3a16 16 0 0 1-16-8.8c-2.6-5.8 1.2-9.5 5-5-4.7 2.8 1.2 10.2 4.6 11.3 3.4 1 4.8.9 7-.7 2.2-1.5 3.6-3.2 4.4-5.6 1-2.5 2.1-7.3 1.8-10.9-.3-3.5-4-13.5-8.1-15.8-4.2-2.4-8-2.4-13.2-.3-11 4.6-21.4 14.8-33.3 16.6-9.7 1.4-17.9-1.4-27.3 2.7-11.8 5-15.4 14.9-21.9 24.7a68.9 68.9 0 0 1-18.9 21.5c-6.5 3.9-13.8 6.6-20.3 10.1a154 154 0 0 0-12.5 7.3c-13.6 8.9-14.7 31.7-19.3 46.2a71 71 0 0 1-15 26c-9.3 9.8-16.2 14.1-18 29-2 15 4 26 17 24.6 13.1-1.5 8.4-6.4 8.6-10.9.3-4.5-1.3-5.2-1.3-5.5.1-.6 1.4-.7 1.9-.5 3.4 7.2.8 13.8-6 17.5-6.7 3.8-1.6 0-1.4 1 7.4 2 11.3 11.2 7.2 18-3.1.8-.8-3-.6-4.6.7-4.5-3-11.2-7.7-12.3-4.7-1-8.7 1-11 2.8-7.7 6.3-8.3 17.7-6 26.7 2.3 9 9.4 15.8 17.1 24 6.4 6.7 12.1 16.9 15 25.8 4.8 15.2 5.5 37.6 20.1 46.7 14.6 9 10.4 6.3 15.7 9 5.3 2.8 15.3 6.3 21 11.7a97 97 0 0 1 14 17.6c6.7 10 9.7 18.9 21.3 24.4 11.7 5.5 18.1 1.5 28 3 9.7 1.4 19.7 9.3 28.3 14 8.6 4.6 11 6.1 17.7 2.5 6.7-3.7 8.1-11 8.6-16 .4-5.2-1.1-11-3.1-13.8-2-2.9-2.7-2.6-3.3-2.9-3-1.9-7.8-.8-10.1 1.8-2.3 2.5-3.1 4.5-3.2 5.6-.2 2.2 1.9 3.5 1.9 3.8-3.7 3.9-6.7-1.1-5-5 1.8-3.9 7.8-8.6 12.9-9 7.3-.6 9.6 5.4 11.6 11.3 1.9-3.6 2.1-7.2 5.7-9.8 4.1-3 10.6-1 14.3 1.8 3.8 2.7 4.8 5 5.2 7 .8 4-3 7.5-5.6 3.5 4-2.1.5-7.6-1.8-9.7-2.3-2-6.3-3-9-1.4-4.2 2.2-4.6 5.2-5.7 9.3-1.1 4.1-.7.9-.8 1.4-1.4 6.6 2.3 18.9 8.3 22 6 3.3 7.9 2.3 13 0 11-4.6 21.2-14.5 33.4-16.4 8.1-1.2 16 .8 23.8-1.6 15.9-4.7 19.8-18.8 28.7-30.9 3.9-5.2 10.8-14 16.4-17 11-6 23-10.3 33.2-17.8C450.2 332 452 310 456 296.7a68 68 0 0 1 14-25.5c6.4-7 15.6-14 18.6-26.1 2.8-11.1.5-27.2-13-29.2-13.6-2-11.2 3.9-11.7 10-.6 6.3.7 4.3 1 6.5l-1.1.5c-1-.3-2.1-4.2-2.2-5.4-.3-4.2 1.6-8.2 4.8-10.7 3.2-2.5 2.7-2 4.2-2.2-3-1.6-6.4-3.7-7.7-6.9-1.3-3.2-1.6-5-1.1-7.6.6-2.6 1.1-4.6 3-4-1.6 6-1.2 12 4.1 15.6 5.4 3.5 11.4.8 14.8-2.9 6.4-6.6 7-16.4 4.8-25-2.2-8.7-10.9-17.5-18.7-26.4A68.7 68.7 0 0 1 456 132c-4-13.1-5.8-35.4-17.5-43.7C426.8 80 426.3 80.9 421 78c-5.3-2.9-11.3-5-16.1-7.8-7.2-4.2-15.9-16.4-20.6-23.5-6-9.3-8.8-17-19.3-22.3-10.6-5.5-23-.6-34.8-5-11.8-4.5-17.1-10.2-25.8-14.3-8.7-4.1-7.7-3.3-11.1-2.1-8 2.8-10.8 10.8-12 18.5.5 5.9 1.4 12.6 6.8 15.8 5.4 3.2 8 .5 10-2a12 12 0 0 0 2.9-5c.2-1.8-.5-3-1.9-4 2.2-3.6 6-.8 5.8 2.6-.2 3.4-4.8 8-7.7 9.4-7.2 3.7-12.8 2.1-16-5.4-3-7.5-1.1-4.7-1.7-4.2v.4Z"/>
  <mask id="a" width="56" height="371" x="0" y="49" maskUnits="userSpaceOnUse" style="mask-type:luminance">
    <path fill="#fff" d="M1 49.9h54.5v369.4H1V50Z"/>
  </mask>
  <g mask="url(#a)">
    <path fill="#000" d="M33 97.4c-.6 1.5 0 2.6 0 4 .4 13.4 2 27.5 1.7 40.7-.2 13.2-.9 7.5-4.6 6-3-6-2.6-12.7-3-19.3-1.2-17-1.2-33-.4-50 .8-17.1 2.3-17.3-.8-24.5-3-7.2-.8-2.1-1.4-1.7-2 6.9-2.3 14.2-2.5 21.3-.6 18.2-.8 36.4-1.4 54.6-.2 5.8 1 12.4.4 17.8-.7 5.5-3.7 4.7-5.4 1.6a19.5 19.5 0 0 1-2.3-8.1c-1.2-15-.6-32-.4-47 .3-15.1 1.3-23.5.7-34.9-.5-11.4-.4-4.5-.8-5-1-1.3-2.4 1.5-2.7 2.3-.3.7-.8 2.5-.9 3.6-.7 7.2-.4 15.2-.7 22.4-.4 12.2-.6 24.1-.6 36.4 0 12.3.3 16.6-.3 25a78.6 78.6 0 0 0 2.7 32.4c3.6 12.2 6.6 10.3 10.7 16.3 2.5 3.8 3.3 16.9 3.7 22 .7 9 .3 17.3 0 26.3-.4 11.9-1.3 23.6-1.3 35.5 0 14.5-2.3 29-2.9 43.5-.5 14.5.4 9.3 0 13.6-.3 4.4-1.4 7-1.8 10.1-2 13.3-1.5 29-7 41.5-5.7 12.5-9.2 13.1-6.1 18.7 3 5.5 5.5.9 6.6 2.2 1 1.3-.8 3.2-.7 4.2.1 4.8 8.4 8.8 12 5.5 3.6-3.2 3.7-8.5.7-9.8-3.1-1.3-3 0-3-1.3 2.3-.3 4.2 0 5.7 1.8.3 0 3-2.3 4.2-2.5 1-.2 4 1 2.6 1.8-4 0-6.9 7-4.4 9.8 2.6 2.9 2.8 1 3.5 1 2.4-.3 5.4-6.5 8-8 2.5-1.4 3.3-.5 4.2-1.4 1-.9 2.4-3 2.5-3.8.5-3.4-1.4-4.4-2.5-7-1.7-4-1-6.7-1.5-10.7-.4-4-3.4-11.6-4.3-17-3.6-20.8-2.7-40.5-3.3-61-.5-20.5-3.6-56-2.5-84.2.4-12.7-.6-20.4 6.7-31.6 3-4.5 8-8.5 10.2-13.7a92.2 92.2 0 0 0 2.3-25.6c0-6.9.6-13.6.7-20.5 0-10-.4-20.4-.7-30.4-.2-10.1-.3-27.4-1.6-41-1.3-13.7-1.1-6.6-2.4-6.4-.6.4-1 .8-1.2 1.4-1 1.5-1.1 4.6-1.3 6.5-.8 14.4-.5 29 0 43.2.6 12.6.3 25.4-.6 38-.1 1.7-.2 4.4-1.3 5.7-.3-1.1.3-2 .3-3.1.5-13.9-.7-27.5-.7-41.2 0-12.2-1-24.8-.3-36.8.7-12.1.9-10.2 1.8-12.5a3.3 3.3 0 0 1 6-.4C55 60 53.7 71.6 53.8 79c.1 20.4 0 40.8 1 61.3s1.2 32-7.1 44.3c-8.4 12.2-3.5 3.8-5 6a69.3 69.3 0 0 0-5.9 12.2c-1.2 4.8-.8 10.2-1.1 15.1-.8 10.3-1.5 19.2-1.3 29.6.2 10.4.8 27.2 1.6 41 1.4 20.5 1 40.7 3.2 61.3 2.2 20.6 4 20.5 6.3 31 2.2 10.6.4 4.6 1 6.8 1.4 5.9 8 12.8 2.8 18.6-5.1 5.9-4.1 1.5-6.1 2.6-3.3 1.9-3.3 8-7 8.4a15 15 0 0 1-10-2.9c-3 3.2-8.6 5-12.7 3.7A9.2 9.2 0 0 1 7.9 406c-1.1-.5-2.2-.2-3.3-.4-2.3-.5-3.5-3.4-3.6-5.7 0-4.7 4.5-11 6.3-15.5 4.7-11.5 8.4-28.6 9.6-41 1.2-12.4-.3-11.2 0-16.8.6-8.8 2.3-17.8 2.9-26.6.5-8.7 0-11.8.3-17.6.3-10.8 1.3-21.6 1.3-32.5 0-16.8 1.1-32.4-.3-49.4-.2-2.9.3-7.3-1.8-9.5-2-2.2-1.3-1.2-2-2.1-4.4-4.7-8-5.5-9.6-12.4-2.2-8.9-2-20.2-1.5-29.2.6-9 0-18.2 0-27.5 0-16.7.8-33.2 1.4-49.8.5-16.6-.8-11 .8-15 1.7-4 2.6-4 5.2-3.4.2.7.6 1.4.7 2.1.6 5.4.3 14.1.3 19.9.2 20.6-1.5 45 2 65.2 3.5 20.3 1.4 7.9 2 8.8.5.9 1-2 1-2.5 0-1.5-.3-2.6-.3-3.8 0-7.5.5-14.9.7-22 .5-17 0-33.9.6-50.8.7-17 1-7.1.7-11.1-.2-4-2-6.5 2-7 4.3-.4 4.3 8 4.4 11.5.3 9-.2 18.2 0 27.3.3 13 1.3 26.2 2 39.3.6 13-.8 15.6 1 18 2 2.5.7.5 1 .7 1.4 0 .6-6 1.1-7.3-.5-12.7-.5-25.6-.4-38.3.1-12.7-1-3.6.3-4.4h.4Z"/>
  </g>
  <mask id="b" width="47" height="376" x="504" y="36" maskUnits="userSpaceOnUse" style="mask-type:luminance">
    <path fill="#fff" d="M504.5 36.5H551v374.8h-46.5V36.5Z"/>
  </mask>
  <g mask="url(#b)">
    <path fill="#000" d="M540 401.1c.2 2.3 1 3.3 0 5.5-2.6 5.7-11.7 4.8-15 .4-1.7 1.8-6.2 2.9-8.4 2-2.2-.9-2.1-5-4.7-6.7-2.5-1.7-1.5-.4-2.6-.7-1.5-.5-3.3-3-3.5-4.6-1.1-9.1 2.3-16.7 2.8-25.3.6-8.7 0-7.4.4-11.1 1.3-12.7 5.2-28.8 3.8-41.3-1.4-12.5 1-10.7 1.2-15.3 1-15 .1-30.8 2-45.4.3-2.6 2.3-6.2 2.4-7.6.1-1.3-.5-2.2 0-3.4.4-1.2 1-1 1.1-1.4.1-.5-.5-.8-.5-1.3-.5-3.3.2-4.4 3.5-4.6-3.2-4.1-7.3-9.1-8-14.5-.8-5.5-.8-12.7-1-18.2-1.7-41-3.7-82.8-2-123.9.8-18.3 1-34.3 20-42.2 19-7.8 15-5.3 17.3.5 2.2 5.7 2 19.7 1.7 24.6-.2 4.8-1 8-1.3 12-.7 13.6-.4 27.2-1.6 41-2.8 31.8-5.5 63.9-8 95.8-.6 7-2 14.1-2.4 21.1-.3 7-.2 4.6 0 5.4.2 1 1 1 1.3 1.6 1.1 1.9.1 3 .3 4.7 0 1.6.7 1.8.6 2.8 0 1-.6 1.5-.5 2 0 .4 1.3 3 1.5 4.2 1.9 10.4.3 25 0 35.8-.5 22.2.4 44.4 1.7 66.6.3 5.9.4 12.3 1 18.2.5 5.8 2.5 12 2.6 18.1 0 6.2-2.3 5.7-5.8 5v.2Zm-4-159.5c-.2-1.6.3-3.2.3-4.7 2-44.4 7.5-88.7 9.4-133 .3-8.3.3-16.7.6-25 .5-10.8 1.7-19.5.4-30.6-1.3-11-1-6.7-1.2-7.2-.7-.8-4.8 0-5.9.3-7.3 1.7-15.9 6.9-19.9 13.4-8.9 14.9-6.9 53-6.9 70.7 0 32.3 1.1 64.4 4.9 96.5.8 7.5 1.4 8.9 5.9 14.9s1.2 2 1.9 3.2c3.5 0 7.1.4 10.5 1.3v.2Zm1.3 5.6c-.2-2.7 1-4.3-2.2-4.8-3.2-.6-9.5-1.2-12.8-.8-3.3.5-2.6 2.6-2.4 4.6a26 26 0 0 1 17.3 1h.1Zm.2 1.6c-.4-.4-3.8-1.8-4.7-2-2.5-.5-8-1-10.3-.2-2.3.8-2.9 1.6-2.9 3.8 5.7-3.1 11.9-.7 18 .3.7-.1.5-1.4 0-1.9Zm-2.2 157.8a10 10 0 0 0 2-3.1c.2-1.5-.4-2.4-.4-3.7.6-.9 4.3.7 5.5-1.9 1.2-2.5.2-3.2 0-5-.2-12.8-2.3-25.7-1.4-38.6a565.7 565.7 0 0 1-2.4-74.8c.3-7 1.8-14.7.3-21.7-1.6-7-2-5.8-2.6-6.3-.5-.6-1.3-.6-1.8-.7-3-.7-8.8-1.8-11.6-.8-2.7 1-3.5 2.7-4.1 5.6-1.7 7.8-1.1 16-1.5 23.9-.7 15.7-1.3 31.6-3 47-1.6 15.6-1 19-1.3 28.3-.3 8.6-2 14.8-3 22.8-.6 6.2-.2 12.6-1 18.8 0 1 .8 2.6 1.6 3.3.8.7 2 .4 3 1.1 2 1.2 4.5 6 6 6.4 5.6 1.8 4.6-8.5-.3-8.4 1.3-3.5 4.8.7 5.6.7.8 0 1.2-1 2-1.2 1-.3 1.9-.1 2.7-.1 0 1.5-1.8.6-3 1.3-1.7 1-.6 5.6.3 7 1.5 2.5 6.3 1.5 8.1 0h.3Z"/>
  </g>
  <path fill="#000" d="M40 53.3c.5.4.9 2.5 1 3.3.5 4 0 6.6-.4 10.4-1 15.2-.5 30.8-.6 45.9-.1 15 2.3 14.6 2.6 22.4.4 7.7-.4 7.6 0 10.7.5 3.1.6 1.2 1 1.9-1 1.5-3.6.8-4-.8 0-2.3-1-4.9-1.2-7 0-2 .5-4.7.4-7.2-.5-8.6-1.3-17.2-1.7-26-.5-15 3.2-29.8 2.2-44.9l-2-7.7c-.5-1-1.4 1.3-1.5 1.6-1.7 5.4-.9 9.9-1.7 15.1-1 5.2-.2 1-.6.9l-.3-5.3c0-1.8.3-1.5.3-2.4 0-3.5-.8-6.6.4-10.3 1.3-3.6 4.7-2 6-.8v.2ZM47.6 154.9c0 1.5.6 3.5.6 5 0 5.8-2.4 8.7-3.2 13.4-.7 4.6.2 3-1.4 5.7-1.5 2.8-4.7 4.1-7 7.4-2.1 3.4 0 1-.7.7.9-2.4 1-4.6 2.3-7 1.3-2.3 4.5-4.5 6-6.5 1.6-2 2.5-7.2 2.6-8.5.3-3-.5-5.8-.3-8.5.2-2.6.3-2.5 1-1.7ZM16.9 180.6c-.4.5-3.5-2.7-3.8-3.1a43 43 0 0 1-4-15.2c0-3.2.5-2.8.7-4.1l3.3 13.4c.7 3.2 3.3 5.8 3.7 9h.1ZM37.6 366.5c.5 2.9 1.6 5.7 2.2 8.7.8 5.1 1.4 10.3 2.4 15.4s1.5 4 1.2 6.1c-.9.1-.6 0-.8-.6-2.3-5-1.8-9.7-2.8-14.8-1-5-2.4-8.2-2.8-12.2-.3-4-.3-3.6.6-2.7ZM50.8 135.4c-.6 0-.4-.8-.4-1.1-.2-4.4 0-8.7-.3-13-.3-4.3-.5-2.9-.7-4.2l-.3-11 .9-.5c.7 0 1 3.5 1 4.3.4 5 0 11.6 0 16.6 0 5-.2 1.2-.2 1.9v7ZM31.7 213.7c-.4 0-.5-.9-.6-1.1-.6-4.9 0-10.5.8-15.4l.7-2.6c-.9 6.4 0 12.8-1 19.2l.1-.1ZM14.4 408l.9 3.1c3.5 4.8 11.3 1.3 6.8-4.6 0-.3.3-.3.4-.1 2.1.8 1.5 7.8-1.4 8.3-3 .4-3.5-.8-4.4-1.3-2.5-1.2-3.4-2.6-2.4-5.4ZM50.1 87.3c0-3.9 0-7.8-.3-11.5-.4-3.8-1.5-5.9-.1-8.7.2 0 .7 3.4.7 3.8.1 1.9-.3 3.9-.3 5.5 0 3 .4 4.6.2 7.9-.2 3.3.7 2.7-.3 3.1l.1-.1ZM9.2 401.5c-3.6-.2-2.8-4.6-1.5-7l4.1-7.3c-.5 3.4-3.6 6.9-3.8 10.3-.2 3.4 1 2.5 1.2 4Z"/>
  <path fill="#000" d="M32.7 80c0-.1.4-.6.4-1 0-1.6.3-3.1.3-4.8.5 0 .3.8.3 1.1.2 4.3-.4 8.9-1 13.2-.8-.1 0-1.5 0-1.8V80ZM32 406c-.8 1.1-2.9 6.3-.1 6.2 2.7 0 1.4-1.4 2.4-1l-2.1 1.6c-1 0-2.5-1.1-2.7-2.1 0-1 1.6-5.7 2.6-4.7ZM49.8 144.5V139c0-.6.6-2 .3-3 .7.3.7 2.3.7 3 0 1.7.3 4.2-1 5.5v-.1ZM42.4 404.8l-3.7 1.7-1.5.3c0-2.7 3.6-1.4 5.2-2ZM50.1 89.5l.7 1.9-.7 3.3v-5.2ZM13.7 404.8c.1-1 0-1.5-.6-2.2 1.4-.1 2.6 1.9.6 2.2ZM14.6 380.8c.7.5-1.3 1.4-1.3.4 0-1 1-.7 1.3-.4ZM32.7 93.5c-.7-.3 0-2-.3-2.6.8.4.1 2 .3 2.6ZM275.1 73.7c2.6-.4 3.9.7 4.4.7.6 0 .7-.6 1.1-.7 1-.3 8.4.3 9.8.5 2.4.4 5.5 2.3 8 2.8 2.4.4 3.9.2 5.5.4 6.5 1.1 13.7 4.6 20 6.6 15.3 4.6 24.3 5.2 37.5 15.8 13.2 10.6 11.4 7.8 17.7 12 6.4 4.4 9 7.7 13.7 14.7 7.9 12 16.8 24.3 23 37.1 6.3 12.9 7.4 22.6 9.7 34.4 2.3 11.7 3.2 11 3.3 15.7.1 4.8-2.2 11.9-3.3 17.3-1.6 8.2-3 15.2-5.4 23.2-3 10.3-8 18.5-13.6 27.5-5.3 8.6-11.5 17.3-17.3 25.5-5.7 8.2-4.4 6-9.7 9.6-5.4 3.7-12 7.5-18.4 12.7-13 10.5-23 11.2-38.1 15.8-6.2 1.9-12.8 5.1-19 6.2-6.3 1.1-4 .1-5.7.5-1.6.3-5.1 2.4-7.6 2.7-2.4.4-8.6 1-9.8.7-1.3-.2-1.3-.9-1.4-.9-.2 0-.5.7-.7.8-2 .8-4.2-.4-6-.5h-4c-2.5-.3-5.5-2.3-8-2.7-2.4-.5-4-.3-5.6-.5-5.9-1-12.4-4.2-18.2-6-14.2-4.4-25.8-5.3-38-15.4-12-10-12.1-8.5-19.3-13.4a35.1 35.1 0 0 1-12.7-13.7c-7.8-12.5-16.9-24.5-23.5-37.8-6.6-13.3-7.1-22-9.4-33.3-1.2-5.7-4-14-3.4-19.5.5-5.6 4.4-16.5 5-24.3 2.8-8.8 4.2-18.5 8.7-26.6 4.5-8 8-13 12-19.1 4-6.1 9.2-14.1 14-20.9 5-6.7 1.6-3 2.8-4.3 5-5.2 15.2-9.5 21.1-13.8 6-4.4 5.2-5 8.3-7 11.6-8 21.2-8.7 34.2-12.8 13-4 11.4-4.5 17.1-5.7 5.7-1.2 5-.5 7.2-.9s5.4-2.3 7.9-2.8c2.5-.4 4.5-.4 6.5-.6h-.4Zm-110 222.6c3.2 4.4 6.2 8.8 9.7 12.9 14.5 9.5 27.8 20.3 44 26.8a347 347 0 0 0 41.4 14.4c13.8 3.7 7.2 2.3 9.7 2.6 5.8.7 13.4.7 19.2 0 5.8-.8 4.8-1.8 7-2.4 15.3-4 29.3-8.7 43.9-14.5 14.6-5.7 12.8-5.5 18-9.2 7.7-5.3 15.9-10.2 23.4-15.7 7.6-5.6 14.9-17.5 19.5-24.6a119.6 119.6 0 0 0 19.2-39.4c3.4-15.1 2-17.2 2.7-25.6.2-2.5 1.4-5.2 1.3-7.6-.1-2.3-1.1-4.3-1.3-6.5-.2-2.2 0-4.7 0-6.9-.9-11.6-4-28.1-9.6-38.4-5.6-10.3-15-24.8-23.3-35.7-7.6-9.7-17.3-14.4-27.3-21-10-6.5-3-2.4-4.4-3.4-10.8-7.4-29.6-13.8-42.3-18.4-11.3-4-27.5-8.7-39.3-8.4-12 .4-9.2 1.8-14.1 3.1a345.7 345.7 0 0 0-43.9 14.7c-14.7 5.8-18.2 9.5-27.5 15.5-4.5 4-12.2 7.3-16.4 11.4-4.3 4-1.7 2.3-2.6 3.3a218.4 218.4 0 0 0-18.3 25.4c-6.5 10.7-11.9 20-14.9 32.5-3 12.6-1.8 18.3-3 27.5-1.3 9.2-1.4 4.3-1.3 5.9.2 1.5 1.1 3.9 1.2 5.5.4 3 0 6.4.4 9.4a105 105 0 0 0 9.4 37.3c5.6 10.2 12.1 20 19 29.3l.5.2ZM442.6 107.8l-5.4-9.1a31.2 31.2 0 0 0-7.2-7c-3.7-2.7-8.2-4.6-11.7-7.6 8 3.7 20.6 7.2 23.8 16.4 1 2.4 1.5 4.7.4 7.3ZM418.4 345.3c.5-.8 1.5-1.2 2.3-1.8 6.1-4 13-7 17-13.5l4.9-8.5c1 2.5.5 4.9-.4 7.3-3.2 9.2-15.8 12.7-23.8 16.4v.1ZM141 84c-5.7 4.5-13.3 7.3-17.9 13.2-4.6 5.8-4 6.8-6 10-2 3-.2.8-.7.4-1.7-1.6.9-8.2 1.9-10 3-5.2 13.6-9.9 19.2-12.2 5.6-2.3 2.3-1.1 3.4-1.2l.1-.1ZM117.2 322a42 42 0 0 0 8.9 13.2c4 3.6 10.5 6.5 15.2 10.4-6.5-3.2-15.3-5.8-20.7-11-5.4-5.2-5.4-8.6-4.1-12.2 1.3-3.7 0-.6.7-.5ZM358.7 399.3c2.5-3.5 6.7-5.1 9.8-7.8 3-2.6 7.1-8 8-10.4.9-2.4.1-.9.1-1.3 2.8.7 1.4 2.8.4 4.5a37.3 37.3 0 0 1-12.8 12.7c-4.6 2.6-3.8 2-5.7 2.3h.2ZM200.4 30.1c.3.4-.9 1.4-1.1 1.7-2.4 2.3-5.8 3.9-8.4 6.2a38 38 0 0 0-8.5 11.7c-3.6-1.3.8-6.2 2.3-8 4-5.1 9.2-9.8 15.8-11.5h-.1ZM182.4 379.8c0 1.2.8 2.4 1.5 3.4 1.2 1.8 4 5.5 5.6 7 3.2 3.4 8.5 5.2 11 9-1.1 1-9.8-5-11.1-6.1a56.4 56.4 0 0 1-8-10.2c-.7-2-.7-3 1-3.2ZM376.7 49.6v-1.3a49 49 0 0 0-8.1-10.4c-3.1-2.8-7.4-4.3-9.8-7.8 1.8.2 3.5 1 5 2 4.8 2.6 8.8 6.6 12 10.9 3.2 4.3 4.4 5.7 1 6.6ZM270.3 18.7l-1.4-2.5c-7.6-8.2-16.3-3-24.2 1.5-8 4.6-2.3 1.9-3.6 2.3 1.3-1.6 2.8-3 4.6-4.3 3.2-2 9.5-5.7 13.3-6 3.7-.4 11.7 3.4 11.4 9h-.1ZM270 410.6c.9.3 0 2.3-.1 2.8-1.4 4-7 6.7-11 6.2-4-.4-11.1-4.4-14.2-6.5-3-2-2.7-2.6-3.8-3.9 1.3.3 2 1.5 3 2a42.4 42.4 0 0 0 15.8 6.5c4.3 0 9.8-3.6 10.2-7.2h.2ZM317.8 19.7c-.3.2-3-2-3.6-2.3-3.6-2-10.7-5.8-14.7-5.9a12 12 0 0 0-8.6 4c-1.4 1.6-1.3 2.4-1.8 3.1-.6.7-.3 0-.3-.3.4-5.1 6.3-8.9 11-8.7 4.8.3 13 5 15.7 7.3 2.7 2.4 1.5 2 2.3 2.8ZM317.5 410c-.8.9-1.4 2-2.3 2.8-3 2.3-11.7 6.7-15.3 7-3.7.2-10.7-3.5-11.1-8.7 0-1 .3-.3.5 0 .6.9.8 1.9 1.6 2.7 1.3 1.4 6.7 4 8.6 3.9 4.1 0 11.6-4.1 15.2-6.1 3.6-2 2.3-2 2.7-1.7v.1ZM486.4 239l-1.6-4.6a20 20 0 0 0-6.2-12c-3.3-2.8-1.2-.4-1.4-1 4.4.3 7.6 4.4 9.2 8.1 1.7 3.8 1.1 5.7.1 9.5ZM477 207.8l2.2-1.6c4.4-4.5 5.1-9 6.6-14.8 1.4-5.7 0-1 .6-1 .1 1.8 1.1 3.7 1 5.6-.3 4.6-5.1 12-10.3 11.8ZM82.3 207.5c0 .5-.8.3-1 .3-3.6-.3-6.8-4.7-8.1-7.7-1.3-3-1.6-6.3 0-9.8l2.3 8.8c.7 2 3.6 6.5 5.4 8 1.7 1.4 1 .4 1.6.5l-.2-.1ZM82 221.5c0 .5-.8.3-1.2.7l-2.7 3c-3 3.9-3.5 9.2-5 13.9-.7-1.4-1.3-4-1.3-5.3 0-2.2 2.8-8.2 4.5-9.7 1.6-1.4 4-2.9 5.6-2.5v-.1ZM101.1 279.3c-.6.6-5-3.8-5.5-4.4-1-1.2-2-2.7-3-3.8-2-2-4.9-3.7-5.3-6.6L95 271c1.8 2.8 5.5 4.7 6.1 8.3ZM472.3 165c-1.8-1-3-2.7-4.5-4-3-2.6-6-4.8-8.4-8.2-2.4-3.5-1.2-1.8-1-3 3.6 2.3 6.2 6.2 9 9.3 2.9 3 4.6 3.2 4.9 6v-.1ZM101.1 150l-.3 1.4a59 59 0 0 1-13.5 13.2c.5-2.6 3.5-4.5 5.2-6.5 1.8-2 4.4-5.6 7.3-7.7 2.9-2 .7-.6 1.3-.4ZM458.4 279.6c-.2-1.3.3-2 1-3 2.3-3.2 5.6-5.8 8.4-8.3 3-2.4 2.8-2.9 4.4-3.9-.2 3-3.1 4.2-4.8 6-1.6 1.8-1.3 2-2 2.8-.8.8-6.8 6.9-7 6.5ZM115.8 315.7c-.8.3-.5-.2-.7-.6-1.2-2-5.4-14.4-5.9-16.9-.4-2.4-.4-2 .4-2.6 3 6.3 5.5 13 6.2 20.1ZM115.8 113.7c-.7 7-3.1 13.7-6.2 20.1l-.6-1.4c2-5.1 3.1-11.5 5.3-16.5 2.2-5 .7-1.8 1.5-2.2ZM450 295.6c0 1 0 2-.2 3-.6 3.2-3 9.3-4.2 12.7-1.2 3.4-1 3.4-2.2 4.4a54 54 0 0 1 5.8-19.4c2.8-6-.3-.8.7-.6v-.1ZM450 133.7c-1 .2-.6-.2-.8-.7a55.3 55.3 0 0 1-5.8-19.3c.6.2 1 1.3 1.3 1.8 1.3 3 4.5 12.2 5 15.4.6 3.3.2 2 .1 3l.1-.2ZM403.2 351.8c.3.4-1.4 2-1.8 2.4-2.7 2.5-4.2 4.3-6.8 6.8-2.5 2.6-4 3.6-4.4 3.3 1.8-2.5 3.8-6.1 6-8.1a23 23 0 0 1 5.5-4c1-.4.9-.4 1.4-.2l.1-.2ZM168.7 364.1c-3.4-1.5-5.3-5.2-7.8-7.6-2.5-2.4-4-2.5-5-4.7.8-.6 5.7 3.1 6.6 4 1.7 1.5 3.4 4 4.8 5.8 1.4 1.9 1.8 2.3 1.4 2.5ZM155.9 77.5c-.7-.5 5-4.6 5.5-5 2.3-2.3 4-5.8 7.3-7.3.4.5-3.6 5.8-4.2 6.4l-2 2c-.7.6-5.8 4.6-6.6 4ZM403.2 77.5c-.5.2-1 0-1.4-.3-3.9-1.7-7.4-6-9.8-9.3-2.4-3.3-1.5-2.1-1.3-2.3 3 1 4.6 4 6.6 6.2 2 2 3 2.5 4.5 3.9 1.4 1.3 1.7 1.6 1.4 2v-.2ZM231.4 404.8v.7l-6.7-2-10.5-1.2c5.7 0 11.8.3 17 2.5h.2ZM345.2 402.1l-10.8 1.4-6.7 1.9c1.3-1.7 4.3-2.1 6.4-2.6 3.6-.7 7.3-.8 11-.8v.1ZM231.4 24.3c-.3.5-1.6 1-2.2 1.2-4.7 1.6-10 1.3-15 2 0-1 .1-.7.8-.7 3-.2 6.8-.4 9.7-1 2.8-.5 4.3-1.8 6.6-1.5ZM345.2 26.8c0 .6-.8.3-1.1.3-3.9.1-11.6-.4-15-2-3.4-1.7-.9-.4-1-.8 2.2-.2 4.2 1 6.4 1.5 3.4.7 7.3.9 10.7 1.1v-.1Z"/>
  <path fill="#000" d="M486.4 188.3c-.8.3-.5-.2-.7-.6-1.4-3.4-3.3-6.6-4.1-10l3.6 5.3 1.2 5.4ZM486.4 241l-1.2 5.4-3.6 5.3c.9-3.4 2.7-6.6 4-10 1.4-3.3-.2-.9.8-.6v-.2ZM77.5 251.4l-3.8-5.6c-.7-1.6-1-3.3-.7-5.2l4 8.2.5 2.6ZM73.3 188.7c-.6-.3-.3-2-.3-2.5a18 18 0 0 1 1-3.4l3.5-4.9c-.6 3.8-3.7 6.8-4.2 10.8ZM469 201c-.2 1.2-.5 2-.3 3 .2 1.2 1.8 2.5 2.2 3.8-1.7-1-3.7-2.6-3.5-5 .2-2.3.4-2 1.5-1.7ZM471 221.8c-1.8 2-2.3 2.8-2.2 5.5.1 2.8-1 1-1.3-.3-.5-2.2 1.3-4.7 3.4-5.2ZM90.4 228.7c.4-3-.2-4.7-2-7 .5-.4 3 2.5 3.3 3.2.2 1 .3 3.5-1.3 3.6v.2ZM91.3 201c.6.4.5 3.2 0 3.8-.4.7-2.6 3-3 2.7.5-1.1 1.7-1.9 2-3.2.1-1.3-.5-4.2 1-3.3ZM288.4 402.1c-.5 0-.3-.6-.2-1 .3-2 1.9-5 3.8-3-1.6 1.2-3.2 2-3.6 4.2v-.2ZM271 401.8c-.7-.3-.7-1.3-1.1-1.9-.5-.5-2-1-2.5-1.7 1.5-2.5 4.1 1.8 3.6 3.7ZM291.6 30.8c.4 1.9-1.5 1.2-2.4.3-.9-.9-1-2.7-1-3.9l1.6 2.5 2 1h-.2ZM270.6 27.5c.6 0 .4.7.4 1-.6 3.4-3.9 4.4-3.6 2.7.4-1.6 3.7-1.8 3.2-3.7ZM82 258.9c-1.6-1.6-3.1-3.7-3.5-5.9 1.3 1.8 2.7 3.8 3.5 5.9ZM78.5 176.4a13 13 0 0 1 3.5-6c-.8 2-2.3 4.2-3.5 6ZM477.4 258.6l3.2-5.2c.4.8-3 5.5-3.2 5.2ZM480.6 176l-3.2-5.2c.3-.3 3.6 4.3 3.2 5.2ZM537 174c-1.1-.7-.6-3-.7-4.4-.8-26 2.6-53.3 5.2-79.2l.9-3.8c.6 3.1.8 6.1.6 9.3-.3 20.6-2.2 39.4-4.1 59.9-.5 4.2-.6 8.5-1 12.6-.5 4-.8 3.8-1 5.6h.1ZM530 50.8c.3.4-3.8 6.2-4.2 7-5.3 10.1-5 17-6.5 28-.3 2.8-1.6 5.4-1.2 8.4-.9.7-1.4-.8-1.8-1.6-4.1-10.3.8-30.2 8.5-38.1.4-.4 4.8-4.1 5.2-3.8v.1ZM532.8 228.7c-1.2-2.6-.4-5.6-.6-8.4l3.8-34c.6 3.7.7 7.2.7 10.9 0 7.2-.6 16.2-1.4 23.4-.7 7.2-.4 6.4-2.5 8ZM517 115.5c-1.2-3.6-2.2-8.6-1.2-12.4 1-3.7 1.2-2.3 1.9-.6 1.4 3.4 1.6 7.6.8 11.3-.7 3.6-1 2.3-1.5 1.9v-.2ZM542.8 83.4l-.6-4c-.4-5 1.2-9.8 1-14.8.7 6.4 1.5 12.5-.4 18.8ZM542.8 57.7v-8.6c0-.3-.9-1.5 0-1.5 1.1 2.2 1.2 4.6 1 7-.2 2.4 0 2.6-1 3.1ZM533.8 393c-.8-.6.3-12.2.3-14.1l2.6-7.7c-.1 1.4.8 2.1 1.4 3.4 1.8 4.5 2.4 9.2 1.8 14-.7 4.9-3.5 5.2-6 4.3ZM536.7 366.5c-1 .2-.8-1-1-1.6a69.9 69.9 0 0 1-1.3-16.5c.4-4.8.7-2.8 1-4.2.4-4.4-.3-9.6.4-14.2.2 3.2.1 6.4.4 9.7.4 3.2 1.7 7 2 10.4.4 5.5-.8 11-1.6 16.4ZM535.7 328.7c-.6 0-.4-.8-.4-1.1-.3-7.4 0-15.3 0-22.7.2-11.3 0-24 1.4-35.1 0-.5 0-1 .6-1.2 1.2 8 .4 15.7-.3 23.6-.7 8-1.4 14.2-.7 21.4l-.5 15.2-.1-.1ZM526 255c-2.7.1-3 9.7-5 9.3-3-2-2.4-6.2-.5-9 1.9-2.7 6.3-1.4 5.5-.4ZM521.8 286.5c-.5 0-.3-.8-.3-1.1-.1-3 .2-6.2 0-9.1-.2-2.9-2-6.7-.7-9.9.4-.3 1.2.7 1.5 1 1.2 2.1-.4 8.8-.5 11.6v7.6-.1ZM519 345.6c.5 2.5-.7 5.3-.7 7.4 0 2 1.4 2.5.2 4-1.2 1.6-1.4.8-1.7-.2-.4-1 .7-2.4 1-3.6.6-2.3 0-4.2.5-6.3.6-2.1 0-1 .7-1.1v-.2ZM519.6 329.7c-.5 0-.3-.8-.3-1.1-.2-4.5.9-8.9.7-13.3l.6-6.3c.2 7-.3 13.8-1 20.8v-.1ZM528.6 400.8c-4.1 6.3 5.7 8.1 6 1.7 2.2 3.2-4 5.7-6.2 4.5-2.2-1.2-.9-7.2.2-6.2ZM537 258.6l-1.7-4.4c-.5-1.5 1.7-.2 2 .7.2 1.2-.3 2.4-.3 3.7ZM541.2 394.4l-.8 2.9H539c.4-.5 1.3-3.8 2.3-3ZM521.2 405.4c1.4-1.7.2-3.5-.4-5.3 1.4 1.2 2.8 4.8.4 5.3ZM512.5 399.3h3.3c1 .5 1.2 2-.2 1.2-1.5-.8-2-1.1-3.1-1.2ZM535.7 398.3l-.4 1.6h-.6c0-.7 0-1.7 1-1.6ZM520.6 405.4c-.5.2-2.3-1.1-2-1.7l2 1.7ZM537 244.6c-1.7.7-3.2.1-4.6-.7-1.4-.7-1.1-.2-.9-.7.7-1.4 6.2.4 5.5 1.4ZM534.1 248.5v.3h-1.6v-.6l1.6.3ZM392.2 281.6c.2-1.2.5-2.7.9-3.8 2-5.4 5.8-11.4 8-17 6.7-16.7 8.6-32 10.1-49.9.6-6.7.7-18.1.4-25-.4-6.9-.8-4.4-1-6.5-.2-2.2-.2-1.3.3-1.2.4 3.8 1.9 7.2 2.5 11 2 12 1 23.4.5 35.4-.1 3.5 0 7.3-.2 11-1.3 13.4-13 33.8-20.5 45.1-7.6 11.3-.5.8-.9 1ZM165.9 284.5c-.6.4-3.1-2.2-3.6-2.8-14.5-17.6-17.2-35.7-17.9-57.8-.5-16.5-.9-27.4 4.9-43.2 1.5-4.3 3.5-8.1 5.9-12 .4.2 0 1 0 1.2-4.3 14.1-10.1 26.8-9.5 42.2a173 173 0 0 0 15.1 61.3c8.4 17.4 3.4 7.4 5.3 11h-.2ZM368.7 307.6c0 .8 0 1.4-.3 2.1-2 3.6-20.5 15.3-24.9 17.9-4.4 2.5-3 1.6-4.4 1.9l18.4-13.5c3-1.7 6.8-6.6 9.5-8 2.8-1.2 1.1-.4 1.8-.2l-.1-.2ZM278.8 342.3l-3.4.7c-8 0-15.9-1.8-23.8-3l-12.8-6.1c2.4.8 5 1.3 7.4 2 8.7 2.7 17.2 4.2 26.2 5.4 9 1.2 4.2.8 6.3 1ZM409.7 174.4c-.4-.3-.7-1.5-.9-2A103.8 103.8 0 0 0 394 141l-9.2-10.4c.7-.1.8.3 1.1.7 1.6 1.3 2.7 3 4.1 4.4a64.2 64.2 0 0 1 19.7 38.8ZM217.8 324.1c-.5 1-2.4-.2-3-.5-7.5-3.5-12.9-8.3-19.4-13.3-6.5-5-6.3-3-7-6.6 1 .7 1.2 1.8 2.3 2.7 1.4 1.2 4 2.2 6 3.6 6.5 4.6 13 9.3 19.8 13.7 6.9 4.4.8.4 1.4.6l-.1-.2ZM290 86.3c0 .5-.8.3-1.1.3-4.9.2-8.3-.5-13.2 0-5 .6-8.3.5-12.1 2 .2-1.3 1.8-2 2.9-2.4a52.2 52.2 0 0 1 21-.5c6.3 1.1 1.7.5 2.5.7v-.1ZM181.7 128.5c-1.7 2.3-3.7 4.2-5.5 6.3-5.6 7.1-10 15-15.3 22.3l-1.4 2.9c-.1-1.3.3-2.4.9-3.5a136 136 0 0 1 16-23.1c5-5.7 3-3.1 4.2-4.2 1.2-1.1.5-.8 1-.7ZM376.7 302.8c0-.7.2-1 .5-1.4 2.5-4 5.5-8.4 9.2-11.4.6 1-8 11.9-9.7 12.7ZM378 123.6 364 112c2 .9 4.1 2.2 5.9 3.5 1.7 1.4 5.4 4.8 7.5 6.8 2 2 .8.7.7 1.3v.1Z"/>
  <mask id="c" width="6" height="21" x="132" y="103" maskUnits="userSpaceOnUse" style="mask-type:luminance">
    <path fill="#fff" d="M137.8 103.4h-5.3v20h5.3v-20Z"/>
  </mask>
  <g mask="url(#c)">
    <mask id="d" width="5" height="5" x="133" y="115" maskUnits="userSpaceOnUse" style="mask-type:luminance">
      <path fill="#fff" d="M133.8 115.5h3.8v4h-3.8v-4Z"/>
    </mask>
    <g mask="url(#d)">
      <path fill="#000" d="M134.4 117.5c0-.3 0-.6.3-.8.2-.2.4-.3.8-.3.3 0 .6.1.8.3.2.2.3.5.3.8 0 .3-.1.6-.3.8l-.8.2c-.4 0-.6 0-.8-.2a1 1 0 0 1-.3-.8Z"/>
    </g>
  </g>
  <mask id="e" width="6" height="21" x="273" y="143" maskUnits="userSpaceOnUse" style="mask-type:luminance">
    <path fill="#fff" d="M278.7 143.6h-5.4v20h5.4v-20Z"/>
  </mask>
  <g mask="url(#e)">
    <path fill="#000" d="M274.8 158.3c0-.3.1-.5.4-.7.2-.2.4-.3.8-.3.3 0 .6 0 .8.3.2.2.3.4.3.7 0 .4 0 .6-.3.8-.2.2-.5.3-.8.3-.4 0-.6 0-.8-.3a1 1 0 0 1-.4-.8Z"/>
  </g>
  <path fill="#000" d="M274.6 395.5c0-.4.1-.7.4-1 .2-.2.6-.3 1-.3s.7.1 1 .4c.2.2.3.5.3.9s0 .7-.4 1c-.2.1-.5.3-1 .3-.3 0-.7-.2-.9-.4-.3-.2-.4-.5-.4-1Z"/>
</svg>
