<svg xmlns="http://www.w3.org/2000/svg" fill="none" viewBox="0 0 431 316">
  <path fill="#100F0D" d="m4.8 157.9-.2 1.7v4.8a35 35 0 0 0 6.9 16.3c2.3 3 5.2 6 8.9 8.6l2.7 2 3 1.8c2 1 4.2 2.2 6.5 3.1a82 82 0 0 0 14.3 4.6l3.8.9 2 .4 1.9.2 7.6 1.1 2 .3 1.9.1 4 .3 3.8.2 2 .1h1.9l7.6-.1h2l1.8-.2 3.6-.4c2.5-.2 4.9-.4 7.2-.8l6.7-1.1 3.3-.6 3-.8 6-1.5 2.7-.8 2.5-.9 4.7-1.7 4.1-1.5 3.4-1.5 6.3-3-6.6 2.3-3.5 1.3-4.2 1.2-4.7 1.3-2.6.7-2.8.6-5.8 1.1-3 .6-3.3.5-6.7.9c-2.2.3-4.6.3-7 .5l-3.5.2-1.9.1H76l-1.8-.1-3.7-.3-3.8-.3-1.9-.1-1.9-.3-7.6-1.1-1.9-.3-1.7-.3-3.7-.8c-4.8-1-9.5-2.5-13.8-4.2-2.2-.7-4.2-1.8-6.2-2.7-1-.6-2-1-2.8-1.6l-2.8-1.7a42 42 0 0 1-8.8-7.6A35 35 0 0 1 5 159.6v-1.7ZM117.6 66.6l-3.2 1.9c-2.3 1.3-5 2.8-7.7 4.6l-4.3 2.8L98 79c-3.1 2.1-6.2 4.6-9.3 7.1-3.1 2.7-6.4 5.4-9.4 8.3a202.4 202.4 0 0 0-21 23.9l-3.6 5c-2.2 3.2-4.4 6.4-6.2 9.5l-2.7 4.5-2.4 4.3a172.7 172.7 0 0 0-7 13.5l-2.4 5.2 3-4.9 3.4-5.7 4.6-7.2 5.6-8.5 6.5-9.3 3.6-4.8 3.9-4.8c2.5-3.3 5.4-6.4 8.1-9.6 3-3 5.8-6.2 8.8-9 3-3 6-5.8 9-8.5 3.1-2.5 6-5.1 9-7.3l4.2-3.3 4-3 7.3-5 3.1-2 2.7-1.8 5-3.2-5.4 2.8-2.8 1.4Z"/>
  <mask id="a" width="431" height="316" x="0" y="0" maskUnits="userSpaceOnUse" style="mask-type:luminance">
    <path fill="#fff" d="M1 .3h430v315H1V.3Z"/>
  </mask>
  <g mask="url(#a)">
    <path fill="#100F0D" d="M138.3 157.3v2.9l.4 2.8.1 1.2c-38.5 19.6-78 25-100.7 20l.2-2c.1-2 .7-4.7 1.4-8l1.7-5.7a118.2 118.2 0 0 1 10.4-21.2l1.2-2 1.4-2 2.8-4c2-2.8 3.8-5.8 6-8.6 4.5-5.5 8.9-11.6 14.4-17.2l4-4.3 2.1-2.2 2.3-2.1 9-8.4a244 244 0 0 1 41.4-29.2c7.4-4.2 14.8-8 22.2-11.3 7.3-3.4 14.6-6.3 21.8-8.5a118 118 0 0 1 20.5-4.5c1.6-.3 3.2-.4 4.8-.5 1.5-.2 3-.4 4.6-.4H218.7l2 .2c.6 0 1.3 0 1.9.2l3.6.3 6.2 1.1 5 1.3c1.4.3 2.6.8 3.5 1.1l3 1-2.9-1c-1-.4-2-1-3.5-1.4l-5-1.5-6.2-1.3a1503 1503 0 0 1-5.5-.7l-2-.2-4.2-.2h-9c-1.7.2-3.3.2-5 .5-6.5.6-13.6 2-20.9 4.1-7.3 2-14.8 4.8-22.3 8.1l-5.7 2.5-5.6 2.7-5.7 3-5.6 3a248 248 0 0 0-51.5 37.7l-2.3 2-2 2.3-4.1 4.4c-5.6 5.7-10.1 12-14.7 17.6l-.8 1.1-.8 1.1-1.4 2.2-2.8 4.3-2.8 4.2c-.4.7-.9 1.2-1.3 2l-1.2 2c-3.2 5.5-5.8 10.6-7.7 15.4-1 2.3-1.6 4.6-2.3 6.7-.7 2-1 4-1.5 5.8-.7 3.6-1 6.5-1 8.4l-.2 1.6c-4.3-1-8-2.6-10.7-4.5a64.8 64.8 0 0 1-4.4-38.7c2.6-14.1 9-27.4 17-39.7 5.9-9 12.7-17.6 19.8-26C65 68 73 61 81.5 53.9a227.1 227.1 0 0 1 89.8-46.1c28-6.8 51.6-5.2 61.6 4.1a46 46 0 0 1 6.8 7.8c4 6.6 6.2 14.2 6.4 21.7.3 11.9-3.8 23.4-9.7 34.1-1.4 2.6-3 5.3-4.9 8l-1.7-.3a84 84 0 0 0-52 9 74.5 74.5 0 0 0-36.5 43.4c-2 6.9-3.3 14.2-3 21.8Zm39-25.7c3.7-2.2 8-3.3 12.4-3.4-3.4 3-7 5.9-10.8 8.9-.6-1.8-1.2-3.7-1.6-5.5Zm-1-8c0-1.8 0-3.7.3-5.5a39.3 39.3 0 0 1 23.2-24.5 96 96 0 0 1 27.7-4.5c-9 12-21 24.6-36 37.6-5-.2-10.2 1-14.5 3.3-.4-2.1-.7-4.2-.7-6.3Zm33 57.8a145.7 145.7 0 0 0 14.5-12 194.6 194.6 0 0 0 29.4-33.4 270.6 270.6 0 0 1 29 11.5 227.6 227.6 0 0 1 56.2 38.8 207.3 207.3 0 0 1 32.9 40.5c2.7 4.4 5.1 8.6 7 12.7 1.8 4 3.1 7.8 4 11.3a42.9 42.9 0 0 1 1.1 14.7l-.3 1.5-5.2.3a123 123 0 0 1-29.3-3.7 272.1 272.1 0 0 1-139.7-82l.3-.2ZM257 130A188.5 188.5 0 0 0 274.6 96l5.1 1.5a220.7 220.7 0 0 1 46.8 20.4 247.1 247.1 0 0 1 66 55 221 221 0 0 1 14.9 20c4.6 7.2 9.2 14.7 12.3 22.6a52 52 0 0 1 3.4 12.4c.5 4.3.4 8.6-.8 12.7-.7 2.5-1.8 5-3.2 7.2l.2-1 .4-3.3c.2-2.4.3-5.1.2-8l-.1-2.3c0-.8-.2-1.5-.3-2.3l-.3-2.5c-.1-.8-.2-1.6-.5-2.5l-1.3-5-2-5a90.7 90.7 0 0 0-5.2-10.3l-3.1-5c-1-1.6-2-3.3-3.3-4.9-2.3-3.2-4.5-6.5-7-9.5l-3.5-4.6-3.7-4.4c-2.3-2.8-4.9-5.4-7.2-8a72 72 0 0 0-3.5-3.6l-3.3-3.3a56.6 56.6 0 0 0-6-5.5l-2.6-2.3-2.3-1.8a5012.5 5012.5 0 0 0-.2.2l2.2 1.9 2.5 2.3c1.7 1.7 3.8 3.6 5.8 5.8l3.2 3.3 3.4 3.7c2.2 2.6 4.6 5.2 6.8 8.2l3.6 4.4 3.4 4.6c2.3 3.1 4.4 6.4 6.6 9.7l3 5c1 1.6 2.1 3.2 3 5 1.8 3.3 3.5 6.6 4.8 10l1.8 4.8 1.3 5 .4 2.2.2 2.3.2 2.3v2.1c.2 2.9 0 5.4-.2 7.7 0 1.2-.3 2.2-.4 3.2l-.2 1.4-.3 1.2-.5 2-.5 1.7-.5 1.3a42 42 0 0 1-8.7 6.5 51.1 51.1 0 0 1-18.3 6l.1-.6c.2-1.4.4-3.6.2-6.3 0-2.7-.6-6-1.5-9.6-1-3.7-2.5-7.7-4.4-11.8a189.4 189.4 0 0 0-16.7-26.6 211.5 211.5 0 0 0-53.5-49.9 218.5 218.5 0 0 0-56-26.6l-1.2-.4 3-4.6Zm172.2 97.6a67.8 67.8 0 0 0-8-20.7l-.9-1.4a1911.8 1911.8 0 0 0 2.9 5.6 70 70 0 0 1 4.4 43.4 68.2 68.2 0 0 1-16.4 30.8 76.4 76.4 0 0 1-25.5 18.3l-2.7 1-1.3.6-.4.1h-.1l-.2.1-.7.2-5.5 1.7c-7.5 2-15.5 3.5-23.7 4l-3.1.2-3.1.1h-6.3c-4.2-.2-8.5-.2-12.7-.8-4.2-.3-8.6-1.2-13-1.9-4-1-8.5-1.9-12.7-3-8.5-2.3-17-4.9-25.5-8l-6.3-2.5-6.2-2.6c-2-1-4.1-1.8-6.2-2.7l-6.1-3c-4.1-1.8-8-4-12.1-6l-12-6.6a174 174 0 0 1-79.6-95.5l-1.6-5.5-1.2-5.4-.3-1.4-.2-1.4-.4-2.8-.3-2.7-.1-2.7a66.1 66.1 0 0 1 11-38.8 73 73 0 0 1 26-24.2 83 83 0 0 1 45.5-10c2.1 0 3.8.3 4.9.4l1 .1-1 1.3-1.7-.5-5.4-.9a55.6 55.6 0 0 0-33.8 8.5c-4.4 3-8.5 7.2-11.3 12.5a38.5 38.5 0 0 0-4.3 18c0 6.7 1.9 13.5 4.8 20 3 6.7 7 13 11.4 19.4a255.6 255.6 0 0 0 53.2 54.9 274.4 274.4 0 0 0 105.2 49c9.8 2.3 20 4 30.2 3.8a71 71 0 0 0 15.2-1.8c5-1.2 9.8-3.1 14.2-5.6 4.3-2.5 8.3-5.6 11.5-9.3a32.2 32.2 0 0 0 7.7-26.4c-.7-4.6-2-9-3.7-13.1a96.6 96.6 0 0 0-5.9-12c-1-1.9-2.2-3.7-3.3-5.6l-3.6-5.5a227.8 227.8 0 0 0-49-52.9 249.4 249.4 0 0 0-61.6-35.8 223 223 0 0 0-19.2-6.7l-5.1-1.4-.3-.1.6-1.7a67.6 67.6 0 0 0-5.7-58.5 69 69 0 0 0-22.4-23A67.6 67.6 0 0 0 229.6 4a77.2 77.2 0 0 1 17.1 8.2 66 66 0 0 1 21.1 23.1 71.8 71.8 0 0 1 8.6 36.9 81.1 81.1 0 0 1-4 20 186.1 186.1 0 0 1-29.1 52 214.2 214.2 0 0 1-35.7 35.4l-.4.3-4.8-5.7a1952.1 1952.1 0 0 0 4.8-3.3l2.1-1.4 2.3-1.8 5-4 2.6-2.3 2.6-2.4c1.8-1.7 3.7-3.4 5.3-5.3l5.3-5.7 4.8-6c1.6-2 3-4 4.3-6 1.4-2 2.8-3.9 3.9-5.8l3-5.3 1.4-2.3 1-2.3 1.8-3.5 1.5-3.2-1.7 3-1.8 3.6-1.2 2.2-1.5 2.3-3.3 5.1c-1.2 1.9-2.7 3.6-4 5.6-1.5 1.9-3 3.9-4.7 5.7l-5 5.8-5.4 5.4c-1.7 1.8-3.7 3.4-5.5 5-1 .7-1.8 1.5-2.7 2.3-.9.7-1.7 1.5-2.6 2l-5 3.8-2.3 1.6-2.1 1.4-3.6 2.1-1.5 1-7.8-10.3-1.1-1.6 3.8-2.7 5.1-3.7 3.1-2.4 3.4-2.8 3.6-3 3.7-3.4 3.9-3.6 3.9-4c2.5-2.7 5.2-5.4 7.7-8.4 2.6-3 5-6 7.5-9.2 2.3-3.2 4.7-6.3 6.8-9.6 2.2-3.2 4-6.5 6-9.6l2.6-4.7 2.3-4.6 2.2-4.3 1.8-4.2 1.7-3.8a723.3 723.3 0 0 1 3.4-9.3l1.7-5-1.8 5c-.6 1.6-1.3 3.5-2.3 5.7l-1.4 3.4-1.7 3.8-2 4.1-2.3 4.3-2.4 4.5-2.8 4.6c-2 3.1-3.9 6.3-6.2 9.5-2.1 3.1-4.6 6.2-7 9.3-2.5 3-5 6.1-7.6 9-2.5 2.8-5.3 5.5-7.9 8.2l-4 3.7a86 86 0 0 1-3.8 3.5l-3.8 3.3-3.6 2.9-3.4 2.6-3.1 2.3a104.5 104.5 0 0 1-8.9 6c-2.1-3.1-4.1-6.3-5.8-9.4a305 305 0 0 0 42.6-40.5 102.6 102.6 0 0 0 26-54.5 46.1 46.1 0 0 0-20.4-45.3c-26-17-98.1-1-152.5 44.5-32 26.7-70.2 65.4-71.1 98.2-.3 11.5 4 21.4 12.7 29.5 7 6.6 19.6 9.7 35 9.7 24 0 55-7.6 83.2-21.7l.3 1.3 1.2 5.8 1.6 5.7 2 5.6.4 1.4.2.4.1.4.3.7 1.1 2.8 1.1 2.7 1.3 2.8 2.6 5.7c1.8 3.4 3.7 6.9 5.7 10.3l-1.5.5-7.8 2.4-12.3 3.3a276.2 276.2 0 0 1-35.3 6.6l-5.2.5-5.4.3-5.4.1h-5.6c-7.5-.3-15.2-1.4-22.7-3.3-7.6-2-15-4.9-21.8-8.8-6.7-3.9-12.7-8.8-17.4-14.6a56.9 56.9 0 0 1-10.3-19 64.1 64.1 0 0 1-.2-37.6c3-10.9 7.8-19.3 11.4-25 1.8-2.8 3.4-5 4.4-6.4l1.7-2.2-1.8 2.1c-1.1 1.4-2.8 3.5-4.7 6.3-3.9 5.5-9 13.9-12.5 24.8a66 66 0 0 0-.9 38.7 58 58 0 0 0 10.3 20 67.6 67.6 0 0 0 18.1 15.7 91 91 0 0 0 22.6 9.5c7.8 2.1 15.8 3.4 23.6 3.7h11.4l5.5-.4 5.4-.5a188 188 0 0 0 35.8-7.3 239.4 239.4 0 0 0 21.8-7.4 182.5 182.5 0 0 0 65.3 63.3l12 6.6 6 3.1 3.2 1.6 3 1.4 6.3 3c2 1 4.2 1.7 6.3 2.7l6.4 2.6 6.4 2.4a264 264 0 0 0 26 8c2.2.7 4.4 1 6.6 1.6l6.6 1.4c4.3.7 8.6 1.5 13 1.9 4.5.5 8.9.5 13.2.7h6.5c1-.1 2.1 0 3.2-.2l3.2-.2a114.3 114.3 0 0 0 30.1-6.3l.7-.3h.2l.2-.1.3-.2 1.4-.5 2.7-1.1a78.8 78.8 0 0 0 37-35.3 65.9 65.9 0 0 0 5.2-43.4Z"/>
  </g>
  <path fill="#100F0D" d="M346 296.4a216.2 216.2 0 0 1-51.5-9A237.7 237.7 0 0 1 255 272l-9.4-5-9.1-5.6a217.4 217.4 0 0 1-34.6-27.3l-3-3c-2.2-2-4-4-5.9-5.9l-5-5.6-4.6-5-7-8.7-4.2-5.7-1.5-2 1.2 2.2c.9 1.4 2 3.5 3.8 6 1.6 2.6 3.7 5.7 6.2 9.1l4.1 5.5 4.8 5.9c3.5 4 7.3 8.4 11.7 12.7l6.9 6.5c2.4 2.1 4.9 4.4 7.5 6.5l8.2 6.3c2.8 2 5.7 4.1 8.7 6l9.2 5.8c3.2 1.7 6.4 3.6 9.7 5.2a212.7 212.7 0 0 0 93.2 22 150.8 150.8 0 0 0 21.8-1.8l-2.7.2a174 174 0 0 1-19 0ZM148 144.7c.6-2.3 1-4.6 1.7-6.8.6-2.3 1.4-4.4 2.2-6.5l1.2-3 .6-1.5.7-1.4 1.3-2.7 1.4-2.5c.8-1.6 1.7-3 2.5-4.2l2-3.2 2-2.8-2.2 2.6-2.4 3-1.4 2-1.4 2.2-1.5 2.4-1.4 2.7c-1 1.8-1.9 3.9-2.8 6-.8 2-1.7 4.2-2.3 6.5-.7 2.2-1.2 4.6-1.7 7-.4 2.3-.8 4.7-1 7-.2 2.4-.2 4.7-.2 7l.2 3.2v1.6l.3 1.6.3 3 .5 2.7c.3 1.8.8 3.3 1.2 4.7a36.4 36.4 0 0 0 2.2 6.7l-.8-3.1-.9-3.7c0-.7-.2-1.4-.4-2.2l-.4-2.5-.4-2.8-.2-3c-.2-2-.1-4-.2-6.3 0-2.2 0-4.5.4-6.8.1-2.3.6-4.6 1-6.9ZM418 259l-.8.8c-3.5 3.5-8.6 7-15.1 9.5-6.6 2.5-14.6 3.9-23.3 4-8.8.1-18.2-1.1-28-3.3a287 287 0 0 1-61-21.4 294.8 294.8 0 0 1-92.6-69.2l-9.4-11.4c-6-7.5-10.9-15-14.1-22.5a50.1 50.1 0 0 1-4.5-21.5 39 39 0 0 1 4-16.4 33.5 33.5 0 0 1 9-11l.9-.7-.9.6a32.7 32.7 0 0 0-9.5 10.8 40 40 0 0 0-4.8 16.7c-.5 6.7.9 14.4 4 22.1 3.2 7.8 8 15.5 13.9 23.2a273.8 273.8 0 0 0 63 59.2l-.2-.1c19.6 13.8 37 25.3 59.5 34.7 22.6 9.3 47 15.6 71.8 15.5 10.4 0 21.8-2.2 31-7a28.3 28.3 0 0 0 14.6-24.4v-.1c-1.9 4.3-4.4 8.4-7.6 12Z"/>
  <path fill="#100F0D" d="m296 148.5 8.9 5.5 10.2 6.7c1.8 1.1 3.6 2.5 5.4 3.8l5.7 4c3.8 2.7 7.5 5.8 11.4 8.8l5.5 5c1.9 1.6 3.9 3.1 5.6 5l5.2 5.2 2.6 2.6 2.4 2.8 4.7 5.4 4.3 5.5a212 212 0 0 1 7.8 10.7c1.2 1.7 2.3 3.5 3.3 5.2l1.5 2.4 1.4 2.5c1.8 3.1 3.1 6.2 4.4 8.8 1.2 2.7 2 5.2 2.8 7.1l1.8 6.4-1.5-6.5c-.7-2-1.4-4.4-2.5-7.2-1.1-2.7-2.3-5.8-4-9l-1.4-2.6-1.4-2.5c-1-1.7-2-3.5-3.2-5.2-2.3-3.6-4.8-7.3-7.6-11-1.4-1.8-2.7-3.7-4.3-5.6l-4.7-5.5-2.4-2.8c-.8-1-1.7-1.8-2.6-2.7L350 186c-1.7-1.8-3.6-3.4-5.5-5l-5.6-5-11.6-8.8c-4-2.7-7.6-5.4-11.4-7.7-3.7-2.3-7.1-4.5-10.4-6.4l-9-5.2-7.1-3.8c-4-2-6.2-3.3-6.2-3.3l6 3.6 6.9 4.1Z"/>
  <mask id="b" width="5" height="16" x="99" y="68" maskUnits="userSpaceOnUse" style="mask-type:luminance">
    <path fill="#fff" d="M103.7 68.5h-4.4v15.1h4.4v-15Z"/>
  </mask>
  <g mask="url(#b)">
    <mask id="c" width="4" height="4" x="100" y="77" maskUnits="userSpaceOnUse" style="mask-type:luminance">
      <path fill="#fff" d="M100.4 77.6h3.1v3h-3v-3Z"/>
    </mask>
    <g mask="url(#c)">
      <path fill="#000" d="m100.8 79.1.3-.6.6-.2.7.2.3.6-.3.6a1 1 0 0 1-.7.2 1 1 0 0 1-.6-.2.7.7 0 0 1-.3-.6Z"/>
    </g>
  </g>
  <mask id="d" width="5" height="16" x="214" y="98" maskUnits="userSpaceOnUse" style="mask-type:luminance">
    <path fill="#fff" d="M218.6 98.6h-4.4v15h4.4v-15Z"/>
  </mask>
  <g mask="url(#d)">
    <path fill="#000" d="m215.4 109.7.3-.6.7-.2c.2 0 .5 0 .6.2l.3.6c0 .3 0 .4-.3.6a1 1 0 0 1-.6.2 1 1 0 0 1-.7-.2.7.7 0 0 1-.3-.6Z"/>
  </g>
</svg>
