<svg xmlns="http://www.w3.org/2000/svg" fill="none" viewBox="0 0 325 430">
  <path fill="#0A0000" fill-rule="evenodd" d="m84.3 34.6 2.7-1.1c2.5-.8 4.6-.6 6.6.2s4 2.1 5.8 4c.2.2.6.3.8 0 .3-.2.3-.6 0-.8a15.8 15.8 0 0 0-5.8-5.2c-2.4-1-5-1.1-8 0-.5.1-2.5.8-3.4 1.5-.6.4-.9.9-1 1.3 0 .3.1.7.5 1l1.3 1 4.9 2.3c1.3.8 2.4 2 3.4 3.4.9 1.5 1.6 3 2 4.5 1.7 4.6 2.4 10.2 4.4 15 .9 2.3 2 4.3 3.5 6 .7.8 2.4 2.2 4.1 2.9 1.3.6 2.6.8 3.5.1.2 0 .2-.3.1-.5a.4.4 0 0 0-.5-.1c-.7.4-1.6 0-2.5-.6-1.4-.9-2.7-2.3-3.2-3a20.4 20.4 0 0 1-3-5.5c-2-4.8-2.8-10.4-4.5-15-.7-1.8-1.7-3.9-3.1-5.6-1-1.3-2.1-2.3-3.4-3L84.8 35l-.5-.4Z" clip-rule="evenodd"/>
  <path fill="#0A0000" fill-rule="evenodd" d="M101.9 40c0-.2 0-.5-.2-.5-.1 0-.5 0-.6.5V42l1.4 7.3A39 39 0 0 0 116 68h.5c.2-.2.2-.5 0-.6-2-1.9-3.6-4-5.4-6.3l-3.3-4.3a41.1 41.1 0 0 1-4.2-8l-1.6-7a25.8 25.8 0 0 1-.1-1.8ZM120.2 65.7c0 .2.2.3.3.3.3 0 .4-.1.5-.2v-.4l-.7-.6-.7-.8-2.5-3.8a46.3 46.3 0 0 1-3.7-7.5c-.7-1.7-1.2-3.5-1.4-5.4 0-.2-.2-.3-.4-.3s-.3.2-.3.4c.2 2 .7 3.8 1.4 5.6 1 2.6 2.3 5.2 3.8 7.6l2.5 3.8.8 1 .4.3Z" clip-rule="evenodd"/>
  <path fill="#0A0000" fill-rule="evenodd" d="M103.3 41.6h-.2l-.2.3c0 .3 0 .5.4.6h.2l2-.5c1.3.4 1.5 2 2.4 2.8.4.4.8.6 1.2.7 2.3.7 4.6-.7 7-1.2a4 4 0 0 1 2.2.2c1 .4 1.7 1 2.4 1.6 2 1.8 3.3 4.2 5 6 1.6 1.4 3.2 2 4.7 3.2.6.4 1.1 1 1.6 1.6 0 .2.3.3.5.2.2-.1.2-.4.1-.5-.4-.9-.9-1.5-1.4-2.1-1.2-1.4-2.7-2.2-4-3.8-1.7-2-3-4.4-5-6.2-.8-.9-1.9-1.6-3.2-2-.8-.3-1.5-.4-2.3-.3-2.5.1-4.7 2.2-7.1 1.6-1.3-.2-1.6-1.8-2.5-2.5a2.6 2.6 0 0 0-2.3-.5l-1.5.8Zm.8 0c0-.2-.2-.3-.8 0h.8ZM132.3 71.2l.1-3.3a49 49 0 0 1 3.3-12.8c.8-2 2.6-3.3 4.6-4.4 3.2-1.8 7-3 9.8-4.3 3.7-1.8 6.4-6.1 10-8.6 1.4-1 2.8-1.6 4.6-1.6l4 1 3.2 1.3c.2.2.5.2.7 0V38c-.5-.7-.9-1.2-1.4-1.6-.5-.5-1.1-.8-1.8-1.1l-2.7-.9c-.6-.2-1.3-.2-2-.2-2.2 0-4.1.8-5.8 2-3.5 2.3-6 6.5-9.8 8.3-2.8 1.3-6.7 2.5-9.8 4.5a11.4 11.4 0 0 0-5.1 5.7 45.7 45.7 0 0 0-2.5 13.2c0 .4-.3 1.6-.3 2.6 0 .6.2 1.1.4 1.3.2.2.4.2.6 0v-.5ZM176 41.6c-.6 0-1 .4-1.5.9s-.8 1.4-1 2l-3 6c-.7 1.3-1.6 2.5-2.6 3.7l-4.6 5.5c-1.7 2.1-3 4.3-4.7 6.3-1.1 1.3-2.3 2.5-3.8 3.6v.3c0 .2.2.2.3.1 1.2-.8 2.1-1.7 3-2.6 2.2-2.2 4-4.6 6-7l4.9-5.3c1-1.2 2-2.5 2.8-4l3-6.1c.2-.6.4-1.5.8-2 .2-.3.3-.5.6-.6a.4.4 0 1 0-.1-.8Z" clip-rule="evenodd"/>
  <path fill="#0A0000" fill-rule="evenodd" d="m147.5 72-.1.2v-.1c.4-.2 1.5.3 1.6.3l4.6-1.4c2.4-1.1 4.7-2.5 6.8-4.2 2.1-1.6 4.1-3.4 6-5.2 1.4-1.4 2.6-3 3.5-4.7 2.2-3.7 3.4-7.8 5.5-11.8 1.6-3 4.4-5.3 6.4-7.9a15.2 15.2 0 0 0 2.7-6c.7-2.7.9-5.5 1.5-8.1a.8.8 0 0 0-.5-1 .7.7 0 0 0-1 .6c-.8 2.5-1.2 5.3-2 8-.4 1-.8 2-1.4 3-1.6 2.9-4.5 5-6.6 7.7l-1.5 2.4c-2 4-3.3 8.1-5.4 11.8-.8 1.5-1.8 2.9-3 4.2a61.8 61.8 0 0 1-11.9 9.3l-4 1.8-1.9.8c0 .2 0 .4.3.5.2 0 .4 0 .4-.3v.2Z" clip-rule="evenodd"/>
  <path fill="#0A0000" fill-rule="evenodd" d="M193.5 10h-.3l-2 1.7a37.8 37.8 0 0 0-6 8.8l-1.8 6.2-.1 2v.1c-.3 0-.1.4.2.8.1.4.4.7.4.7l-.4-.7-.3-.5V29a6.9 6.9 0 0 0 .7 1.3v-.5h.6l-1.2-1v-.1c.2 0 1.3 1.2 1.3 1.2l-.3-.7.6-2.2 2-5.7a38.7 38.7 0 0 1 5.8-8.2l1.6-1.4 1-.5c.4-.4.4-.9.4-1-.2-1.3-1.6-2.6-3.5-3.5-2.4-1.3-5.5-1.8-6.7-1.4a5 5 0 0 0-1.8 1c-.7.7-1.2 1.5-1.7 2.2l-.4.4c0-.9.7-2.3.3-3.1-.1-.5-.5-.9-1-1.1-.9-.3-1.7-.4-2.6-.4-1.7 0-3.6.5-5.3.4l-5.4-1a23 23 0 0 0-11 2.1c-2 1-3.9 2.3-4.7 4-.3.6-.4 1.2-.4 1.7-.1.4 0 .8.4 1 .4 0 .8-.1 1-.5.2-.5.6-.8 1-1.2 1.3-1.5 3.1-2.8 5.3-3.7a22 22 0 0 1 8.3-1.7l5.5.8c1.7 0 3.6-.6 5.4-.7.7 0 1.3 0 2 .3 1.7.7-.1 3.1.2 4.2.1.4.3.6.6.8.3.2.7.2 1.2-.1.4-.3.9-1 1-1.2l1.5-1.8L186 7c.9-.3 2.8.2 4.5 1 1.3.5 2.5 1.1 3 2ZM114.5 44.8h.2c.2 0 .3-.2.3-.4 0-.4-1.2 0-1.1-.5 0-.1.2 0 .2 0l-1-1.6-7.7-9.2c-.8-.9-1.5-1.8-1.9-2.9-.2-.6-.3-1.2-.1-2 .3-1.1 1.2-2 2.3-2.5 1.2-.6 2.6-.8 3.8-.6 1.9.3 3.2 1.2 4.8 1.4a6 6 0 0 0 2.5-.3c1-.3 2-.7 2.8-1.3 2-1.1 3.6-2.6 5.8-3.5.4-.2.8-.2 1.3-.2 1.3.1 2.5.8 4 .5 2.6-.5 5-1.9 7.4-2.7 1-.3 2-.6 3-.6a5 5 0 0 1 2.3.3c1.2.5 2 1.3 3.2 2.1 1.8 1.5 3.5 2.7 5 4.2.9 1 1.7 2 2.5 3.2 1.4 1.9 3.4 3.8 4.5 6a5 5 0 0 1 .3 4.2c-.2.5 0 1 .4 1.2.5.2 1 0 1.2-.5 1-2 .8-4 .1-5.8-1-2.3-2.9-4.5-4.2-6.6-1-1.5-2-2.6-3-3.6-1.6-1.5-3.4-2.7-5.4-4.2-1.4-.9-2.5-1.7-3.9-2.1-1-.4-2-.5-3.1-.4-1.2.2-2.4.5-3.5 1-2.4.9-4.6 2.3-7.1 2.8-1.3.3-2.4-.4-3.6-.5-.6 0-1.3 0-2 .3-2.2.9-4 2.4-6 3.6-.8.4-1.6.8-2.5 1-1 .3-1.7.3-2.4.1-1.3-.3-2.5-1-4-1.4-1.9-.4-4.2 0-6 1.1-1.2.8-2.1 2-2.5 3.4-.2 1.1-.1 2.1.2 3a12 12 0 0 0 2.2 3.6l8 8.7 1.6 1.9c.2 0 .6.2.9 0l.2-.2Z" clip-rule="evenodd"/>
  <path fill="#0A0000" fill-rule="evenodd" d="M157 27.8c0 .2.3.3.4.2.4-.2.3-.5.2-.6 0-.1-.5-.2-.6-.4v-1.2a16 16 0 0 0-.5-3.6c-.4-1.7-1.1-3.3-1.8-5a25 25 0 0 0-8.2-9.8L143 6.2l-2.2-2.8a13.6 13.6 0 0 0-5.3-2.8c-1.9-.5-4-.7-5.8-.6-1 .2-2 .9-2.2 1.7 0 .5 0 1.2.8 1.9.5.3 2 .8 3 1.4.5.3 1 .5.7.8-.4.7-1 1.1-1.5 1.2-3 .8-7-2.5-9.4.3-.4.4-.5 1-.4 1.4.1 1 1.6 2.1 1.3 3.1l-2.8 4-.4 4.2-1.6 5c-.1.2 0 .5.2.6.2.1.4 0 .5-.2.7-1 1.3-1.8 1.8-2.8.3-.7.5-1.5.6-2.2l.4-4.3 2.5-3.9c.2-.4.1-.9 0-1.3-.4-1-1.9-2-1.2-2.8 2.3-2.7 6 .6 8.7 0 .9-.2 1.6-.7 2.3-1.6.6-.8.3-1.5-.4-2.2-.8-1-2.6-1.7-3.1-2.1h.4c1.6-.2 3.4 0 5.1.4 1.7.4 3.3 1.1 4.5 2.2l2.3 3 3.6 1.4a21 21 0 0 1 4.1 4c1.4 1.7 2.6 3.5 3.3 5l3 7.7.4 1.5c0 .2.5.3.7.4Z" clip-rule="evenodd"/>
  <path fill="#0A0000" fill-rule="evenodd" d="M140 10c-.3-.1 0 .5 0 .7l1 1.1c.7.8 1.1 1.7 1.2 2.5a3 3 0 0 1-.8 2.4c-.2.3-.2.8 0 1 .3.3.8.3 1 0 1.3-1.1 1.7-2.4 1.6-3.6a5.6 5.6 0 0 0-2-3.3l-1-.8c.1-.2-.5-.7-.7-.6-.2 0-.4.3-.4.5v.1ZM135.8 18.7c.3.3.7.4.6-1.1 0-.3-.7-.8-.9-1l-3.2-1.2c-1.8 0-2.8.5-3.2 1.3-.4.8-.3 2 .5 3.2.2.3.5.4.8.3.3-.2.4-.5.3-.8-.3-.8-.3-1.4 0-1.8.2-.3.7-.3 1.4-.2l2.6.7c.1 0 .6.3.6.5-.3 1.5.2.8.5.1ZM94.2 28.5c-.7.7-2 1-3 1.7l-1.5 1.5c-.3.4-.2 1 .2 1.2.3.3.9.3 1.2 0 .8-1 2.2-1.6 3.3-2.4.6-.5 1.1-1 1.4-1.6.3-.4.3-.8-.1-1.2-.6-.5-2.8-.9-2.4-2 .3-.6.7-1 1.2-1.2 1-.5 2.2-.5 3.3-.8.3 0 .5-.2.7-.4.4-.4.4-1 .9-1.3l4.5-1.4c1-.3 2-.2 3 0 2.5.5 4.7 2 7.6 2.2l4.4-.4 1.5-.4c.1 0 .6 0 .7-.2.1 0 .3-.1.3-.3.2-.3 0-.5-.2-.6l-1 .3-1.5.2-4-.3c-3-.3-5-2-7.5-2.5a8.7 8.7 0 0 0-3.7 0l-3 .9-2 1-1.3 1.6c-1 .4-2.3.6-3.4 1.1-.7.5-1.4 1-1.7 2.1-.2.7 0 1.3.5 1.8s1.2 1.2 1.6 1.4Zm26.5-7.1ZM184 72.1v.1c0 .2-.1.2 0 .2v-.2.1c0 .3.1.4.3.4.5.2.6-.1.7-.4 0-.3-.6-1.5-.8-2l-1.4-4.3c-.3-1.6-.3-3 0-4.5.3-2.3 1-4.7 1.5-7l2.9-10 1-13 2.2-5.6c1.4-4.4 3.3-9.3 6.8-12.1a10 10 0 0 1 8.4-2c1.3.3 2.7.6 3.9 1.3.7.5 1.3 1 1.7 1.8.6 1 .7 2.5 1.2 3.7.2.7.6 1.2 1.1 1.7 1.7 1.4 4.2 2 5.8 3.4.5.5 1 1.1 1.1 2 .4 2-1.5 3.9-2 5.7-.1.7-.2 1.4.1 2 .9 2.4 4.5 5.4 6 8.5.7 1.1 1 2.3.4 3.4a12 12 0 0 1-3.8 4.2c-2.4 1.8-5.4 3.1-8 4-1.5.4-3.4.7-5 1.3-.8.3-1.6.7-2.2 1.3-2.3 2-4.8 6.5-7.5 10l-2.7 2.7c-.3.2-.4.5-.6.8-.4.2-.5.6-.4 1 .2.3.6.5 1 .3l1.2-.1c.9-.3 1.6-1 2.3-1.6 3.3-3.2 5.7-9 8.3-11.4.6-.5 1.3-.8 2.1-1 1.4-.6 3-.8 4.2-1.3 2.7-1 6-2.4 8.5-4.4 1.8-1.4 3.4-3 4.3-5 .8-1.6.5-3.4-.4-5-1.6-3-5.3-6-6.2-8.3-.6-1.7 1.4-3.5 2-5.5v-2a5.1 5.1 0 0 0-1.6-2.8c-1.6-1.5-4.1-2-5.7-3.5-.4-.3-.6-.6-.7-1-.5-1.3-.6-2.8-1.2-4-.5-1-1.3-1.8-2.3-2.5-1.3-.8-3-1.3-4.5-1.6-4.3-.9-7.6.1-10.2 2.2-3.8 3-6 8.3-7.6 13.1l-2.4 6-1 13L182 54c-.5 2.4-1.2 4.8-1.6 7.2-.2 1.7-.2 3.5.2 5.3l2 4.5c.2.4 1.3.8 1.5 1.1Z" clip-rule="evenodd"/>
  <path fill="#0A0000" fill-rule="evenodd" d="M214.4 55c0 .3 0 .2 0 0h.6l2.1.2c1 .1 2.1.3 3.2.7 1 .3 1.9.7 2.7 1.2.6.4 1.1 1.6 1.6 2.2.4.5.8.7 1 .9h4.3c2.6 0 6.5.4 8.7 2.1 1.2 1 1.8 2.6 1 4.8-.3 1.2-1.7 1.9-3.4 2.5-2.6 1-5.9 1.5-7.7 1.8-1.8.3-3 1.2-4.6 1.8l-1.8.2c-1 0-2 0-3-.3-2.5-.4-4.9-1.3-7.4-1.6-2.5 0-4.9.5-7.3.7-2.4.2-4.8 0-7.2.3l-3.6.6s-.2 0-.1.2c0 0 0 .2.1.1 3.6-.2 7.2-.7 10.8-.5 2.4 0 4.7.5 7 1 2.5.2 5 .9 7.4 1.2 1 .1 2.2.2 3.4.1l6.6-2c2.2-.2 6.6-.6 9.6-2 1.8-.8 3-2 3.5-3.4 1-3.4 0-5.7-2-7.2-2.5-2-7-2.6-10-2.6l-3.6.2-2.2-2.7c-1-.7-2.2-1.1-3.3-1.4-1.2-.4-2.3-.6-3.5-.7l-2.5.1s-.9.5-1 .8c-.3.7-.3 1 .2.8.1 0 .3 0 .4-.2ZM185.8 73.3a5.6 5.6 0 0 0-2.9-1.9c-1.1-.4-2.4-.7-3.7-.8-1.3-.2-2.6-.1-3.5-.4a.7.7 0 0 0-.5 1.3c1 .4 2.1.7 3.5.9 1.7.1 3.5 0 4.9.4.7.2 1.2.5 1.6 1h.6c.1-.1.2-.4 0-.5ZM164.5 70.9l-.9-.1-1.7-.4-3.2-3.6a.7.7 0 1 0-1 .8c.5.8 1 1.8 1.7 2.6.6.6 1.2 1 2 1.4l2.3.1h1.1c.4-.2.8-.4 0-.8h-.3ZM144.6 71.9l.3-.4 2.3-.9a19.7 19.7 0 0 0 5.7-4.3 92 92 0 0 0 13.8-18A85.8 85.8 0 0 1 151.8 65l-5.4 4.2-2.2 1.4c-.3.2-.5 1.2-.4 1.4.1.5.4.9.8.2v-.3Zm-.4-.3h-.1ZM141.6 70.8c-.3-.4-1.3.1-1.7.7-.6.7-.2 1.2.3 1.4.6.2 1.6-.2 2.6-1a55.2 55.2 0 0 0 7.7-9.4c1.9-2.9 3.5-5.9 5.3-8.8.1-.2 0-.3 0-.4h-.5c-1.9 2.9-3.7 5.8-5.7 8.5a50.6 50.6 0 0 1-4.3 5.2c-.5.5-2.1 2.5-3.5 3.7l-.2.1Zm-.5.5v.1ZM138.4 72.5a38 38 0 0 0 4.1-5.4c1.3-2 2.2-4.1 3-6 .2-.2 0-.4-.1-.5a.4.4 0 0 0-.5.1l-7 11.3c-.2.2-.2.4 0 .5.2.2.4.1.5 0ZM137 66.7h.1c1 0 .7-3.5.8-3.6 0-.2 0-.4-.2-.4-.2-.1-.3 0-.4.1 0 .2-.9 2.9-1 4 0 .5.4.7.6.7.2 0 .4-.3.3-.5l-.3-.3ZM172.7 37l.7-1.7 2-4.8 9-15.4-.1-.3h-.3c-2 3-4.2 5.9-6.1 8.9-1.4 2-2.6 4-3.7 6.2l-2.1 5s-.3 2.2-.2 2.6c.2.4.6.7 1 0l-.1-.5Zm0 0v.2c.2 0 .1-.1 0-.2ZM180.3 15l-1.6 1-3.8 4.6a29.2 29.2 0 0 0-5.8 16.7c.1 0 .3 0 .3-.2.7-3.7 1.5-6.9 2.9-10 .8-2 1.9-3.9 3.4-6l3.6-4.5 1.8-1.5c.2-.4.2-.7-.5-.7-.2 0-.4.2-.3.4v.2Zm0 0 .2-.3-.2.2ZM167 34.6h.2c.3 0 .3-.3.3-.3 0-.2 0-.4-.3-.6-.3 0-1.4 0-1.6-.4v-2.5c.2-2 .6-4 1.1-5.9.8-3 1.8-5.9 2.7-8.8 0-.1 0-.2-.2-.2h-.2c-1.2 3.4-2.6 6.8-3.7 10.2l-1.2 4.5c-.1.5-.3 1.3-.2 2 0 .7.3 1.2.8 1.6.4.3 2 .6 2.2.4Zm-.3-.6s-.1 0 0 .1l.1-.2-.1.1ZM161 34c-.5-.3-.6-1-.8-1.7-.2-1.2-.2-2.6-.2-3.2-.2-2 0-3.8.5-5.6 1-4.3 3.3-8 4.2-12.7a.2.2 0 0 0-.4 0c-1 3.8-3 7-4.3 10.6a17 17 0 0 0-1 7.7c.1.8.2 2.6.6 3.9.2.7.5 1.3.9 1.6.2.1.4 0 .5-.1V34ZM158 20.6v-.3c.4-1.4 2-4.8 2-5 .1-.2 0-.5-.2-.6a.4.4 0 0 0-.5.2c-.1.2-1.6 3.8-2 5.2-.2.7.1 1 .3 1 .2 0 .4 0 .4-.3v-.2ZM151.9 39.5a1 1 0 0 0-.6.5c0 .2 0 .4.2.5.2 0 .4 0 .5-.2l.8-.2c.1-.1 0-.7-.4-1.3-.7-1-2.3-2.5-2.5-2.7l-8.2-8.1h-.3v.3l7.7 8.6 2.8 2.6ZM147.6 46.2c0 .3.3.4.5.4 0 0 .4-.4 0-.8l-1.1-2-2.2-4.2a59.4 59.4 0 0 0-4.6-6.6 36 36 0 0 0-5.7-5.7h-.3v.4a62 62 0 0 1 9.6 12.5l2.4 4 1.3 2h.1ZM143 48l-2.2-2.5-3.6-5.5a.4.4 0 0 0-.5-.1c-.1.1-.2.3 0 .5l3.5 5.5 2.2 2.5.2.3h.7a.4.4 0 0 0-.3-.6ZM131.2 51.8c.2-.3-.3-1.2-.5-1.5l-2.2-3.6-8-15.1a.3.3 0 0 0-.6.2 108.2 108.2 0 0 0 7.5 15.6l2.6 3.4c.2.3.2 1 .4 1.4.2.4.4.5.8.2.2 0 .3-.3.1-.5l-.1-.1ZM114.2 29.4v-.3l-.3-.2c-.1 0-.5-.1-.5.3l.1 1 .7 1.6 2 4 6.2 10c.2.1.4.2.6 0 .2 0 .2-.3 0-.5l-6.1-10-2-3.8-.7-1.5v-.6Zm-.2.2c-.1.2-.3.3-.5-.2 0 .2.3.3.5.2ZM117.2 43.5l-1.3-2a.4.4 0 1 0-.7.4l1.8 2.4c.2 0 .4 0 .5-.3 0-.2 0-.4-.3-.5ZM127.3 20.3c.6-.5.7-1.3.3-2.2-.6-1.5-2.3-3-2.8-3.6 0-.2-.2-.2-.4-.1 0 0-.1.3 0 .4.4.6 1.6 2.3 2.2 3.7.2.5.4 1 .1 1.3v.6h.6ZM131 19.1l-1-2.4-3.5-5a.4.4 0 1 0-.6.5l3.5 4.9 1.1 2.6h.5c.2-.2.2-.5 0-.6ZM126.6 8v-.2a.4.4 0 0 0-.6 0s-.2.4 0 .7l1.3 1.4 4.3 4.7 1.5 1.9c-.2 0-.3.3-.2.5 0 .2.3.2.5.2.2-.2.4-.5.2-1-.3-.8-1.2-2-1.2-2.1l-4.5-4.8s-.9-1.6-1.2-1.3ZM138 17c.2-.2 0-.9-.2-1.1l-1.5-2.2-3-3.2c-1-1-2.2-2-3.4-2.9a.2.2 0 0 0-.3 0c-.1.1-.1.3 0 .4l6 6.4 1.5 1.9c.2.3.2 1.2.4 1.3.1.1.3.2.5 0a.4.4 0 0 0 0-.6ZM141.8 17v-.7l-1.4-2.4c-.9-1.5-2-3.3-3.3-4.8-1-1-2-1.7-3.2-2.2h-.2v.3c1.3.9 2.2 2.1 3.2 3.4l2.8 3.8 1.3 2.2.2 1c.2.2.4.3.7.2.2-.1.3-.3.2-.5 0-.2-.2-.2-.3-.3Zm0 0v.2c.2 0 0-.1 0-.1ZM143.5 13.1c0 .2.6.5.7.6l2 1.7 4.5 5.3c.1.2.4.2.6.1.1-.1.2-.4 0-.6l-4.6-5.3-2-1.8c-.2-.2-.6-.6-.9-.7-.4-.3-.7-.2-.7.3 0 .2.1.4.3.4ZM123.1 56.6h-.1v.7l-.6 3.8c0 .9.6 4.4 1.6 7.4.8 2.5 2 4.5 2.7 4.8.7.2 1-.1 1-.5 0-.2-.7-1-.5-1.4v-.5a.4.4 0 0 0-.6 0v.2l-.8-2c-1.1-3-2.5-7-2.6-8.1l-.2-3.7.1-.7v-.2.2Zm3.6 15.5c-.4.2-.6.5-.2.5.2 0 .2-.2.2-.5ZM129.9 70.6v.1-.2.2l.2.2c.2 0 .4 0 .5-.2l-.3-.8c-1-1.6-1.6-3.4-2.5-5-.6-1.2-1.4-2.2-2.2-3.2a.3.3 0 0 0-.5-.1c-.2 0-.2.3 0 .4 1 1.7 1.5 3.4 2.4 5.1a21.7 21.7 0 0 0 2.4 3.5ZM108 67.9h.6c.2-.1.2-.3.2-.5l-.8-.5-1-1.9-2.8-5.7a46.9 46.9 0 0 1-6-20.4l-.1.2a46.4 46.4 0 0 0 4.8 20.8l3 5.7 1.4 1.9.8.4ZM101 30.5v-.2a.4.4 0 0 0-.5-.2s-.3.4-.2 1c.3 1 2 3.2 2.1 3.3l3.5 5 2.1 2.8s.7 1.3 1 1h.3l-.1-.1h-.2l-.6-1.1-1.8-3-3.3-5.1-2-3.3v-.2c.3-.4 0-.2-.2 0ZM119.3 42.2l-3.6-2.9a30.7 30.7 0 0 1-5-8.2l-.4-.2c-.1 0-.2.2-.1.3a25 25 0 0 0 4.6 8.9l3.8 2.3c0 .2.3.3.5.2.2 0 .3-.2.2-.4ZM190.2 70.1v-.5l-1.1-1.2c-.4-.2-.6 0-.7.4 0 .2.2.4.4.4 0 .2.7.7.7.7.2.5.2 1 .2 1.4l-.2.7-.3 1v.1c-1.7 3.5-1 4 0 2.5.2 1.7 1 1.7 1.2-2.1l.4-1 1.2-2.7 3.5-6a85 85 0 0 1 10.7-12.6c2.3-2 4.4-3.5 5.9-3.6 0 0 .2 0 .2-.2l-.2-.2c-2 0-5.1 2.1-8.2 5a89.6 89.6 0 0 0-9.7 10.6l-3.6 6.4-.4.9Z" clip-rule="evenodd"/>
  <path fill="#0A0000" fill-rule="evenodd" d="m188 71.8 1-2.7 3.2-8.4a60 60 0 0 1 6.7-11.2c.6-.7 2-1.7 3-2.8.7-.8 1.3-1.6 1.4-2.3l-.1-.2h-.2c0 .4-.4.8-.7 1.1-1.1 1.3-3.2 2.8-4 3.7a51 51 0 0 0-7.4 11 50.4 50.4 0 0 0-3.4 8.7c0 .4-.6 1.9-.6 2.8 0 .5.1.9.3 1 .2.2.6.3.8 0 .3-.2.4-.5.1-.6h-.1Zm-.4.1c-.2.1-.2.2-.1.3V72Z" clip-rule="evenodd"/>
  <path fill="#0A0000" fill-rule="evenodd" d="M186.7 70c-.2-.4-.1-1.2 0-2 .4-2 1.3-4.4 1.5-5 1-4.3 2.6-8.2 4.4-12a188.7 188.7 0 0 1 5.9-11.6h-.3c-2.8 4.5-5.6 8.8-7.7 13.4a52.2 52.2 0 0 0-3.4 9.9c-.2.7-1 3.2-1.2 5.2-.2 1-.1 2 .2 2.5a.4.4 0 0 0 .6-.5ZM201 31.1l2.4-6.7a.4.4 0 0 0-.7-.3c-.2.6-1.7 3.7-2.2 5.7-.3 1-.3 1.6 0 1.8.1.2.4.2.5 0 .2-.1.2-.4 0-.5ZM201.3 22.3c.2 0 .3 0 .3-.2.3-.6 0-.7-.4-.6l-.6.4-1.6 1.7-2.8 4.6c0 .2 0 .4.2.5.1.1.4 0 .5-.1l2.6-4.6 1.5-1.5.3-.2ZM210 36.8v-.1c-.2 0 0 0 0 .1.1.6-1.6 1.8-1.7 2l.1.5.6-.1 1.5-2c.3-.4.2-.8.2-.8a.4.4 0 0 0-.6 0c-.1 0-.2.3 0 .5ZM215.2 40.8l.2-.4c-.2-.4-.4-.4-.6-.2l-.3.4c0 .2 0 .4.3.4.2.1.4 0 .5-.2ZM180 70.7a35.2 35.2 0 0 1-1-13.4c.3-3 1-6 2.5-8.6v-.2h-.3c-2 3.4-3.3 7.1-3.5 11-.3 3.8.4 7.8 1.5 11.4 0 .2.3.3.5.2.2 0 .3-.2.2-.4ZM177.5 68.7c.2-.4 0-.6-.3-.8-.3-.1-1 0-1.1-.3l-.9-3.5V59l1.1-7.7c0-.2 0-.4-.3-.4-.2 0-.3 0-.4.3-.3 2.6-.8 5.1-1 7.7a31.7 31.7 0 0 0 .2 7.6c.1.6.3 1 .6 1.5l1.4.4c0 .2 0 .4.2.5.2 0 .4 0 .5-.2ZM172.4 69.7v-1c-.4-.8-1.3-1.6-1.5-2.5 0-.2-.2-.4-.4-.3-.2 0-.4.2-.3.4l1.4 3.2c0 .2.1.4.3.5.2 0 .4-.1.5-.3ZM168 68.6c-.6-.5-1-1-1.5-1.7-.6-.9-1.2-1.8-1.7-3-.1-.1-.3-.2-.5 0-.2 0-.3.2-.2.4.6 1.1 1.1 2.2 1.8 3l1.6 1.9h.5c.2-.2.2-.4 0-.6ZM199.2 71c0-.5.3-1 .8-1.4l2.2-1.8a56.4 56.4 0 0 1 13.7-8.9l-.2-.1a40.2 40.2 0 0 0-14.2 8.3c-.5.5-1.7 1.4-2.4 2.3-.5.6-.7 1.1-.6 1.6a.4.4 0 0 0 .7 0ZM201.8 70.6c-2.3 1-2.4 1.5-1.4 1.3-.7.8-.3 1 1.8-.7l1.2-.6 2.3-1.7a30 30 0 0 1 6.9-4c.2 0 .2-.2.2-.3 0-.2-.3-.3-.4-.2a30 30 0 0 0-7.3 3.5l-2.3 1.8-1 .8ZM217.6 68.2l2.5.5 5.2-.4c.2 0 .3-.2.3-.4s-.2-.4-.4-.3l-5.2.3-2.5-.3c-.6 0-.9.3-.6 1 .1.2.3.2.5.1.2 0 .3-.3.2-.5ZM235 66.4c-.3-.7-1-.7-1.7-.4-.8.4-1.8 1.6-2.6 2-.1 0-.2.1-.1.3l.3.2c.9-.3 2-1.2 2.8-1.6.3-.2.5-.3.7-.1.1.2.4.2.5 0 .2 0 .3-.3.1-.4ZM138.2 50.7c.4-.3.5-.9.3-1.6-.4-1-1.4-2-1.6-2.3l-7-11.1c0-.1-.2-.2-.3-.1-.1 0-.2.2-.1.3l6.5 11.5 1.7 2.8c-.2.1-.2.3 0 .5h.5ZM132.7 49.2l.3.2c.1 0 .6-.1.4-.6l-.3-.5-1-1.7a.4.4 0 0 0-.6-.1c-.2 0-.2.3-.1.5l1 1.8.3.4Z" clip-rule="evenodd"/>
  <path fill="#0A0000" fill-rule="evenodd" d="M86 72.8c-.2 2.2 0 2.6.4 1.8.3.8.6.4.3-1.9l.1-.6 1-.8c.8-.6 1.8-1 2.8-1 .6-.1 1.2 0 1.8.1l3.1 2.9 1.2-.2c.6-.4 2-1.5 2.4-1.6l3.6 1.6 4.4-.7c.8.2 1 1.5 1.6 2.1.4.4.9.7 1.4.8 1.6.2 3.1-1.1 4.7-1.5h1c.8.5 1 1.4 1.7 1.9l1 .5a4 4 0 0 0 1.7 0c1.4-.4 2.7-1.7 4.1-1.5 1 0 1.6 1 2.4 1.5.6.3 1.2.5 2 .4l6.5-1.7c1.2 0 1.6 1.5 2.5 2 .4.3 1 .4 1.5.4.7 0 1.2-.1 1.8-.5 1.1-.7 1.9-2.4 3.4-2.3.9 0 1.7 1.1 2.4 1.5.6.3 1 .4 1.5.3 1.5-.2 2.9-1.3 4.4-1.8a2 2 0 0 1 1.1 0c.9.1 1 1.2 1.6 1.7.4.2.8.4 1.3.4.6.1 1.2 0 1.8-.1 1.6-.4 3-1.8 4.8-1.6 1 0 1.1 1.4 1.7 1.9.5.4 1 .6 1.6.5.6 0 1.2-.1 1.8-.4 1.4-.6 2.7-2.2 4.4-2 .9 0 1.2 1.4 1.8 2 .6.4 1.1.6 1.7.6.6 0 1.1-.2 1.6-.5 1.1-.6 2.1-2 3.4-2.1.6 0 .6.3.8.6.3.6.6 1 1.1 1.3.3.2.5.3.9.3a5 5 0 0 0 2 0c1.8-.6 3.6-2.2 5.6-2l3.3 2.6c.7.3 1.5.2 2.4-.2 1.4-.7 3.2-2.5 4.4-2.6.3 0 .4.3.5.5l1 1.5c.4.4 1 .7 1.6.7a4 4 0 0 0 2-.3c1.3-.6 2.5-2.3 4-2 1 .2 1 1.4 1.5 2l1 .8c.8.4 1.6.4 2.3.2 1.3-.5 2.4-2.3 3.6-2.7.2.4.7 1.4 1.2 1.8.4.3.9.5 1.5.5.7 0 1.3-.1 1.8-.4 1.2-.4 2.2-1.6 3.4-2 .3.9.8 1.7 1.6 1.6 1.8-.2 3-.8 4-1 .4 0 .6.1 1 .5.4.2.8.2 1.2.5.3.5 1 .6 1.4.3.5-.3.6-1 .3-1.4 0-.7-.2-1.1-.4-1.6-.6-1.3-1.7-1.7-2.5-2-1.3-.2-2.6.7-4.6 1.4-.3-.6-.6-1.2-1.1-1.2-.7 0-1.3.2-1.9.4-1.4.6-2.6 2.2-4.2 2.2-.2 0 0-.3-.1-.5l-.6-1a2 2 0 0 0-1.8-1c-.6.1-1.2.4-1.9.8l-2 1.8c-.3.3-.6.6-1 .5-.9-.5-1-1.8-1.8-2.4a3 3 0 0 0-1.3-.6 4 4 0 0 0-2 0c-1.6.5-2.8 2.4-4.4 2.2-.3 0-.3-.5-.5-.7-.3-.6-.8-1.2-1.3-1.6-.4-.2-1-.4-1.6-.4-.6 0-1.2.3-1.9.6-1 .5-2 1.3-3 1.9-.4.2-.7.6-1 .5-.9-.3-1.2-1.4-2-2-.5-.4-1.1-.7-2-.8a6 6 0 0 0-2 .3c-1.8.5-3.5 2.1-5.3 1.8-.3 0-.2-.3-.3-.5-.3-.5-.6-1-1.2-1.3-.4-.3-1-.5-2-.4-.5 0-1 .2-1.5.5-1.2.6-2.1 2-3.3 2.1-.2 0-.2-.3-.3-.5l-1.5-1.6c-.4-.3-.9-.5-1.4-.6-.7 0-1.3 0-1.9.3-1.6.5-2.9 2.2-4.5 2.3-.3 0-.4-.4-.5-.7l-1.2-1.3c-.4-.3-.9-.4-1.4-.5-.6 0-1.2 0-1.8.2-1.6.4-3 1.8-4.8 1.6-.7 0-.8-1.1-1.4-1.6l-1-.5c-1-.2-1.8-.1-2.6.2-1.3.4-2.6 1.5-3.8 1.6-.8.1-1.4-1-2.3-1.4a3.3 3.3 0 0 0-3 0c-1.4.5-2.1 2.5-3.6 2.5-1.2 0-1.6-1.6-2.5-2-.4-.4-1-.5-1.5-.5l-6.7 1.8-3.8-2c-.6 0-1.2 0-1.7.2-1.4.4-2.5 1.7-4 1.4l-2-2c-1-.6-1.9-.6-2.8-.4-1.3.4-2.5 1.7-3.8 1.5-.8 0-.9-1.5-1.6-2.1-.3-.3-.7-.6-1.2-.7a4 4 0 0 0-1.3 0c-1.2 0-2.4.8-3.6.8-.9 0-1.3-.9-2-1.2-.6-.2-1.1-.4-1.8-.3-.6 0-2.7 2.7-3.2 1.9-.1-.2.4 0 .5 0-.7-.2-1-1.2-1.8-1.9-.4-.3-.9-.7-1.4-.8-1.1-.3-2.3-.4-3.3 0-1 .3-2 .9-2.7 1.6l-1 1.5v1ZM234.7 79.8c.2-.2.2-.4 0-.5.2-.7-.1-.2-.6-.3-.1 0-.3 1-.6.7l.2-.1-3.3.8-9.6 1.3c-4 .5-7.9.7-11.8.9l-14 .3-14 .6a.4.4 0 0 0 0 .8c8.1.2 16 .8 24 .7 5.4-.1 10.7-.6 16-1.4l9.7-1.7 3.5-1c.3-.2.3-1 .7-1h-.2ZM168.8 82.8c.7-.6.3-1-.2-1.4-.6-.4-1.8-.4-2-.5l-8.8.1-22.5.1-.2.3c0 .2 0 .3.2.3l9 .7c4.5.2 9 .4 13.5.4l8.7-.3 1.7-.2c-.1.2 0 .4.1.6l.5-.1Z" clip-rule="evenodd"/>
  <path fill="#0A0000" fill-rule="evenodd" d="M122.2 80c-1-.5-2.2-.8-3.5-1-2.8-.3-5.9 0-8.2-.1a113 113 0 0 1-9.8-1.3c-4.3-.8-8.4-2.7-12.8-3.4-.5-.1-1 0-1.6 0a.6.6 0 0 0-.7.4c-.1.3 0 .6.4.7l1.2 1c1.9.8 4 1 5.9 1.4a126 126 0 0 0 17.3 2.6c2.6.2 6.3-.1 9.3.1l2.2.4c.2 0 .4 0 .5-.3.1-.2 0-.4-.2-.5ZM233.2 82.3l-1 .6-2.9.4-9.5.9-26.9 2c-11 .6-22.4.6-33.7.2a779 779 0 0 1-50.8-3.6s0 .2.2.2c13.7 1.6 27.9 3.2 42 4 14.3 1 28.5 1.2 42.4.4l27-2 9.4-1 3.1-.7c.4-.1 1.3-.8 1.5-1 .3-.5.4-1-.5-.7-.2 0-.3.2-.3.3Zm.4.4ZM98.2 80.6a8 8 0 0 0-3-1.5c-1.9-.5-4.2-.7-6.3-.9-2.2-.2-4.3-.5-5.8-1.6a.2.2 0 0 0-.3.3 8.6 8.6 0 0 0 4.3 2.3c3.7.8 8.1.2 10.7 2l.5-.1v-.5Z" clip-rule="evenodd"/>
  <path fill="#0A0000" fill-rule="evenodd" d="M236 114.9h-.2.2l.3-.1a1 1 0 0 0-.2 1.3c.4.5 1 .6 1.5.3.2-.1.7-.7 1-1.7.6-2.4.1-8.6 0-9.3-.3-5.6.2-11.3 0-17-.1-2.4-.4-4.9-.8-7.3a4 4 0 0 0-.8-1.8c-.9-1-2.2-1.9-2.3-2.7a.4.4 0 0 0-.8 0l2.2 4.7-.2 24.2v9.4ZM81 150.1v-.1h-.1l.1.1h.2l-.1-.1h-.2c0-.3.4-.7.4-1l.2-1.7.1-4.8-.1-17.7v-22.2c.2-5 .4-9.8 1-14.7.1-2.5.4-5.7 1-8.7.4-1.9 1-3.7 2-5 .2-.3.2-.8 0-1a.7.7 0 0 0-1 0c-1.1 1-2 2.4-2.7 4-1.3 3.3-1.5 7.4-1.8 10.4-.6 5-1 10-1 15-.2 7.4 0 14.8.2 22.2l.5 17.6v6.6l.5 1.5c.3.2.6.6.8 0v-.4ZM219.4 164.2h.5c.6-.2.2-.6 0-.8l-1.4-.4-2.8-1.4c-1.7-.7-3-1.5-4.3-2.4-1.2-1-2.4-2-3.4-3.4-1.4-1.8-2-4-3-6l-1.2-1.6-8.4-7.7c-1.2-1.4-2-3-2.9-4.7-1.3-2.6-2.3-5.4-3.5-8-1.3-2.9-3.1-5-3-7.2.1-1.3.9-2.6 2.5-4.1 2.3-2.1 4.7-2.7 7-2.3 3.7.7 7.2 3.7 9.6 7l3.1 4.6c1.3 1.2 2.8 1.8 4 2.9.5.4.9.8 1.2 1.4.8 1.3 1.3 2.7 1.7 4.1 1 3.5 1.4 7.3 2.5 10.8.6 1.9 2 3.7 2.8 5.7l.6 2.1-.6 3.9c-.1.4.1.8.6 1 .4 0 .8-.3.9-.7.3-.9 1-1.8 1.3-2.7l.2-1.7c0-1-.4-2-.9-3-.8-1.8-2.2-3.5-2.8-5.3-1.2-3.4-1.7-7.2-2.8-10.6-.5-1.6-1.1-3.1-2-4.5-.4-.8-1-1.4-1.5-1.8-1.3-1-2.8-1.6-4-2.8l-3-4.5a19 19 0 0 0-10.6-7.6c-2.8-.6-5.8 0-8.5 2.6-2.2 2-3 3.7-3.2 5.3-.2 2.6 1.6 5 3 8.3 1.2 2.6 2.2 5.4 3.5 8 .8 1.8 1.8 3.6 3 5.2l8.4 8 4 7.4a16.7 16.7 0 0 0 8.8 6.4l3.3.8 1.3-.3Z" clip-rule="evenodd"/>
  <path fill="#0A0000" fill-rule="evenodd" d="M217.4 142.4h.2c.6-.1.7-.8.2-.7l.1-.3.3-.7 3.3-3c.6-.5 1.3-.7 2-1 1.8-.5 3.6-.4 5.7-1l5.4-3c1-.3 2.2-.6 3.4-.7 1 0 2.1.2 2.9.8 2 1.6 2.3 3.7 4 4.6.7.5 1.7.7 3.2.6 2.5 0 5.6-1.2 7.8-3a8.2 8.2 0 0 0 3-5.2l-.1-1.5-.8-1.8c0-.2-.3-.3-.1-.4 1.2-1.2 2.3-1 3.3-.2 1.8 1.6 3 4.9 3.1 6.8a.7.7 0 0 0 1.4 0c.3-2.2-.8-6.4-2.8-8.5-1.8-1.8-4.1-2.3-6.7 0-.6.5-.8 1-.9 1.8 0 1 1.1 2.4 1 3.4-.3 1.8-1.5 3.1-3 4a11 11 0 0 1-5.3 1.9c-1 0-1.7-.2-2.1-.6-1.1-1.1-1.5-2.8-3.3-4.2-1-.8-2.3-1.2-3.7-1.2-1.8-.1-3.7.3-5.2.8l-5.3 3c-2 .8-3.9.7-5.7 1.3a12 12 0 0 0-5 3.5c-.5.6-1 1.3-1.2 2a3 3 0 0 0-.2 1.2c0 .3 0 .6.2 1l.8.3Z" clip-rule="evenodd"/>
  <path fill="#0A0000" fill-rule="evenodd" d="M265.2 133.5c-.2.2-.7.7-.8 1l-.8 2.8a34 34 0 0 1-2.7 7.6c-.8 1.6-1.8 3-3 4.2l-6.4 3.6-4.5 6c-3 2.6-7.2 4.9-11.5 6-4.4 1-9 1-12.5-1a.8.8 0 0 0-1.1.2c-.3.4-.1 1 .2 1.2 3.2 1.9 7.1 2.3 11 1.8 5.7-.8 11.3-3.6 15-6.8l4.6-6 6.4-3.6c1.5-1.3 2.7-3 3.5-4.7 1.3-2.5 2-5.3 2.6-8l.5-3c0-.5.5-1.2.4-1.4 0-.2-.2-.4-.5-.4-.2 0-.4.2-.4.4Z" clip-rule="evenodd"/>
  <path fill="#0A0000" fill-rule="evenodd" d="m222.8 157.5-.8 1.6c0 1.3 0 3 .4 4.6a5 5 0 0 0 1 1.8c.2.3.5.3.8.2.3-.2.3-.6.1-.9l-1.2-5.8c-.1-.4.4-1 .4-1.4 0-.3 0-.5-.2-.7a.4.4 0 1 0-.5.6ZM256 119.6c-1.3.2-3.6 1.9-3.8 2-2 .7-4.2 1.5-6.3 2.5-1.3.7-2.7 1.5-3.8 2.5a7 7 0 0 0-1.9 2.5c-.3.8-.3 1.6.1 2.4.3.4.5.6.8.7.6.1 1-.4 1.4-.2.2.2.4.2.6 0v-.5l-1.4-.7c-.1-.3 0-.7.2-1 .3-.7 1-1.3 1.4-1.8 1-.9 2.2-1.6 3.5-2.3 1.9-1 4-1.8 6-2.6.3-.2 3-1 4.3-1.8 1-.5 1.1-1.4.8-1.8a4.7 4.7 0 0 0-2.1-1.5c-1.8-.7-4.1-1-5.3-1.3a7.8 7.8 0 0 0-3.1 0c-2.3.6-4 2-6.5 2-3-.1-6.1-1.6-9.2-2-1.5-.2-3-.2-4.4.2-1.6.5-3 1.3-4 2.4-1.1 1-2 2.3-2.7 3.7 0 .3-.6 1.2-.8 2 0 .6 0 1 .2 1.2h.3c.1 0 .2-.1.1-.2l2-2c.8-1.5 1.7-2.8 2.8-3.9.8-.6 1.6-1.2 2.6-1.6 1.3-.4 2.5-.5 3.7-.4 3.2.3 6.3 1.7 9.4 1.7 2.5 0 4.4-1.4 6.7-1.8.8-.2 1.7-.2 2.7 0 1 .2 2.7.5 4.3 1l1.4.6Z" clip-rule="evenodd"/>
  <path fill="#0A0000" fill-rule="evenodd" d="M223 135.6c-.2-.3 0-.5 0-.8 0-1 .2-2.1.6-3.3.6-1.7 1.4-3.4 2-4l1.8-1.4c.6-.3 1.2-.5 1.7-.5 1.2 0 2.2.7 3.3.9a4 4 0 0 0 1.9-.3c2.4-1 3.9-2.5 6-3.4.6-.4 1.4-.7 2.5-.8.3 0 .6-.3.6-.6 0-.4-.3-.6-.6-.6-1.3-.1-2.3 0-3.2.3-2.2.7-3.6 2.4-6 3.3a2 2 0 0 1-1 0c-1-.1-2.1-.8-3.3-.9-.8 0-1.7.2-2.4.5-1 .5-2 1.3-2.7 2-1 1-2.9 4.3-3.2 7-.2 1.1-.2 2.4.5 3 .3.2.5.3 1 .2h.5v-.6Z" clip-rule="evenodd"/>
  <path fill="#0A0000" fill-rule="evenodd" d="m204 114.5.3.3c1.6 1.5 2.7 4 4.2 5.1 2.1 1.6 4.9 1.7 7.2 2.8l1.3.8 3.6 3.7.7 1.6c.2.2.8.5 1.1.4h.3c.2-.2.4-.3.2-.5l-.3-.2-.2-.3-.3-1.8c-.3-.9-.8-1.8-1.5-2.6l-2-2a8 8 0 0 0-1.9-1.2c-2.2-1.1-4.8-1.1-6.8-2.6-1.4-1-2.5-3.4-4-4.8-1-.9-2-1.4-3.2-1.4-.6 0-1.1.3-1.2 1 0 .5.4 2 .5 2.1l3.6 5.1a.5.5 0 1 0 .8-.5l-2.5-5ZM221 163c0 .1.3.2.5 0 0 0 .2-.4-.1-.7l-1.4-1.1-2.4-2-8-7.8c-4.2-5-6-12-9.8-17.5a18.6 18.6 0 0 0-6.5-6 .4.4 0 0 0-.5 0c0 .2 0 .5.2.6 2.4 1.5 4.2 3.6 5.8 6 3.5 5.7 5.4 12.9 9.5 18a36.8 36.8 0 0 0 8.5 7.7l2.6 1.7 1.5 1ZM220.4 160.5c0 .2 0 .4.2.5.2 0 .6-.1.5-.7l-.4-2-2.8-4.5c-2.1-2.4-4.4-4.7-6.3-7.3l-2.3-3.4c0-.1-.1-.2-.2-.1-.1 0-.2.1-.1.2a30 30 0 0 0 3.5 6c1.4 1.9 3 3.6 4.5 5.4l2.9 4 .5 1.9ZM209 138.2c.2-.4-.2-1.7-.3-2.1l-1.5-4c-1-2-2-3.9-3.2-5.7a23.7 23.7 0 0 0-4.3-4.7h-.2v.2c1.2 1.2 2.3 2.5 3.2 3.9 1.5 2 2.6 4.3 3.6 6.6l1.6 3.9c.1.6 0 2.2.3 2.5.2.2.5.3.8 0v-.6Zm-.5 0ZM219.2 151.8c.1-.2-.2-1-.2-1.2l-1.2-3.1-3.2-8.4c0-.2-.3-.3-.5-.2-.2 0-.3.3-.2.5l3 8.5 1.2 3c.2.3.2 1 .3 1.3.2.4.4.6.8.2.2 0 .2-.3 0-.5ZM207.9 128v.2h.6v-.7a.4.4 0 0 0-.6 0c-.1 0-.2.3 0 .5ZM225.3 159.9v-.2l-.3-.3c-.2-.1-.3 0-.4 0l-.2.3c0 .4.2 1.8.6 2 .7.4 1.5.7 2.3.8a29.3 29.3 0 0 0 13-1.7c3-1.2 5.7-3.2 7.6-5.6v-.3h-.3c-2 2.2-4.9 3.6-7.8 4.7-3 1.1-6 2-8.9 2.3-1 0-2.3.1-3.4-.1-.8-.1-1.5-.4-2.1-.7-.2-.2 0-1-.2-1.2Zm-.6.2-.2-.2c.2.7 0 .5.2.2Z" clip-rule="evenodd"/>
  <path fill="#0A0000" fill-rule="evenodd" d="M223.5 158.6c0 .1 0 0 .2 0h-.2.3-.1c.2 0 .6.2.7 0v.2h.6v-.1h.5l3.7-.2a37 37 0 0 0 5-.9c1.7-.4 3.3-1 4.8-1.7l.1-.3h-.3a20 20 0 0 1-4.7 1.4 33 33 0 0 1-5 .4h-3.6l-2-.2c-3.4.2-5 1.7 0 1.4ZM240.8 151.9c.1.3.2.5.4.6.2.3.4.3.4-.5v-.4c0-.1 0-.2-.2-.3v-.5l3-2.5c.2-.1.3-.4.1-.5a.4.4 0 0 0-.5-.1l-3.2 2.6c-.3.2-.1 1.3 0 1.5Z" clip-rule="evenodd"/>
  <path fill="#0A0000" fill-rule="evenodd" d="M225.3 156.6c0 1.5.5 1.6.7 1 .6.6.8.5 0-1.3v-.5l1.6-1.5c1.2-1.2 2.5-2.3 3.4-3.7.7-.9 1.3-1.9 1.6-3v-.2h-.3a10 10 0 0 1-1.8 2.7c-1.2 1.2-2.5 2.2-3.8 3.2L225 155c-.2.3 0 1.3.2 1.6ZM226.6 143c-.4-.4 0-1.2.6-2a25 25 0 0 1 4.4-4.7c.1 0 .2-.2 0-.3 0-.2-.2-.2-.3-.1-.6.3-2.9 2-4.3 3.7-1.2 1.5-1.7 3-1 4h.5c.1-.1.2-.3 0-.5ZM249.4 150.7v-.1s.2.1.1 0v-.1c0-.2.4-.6.4-.6l2.4-2.2c1.8-1.2 4-1.7 5.7-2.8.9-.4 1.6-1 2.2-1.9.1 0 0-.3 0-.4a.3.3 0 0 0-.5 0c-.6.7-1.4 1.1-2.1 1.5-2 1-4 1.5-5.9 2.7l-2.5 2.6a12.4 12.4 0 0 0-.5 1.2c0 .4.2.5.5.4l.2-.3ZM260.2 134.1l-1-1.2-.4-.2c-.2.1-.3.3-.3.5l1 1c0 .2.1.4.3.3.3 0 .4-.2.4-.4ZM228.6 132.4c-.3-.4-.1-.6.1-.9.5-.6 1.6-1.3 3-2a34.9 34.9 0 0 1 8.2-2.7l-.1-.2c-1.7 0-6.9.9-9.9 2.4-2.2 1.2-3.2 2.8-1.8 4h.5v-.6ZM226.2 133.1h-.2c-.2 0 .2-.1.3-.5.2-1 .8-2.4 1-2.6 0-.2 0-.4-.2-.5a.3.3 0 0 0-.5.1c-.1.2-1.5 2.8-1.3 3.7 0 .6.4 1 1.3.5.2-.1.3-.4.2-.5a.4.4 0 0 0-.6-.2ZM228 124.9l.5-.3c.7-.6 1.6-1.9 2.5-3 .6-.9 1-1.7 1.5-2v-.3s-.1-.1-.2 0c-1 .3-3 1.8-4 3.2-.6.7-.9 1.4-1 1.8 0 0-.1.2 0 .2.5 0 .4.6.3.6.2 0 .3-.1.3-.2ZM234.5 124.2v.2h.1v-.2.2h.8v-.2c1-.7-.2-2.2-.2-1-.1 0-.3 0-.4.2l-.2.6c-.2-2.4-1.4-.6 0 .2Zm.8 0v.2-.2ZM234.8 147.9c1.1-.6 2-1.4 2.9-2.3 1.1-1.3 1.9-3 2.7-4.5.2-.3 0-.6-.2-.7a.5.5 0 0 0-.6.2c-1 1.7-2.2 3.4-3.5 4.8-.5.7-1 1.3-1.7 1.8-.2.1-.2.4-.1.5 0 .2.3.3.5.2ZM80 149.5c-.2.3-.3.7 0 .3.2-.3.9.5 1 .6 1.2.5 2.3 2.3 3.3 3.2.6.5 1.2.8 1.7.9 1.6.2 3.2-.2 4.8-.1.4 0 .9 0 1.4.3.7.3 1 1.4 1.7 1.8.3.3.7.5 1.2.5l6.8-1.2c1.3.3 2 1.6 3.2 2.2.5.2 1 .4 1.5.4 1 .2 2 0 3.1-.1 2-.4 4-1.2 6.1-1.3l3 1.4a7 7 0 0 0 1.7 0c1.8-.4 3.6-1.4 5.4-1.4 1.4 0 2.6 1 3.8 1.3l1.5.2c1.9-.2 3.4-1.4 5.1-2 .5-.2 1-.3 1.7-.3 1.2 0 2 1.2 2.8 1.6.5.2 1 .4 1.5.4s1.1 0 1.7-.3c1.1-.5 2.2-1.9 3.6-1.8 1.2 0 2.2 1.3 3.2 1.8.6.2 1.1.3 1.7.3.6 0 1-.3 1.5-.6.9-.6 1.4-1.9 2.7-2l4.3 1.7c.5 0 1 0 1.6-.3 1.2-.4 2.6-1.5 3.8-1.7.5 0 1 0 1.4.2 1.5.4 2.8 1.2 4.4 1.4.5 0 1 0 1.5-.3 1-.4 2-1.5 3-1.7 1.7-.3 2.7 1.3 3.9 1.9.6.3 1.2.4 1.9.4a5 5 0 0 0 1.7-.5c1.5-.7 2.8-2.2 4.5-2.4.4 0 .8 0 1 .2 1.4.6 2.4 1.9 4 2.1.4.1 1 0 1.6-.3 1-.5 2.2-1.7 3-1.8 1.2-.3 4.5 1.6 6 1.4 1.3-.1 2-.7 1.3-2 0-.2-.2-.3-.4-.2-.2 0-.4.2-.3.4 0 .2-.1.2-.2.3l-.3-.3-1-.4c-2-.8-4.4-1.7-5.5-1.6l-3.8 2.2c-1.4-.2-2.2-1.4-3.3-2-.7-.3-1.5-.5-2.4-.4-.6 0-1.1.3-1.7.5-1.5.7-2.9 2.2-4.4 2.4-1.2 0-2.1-1.4-3.4-2-.8-.3-1.7-.5-2.7-.3l-3.8 2c-1.5-.2-2.6-1-4-1.4-.7-.2-1.4-.3-2.3-.2l-5 2c-.9-.1-1.6-1-2.5-1.4-.6-.2-1.2-.4-2-.3-.8 0-1.5.2-2 .6-1 .6-1.4 1.8-2.3 1.9-1 0-2-1.3-3.2-1.8a4 4 0 0 0-1.5-.4l-1.6.3c-1.3.5-2.4 2-3.6 1.8-1 0-1.8-1.2-3-1.7-.4-.2-.8-.3-1.3-.3a7 7 0 0 0-2.7.5c-1.5.5-2.8 1.6-4.5 1.7l-5-1.5-6.9 1.5c-.7-.1-1-.8-1.6-1-.4-.3-1-.5-1.6-.4-2.2 0-4.4.9-6.5 1.2-.8.2-1.6.3-2.4.2l-4.4-2.6c-.6-.1-1.3-.2-1.9 0-1.8.1-3.5 1.3-5.2 1.1l-2.1-2c-.8-.4-1.6-.6-2.4-.6-1.5 0-3 .4-4.4.1-.8-.1-1.7-1.5-2.7-2.4-.7-.6-1.4-1-2.1-1.2-.1 0-1-.3-1.5-.1-1 .4-1.2.5-.9.8 0 .3.2.5.4.6h.3ZM77.6 153.7c-.3.4-1 1.4-1 2 0 .7.2 1.3.7 2 .6.7 1.6 1.2 2.2 1.6 1.6.8 3.3 1.4 5 1.7 2.6.5 5.2.5 7.7.8.3 0 .5-.1.5-.4 0-.2-.1-.5-.4-.5l-7.4-1.6a21.4 21.4 0 0 1-6.1-2.6c-.5-.3-1-.7-1.1-1.1-.1-.5.5-1.4.6-1.6l.1-.1c1.1-1.3 1.3-1.8 1-1.8.2-.6-.2-.3-1.7 1.4v.2ZM100.5 162l3 1.3 7.8 1.3a94.9 94.9 0 0 0 22.4 1.2l20.9-.8 14-1.6c8.2 0 16.4.6 24.5 0 5.5-.3 10.9-1.3 16.2-3a.9.9 0 0 0-.5-1.6A71 71 0 0 1 193 161c-8.1.4-16.3 0-24.4.2l-14.2 2-20.8.8a139 139 0 0 1-22-.8l-7.9-.9c-.8 0-2.2-.9-3-1-.8-.1-1.2.1-1 .9.1.2.3.3.5.2.2 0 .4-.2.3-.4ZM220 164.4l.1-.1.2-.4c0-.2-.2-.5-.7-.3-.3 0-1.4.7-1.9.7l-5.3.7-15.7 1.6a915 915 0 0 1-44.9 3c-.2 0-.4.2-.4.4s.2.4.4.4a443.2 443.2 0 0 0 45-2l15.8-1.7 5.4-1c.5-.2 2-1 2-1.3Zm-.7-.3s0 .1 0 0h.1v-.2.2ZM137.8 169c-2.3.9-5.3 1-8.4.9-4.5-.2-9.4-.9-13-1.2 0 0-.2.1-.2.3l.2.2c4.2.5 10 1.9 15.2 1.8a17 17 0 0 0 6.5-1.3c.2-.1.3-.3.2-.5 0-.2-.3-.3-.5-.2ZM106.6 168.4h.2c.2.1.4 0 .5-.2 0 0 0-.4-.4-.5l-1.6-.5c-.2 0-.4 0-.5.3 0 .2 0 .4.3.4 0 0 1.4.9 1.5.5Z" clip-rule="evenodd"/>
  <path fill="#0A0000" fill-rule="evenodd" d="M98 167.2c.1.2.3.3.5.3s.3-.2.3-.4c.3-.6-.1-.9-.7-1-.5-.2-1.7.4-2.3.4l-6.5-.4c-3.7-.2-7.4-.6-11-1.2-3.7-.5-7.3-1.3-10.7-2.4-.7-.2-6.5-1.1-5.7-2.3 0-1 1-1.7 2-2.2 2.3-1 5.4-1.5 6.6-2 2.6-.8 5.4-1 7.7-2.4l.8-.6a.5.5 0 0 0-.3-1l-1-.1c-2.7.1-5.2 1.4-7.8 2.1-1.6.5-5.7 1-8.1 2.6-1.5 1-2.3 2.3-2.1 4 0 .5.6 1.2 1.6 1.8 1.8 1 5 2 5.6 2.2 2.9.9 5.9 1.5 8.9 2 4.4.6 9 .7 13.4.8l6.5.4c.7 0 2.3-1 2.3-.4v-.2Zm-36-7v.1-.2Z" clip-rule="evenodd"/>
  <path fill="#0A0000" fill-rule="evenodd" d="M79.5 150.3v.1c.2.2.4.3.6.1.2 0 .2-.3.1-.5 0-.2.4-.3.5-.5.2-.3 0-.5 0-.8-.3-.4-.8-.4-1.6-.1-.9.4-2.1 1.7-2.3 1.8-.6 1-.8 2-.5 3 .2.9.8 1.6 1.4 2.3a.9.9 0 0 0 1.4-1c-.3-.7-.4-1.3-.4-2 0-.3 0-.7.2-1l.6-1.4Zm.4-.5c.1 0 .3.1.2 0h-.2ZM255.6 154.7c.1 0 .3.1.4 0 .2 0 .3-.2.2-.4.1-.9-.5-.9-1.2-.7-.6.1-1.3 1.3-1.9 1.6l-4.1 2.6c-.4.1-.5.5-.4.8.2.3.5.5.8.3l4.5-2.4c.5-.3 1.2-1.8 1.7-1.4.2.1.1-.2 0-.4Z" clip-rule="evenodd"/>
  <path fill="#0A0000" fill-rule="evenodd" d="m256.7 153 .2.7 1.2 1.1c.4.5.6 1.1.8 1.7.3 1 .4 2 .5 3l1.1 19c.3 5.7.4 11.4.5 17v25.7c.2 4.6 0 9.5.8 14 0 .6.3 1 .4 1.6a.7.7 0 1 0 1.4 0l.6-1.2.1-1.9c.2-4.1-.3-8.4-.3-12.5v-25.7c0-5.7 0-11.4-.3-17-.2-4.5-.3-9-.8-13.5a96.8 96.8 0 0 0-1.6-9.3c-.4-.8-.8-1.6-1.4-2.3l-2-1.6c-.4 0-1.1-.2-1.4 0-3.5 3.9-1.3 5.4 0 1.3h.2ZM200.8 260.2c.2.2.6.1.5-.4.6-.6 0-1-.3-.7l-.2-.3c-.3-.3-1-.4-1.1-.4l-3.5-.2-6.4 2.4c-.8 0-1.8-.8-2.9-1.2-.6-.2-1.3-.4-2-.3-.5 0-1 .2-1.5.5-1 .6-2.2 2-2.8 1.8-1-.1-1.7-1.1-2.8-1.6-.6-.3-1.3-.5-2-.5a7 7 0 0 0-3.4.8c-.9.5-1.6 1-2.3 1.8-1.7-.8-3-2.5-4.8-2.7-1.3-.2-2.9.2-4.8 2-.7.6-1 .8-1.5.7-1.2-.3-2.4-1.4-4.9-1.5a6 6 0 0 0-2.7.5c-1.5.6-2.8 2-4 2-1.4-.1-2.5-1.4-4-2-.8-.4-1.7-.6-2.7-.5-.6 0-1.2.2-1.7.5-1.2.6-2.1 2.2-3.3 2-1 0-1.5-1.2-2.4-1.7-.7-.5-1.4-.7-2.3-.7-.6 0-1.2 0-1.8.3-1.6.5-3.1 2-4.6 2-1.4-.1-2.6-1.3-4-1.8l-1.5-.3-6 1c-1.4-.3-2.2-1.6-3.5-2.2a4.2 4.2 0 0 0-3.3-.3l-2.7 1.2-.9.3c-1-.5-1.5-1.7-2.6-2.5a5.2 5.2 0 0 0-3.9-.9c-1.5.3-3 1.4-4.3 1.2-1-.2-2-2.2-3.3-3.2-.5-.4-1-.7-1.6-.8a5.8 5.8 0 0 0-3.5.3l-3 1.5c-.6-.4-1-1.6-1.8-2.4a5 5 0 0 0-4.3-1.6c-1.1.1-2 .8-3 1-.5-.6-2.8-3.2-3.3-3.5-.9-.4-1.7-.6-2.5-.7-1.2-.2-2.3 0-3.2.2 0-1.3-1.2-3.5-2.6-4.4-.9-.5-2.3-.7-4.3-.2-3.7 1-4.4 3.3-3.8 5.8.6 2.2 2.4 5 4.5 6.9 1.7 1.6 3.6 2.6 4.4 3a1 1 0 1 0 1-1.7c-.7-.6-2-2-3.3-3.7-1.1-1.3-2.2-2.6-2.9-4-.7-1.3-.8-2.6 1-3 1-.3 1.6-.4 2 0 .6.7.5 1.8.6 2.3 0 1.2.8 1.6 1 1.7 1 .3 2.7-.2 4.7-.2.6 0 1.3.2 2 .5.6.3 2.1 2.4 2.9 3.1.6.6 1.2.8 1.4.8 1.2 0 2.2-.7 3.4-1h1.4c1.5.5 2.3 2.7 3.3 3.5.3.3.7.4 1 .6.3 0 .8 0 1.4-.2.6-.3 1.7-1.2 3-1.7a3 3 0 0 1 1.8-.1c1.6.4 2.8 2.7 4 3.5.4.3.7.4 1.1.5l1.8-.1c1.3-.3 2.8-1.3 4.3-1 .4 0 .7.2 1 .4 1.3.9 2 2.3 3.3 2.8.3.2.8.3 1.3.2 1.3-.2 3.4-1.9 4.6-1.7l4.6 2.6c.6.2 1.2.2 1.9 0 1.5-.1 3.3-1 4.7-1l5.5 2.1a5 5 0 0 0 2-.3c1.5-.5 3-2 4.6-2 1.3 0 2 1.4 2.8 2a3.7 3.7 0 0 0 3.5.2c1.2-.6 2.3-2.1 3.6-2.2.5 0 1 0 1.4.2 1.8.8 3.4 2.2 5 2.2.7 0 1.4-.2 2-.5 1.4-.6 2.8-2 4.6-2 3 .3 4.1 1.8 5.6 1.6.8 0 1.7-.4 3-1.5 1-1 1.7-1.3 2.5-1.3 1.9.3 3.2 2.5 5.2 3 .3 0 .8 0 1.2-.3l.6-.6c.5-.6 1-1 1.7-1.4.6-.3 1.3-.5 2-.5l4.5 2c.4 0 .8 0 1.2-.2 1-.4 2.7-2.1 3.8-2.3l4.8 1.4 6.4-2.7h4l.4-.2ZM211 266.2s-.1-.2-.4-.2l-2.7.2c-4.6.4-12.1 1.5-13.8 1.6-7.6 1-15.3 1.5-23 2-6.8.3-13.7.3-20.6.5l-13.8.4c-.4 0-.7.3-.7.6 0 .4.3.7.6.7 3.9.3 7.7.6 11.6.7a337.9 337.9 0 0 0 46.2-2.3c1.7-.2 9.4-1 13.8-2.1 2.1-.6 3.4-1.4 3.5-1.7.1-.2 0-.4-.1-.5a.4.4 0 0 0-.5 0Z" clip-rule="evenodd"/>
  <path fill="#0A0000" fill-rule="evenodd" d="m123.2 270.3-15.7-1.6c-9-.9-17-2-24.6-3.7-5.5-1.3-10.9-2.9-16.6-5l-4.1-1.5-3-.7a.7.7 0 1 0-.6 1.3c1.2.7 2.3 1.5 3.6 2a79 79 0 0 0 15.2 5.2c9.4 2.5 18.8 3.5 29.9 4.4 1.3.1 8.6 1 13 .9 2-.1 3.3-.6 3.5-.9.1-.1 0-.4-.1-.5a.4.4 0 0 0-.5 0ZM57.5 245.5c0 .2.1.4.3.4.2.1.5.4.9-1.2l.3-3.6.2-1.9.4-12.5c0-10.5-.1-21 0-31.5 0-7 .3-14 .8-20.9.2-2.5.3-5 .7-7.3.2-1.6.5-3.2.9-4.7.1-.4-.3-3 .5-3 .3 0-.2-.2-.5-.1a1 1 0 0 0-1-1.8c-.5-.1-.5.1-1.1.6-.7.6-.7 3-1 3.4a36 36 0 0 0-1 5.1c-.3 2.5-.4 5-.6 7.6-.5 7-.7 14-.7 21-.1 10.6.2 21.1.2 31.6V241c0 2 0 3 .2 3.7.2.6.4.8.5.8ZM211.7 268.7h.1c.4-.3.2-.6.1-.7l-.2-.1.4-.3c.9-.7 2.2-1.4 2.9-1.8a89.2 89.2 0 0 1 12-6.7l7.3-3.2 1.6-1.3a.2.2 0 1 0 .5-.2c0-.2-.4-.4-1-.4-.8 0-1.7.3-1.8.3l-7.4 2.7a48.6 48.6 0 0 0-12.3 7.2c-.6.5-1.7 1.1-2.5 2-.6.6-1.1 1.3-1.1 2 0 .4.2.8.8.7l.6-.2Zm-.5-.5c-.1.2 0 .2 0 .2v-.1Z" clip-rule="evenodd"/>
  <path fill="#0A0000" fill-rule="evenodd" d="M209.3 268.2c-.8.7.7-1 .3 0 0 .1-.2.3 0 .4.3.2 1-.9 1.1-1l5.5-3.6c3.4-2 6.8-3.9 10.3-5.6a67 67 0 0 1 10.8-4.5c.2 0 .3-.2.2-.3 0-.2-.2-.3-.3-.2-3.1.7-6.1 1.6-9 2.8-4.5 1.8-8.6 4.3-12.6 6.7l-5.6 3.8c-.1 0-1.4.8-1.5 1.3 0 .5-.1.6.2.6.1.2.3.3.5.2.2-.1.3-.4.1-.6Z" clip-rule="evenodd"/>
  <path fill="#0A0000" fill-rule="evenodd" d="m233.4 255.2.4.2c.7.2.5-.3.3-.7 0-.1-.4-.4-.4-.6l.5-2.5a22.7 22.7 0 0 1 4-8.6l1.6-1.8c.1.8-.6 3.4-.6 3.8a26 26 0 0 1-1.6 6.8 7 7 0 0 1-2.8 3.5c-.2 0-.3.3-.2.5 0 .2.3.3.5.2 1.7-.7 2.9-2 3.8-3.5 1.3-2.2 1.9-5 2.3-7.2.1-.4.7-3.2.4-4.6-.2-1-.7-1.5-1.4-1.6-.6-.1-1.2 0-1.8.6-.7.6-1.4 1.6-1.7 2a26 26 0 0 0-4.3 9.5v3c.1.4.7.8 1 1Zm6.4-14c0-.3-.1-.4-.3-.3l.3.2Z" clip-rule="evenodd"/>
  <path fill="#0A0000" fill-rule="evenodd" d="M235.3 255h-.1c-.2 0-.3.1-.3.2l-.7-1a.7.7 0 0 0-1.1.8c1.3 2.1 2.8 4.3 4.7 6 2 1.8 4.3 3 6.7 3.9.9.3 2.7.9 4 .7.8-.1 1.5-.4 1.9-1 .3-.6.3-1.2-.1-1.8-.5-.8-1.7-1.5-2.2-1.8l-8.9-5.1-2.5-1.2c-.4 0-1 0-1.3.2v.1Zm.4 1a47 47 0 0 0 9.3 7.7c.6.3 1.8.7 3 .8.5 0 1-.1 1.4-.6.1-.3-.2-.6-.6-.8-.5-.5-1.1-.9-1.4-1l-9-4.7-2.4-1.2-.3-.2ZM228 257.5a1 1 0 0 0 0 1.1v1.4c0 .8.2 1.6.4 2.4a24 24 0 0 0 1.3 3.5c.8 1.6 3.7 4.3 4.4 4 .4-.1 1-1 .3-3a24.5 24.5 0 0 0-4.5-9.4c-.3-.4-.8-.6-1.2-.5a.4.4 0 0 0-.5 0c-.2 0-.2.3-.1.4Zm1.8 3.8 1.5 3.9c.3.7 1 1.9 1.8 2.6l-.1-.4a46.3 46.3 0 0 0-3.2-6.1ZM221.9 259c.2.3.4.3.5-.5l-.1-.5h.1s0 .2.2.2c.7.4.4 0-.1-.2 0-.4.6-1 .7-1.3l.6-2.8a40.2 40.2 0 0 0 0-8.4c-.2-.7-.5-2-1.1-2.7-.4-.6-1-.9-1.6-1-.8 0-1.6.4-2.2 1.1-.8 1-1.4 3-1.5 3.7-.2 1.4 0 2.8.4 4 .8 2.9 2.6 5.4 3.3 8.2 0 .2.3.4.5.3h.3Zm-.5-3.2.2-2.2a37 37 0 0 0 0-7.7l-.7-2c-.4 0-.5.5-.7 1-.4.7-.7 1.6-.7 2-.2 1.1 0 2.2.2 3.3.4 1.9 1.1 3.7 1.7 5.6ZM210 252.6c.5-.4 1.3.3 2.4 1 1.8 1.2 3.9 2.8 4.4 3.3l2 2.3c.3-.1.4-.3.3-.5 0-.2-.2-.3-.3-.3h.1c.6-.4-1.3-2.1-1.3-2.2-.6-.7-3-3.3-5.2-4.5-1.5-.8-2.9-1-3.6-.2-.3.4-.4.8-.2 1.4.3.7 1.4 1.6 1.6 1.9l6.7 5c.2.2.5.1.7-.1.2-.3.1-.6-.1-.8l-6.2-5.2c-.1 0-1-.7-1.3-1.1Zm0 0c0-.2.2-.3 0-.3v.3ZM220.5 262.1c-.2 0-.7.3-.8.5l-1 1.8c-.2.8-1 3-1 4.6-.2 1 0 2 .6 2.4 1 .7 2 .2 2.7-1 .9-1.8 1.4-4.9 1.4-5.4a.5.5 0 0 0-1 0c0 .4-.5 2.6-1.2 4.1-.3.9-.6 1.7-1.1 1.3-.4-.3-.2-1 0-1.9.2-1.4.8-3 1-3.7l.4-1.8.4-.2c1.7-.2 2-.7 1.3-.8.6-.5.3-.6-1.6 0v.1ZM206.2 262l.6-.2 5.5 1.8 2.2.5c0 .1.3.3.5.2.2 0 .3-.3.2-.5l-2.3-1.6c-.9-.4-1.8-1-2.8-1.3-1-.4-2-.6-3-.7-.4 0-1.7-.2-2.3 0-.5.2-.8.5-.9 1 0 .3.1.8.6 1.2.8.5 2.3 1 2.5 1.2l2.3 1c.3.2.6 0 .7-.2.1-.3 0-.6-.2-.7l-2.2-1.2-1.4-.6Zm-.8-.5v-.4c-.2.1-.2.2 0 .4Z" clip-rule="evenodd"/>
  <path fill="#0A0000" fill-rule="evenodd" d="M239.6 256.3c-.1 0-.3 0-.4.2-.1.1 0 .4.1.5 0 0 .5.3 1.3.1 1.2-.2 3-1.2 3.2-1.3a31 31 0 0 1 8.7-1.7h.5l-.6.5-8 2.6a1 1 0 0 0 .3 1.8c1.4-.2 3-.4 4.4-1 1.4-.5 2.7-1.2 4-2 .1-.1 2-1.2 2.4-1.7.5-.4.4-.9.2-1.1-.2-.2-.5-.4-1-.4h-2.3a33.5 33.5 0 0 0-9.1 1.5l-3.6 1.6-.2.2.1.2ZM222.8 263.1l.3.2c.2 0 .4-.2.4-.4v-.3s-.3-.3-.6 0c-.2 0-.2.3 0 .5ZM241.6 244.3c0-.2-.2-.3-.5-.2l-.5.3c-.2.2-.1.5 0 .6h.6l1.9-.2 3.8-.8 4.7-1.3 5.8-2-.2.7c-.5.8-1 1.5-1.7 2-.7.6-1.4 1-2.3 1.2a24.2 24.2 0 0 1-13.6 1.8.9.9 0 0 0-1 .8c-.1.5.2 1 .7 1a24.6 24.6 0 0 0 15-1.2 9.3 9.3 0 0 0 4.2-5l.5-1.4c0-.5 0-.8-.3-1h-1.2l-6.3 1.8-4.7 1.1-3.7 1.2-1.2.6ZM242.5 240v.4c0 1.3.6 2 1.3 1.5.3 0 .4-.2.3-.4 0-.2-.2-.4-.4-.3l2.5-5.4c1.2-3 2.8-6 3.8-9.2a16.8 16.8 0 0 0-.3-11.2c-.5-1.1-1.3-1.5-1.8-1.3-.3 0-1 .6-1.4 1.6-.7 1.5-1.6 4.1-2 5.1-1.7 3.8-3.5 7.5-3.8 11.3-.3 2.6.2 5.2 1.7 7.8l.1.2Zm5.2-22.5-1.7 4c-1.7 3.6-3.5 7.1-4 10.7-.2 2 0 3.9.8 5.9l1-3.3c1.3-3 3-5.8 4-9 .6-1.8 1-3.8.8-6 0 0-.6-1.2-.9-2.3ZM237 242.6l-1-4-3.5-12c-.3-1-.7-2.8-1.4-4.2-.5-1-1.3-2-2.2-2.5-1.2-.6-2-.2-2.7.8-1.1 1.7-1.2 6.4-1.2 7 0 3.4.4 7 1.7 10.5 1.2 3.4 3.3 6.6 6 8.8.4.4 1 .3 1.4-.1.3-.4.3-1-.1-1.4-1.8-1.7-3.2-4-4.2-6.4a30.3 30.3 0 0 1-2.5-11.4l.1-4a10.1 10.1 0 0 1 .4-1.7c0-.2 0-.5.2-.4.6.3 1 1 1.4 1.7.7 1.3 1 2.8 1.3 3.9l3.7 12 .8 2.4c.4.7.8 1.3 1.3 1.6h.5v-.6Z" clip-rule="evenodd"/>
  <path fill="#0A0000" fill-rule="evenodd" d="m232.5 239.7-.4-.8-.7-1.9-1.7-6.1c0-.2-.2-.3-.3-.3-.2 0-.3.2-.3.4l1.1 6.4.9 2c.2.3.7 1 1 1 .2.2.6.3.6-.4l-.2-.3Zm-.5.1v.1ZM234.6 254.2c.2 0 .5-.4.8-1 .7-1.2 1.5-3.3 1.8-3.7.1-.2 0-.4-.1-.5a.4.4 0 0 0-.6.1l-2.1 4.4c-.2 0-.4.2-.3.4 0 .2.3.4.5.3ZM243.6 247.7l6-1.6.2-.5c0-.2-.3-.3-.5-.3l-6 1.7a.4.4 0 0 0 .3.7ZM243.1 235.2l1-1.4 3.4-7v-.5l-.5.1-3.6 7-.9 1.8.1.6h.6v-.6ZM211 240.6l.6.8 4 4.7.7 1.3c0 .1.4.6.3.7l.3-.2c-.2-.3 0-.1.2 0-.2 0-.3.3-.2.5-.5.7.4.2.6.4.2.2-.1 0 .4-.4.2-.1.2-1 .2-1.5l-.8-2-4.3-4.8-1.5-1.6c-.3-.4-.9-1.4-1.2-1.4-.3 0-.7 0-1 .5-.3.5-.4 1.2-.2 2 .2 1.4.9 3 1.1 3.8.7 2 1.6 5 2.8 7.3 1 1.8 2 3.3 3.6 4.2a.6.6 0 0 0 .6-1 9 9 0 0 1-3-3.8c-1.2-2.3-1.9-5.1-2.5-7.2l-.7-2.3Zm6.3 7.2s.1-.1 0 0ZM222.8 262.5l1.9.8c1.2.2 4.7.8 5.2 1.8.1.3-.4.4-1.5.8l-1.8.3c-.3 0-.5.3-.5.6s.3.5.6.5l2-.4c2.2-.6 2.6-1.6 2.3-2.3-.5-1.2-4.6-2.5-6.1-2.7l-1.5-.3c-.4 0-.7 0-1 .2-.2.1-.2.4-.1.6.1.1.3.2.5 0ZM249.5 262.9c.2 0 .6 0 1.2-.5.8-.6 1.5-2.2 1.6-2.3l6.1-7.7c1-1.2 2.2-2 3.4-2.7 3-1.8 6.4-2.6 9.6-4.5a13 13 0 0 0 2.4-1.8c1.5-1.5 2.7-3.3 4.2-4.9l3-3c1-1 1.8-2.3 2.5-3.7.1-.2 0-.5-.2-.6a.5.5 0 0 0-.6.1l-6.2 5.9-3.5 4.1c-.8.8-1.6 1.6-2.6 2.2-3.2 2-6.5 2.8-9.6 4.5a17 17 0 0 0-3.9 3 56 56 0 0 0-6.5 7.7c-.2.2-.2 3-1.2 2.8-.5-.1.1.7.2.6-.2 0-.3.3-.3.5s.2.3.4.3Z" clip-rule="evenodd"/>
  <path fill="#0A0000" fill-rule="evenodd" d="m272.4 243 .4-2.1.4-4a23.7 23.7 0 0 1 3.3-10l1.5-2.5c.5 0 .4.6.5 1l-.2 2.4c-.3 2-.8 5-1.4 7.5-.5 1.8-.8 3.5-1.8 4.7v.5h.5c1.4-1 2.6-2.6 3.4-4.5 1-2.6 1.4-5.7 1.8-7.9 0-.8.1-3-.5-4.2-.5-.9-1.1-1.5-2.1-1.6-.6 0-1.3.3-1.9 1-.7.7-1.3 2-1.6 2.4a22.4 22.4 0 0 0-3.9 11l.2 4.3.6 2 .8.2v-.1Z" clip-rule="evenodd"/>
  <path fill="#0A0000" fill-rule="evenodd" d="M275.8 240.6h3.2a67.8 67.8 0 0 1 14.2.8c.9.1 2 .2 3 .5.6.2 1.1.5 1.5.8.4.5 0 .7-.4 1-1 .5-2.7.8-3.1.8h-10.7c-1.9 0-3.5 0-5-.4a8.8 8.8 0 0 1-4.2-2.6.7.7 0 0 0-1 .9c1.3 1.7 2.8 2.8 4.5 3.5 1.7.7 3.6 1 5.7 1l6.8-.2 4-.5c.7 0 3.3-.8 4.3-1.8.7-.7 1-1.6 0-2.5a5 5 0 0 0-2-1.1c-1.1-.4-2.3-.5-3.2-.6a71.8 71.8 0 0 0-14.5-1.3c-.6 0-1.9-.2-2.9 0-.6 0-1.2.1-1.5.4-.3.4-.6.6-.4.8 0 .2.4.5.4.5h.5a.4.4 0 0 0 .7.2v-.2Z" clip-rule="evenodd"/>
  <path fill="#0A0000" fill-rule="evenodd" d="m275.7 242.4 4 .8c3.1 0 6.4 1 9.6 1.2 1.4.1 2.8.1 4.2-.1.1 0 .2-.1.2-.3l-.2-.2c-1.4 0-2.7-.1-4-.3-3.3-.6-6.6-1.5-9.7-1.8-.3 0-1.9-.3-3-.2-1 0-1.6.3-1.7.4-.2.2-.1.4 0 .6l.6-.1Z" clip-rule="evenodd"/>
  <path fill="#0A0000" fill-rule="evenodd" d="M274.5 240.5h.2v.2c1 .6.8 0 0-.2l.4-.7.6-2.8a45.7 45.7 0 0 1 2-8l-3.1 7.7-.8 2.7c-.1.4-.3 1.2-.2 1.4.7 1 2 2.1 1 .1v-.4ZM263.8 248.9v.3c0 .2 0 .4.3.4h.5l1.8.2h5.7l3.7.2c2 .2 6.2.4 9.1 1.8 1.8 1 3 2.3 2.7 4.3 0-.1 0-.5.1-.3.4 1.4-5.4-1-6-1.2l-8.5-1.3c-1.9-.3-3.7-.7-5.6-1.2a9.3 9.3 0 0 1-3.3-1.5c-.5-.5-1-1-1.1-1.8-.1-.4-.5-.6-.8-.5-.4 0-.6.4-.5.8.2 1 .8 2 1.5 2.6a11 11 0 0 0 3.8 1.9l4.2 1.1c3.3.8 6.7 1.3 10 2 .5 0 4 1.1 5.9 1 1.2 0 2-.6 2-1.3.4-2.9-1.2-4.7-3.7-5.9-3.1-1.5-7.5-2-9.6-2.3l-3.8-.4-6 .2-1.8.5-.6.4Z" clip-rule="evenodd"/>
  <path fill="#0A0000" fill-rule="evenodd" d="m263.2 249.6-.2-.2c-.2 0-.4.2-.4.4 0 0 .1.4.6.4l2 .2 3.8.5 14.1 1.7.2-.1c0-.1 0-.2-.2-.3l-14-2.4-3.8-.4s-2-.5-2 0v.2ZM260.7 248.8l2.2-4.9c.4-1.5.5-3 .5-4.3-.2-2-.7-4-1.4-6.2-.1-.6-.3-1.7-.6-2.5-.2-.6-.6-1-1-1.3-.7-.4-1.4-.2-2 .8-.9 1.5-1.4 4.9-1.5 5.2-.5 2.6-1.3 6-1.1 9.1a9 9 0 0 0 2.3 6h.7c.2-.2.2-.6 0-.8a8.2 8.2 0 0 1-1.6-5.2c0-3 .7-6.3 1.2-8.8 0-.3.8-6 1.5-5 0 .1-.2 0-.2 0l.9 3c.5 2 1.1 3.8 1.2 5.8 0 1.2 0 2.4-.4 3.8-.2.6-1.5 2.7-1.7 4.2 0 .7 0 1.2.3 1.4.1.2.4.3.5.2.2 0 .3-.3.2-.5Z" clip-rule="evenodd"/>
  <path fill="#0A0000" fill-rule="evenodd" d="m260 248.5.5-3.2.9-9.1c0-.1 0-.2-.2-.2l-.2.1-1.8 9c0 .5-.3 1.7-.3 2.6 0 .5.2 1 .5 1.2 0 .2.3.3.5.2.2-.1.2-.4.1-.6ZM255.8 256.4c.1.2 1 .5 1.3.6l4.2.9c1.9.4 3.7 1 5.3 1.9 1.7.8 3.3 1.9 4.6 3.1l1.4 1.6c.2.4.4.8.3 1.1-1 .2-4.2-1.9-4.6-2-2.5-.3-6.4-.6-9-2-1-.5-1.7-1.1-2.1-2-.3-.6-.6-1.3-.7-2.2a.5.5 0 1 0-.9-.1 5 5 0 0 0-.4 3c.3 1.5 1.5 2.6 3 3.5 2.8 1.5 7 1.8 9.8 2.1.5 0 3.8 1.2 5 1.3.9 0 1.3-.4 1.5-.7.2-.6.2-1.3-.1-2-.5-1-1.6-2.1-2.1-2.6a20.7 20.7 0 0 0-5-3.5c-1.7-1-3.6-1.6-5.6-2l-4.4-.5c-.4 0-1.2-.4-1.5-.4-.5 0-1 .2-.3.8l.3.1Zm17.1 9.2c.2 0 .3 0 .3-.3 0-.2-.2.2-.3.3Z" clip-rule="evenodd"/>
  <path fill="#0A0000" fill-rule="evenodd" d="M256.7 257.2c-.1 0-.3 0-.4.2-.4.2-.8.5 0 .5l.2.3c.5.5 2 1 2.3 1.3l5.6 2.7c.2 0 .5 0 .6-.2 0-.2 0-.5-.2-.6l-5.4-3.1c-.3-.2-1.7-1.1-2.3-1.2h-.4ZM253.6 251.6v.5c.1.1.5.3.7-.2l.3-.9-.3-1.5c-.5-1.5-2.3-3.9-3.3-4-.5 0-1.2.5-1 2.2 0 .2.1.3.3.3.2 0 .4-.2.4-.3 0-1 0-1.3.2-1.3.8.2 2 2.2 2.4 3.4l.2 1.3.1.5Zm.4-.1Zm0 0ZM249.3 253l-1.1-3.8c0-.3-.3-.5-.5-.5-.3 0-.6.2-.6.5 0 1-.2 2 .2 3 .3.7.9 1.2 1.6 1.5l.5-.1c.2-.2.1-.5 0-.6ZM246.9 242.5c0 1.2.4 1.4.6 1.1.4.5.6.2.1-1.4v-1.5l.8-3.2c.1-.3.3-.4.5-.3.6.3 1 1 1.3 1.5a.4.4 0 1 0 .7-.4c-.3-.5-.9-1.5-1.5-1.9-.6-.3-1.3-.3-2 .6a5 5 0 0 0-.8 1.7c-.2.7-.2 1.3-.2 2 0 .3.3 1.4.5 1.7Z" clip-rule="evenodd"/>
  <path fill="#0A0000" fill-rule="evenodd" d="M250.3 249v.7c0 .2.2.4.5.4.2 0 .4-.3.4-.5l-.1-.6c0-.2-.1-.4-.4-.4-.2 0-.4.1-.4.3ZM251.3 260.1l-1.7 2.2a.6.6 0 1 0 1.2.6c.1-.3 1-1.2 1.2-2 .2-.4.2-.6 0-.8 0-.2-.1-.4-.3-.4-.2 0-.4.2-.4.4ZM277.3 254.7c-.2 0-.4-.1-.5-.4l.4.2h.1l.1-.2V254.6h-.1c.2 0 .5-.2.2-.3v-.2l-.1-.3c-.1-.1-.4-.2-.6.1l-.2.4-1.9 1-4 2.4c-.2.1-.3.3-.2.5 0 .1.2.2.4.1l4.5-1.9 1.8-1.4v-.3ZM258.4 262v.1-.1c-.1-.3-.1-.1 0 0v.1c-.4.3-2 .4-2 .4l-5.7 1.7-18 4.7c-.2 0-.3.3-.2.5 0 .2.2.3.4.2l9.2-1.6c3-.6 6-1.4 9-2.3l5.8-1.8s1.6-.8 2-1.2c.5-.5.4-.9 0-1-.2 0-.4 0-.5.2ZM223.4 270.7c-.1 0-.3-.3-.7-.3-1.8.2-6.2 1-7.6 1.3l-28.6 3.7c-.4 0-.7.3-.7.7 0 .4.4.7.8.7a211.5 211.5 0 0 0 28.8-3.1c1.3-.2 5-.4 7-1.3 1.2-.5 1.7-1.1 1.7-1.5a.4.4 0 1 0-.7-.2ZM230.9 268.6v.1-.1s0-.1 0 0c-.3.2-1 0-1.6 0-1.7.3-4 1-4.2 1.1-.2 0-.3.2-.3.4s.2.4.4.4c.1 0 2.6 0 4.4-.4a6 6 0 0 0 1.6-.7c.4-.3.4-.6.3-.7a.4.4 0 0 0-.6 0ZM179.5 276.4l-4.1.1-14.2.9-55.7-.3c-.1 0-.3 0-.3.3 0 .1.1.3.3.3 7.4.8 14.8 1.6 22.3 1.9 11.1.4 22.2 0 33.5-.4l14.3-1.1c.3 0 1.6 0 2.6-.3s1.8-.7 2-1c0-.3 0-.5-.2-.6-.2 0-.4 0-.5.2ZM89.3 274.5l-1.7.1c-2.6 0-5.8-.7-7.8-1-.3 0-.5.2-.5.5 0 .2.1.4.4.5 1.5.2 3.7 1 5.8 1.2 1.6.1 3 0 4.2-.6l.3-.4c0-.3-.2-.4-.4-.4h-.3ZM64 270.3a4 4 0 0 0-1.4-1.4c-1.1-.7-2.7-1-3.6-1.4-2.4-1.2-7-3.2-9.6-6-1.6-1.5-2.5-3.4-1.6-5.5.2-.6.5-1.2 1-1.7.3-.4.7-.8 1.2-1l4.8-2.2c.5-.1.7-.6.6-1a.8.8 0 0 0-1-.6c-1.4.2-2.7.1-4 .4-.6 0-1.2.3-1.8.5-.7.4-1.4 1-2 1.6a9 9 0 0 0-1.6 2.9c-1.2 3.4.1 6.2 2.6 8.5 3.1 2.8 8 4.6 10.7 5.8l5.1 1.6c.2.2.4.2.6 0v-.5ZM281.2 257.1v.1c-.3.4 1.1 1 1.2 1.2l1 5.4.6 17.6.9 31 .2 9.5c0 3.1 0 6.2-.5 9.2-.2.5.1 1 .6 1 .4.1.8-.1 1-.6.8-2.4 1.3-5 1.5-7.6.3-3.8 0-7.7 0-11.4l-1-31.2-1-17.8c-.2-1.3-.2-3-.8-4.3-.2-.7-.6-1.3-1.1-1.8l-2.3-1h-.2c-.4 0-.5.2-.5.3 0 .2 0 .4.2.4h.2Z" clip-rule="evenodd"/>
  <path fill="#0A0000" fill-rule="evenodd" d="m38 331.3.9-4.6.8-14.3 1-25.5c.2-5.7.6-11.3 1.2-17 .3-2.6.6-6 1.6-8.8.7-1.8 1.5-3.4 3.2-4.3.5-.2.7-.8.5-1.3a1 1 0 0 0-1.3-.5c-2.4 1-4 2.7-5 5-1.3 3-1.5 6.7-1.8 9.7-.5 5.7-.9 11.4-1 17-.4 8.6-.4 17.2-.7 25.7l-.6 14.1c0 1-.6 3-.2 4.2.2.6.5.9.9 1 0 .2.3.3.5.1.2 0 .2-.3 0-.5Z" clip-rule="evenodd"/>
  <path fill="#0A0000" fill-rule="evenodd" d="M282 333c-.3-.2-.5-.4-.8-.4-.5-.2-1-.3-1.6-.2-1.2.2-2.1.8-3 1.5-1.2 1.3-1.9 3.3-3.4 4.1-.3.2-1-.1-1.9-.2-2-.3-4.5-.5-7 .3a9.6 9.6 0 0 0-5 3.7c-1.5-.3-4.4-.8-5-.6a9 9 0 0 0-3.4 1.4c-2.1 1.4-3.9 3.7-5.2 4-1.3.2-2.6-.8-4-1.1-.9-.2-1.7-.2-2.6 0-.7.2-1.3.5-1.8.8-1.7 1-3 3-4.7 3.5-1.1.3-2.6-1.1-4.1-1.4-.6-.2-1.2-.2-1.7-.1-.8 0-1.5.3-2.2.7-2.3 1.1-4.2 3.4-6.5 3.7-1.4.1-2.8-1.2-4.3-1.6-.5-.2-1-.3-1.6-.3-1 0-1.8.2-2.6.4-3 .8-5.4 2.9-8.4 3.2-1.5.2-2.9-1.2-4.6-1.6a5.5 5.5 0 0 0-3.8.3c-2.3 1-4.7 3-6.3 2.8-1-.1-1.6-1.5-2.6-2.1l-1.3-.5c-1.2-.2-2.2 0-3.1.2-1.8.6-3.2 2-5 2.4l-2.3-1.6c-.7-.4-1.4-.7-2-.7-.6 0-1.3 0-1.9.2-1.8.5-3.2 2.1-4.8 2.1-1.5 0-2.6-1.6-4-2.2a5.3 5.3 0 0 0-3.8-.1c-1.5.5-2.6 2.3-4 2-1.3 0-2.1-1.3-3.4-1.8-.7-.4-1.5-.7-2.5-.6-.6 0-1.2 0-1.9.3-1.4.6-2.8 2-4.1 2-1.7-.1-3-2-4.7-2.7a5.2 5.2 0 0 0-3.9 0c-1.4.5-2.4 2-4 2-1.1 0-1.7-1.7-2.8-2.3-.5-.3-1-.5-1.6-.5h-2c-2 .5-3.7 2-5.5 1.9-1.4-.1-2.3-2-3.8-2.9l-1.8-.7c-1.1-.2-2.2 0-3.3.2-1.8.6-3.5 1.8-5.5 1.8-.4 0-.6-.3-.9-.6-.6-.7-1.2-1.4-2-1.9a4 4 0 0 0-1.7-.7l-2 .1c-1.6.4-3.1 2-4.7 1.7-.4 0-.4-.5-.6-.8l-1.2-1.4c-.4-.3-.9-.6-1.4-.7-1-.3-1.9-.2-2.6 0-1.4.4-2.3 1.6-3.7 1.6-.3 0-.4-.4-.6-.7-.5-.7-1-1.4-1.7-1.9-.5-.4-1-.6-1.6-.7-1-.2-2-.1-2.7.2-1.3.4-2.2 1.3-3.6 1.6 0-.6-1.8-1.6-2.7-2.4a5.4 5.4 0 0 0-2.2-1.3c-1-.2-4.7-.1-5.4.8-.4-.8-.4-1.9-.9-2.7a4 4 0 0 0-2-1.7c-.8-.3-1.6-.4-2.5-.4-1 .1-2.2.5-3.2 1l-.6.2-.3-.9a9 9 0 0 0-3.3-3.6c-.9-.3-4.3-.3-5.4.5-.2-.8-.1-1.8-.5-2.5a4 4 0 0 0-2-1.9c-.4-.2-1.5 0-2.5.1 0-.6 0-1.2-.2-1.8-.2-.5-.6-1-1.2-1.4-1.4-1-4.4-.6-6.1 1-1.4 1.2-2 3-1 4.5a1.3 1.3 0 1 0 2.3-1.2c0-.2.3-.1.4-.3l1.3-1c.5-.1 1-.4 1.4-.2l-.1.3v1.5c0 .6.2 1.1.5 1.5 0 0 .9 1 2.2.5.4-.1 1.9 0 2-.5.2 0 .3.2.3.3.8 1.4.5 3.1 1.6 4.2.2.2.9.6 2 .4 1-.3 3.2-1.7 4-1.4.5.2 1 1 1.6 1.8.5.7 1 1.4.8 1.9-.5 1.2.3 1.7.6 1.9.3.1.7.2 1.3 0 .3-.2 1.4-1.2 2-1.5.6-.3 1.3-.5 2-.6.5-.1 1-.1 1.6.1l.7.6c.7 1.3.7 3 2 4.1.2.2.8.5 1.7.3 1-.2 3.5-1.4 4.3-1.2 1.2.3 2.8 2.6 3.7 3.3.6.5 1.1.6 1.5.6 1.8-.1 3-1.4 4.7-1.9h1.4c1.2.2 1.7 1.8 2.5 2.5.5.5 1.2.8 1.9.8 1.6 0 2.9-1.1 4.5-1.6a2 2 0 0 1 1 0c1.1.2 1.3 1.6 2 2.2.4.4 1 .7 1.5.8.7 0 1.4 0 2-.2 1.6-.4 3-1.8 4.8-1.5 1.4.1 2 2 3 2.6.7.4 1.3.7 2 .7 2.3 0 4.2-1.4 6.3-2 .7 0 1.3-.2 2 0 1.6.2 2.6 2 3.8 2.8.6.4 1.2.7 2 .8.7 0 1.4 0 2-.2 1.8-.5 3.4-2 5.4-1.7 1.4.1 2 1.6 2.9 2.3l1.8.6c.7 0 1.3-.1 2-.4 1.3-.5 2.4-2 4-2 1.8 0 3 1.7 4.4 2.5a4.6 4.6 0 0 0 4 .3c1.4-.5 2.8-2 4.3-2l5.4 2.6c.8 0 1.5 0 2.2-.3 1.3-.6 2.5-2.1 4.1-2 1.6 0 2.8 1.4 4.2 1.8.6.2 1.2.4 1.8.3 1.8 0 3.3-1.4 5-2.3.5-.2 1-.3 1.6-.3 1 0 2.5 1.7 3.4 2 .5.3.9.3 1.2.3 2-.4 3.6-2 5.5-2.6a4 4 0 0 1 2-.2c1.1.2 1.7 1.5 2.6 2 .4.4.9.6 1.4.6a5 5 0 0 0 2.4-.4c2-.8 4.5-2.8 6.5-3 1.7 0 3.2 1.3 4.6 1.7.6.1 1.2.2 1.8.1 2.7-.3 5.1-2 7.7-3 1-.3 2-.5 3-.5 1.6 0 3 1.3 4.5 1.7.5.2 1.1.2 1.7.2.8-.1 1.5-.4 2.3-.7 2-1 4-3.3 6.4-3.7 1.5-.2 3 1.1 4.3 1.5.7.2 1.3.2 1.9 0 .6-.1 1.2-.4 1.8-.8 1.4-1 2.8-2.8 4.6-3.3h1.4c1.8.4 3.4 1.4 5 1.1 1.6-.3 3.8-2.7 6.3-4.3.8-.4 1.5-.8 2.3-1 .7 0 3.4.6 4.5.8 1.3.2 2-.5 2-.6a7 7 0 0 1 4-3.2c2.4-.8 5-.2 6.7 0 1.3.1 2.2 0 2.8-.3 1.7-1 2.5-3.2 4-4.6.3-.4.8-.7 1.4-.8l2.8.8s1.1-.5 1.5-1.8c.4-1.6 1.3-5 2.7-6 1-.8 2.8-.3 4.2.5.9.5 1.7 1 2.1 1.8 0 .2 0 .3.2.4l-.2 1.8c0 .4.4.5.5.6.3.2.7.2 1.3-.5 1-2.2-.4-4.6-2.7-6.1-2.2-1.4-5.2-1.7-6.8-.6-1.6 1-3.1 4.8-3.8 6.8Z" clip-rule="evenodd"/>
  <path fill="#0A0000" fill-rule="evenodd" d="M291.4 327.3c0-.1-.1-.3-.3-.3-.2 0-.4.1-.4.4-.2.4 0 .7.4 1 .3.4 1.4.3 1.6.8.3.7.3 1.5.3 2.4 0 .9-.2 1.8-.5 2.6-.7 2.4-2.2 4.4-4 6a33.5 33.5 0 0 1-9.8 5.6 256.4 256.4 0 0 1-35 10.5c-10.8 2.4-22 4.7-33.1 6.5-7.4 1.2-14.9 2.1-22.3 2.6-10.8.7-21.8.8-32.8.3-9.8-.3-19.7-1.2-29.5-2.1l-19.7-1.9c-.5 0-.9.3-1 .7 0 .5.3.9.8 1 13.4 2 27.2 3.7 41 4.6 13.9 1 27.8 1 41.4.2 7.5-.5 15-1.4 22.5-2.6a585.1 585.1 0 0 0 51.2-11.1c6-1.8 11.7-3.8 17.5-6.2a36 36 0 0 0 10.5-6.3c2-2 3.7-4.3 4.5-7.1.4-1.2.6-2.6.5-4 0-1-.3-1.8-.8-2.7-.2-.3-1-.3-1-.7.2-.7-1.9-.8-2-.2Z" clip-rule="evenodd"/>
  <path fill="#0A0000" fill-rule="evenodd" d="M130 365.5c.6 0 .9-.2.9-.4s-.4-.4-1-.4H126.1l-7-.6-19.4-2.7c-11.3-1.9-23.4-3.6-35-6.6a103 103 0 0 1-21.9-8.2c-2.7-1.4-7-3.1-10.5-5.4a14 14 0 0 1-4-4l-1-1.2c0-.3-.3-.5-.6-.5s-.5.4-.5.7v1.9c.5 2.2 2.3 4 4.4 5.6 3.4 2.5 8 4 10.9 5.5a105 105 0 0 0 22.7 8c11.6 2.9 23.8 4.4 35.2 6l19.7 2.1 7 .2H130ZM283.6 344.1c-.4 0-.4.3-.4.3s0 .4.4.5h.2c.6 0 1.2-.5 1.6-1a7 7 0 0 0 1.1-2.3c.3-1.6.2-3.2-.3-4.4a6 6 0 0 0-3.2-3.1.5.5 0 0 0-.7.2c-.1.3 0 .6.3.7a5 5 0 0 1 2.3 2.7 6 6 0 0 1 .2 3.5c-.1.6-.3 1.4-.6 2-.2.4-.5.8-.9 1ZM274 344.7c-.2-.6 0-1.4-.7-2.1-.4-.4-1-.8-2-1-.2 0-.3 0-.4.2 0 .1 0 .3.2.4.8.3 1.2.7 1.5 1 .5.7.5 1.3.7 1.7a.4.4 0 1 0 .7-.2ZM264.5 350.2c1.7-.3 2.4-1.5 2.3-2.9 0-1.6-1.2-3.4-2.7-4.6a.4.4 0 1 0-.6.6 6.8 6.8 0 0 1 2 4c0 1-.2 1.8-1.3 2.2-.2 0-.3.3-.2.5 0 .2.3.3.5.2ZM252.2 353.5h-.1c-.1.1-.1.8.3.8h.1a4 4 0 0 0 1.1-.7c.5-.4 1-1 1.1-2a6.7 6.7 0 0 0-2.1-5.3.3.3 0 0 0-.5 0v.5c.5.7.9 1.5 1.2 2.3.2.8.4 1.6.3 2.5 0 1-.8 1.6-1.3 1.8v.1ZM241 356.7c.2-.2.9 0 1.4-.2.3-.2.6-.5.7-.8.7-1.4.5-3.1-.4-4.6a5.9 5.9 0 0 0-3.4-3c-.2 0-.5.1-.5.4-.1.2 0 .4.2.5 1 .4 2 1.5 2.5 2.7.6 1.1.9 2.4.4 3.5l-1.6 1.2c0 .1 0 .4.2.5.2 0 .4 0 .5-.2ZM227.2 359.1h-.1c-.5-.4-.7 0-.6.3l.5.9c.4.3.7.1 1-.2.4-.4.6-1.7.6-1.8.2-1.3.3-2.9-.2-4-.4-1-1-1.6-2.2-2-.1 0-.3 0-.4.3 0 .2 0 .4.2.4.7.4 1 1 1.3 1.7.3 1 .3 2.3.2 3.5 0 0-.3.5-.3.9ZM212.4 361.2c1 0 1.5-.5 1.6-1.4 0-.8-.7-2-2-3.3a.4.4 0 0 0-.4 0c-.2 0-.2.3-.1.4l1 2.2c.3.7.5 1.2-.1 1.3-.2 0-.4.2-.4.4s.2.4.4.4ZM197.2 363.1h.2c-.2.1-.3.3-.3.5-.4.8.3.6 1 .4.2 0 .7-1 1-2.2.2-1.7 0-4-1.3-5.5a.4.4 0 1 0-.6.4c1.2 2 .5 5 0 6.2v.2Zm.5 0Zm-.5 0c-.1 0 0 0 0 0ZM183.4 364.4l.7-1c.7-1.2 1-2.4.8-3.5-.2-.8-.8-1.7-2.2-2.5a.4.4 0 0 0-.4.6c1 .8 1.4 1.5 1.5 2.1 0 .9-.6 1.7-1 2.7l-.2 1.4c0 .2 0 .4.3.5.2 0 .4 0 .5-.3ZM169 363.1l.4-1.5-2.2-3.2a.3.3 0 0 0-.5 0s-.1.3 0 .4l1.7 3.1c.1.4-.3 1-.2 1.3 0 .3.1.5.4.6.2.1.5 0 .5-.2.1-.2 0-.4-.1-.5ZM158.2 363c-.7.1-1-.5-1.4-1.2-1-1.5-1.8-4-2.3-5.4l-.4-.2-.2.4c.3 1.5.7 4.4 1.8 6 .7 1 1.7 1.6 2.7 1.1.2 0 .3-.3.3-.5-.1-.2-.3-.3-.5-.2ZM145.5 363.5c0-.5-.2-1-.4-1.4-.8-1.4-2.5-2.7-3.2-4a.3.3 0 1 0-.7.2l3.6 5.4c0 .2.3.3.4.2.2 0 .3-.2.3-.4ZM128.3 361.5a11 11 0 0 1-1.5-1.6l-1.6-2.4-1.2-2.7c0-.1-.1-.2-.3-.2l-.2.3a12 12 0 0 0 2.3 5.7l2.4 1.8c.6.2 1.1.1.5-.7 0-.2-.3-.3-.4-.2Z" clip-rule="evenodd"/>
  <path fill="#0A0000" fill-rule="evenodd" d="M116.7 360.8c.2-.3 0-.6-.2-1-.3-.3-1.3-.4-1.5-.9l-3.3-5.4a.5.5 0 0 0-.6-.3c-.2.1-.3.4-.2.7.5 1.4 1 2.8 1.7 4.2l1 1.7c.3.3 1.2.2 1 .7 0 .5 1.4.7 1.4.2 0 .2 0 .4.3.4.2 0 .4 0 .4-.3ZM101.4 360.3l.1.2c.2.2.4.2.6.1.8 0 .6-.6.1-1.3-.3-.4-1.4-.6-1.8-1A8.2 8.2 0 0 1 98 354c0-.2-.3-.4-.6-.4-.2 0-.4.3-.3.5a9.4 9.4 0 0 0 2.2 5.4c.5.4 2.3.5 2 1 0 .2 0 .1.1 0ZM88.3 357.6c-1.1-1.3-2.5-1.8-3.7-2.9-.4-.3-.8-.7-1.1-1.3a.5.5 0 0 0-.7-.2c-.2.1-.3.4-.2.6a5 5 0 0 0 1.7 2.4c1 .8 2.4 1 3.4 1.9a.4.4 0 1 0 .6-.5ZM69.7 356c-.4-.1-.3-.5-.5-.8-.4-.5-.7-1.3-1-2.3-.5-1.6-.9-3.3-.4-4v-.6a.4.4 0 0 0-.6 0c-1 .9-1.6 3.8-1 6.1.5 1.6 1.6 3 2.6 2.9.5 0 .8-.1 1.1-.6.2 0 .4-.3.3-.5 0-.2-.3-.3-.5-.2ZM58.6 353.5c.5.1.6-.3.6-.3s0-.3-.3-.5l-.7-.3-1.2-1.6c-.5-.8-.9-1.9-1.1-2.9-.2-.7-.4-1.4-.3-2 0-.4-.2-.7-.5-.8-.4 0-.7.2-.8.5a6 6 0 0 0-.2 3.3c.2 1 .8 2 1.4 2.9l2.2 1.5c.2 0 .9.3 1 .2ZM47.7 349.4c-.4-.3-.5-.7-.7-1l-1-1.6c-.3-1-.5-2.2-.6-3.3 0-.3-.1-.5-.4-.5-.2 0-.4.2-.4.5-.3 1.5-.4 3.2.2 4.6.3.7.7 1.5 1.5 1.8.3.2.6.2 1 .2a.4.4 0 1 0 .4-.7ZM37.2 344.3l-1.2-2.6c0-.2-.2-.4-.5-.4s-.5.3-.5.6l1.5 2.6c0 .2.2.3.4.3.2-.1.4-.3.3-.5ZM29.3 337.4c.1-.2 0-.4-.2-.5-.3 0-.5 0-.6.3l.7.4.1-.2ZM204.5 266.1c.2 0 .4-.2.3-.5 2.9-5.3-1-4.2-.9-.7l-.3-.1c-.4-.2-1.3 0-2-.8-.5-.6-.8-1.3-1-2.1 0-.9 0-1.8.2-2.7a.6.6 0 0 0-.4-.8.6.6 0 0 0-.8.5 8.8 8.8 0 0 0-.5 3.8c0 .9.4 1.8 1 2.6.9 1.1 2 1.5 2.9 1.5.6 0 1 0 1.2-.2l.3-.5ZM190.7 267.5c.2.1.5.1.7-.5v-1l.3-2.6c0-.5-.2-.9-.7-1-.4 0-.8.3-.9.7l-.3 2.8c0 .4.1 1 .4 1.3.2.2.3.3.5.3ZM181.9 267.5l-.1-3.7a.6.6 0 1 0-1.3 0c0 1-.3 2.2.1 3.2l.5.7c0 .2.3.3.5.3s.3-.3.3-.5ZM171 269.4c.4-.2 1-.7 1.3-1.5.7-1.2.6-3.1.8-4a.7.7 0 0 0-1.4-.2l-1.2 5a.4.4 0 0 0 .4.7ZM157.9 268.7c-.1.1-.2.3-.1.5 0 .2.3.2.5.2 0 0 .2.2.9-.4.6-.6.9-2.9 1-3.7a.7.7 0 1 0-1.3-.4c-.2.8-1.3 2.5-1.5 3.4 0 .1.2.2 0 .3-.6.3.2.2.5.1ZM147.3 269.2l-.6-1.4-1.6-3.4a.4.4 0 0 0-.5-.2c-.2.2-.3.4-.2.6l1.6 3.4.8 1.7c.3.5.8.7.7-.3 0-.2 0-.4-.2-.4ZM134.7 269.5c-.4-.7-.6-1.3-1.1-2-1-1.1-2.4-1.9-3.4-3.2a.5.5 0 1 0-.9.6c.9 1.5 1.7 3 3 4 .5.5 1.2.7 1.8 1 .1.2.4.3.5.1.2-.1.2-.4 0-.5ZM118.7 269c.1.5.4.5.6.3.5.2.8 0 0-1h-.1l-.8-1.9-1.9-3c0-.2-.4-.4-.6-.3-.3.1-.4.4-.3.7l1.3 3.6 1.7 1.5ZM105.5 268l.1.2c.2.1.4 0 .5-.1 0 0 .3-.4 0-1.3-.4-1.6-3.2-4.7-3.4-5.1a.5.5 0 0 0-.7-.3c-.3.1-.4.4-.3.7a41.3 41.3 0 0 0 3.4 6c.4.2.3-.2.3 0 0 .3 0 .2 0 0ZM91 266c-1-2-2.6-2-3.2-4.3-.2-.9-.5-2-.4-3.6 0-.3-.2-.5-.5-.6-.3 0-.5.2-.6.5-.5 2.7-.4 4.2.2 5.2.9 1.6 2.6 1.5 3.8 3.2a.4.4 0 0 0 .6-.3ZM78.5 263.5l-1.2-2.9-.7-1.7-.5-2c0-.4-.3-.6-.6-.6-.2 0-.5.3-.5.5-.1 1.7 0 3 .4 4 .5 1.2 1.5 2 2.5 3.1 0 .2.3.3.5.1.2 0 .2-.3.1-.5ZM68.5 260.6c-1 .1-1.7-.7-2.2-1.7a9 9 0 0 1-1.2-3c0-.4-.5-.7-1-.7-.3 0-.6.5-.6 1 .2 1 .8 3 2 4.2.9 1 2 1.4 3.2 1 .2-.1.3-.3.3-.5s-.3-.3-.5-.3ZM58 253.4l.2-.3c.1-.2 0-.4-.1-.6a.4.4 0 0 0-.6.1l-.3.6c0 .2 0 .3.3.4.2 0 .4 0 .4-.2ZM205.3 160l.2-.6c.1-.5-.3-1.3-.4-1.6 0-.2-.3-.4-.5-.3-.2 0-.4.2-.4.5l.4 1.7c-.1.1 0 .4.1.5.2 0 .5 0 .6-.2ZM200.2 160.8c0-.6-.2-1.1-.7-1.5-.6-.5-1.8-.6-2.3-1.1a.6.6 0 1 0-.9.8l3.1 1.8c0 .2.2.4.4.4s.4-.2.4-.4ZM186.3 161.5v.4s.8.1 1-.6c.4-.8.5-2.2.5-2.5 0-.3-.2-.6-.5-.6-.2 0-.5.2-.6.5l-.4 2.6v.2ZM176.3 162.2c.3 0 .6-.4.7-1 0-.6-.2-1.5-.3-1.6 0-.3-.2-.6-.6-.5-.3 0-.5.2-.5.6 0 .1.7 1.4 0 1.5-.2 0 .4.3.4.3-.2 0-.2.3-.2.5.1.2.3.3.5.2ZM162.8 162.2c.4-.8.8-2.2.9-2.9 0-.3-.3-.5-.6-.5s-.5.2-.5.5c0 .7-.7 2.4-.8 2.9 0 1 .3 1.7 1 .3v-.3ZM151.8 162c.3 0 .7-.1 1-.6.5-.9.4-2.7.4-3.2.1-.3-.1-.6-.5-.7-.3 0-.6.2-.7.5-.1.4-.6 1.9-.7 2.8l.2.6c-.2 0-.3.3-.2.5.1.2.3.2.5.1ZM139.3 161.4c-.1 0 .2-.2.1-.5l-1.8-6.7c0-.3-.2-.5-.5-.5s-.5.2-.5.5c0 .6 0 3.8.6 6 .3.7.5 1.4 1 1.7.5.4.9.6 1.2.3a.4.4 0 0 0 0-.8ZM131 164.8v.2c.1.2.4.3.6.2 1.2 0 1-.6 0-1.5-.5-.5-2.1-1.2-2.7-1.8-1.2-1-2.6-2-3.6-3.3a6.2 6.2 0 0 1-1.4-2.8c0-.3-.3-.5-.6-.5s-.5.3-.5.6c0 1.3.5 2.5 1.1 3.6 1 1.6 2.4 3 3.6 4 .7.5 2.1 1 3.1 1.3h.5ZM115.2 162.8c0-.6-.1-1.4-.5-2.2-.4-.8-1-1.6-1.4-2.6-.2-.5-.3-1.1-.3-1.8 0-.4-.2-.7-.5-.8-.4 0-.7.2-.8.6-.2 1.2 0 2.3.4 3.3l1.1 2c.5.7 1 1.1 1.3 1.7 0 .2.2.3.4.3s.3-.3.3-.5ZM106 161.4c-1 0-1.9-.7-2.8-1.6-1.3-1.2-2.7-2.7-3-4a.6.6 0 1 0-1.3.3c.2 1.5 1.3 4 3 5.3 1.4 1 3 1.2 4.2.7.2 0 .3-.2.3-.4s-.3-.4-.5-.3ZM92.6 161c.2 0 .4 0 .5-.2v-.5l-.9-.1c-.6 0-1-.4-1.4-.9-.5-.7-.8-1.8-1-2.6 0-.2-.3-.3-.5-.2-.2 0-.3.2-.3.4.3 1 .6 2 1.2 3 .5.5 1.1 1 2 1 0 0 .3.1.4 0ZM81.2 155.5c.1-.1.1.5.4.3.3-.2.4-.6.4-.7.2-.4 0-.8-.3-1a.7.7 0 0 0-1 .3s-.4.2-.4.5c-.1.6-.1.7.2.8 0 .2.2.4.4.3.2 0 .4-.3.3-.5Z" clip-rule="evenodd"/>
  <mask id="a" width="42" height="37" x="283" y="311" maskUnits="userSpaceOnUse" style="mask-type:luminance">
    <path fill="#fff" d="M283.8 311.3H325v36h-41.2v-36Z"/>
  </mask>
  <g mask="url(#a)">
    <path fill="#0A0000" fill-rule="evenodd" d="m285.3 313.7 9.8 1.4c4.5 1.1 10.6 3.2 15.8 6 3.4 2 6.4 4.1 8.2 7 2 2.9 2.2 5.5 1.3 8-1.7 4-6.1 7.5-10 10.2-.3.1-.4.4-.2.6.1.2.4.3.6.2 4.6-2.5 9.6-5.8 11.9-10 1.6-3.1 1.8-6.7-.6-11-2-3.2-5.5-6-9.5-8a60.9 60.9 0 0 0-23.5-6.1c-3.6.2-4.6 1.4-4.5 1.6 0 .2 0 .4.3.4.2 0 .4-.1.4-.3Z" clip-rule="evenodd"/>
  </g>
  <path fill="#0A0000" fill-rule="evenodd" d="m307 346.8-5 1.7-15.9 5.2a624.5 624.5 0 0 1-72.7 17.8c-.2 0-.4.3-.4.6s.4.5.7.5a506.8 506.8 0 0 0 73.2-16.7l15.7-5.8c.5-.2 2.8-1.3 4-2.1.7-.4 1-.8 1.1-1 0-.3 0-.5-.3-.5-.2 0-.4.1-.4.3ZM206.3 372.3h.1c.1 0 .3-.8-.3-.7H203l-8.5.7-22 1.7c-6.6.4-13.3.6-20 .7-9.2.2-18.5 0-27.7 0H106c-.2 0-.4.1-.4.3 0 .2.1.3.3.3 3.3.4 6.6.9 10 1.2a406.1 406.1 0 0 0 56.6 0l22-2 8.5-1.2 2.4-.7.8-.2ZM94.6 373.9s.2-.3 0-.5c-1-.4-3.4-.8-3.6-.9l-13.3-2.3a274.8 274.8 0 0 1-34.5-7c-7.6-2.2-15-4.7-21.9-8.2a.8.8 0 0 0-1 .4c-.3.4-.1.9.3 1 6.8 3.9 14.2 7 22 9.2 11.3 3.5 23.3 5.5 34.8 7.2l13.3 1.5c.2 0 2.1.7 3.3.6.8-.1 1.2-.4 1.2-.6v-.5a.4.4 0 0 0-.6 0Z" clip-rule="evenodd"/>
  <mask id="b" width="120" height="54" x="205" y="329" maskUnits="userSpaceOnUse" style="mask-type:luminance">
    <path fill="#fff" d="M205.1 330H325v52H205.1v-52Z"/>
  </mask>
  <g mask="url(#b)">
    <path fill="#0A0000" fill-rule="evenodd" d="M324.1 332.8c0-.6-.1-1.2-.4-1.5-1.1-.5-1.5.2-1.7.8l.4 1.7.2 2.8c0 1.4-.5 2.7-1 3.9-.7 1.2-1.5 2.3-2.4 3.4-2.4 2.8-5.5 5-8.9 6.9-5.1 2.8-10.9 4.9-16 7a286 286 0 0 1-34.6 11.6c-10.5 2.9-21.3 5-32 7-7.3 1.4-14.5 2.8-21.7 3.9a.8.8 0 0 0 .2 1.6c6-.5 12.2-1 18.3-2a305.1 305.1 0 0 0 71-19.5c5-2.2 11-4.4 16.1-7.3 3.6-2 7-4.5 9.6-7.5 1-1.3 2-2.6 2.7-4 .7-1.5 1.1-3 1.2-4.8l-.4-3.5c0-.3-.4-1.1-.4-1.1l-.2.6Zm-1.5.4.1-.3-.2.2h.1Z" clip-rule="evenodd"/>
  </g>
  <path fill="#0A0000" fill-rule="evenodd" d="M223.5 378h.2c.2 0 .3-.2.2-.4l-1-.2-8.4 1-32.9 2.8c-11 .8-22.2 1.1-33.4 1.2-10 0-20-.2-30-.4l-20.1-.5c-.5 0-.8.3-.9.8 0 .4.3.8.8.8 14 1 27.9 1.9 41.9 2a448.9 448.9 0 0 0 74.8-5.2l8.3-1.7.5-.1Z" clip-rule="evenodd"/>
  <path fill="#0A0000" fill-rule="evenodd" d="M117.6 383c.3 0 .4-.1.4-.2.5-.3.5-.5-.5-.6H116l-2.3-.3-7.5-.6a304.3 304.3 0 0 1-25-2.9 285.5 285.5 0 0 1-36-9.1c-9.4-3.2-18.4-7.5-26.9-12.2-2.2-1.2-4.4-2.3-6.5-3.6a.6.6 0 0 0-.7 1c1.5 1.4 3 2.7 4.7 3.9 6.5 4.6 14 7.7 21.6 10.6 14.1 5.2 29.2 8.4 43.6 11a180 180 0 0 0 25 3l7.6.4 2.4-.2 1.6-.2Z" clip-rule="evenodd"/>
  <path fill="#0A0000" fill-rule="evenodd" d="M46 365h-.1c0-.1 0 0 0 0-.4.4-2.4-1.4-2.5-1.5l-2.9-1.6c-2.3-1.1-4.7-2-7-3-5.2-2.2-11.5-4.7-16.8-8.3-2-1.4-3.9-3-5.7-4.6a25 25 0 0 1-6.7-8.6c0-.3-.2-.4-.5-.3-.2 0-.3.3-.2.5a21.6 21.6 0 0 0 8.7 12.7c6.2 4.7 14 7.9 20.4 10.5l10 4.2s1.8.7 2.8.8c.7 0 1-.1 1.1-.5 0-.2 0-.4-.3-.4l-.4.1ZM3 335.7s.3.6.9-.2v-1l.3-1.3c0-.2-.1-.5-.4-.5-.2 0-.5 0-.5.3l-.3 1.5s-.2.6-.1.9v.3Z" clip-rule="evenodd"/>
  <path fill="#0A0000" fill-rule="evenodd" d="M5.4 338.9c-.3-.1-.4-.5-.6-.9-.2-.6-.2-1.3-.2-1.8 0-1.1.3-2.2.8-3.1.8-1.6 2.1-3 3.3-4.3a62 62 0 0 1 9.3-7.7c3.3-2.3 6.8-4.4 10.3-6.3 1.7-1 3.6-2.3 5.6-3.2a13 13 0 0 1 2.5-1c.2 0 .3-.1.3-.3 0-.2-.2-.3-.4-.3-1.2.1-2.5.4-3.7.8-1.8.6-3.6 1.5-5.2 2.1a89.4 89.4 0 0 0-10.8 6.2c-3.5 2.4-6.8 5-9.6 8-1.4 1.4-2.9 3-3.7 5-.7 1.3-1 2.8-.7 4.3.2.6.5 1.6 1.1 2.3.5.5 1 1 1.6 1 .2 0 .4-.1.4-.4 0-.2 0-.4-.3-.4Z" clip-rule="evenodd"/>
  <mask id="c" width="40" height="36" x="0" y="308" maskUnits="userSpaceOnUse" style="mask-type:luminance">
    <path fill="#fff" d="M0 308.6h39.8v34.7H0v-34.7Z"/>
  </mask>
  <g mask="url(#c)">
    <path fill="#0A0000" fill-rule="evenodd" d="M37.6 309.1c-.1.4-1.3 0-1.7 0l-3.3 1-3.8 1.6-5.5 3-5.5 3.2a51.7 51.7 0 0 0-14.2 12.5c-2.5 3.8-3.6 8-2 12.3 0 .2.2.3.4.2.2 0 .3-.2.2-.4-1.2-4.1.2-7.9 2.6-11.2 3.7-5 9.7-9.3 14-12l5.4-3.1 9-4.5 3-1c.5 0 1.4 0 1.7-.2 1-.7 1.4-1.2.2-1.3a.4.4 0 0 0-.5 0v.1-.2c0-.4 0-.3 0 0Z" clip-rule="evenodd"/>
  </g>
  <mask id="d" width="14" height="23" x="0" y="333" maskUnits="userSpaceOnUse" style="mask-type:luminance">
    <path fill="#fff" d="M0 334h13.1v21.3H0V334Z"/>
  </mask>
  <g mask="url(#d)">
    <path fill="#0A0000" fill-rule="evenodd" d="m2.4 335.2-1.2 1.4-.5 1.8v3c.3 2.9 1.6 5.7 3.6 8s4.6 4 7.1 5.1a.7.7 0 1 0 .7-1.2 21.1 21.1 0 0 1-7-6.5 13 13 0 0 1-2.4-5.7v-4.2L3 335c0-.2-.2-.3-.4-.3-.2.1-.3.3-.3.5Z" clip-rule="evenodd"/>
  </g>
  <path fill="#0A0000" fill-rule="evenodd" d="M198.3 381.2c-.2.2-.3.5 0 .8.6.6 2 1.3 2.2 1.4 1 .7 1.8 1.4 2.5 2.3 1.2 1.4 2.2 3 3.5 4.5 2.6 2.9 4.6 6 6 9.3 1.5 3.3 2.3 6.8 2.3 10.7 0 1.8 0 3.4-.6 4.8-.3.8-.8 1.6-1.7 2.3-2.9 2.3-6.4 4-10.3 5.3a95 95 0 0 1-17.5 3.5 172.7 172.7 0 0 1-62.1-3.6.7.7 0 0 0-1 .5c0 .4.2.8.6 1a119.2 119.2 0 0 0 31.1 5.9 171.2 171.2 0 0 0 49.7-5c4-1.4 8-3 11.2-5.5a8 8 0 0 0 2.7-3.3c.7-1.7.8-3.6 1-5.8a27 27 0 0 0-2-12.2c-1.5-3.7-3.9-7.1-6.8-10.3-1.5-1.4-2.6-2.9-3.9-4.2-1-1-2-1.8-3.4-2.5-.1 0-1.7-1-2.7-1-1.3 0-1.5.4-1.4.6a.4.4 0 0 0 .6.5Zm0-.1s.1 0 0 0Z" clip-rule="evenodd"/>
  <path fill="#0A0000" fill-rule="evenodd" d="m139.5 427.3-6-1.7c-3.3-1-8.5-2.7-13-4.8a23 23 0 0 1-7.3-4.6 7.4 7.4 0 0 1-1.5-4.4c-.2-1.8 0-3.7.5-5 .9-3.2 2-5.9 3.5-8.4 1.7-3 4.2-5.5 6.8-8.4l1.7-2.2a1.2 1.2 0 1 0-1.7-1.8l-2 1.3a36.4 36.4 0 0 0-11.3 18.6c-.5 2-.8 4.9-.3 7.4.3 1.8 1 3.6 2.2 4.8 1.8 2 4.9 3.8 8.4 5.2a81.7 81.7 0 0 0 20.6 4.5l-.1-.6a.4.4 0 0 0-.5.1Z" clip-rule="evenodd"/>
  <path fill="#0A0000" fill-rule="evenodd" d="M117.7 415.3c0 .1.1 0 .2 0 .3 0 .6.5.8.6l3 1.4 6.7 2.6a68.2 68.2 0 0 0 22.9 3.6.4.4 0 1 0 0-.9c-3 0-6-.5-9-1-4.6-.7-9-1.7-13.4-3l-6.9-2.3-3-1.2c-.3-.1-1-.7-1.3-.7-.2 0-.5.2-.4.6 0 .2.2.3.4.3Zm.2 0c0-.1-.2-.2-.2 0h.2ZM167.3 421.8l2.9.7 6.2-.1c5.7-.5 11.9-1 17.8-2.5 4-1 7.7-2.5 11.2-4.3.2 0 .3-.4.2-.6a.5.5 0 0 0-.6-.2 61.3 61.3 0 0 1-11.3 3.3c-5.8 1.3-11.8 2.2-17.4 2.8l-6.1.5c-.9 0-2-.6-2.8-.5-.4 0-.7.2-.8.6-.1.2 0 .4.1.5.2.1.5 0 .6-.2ZM124.7 385.5c-.2.6-.5 1 0 .3.1-.2.5.3.7.4l2.9.3 8.3.2a320.2 320.2 0 0 0 25.2-1.4l.2-.3c0-.2-.1-.3-.2-.3h-25.2l-8.2-.3-2.7-.2c-.4.2-1.3.3-1.5.5-.2.3-.8.8 0 .8h.5ZM121.3 388.3c-1.6.5-2 1 .5.6l.1.1 1 .7 2.2.6 9.2 1.2a199.6 199.6 0 0 0 26.2-.5.3.3 0 1 0 0-.6 130.4 130.4 0 0 1-26-.7l-9.1-1.1-2.2-.4h-1c-1-2-1.6-1-.9.1ZM119.9 392.8l2.8 2 7 1.3c4.4.6 9 1.1 13.6 1.3a97.4 97.4 0 0 0 14-.5l-.2-.2a208.5 208.5 0 0 1-27.2-2.2l-6.8-1.2c-.9-.2-2-1.2-2.8-1.3-.6-.1-1 0-1.1.6-.1.2 0 .4.2.5.2 0 .4 0 .5-.3ZM117.1 397.9h.3l.1.1v.2c-.3 0-.5-.2-.4-.3a2 2 0 0 0-.2-.1h-.5c-.2.2-.4.6 0 1 .3.3 1.4.9 1.9 1l4.5 1.4a113 113 0 0 0 19.7 2.8l7.5.4a78.2 78.2 0 0 0 4.3-.3c.2 0 .2-.2.2-.3h-.3v.2l-4.2-.3-7.4-.9-19.4-3.3-4.4-1.1-1-.2-.3-.2c0-.2-.2-.4-.4-.1ZM112.4 404.2c.2.2 1.1.4 1.5.6l3.7 1.2 9 2.1a185 185 0 0 0 28.8 2.7l-.2-.2a185.5 185.5 0 0 1-28.3-3.6l-9-2.2-3.8-1c-.5 0-1.6-.6-2-.5-.3 0-.6.2-.2.8h.5ZM116.1 411.6c.1.2.9.6 2 .8 2 .5 5.6.7 6.9 1a149.5 149.5 0 0 0 30.6 2.4c.2 0 .4-.1.4-.4 0-.2-.2-.4-.4-.4a157.7 157.7 0 0 1-30.4-2.7l-8.4-1a.4.4 0 0 0-.7.3ZM193.2 382v.1h.2c.3 0 .4-.2.4-.4 0-.1-.4-.5-1-.4-1.3.1-4.7.8-5 .9l-12.7 2a.4.4 0 1 0 0 .8 53.2 53.2 0 0 0 13-1.6l4.8-1.3h.3ZM196.1 385.8l-4 .5c-2.1.4-4 1-6 1.5-.4 0-.6.4-.5.7 0 .3.3.5.7.4l10-2.3c.1 0 .3-.2.3-.4 0-.3-.3-.4-.5-.4ZM196.5 390.4c-.4-.2-1.6 1-1.7 1l-4.4 1.1a.4.4 0 0 0 .2.9l4.5-1.3 1.8-1 .3-.4c0-.2 0-.5-.5-.4l-.2.1Zm.1.6h.2-.2ZM201 396.4l-3.1.6a.6.6 0 1 0 .2 1.1c.4 0 1.6 0 2.4-.4.7-.3 1-.7 1.1-1 .1-.1 0-.4-.2-.5-.2 0-.4 0-.5.2ZM208.1 406.2s-.3-.3-.9-.2l-4.1 1.1-15.6 3.5c-.2 0-.4.3-.4.6 0 .2.3.4.6.4a113.6 113.6 0 0 0 15.7-3.4l4-1.6c.1.2.4.2.6.1.1 0 .2-.3.1-.5ZM47.5 268.1c-.2.4-.6 1.2-.9 2.6l-.8 10.5a527 527 0 0 0-1.6 33.7 225.3 225.3 0 0 0 .5 11.8c0 .5.3.6.4.6l.1-.2s-.1-.2-.2-.1l-.1-12 2.4-33.7.7-10.5a6 6 0 0 1 .3-2.4v-.1c.6-.4.6-.7.4-.8.2-.7 0-.7-1 .4l-.2.2ZM50.9 268c.4 3.5.4 7.4.3 11.7-.4 13.8-3 31.3-3.2 46.8-.1 5.2 0 10.2.7 14.7 0 .2.1.3.3.3.2 0 .3-.2.3-.4-2.2-17.2 2.5-40.4 3.1-58.4.2-5.5 0-10.5-.8-14.7 0-.3-.2-.4-.4-.4s-.4.3-.3.5ZM53.6 342.9c-.4-.4-.3-2-.2-4.2.2-4.1.9-9.7 1-10.4l1.6-43s-.1-.2-.3-.2c-.1 0-.3.1-.3.3a724.4 724.4 0 0 0-2 42.8c0 .9-.8 7.9-.8 12 0 1.7.1 3 .4 3.2.2.2.4.2.6 0v-.5ZM61.6 267.5c-.3 0-.7 1-1 2.3-.3 2.9-.4 8-.5 8.3a552 552 0 0 0-.8 17.6c-.3 8.8-.3 17.6-.4 26.4 0 .2.1.3.3.3.1 0 .3-.1.3-.3l1.7-44 .5-9.8c.2 0 .4-.2.3-.4 0-.2-.2-.4-.4-.4ZM67.3 272.1a1 1 0 0 0-.5.3 1 1 0 0 0-.2.6l-.2 7-.3 16.1c-.3 10.7-.8 21.4-1 32a309.4 309.4 0 0 0 .3 13.8c-.1-6.1 0-12.2.2-18.3l1.4-27.4.7-16V273l-.1-.7v-.2h-.3ZM80.5 287l.2-.3c0-.2-.2-.4-.4-.4 0 0-.4.2-.5.6v2.4l-.9 15.7c0 .3.3.5.6.5s.5-.2.5-.5l.6-15.6s.7-2.4 0-2.4ZM279.3 332.6l.2-1.5c.2-3.7.1-12.5.2-14.7l1-38.2v-10.9c0-.8 0-2.7-.3-3.4.2-.1.2-.4 0-.5-.4-.6-.8-.4-1 0-.1.5.3 3 .2 4v10.8l-1 38.1c0 2.2-.2 11 0 14.8l.1 1.4c0 .6.6.3.7.2ZM272 337.8c.4 0 .5-.4.6-.7 0-.6-.4-1.5-.3-2.1l1-8.6a327 327 0 0 0 .7-34c-.2 0-.4 0-.4.3a440.5 440.5 0 0 1-1.8 33.6l-.8 8.5.7 2.3a.4.4 0 0 0 .3.7ZM268.6 284.5l-.2-5.8c0-.2-.2-.4-.4-.3-.2 0-.4.1-.4.3l.2 6c.1.2.3.3.5.3s.3-.3.3-.5ZM259.5 333.4c-.2 0 .1.8.1.9 0 .2.3.3.5.3s.3-.2.3-.5l-.1-1c-.2-.3-.5-.4-.6-.3a.4.4 0 0 0-.2.6ZM64.5 165.8c-.1 0-.7 1.5-.8 4-.2 3.7-.1 9.8-.3 14.2l.2 63.8c0 .2.2.4.4.4s.3-.1.3-.3c.4-6.4.6-12.8.7-19.2.1-14.9-.5-29.8 0-44.7.1-4.4.2-10.5 0-14.3 0-1.5-.7-3.2-.1-3.2h-.3c.2 0 .3-.2.3-.4s-.2-.3-.4-.3ZM69.2 250l-.2.4c0 .4.2.4.4.5l.6-.5c.5-1.1.8-2.5.8-4 0-2-.4-4.2-.5-5.8l-.3-15.2.2-49.7c0-.1 0-.2-.2-.2l-.1.2-1.4 49.7.4 15.3c0 1.8.5 4.4.6 6.7 0 1 0 1.8-.3 2.6ZM77 168.5l-.2 5.3.1 14.6v65.1c0 .2 0 .4.3.4.2 0 .3-.2.3-.4l.2-65.1-.1-14.6.2-4.5c0-.8-.3-1.3-.5-1.4a.4.4 0 0 0-.5.1c-.1.2 0 .4.1.5ZM82.3 257.4H82l-.2.4c0 .2.2.3.4.3.1 0 .4 0 .5-.4l.4-2.6c.4-3.5.7-7 .8-10.5.2-8.2 0-16.4 0-24.5a.3.3 0 1 0-.5 0l-1.2 35s.3 2 0 2.3Zm0 0H82h.2ZM91.7 252.6a57 57 0 0 1-.4-6.7l.2-10c0-.3-.2-.4-.4-.4s-.4.1-.4.3l-.1 10.1c0 2.3 0 4.6.3 6.8 0 .2.2.3.5.3.2 0 .3-.2.3-.4ZM255.4 160.3l.3 17 .9 50.6c0 .2.1.3.3.3.2 0 .4-.1.4-.3l.2-30.4c0-6.8-.2-13.5-.5-20.3l-.4-10.4a51 51 0 0 0-.9-7.2c-.1-.1-.4 0-.4.1-.1.2 0 .5.1.6ZM251.8 227.9c.1 0 0-.1 0-.1v-6.4l.2-16.5c0-.2-.1-.4-.4-.4-.2 0-.3.2-.3.4l-.2 16.5v6.5c-.5 0 .5.4.4.4.2 0 .3-.2.3-.4Zm0-.1ZM246.5 165.4l-.1 2.9.6 8.3 1.2 20.4c0 .3.2.5.4.5.3 0 .5-.3.5-.5l-1-20.4-.7-8.4-.1-3.3c-.2-.8-.5-1.2-1 0 0 .2 0 .4.2.5ZM242.1 165.4c.4 1.2.6 2.5.7 4 0 3.3-.4 7-.3 9.7 0 .2.2.4.4.4s.4-.2.4-.4c-.1-2.6.4-6.4.2-9.7 0-1.6-.2-3-.7-4.2 0-.2-.2-.3-.4-.2-.2 0-.3.2-.3.4ZM102.1 255.8l.2-18.3c0-.2-.1-.4-.3-.4-.3 0-.4.2-.4.4-.3 4-.9 8.6-.8 12.9 0 2 .3 3.9.6 5.5 0 .2.2.4.4.3.2 0 .4-.2.3-.4ZM113.7 254.7l.2-2.1c0-.2-.2-.4-.4-.4s-.4.2-.4.4v2.2h.6ZM88.1 152.8c.3-2 .3-5.2.1-9.3-.7-11-3.1-27.8-3.3-36.6l-.3-19.3v-2c-.2-.5-.4-.6-.7-.3 0 0-.1.2 0 .2 0 .1.1.1.2 0v2l-.6 19.4c0 2.6.3 5.8.5 9.3l2.8 29.3c.3 3.1.6 5.6.6 7.3 0 .2.1.4.3.4.2 0 .4-.2.4-.4ZM91.7 155.8c.8-6.8 1-13.7.8-20.7-.5-16-3.1-32.3-2.9-48.2l-.2-.2-.2.2a174 174 0 0 0-.2 13.8c.3 12.9 1.4 25.9 1.9 38.6.2 5.5.4 11 0 16.5 0 .2.2.3.4.4.2 0 .4-.2.4-.4ZM98.2 155.6l.2-2c0-2.3-.3-5-.5-8a628 628 0 0 1-2.1-39.4 122.4 122.4 0 0 1 1-21.3v.1c-1.6 6.9-1.8 21-1.6 35.3a407 407 0 0 0 1 28.4c.1 2 .2 4 .7 5.6 0 .5.3 1 .5 1.4 0 .2.2.3.4.3s.4-.2.4-.4ZM108.1 152.3l-.1-4c0-4.7.3-10 .1-13 0-.2-.2-.4-.5-.4s-.5.2-.5.5c0 3.4-1 9.9-.6 15.2.1 2.7.7 5 1.6 6.6.7.7 1 .7 1.3 0l.3-1.9a8 8 0 0 0-.3-2.3c-.3-.7-.7-1-1.2-.8Zm1 4.1v.2-.2Zm-.5-1.5a4 4 0 0 0 0-1.7l-.1-.3h-.3c0 .7.2 1.4.4 2ZM112.6 93c.7.3 1 0 .9-.8-.1-.8-.8-2.3-.9-3.1 0-.2-.2-.4-.4-.4s-.4.2-.4.5l1 3-.4.3c-.1.2 0 .4.2.5ZM121.9 151.3l.2-9c0-.3-.2-.5-.5-.5-.2 0-.5.2-.4.5 0 2-.6 4.2-.6 6.3 0 1 .3 1.9.5 2.8 0 .2.3.3.5.3s.3-.2.3-.4ZM142.9 150.3l-.1-1.1a.3.3 0 0 0-.7 0v1.3c0 .5.3.7.7.4.2 0 .3-.3.1-.5ZM232.4 85.5c-.4.2-1 .7-1.3 1.7-.5 1.5-.7 4-.8 7-.3 7.5.4 17.7.4 20 0 .3.3.6.6.6s.6-.3.6-.6c0-2-.2-10.1 0-17.2 0-3.6.2-6.9.5-9 .1-.9 0-1.6.4-1.8.2 0 .2-.3.1-.5a.4.4 0 0 0-.5-.2ZM224.2 90.8c.2.3.3 1.2.4 2.3v6c0 .2.2.3.5.3.2 0 .4-.2.3-.4v-6c-.1-1.3-.3-2.3-.6-2.7a.4.4 0 0 0-.6 0c-.1 0-.2.3 0 .5ZM154 351.8c0 .8.2 1 .5.8.2 0 .3-.2.3-.6.2-.3.3-.8.3-1.3.2-2.4.1-7.3.2-7.7a246.3 246.3 0 0 1 2.8-21.6s-.2 0-.2.2l-4 21.3a87.4 87.4 0 0 0 0 9ZM163.6 354.7c-.2-.4.7-.3 1.1-.6l.4-.7c.2-3 .4-6 .4-9 0-7-.7-14-.8-20.9 0-.1-.1-.3-.3-.3-.2 0-.4.1-.4.3l.2 29.8c0 .5-.9.6-1.2.9-.2.2-.3.5-.1.8 0 .2.3.3.5.2.2 0 .3-.3.2-.5ZM176.3 346.2c.2-.2.4-.5.4-1 .2-1 0-2.9 0-3.2a.4.4 0 0 0-.7 0v3.5c-.3.1-.3.4-.2.6.1.1.4.2.5 0ZM179.6 307v.5s.7.1.8-.4l.2-1.9c0-.2-.1-.4-.3-.4-.2 0-.4.2-.4.4a53.9 53.9 0 0 1-.3 1.9ZM146.4 296.3c.3-.1.5-.4.6-.8.3-1-.2-2.5-.3-3 0-.1-.2-.3-.4-.3-.3 0-.5.2-.5.5l.1 3c-.2.2-.2.4 0 .6h.5ZM292.1 356.6l.3-.1.1-.4c0-.2-.2-.5-.6-.3-.3 0-1.3.9-1.7 1.1l-3.3 1.7-11.7 3.2c-.2 0-.4.3-.3.5 0 .2.3.4.5.3l11.8-3.3 3.4-1.7c.3-.2 1.3-.7 1.5-1Zm-.4-.2v-.3.3ZM204.3 372.6a79 79 0 0 1-14.2 2.3c-7.3.6-14.8.6-21.8.9-18.2.7-36 .6-53.7-.5a379.2 379.2 0 0 1-53.5-6.5l.1.2c17.9 4 35.5 6.5 53.3 7.6 17.8 1.2 35.6 1 53.8.2 7-.3 14.5-.3 21.9-1a80 80 0 0 0 14.4-2.5c.2 0 .3-.2.2-.4 0-.2-.2-.4-.5-.3Z" clip-rule="evenodd"/>
  <path fill="#0A0000" fill-rule="evenodd" d="M43.2 367.1h.1-.1c0 .2 0 .1.1 0l.7.3a108 108 0 0 0 18.5 4.6c3.5.6 7 1.2 10.6 1.6 10.7 1.5 21.5 2.8 32.3 3.7 10.9.8 21.8 1.3 32.6 1 .2 0 .3-.1.3-.3 0-.2-.2-.3-.3-.3-8.7.1-17.3-.2-26-.8a610.6 610.6 0 0 1-49.3-5.8l-10.5-2-8-2.4-.8-.3c.2-.4-.5.2-.5.2-.1.2 0 .4.2.5h.1Z" clip-rule="evenodd"/>
  <path fill="#0A0000" fill-rule="evenodd" d="M52.7 370.4s-.2-.1-.4 0c-.2 0-.3.2-.2.4l.3.3c3.2 1.5 6.8 2.5 10.5 3.3 5.5 1.1 11.2 1.7 16.4 2.5 12.4 2 24.5 3 36.6 3.4 18.3.7 36.5.1 55.2-.3.1 0 .2 0 .2-.2 0 0 0-.2-.2-.2-18.7.2-36.9.4-55.1-.3-12.1-.5-24.2-1.4-36.6-3.3-5.2-.7-10.8-1.3-16.3-2.4-3.6-.7-7.2-1.7-10.4-3.2ZM128 386.8c0 .2-1.6 1.4-3 2.9-.8.8-1.5 1.7-2 2.4a98.7 98.7 0 0 0-6.6 14.9c-.3.7-2.3 5.5-2.2 8.4 0 2 .8 3.2 2.7 2.4l.1-.3s-.1-.1-.2 0c-1.4.1-1.5-.7-1.4-2a125 125 0 0 1 8.8-22.8l4.5-6.1c0-.2-.3-.3-.5-.3s-.3.3-.2.5ZM133.6 386.6c-.2-.2-.8-.1-1.4.7a98.2 98.2 0 0 0-5 8.8c-1.2 3-3.8 7.5-5 12-1 3.2-1.1 6.3-.1 8.7 0 .1.2.2.3.1.1 0 .2-.1.1-.3-.5-1.7-.2-3.9.3-6.1 1.3-5 4.2-10.5 5.6-13.9l4.6-9.5c.1.1.3.2.5 0 .2 0 .2-.3 0-.5ZM139.8 386.1c-.6.5-1.4 2-1.7 2.8l-2.7 5.8c-1.7 3.9-4.2 8.6-5.6 13.3-1 3.3-1.4 6.6-.9 9.7a.3.3 0 0 0 .6-.1c-.2-2.3.2-4.6.8-7 1.5-5.4 4.3-11 6.2-15.4l2.4-6c.4-.8 1.9-2.6 1.9-3.1 0-.4-.1-.7-.8-.5-.2 0-.3.3-.3.5ZM149.3 385.5c-.2 0-1 .8-1.2 1.3l-2.4 6a112.6 112.6 0 0 0-4.4 17.7c0 .2.1.4.3.5.3 0 .5-.1.5-.4l4.4-17.5 2.2-6c.4-.5 1.7-1.2 1.7-1.6 0-.2-.1-.7-.6-.5-.2 0-.4 0-.5.3v.2Zm.1.1c0 .2 0 .5.2.4v-.1c.2-.1 0 .2 0-.2h-.2ZM153.8 396.4l-.2 4.7c0 .2.1.4.3.4.2 0 .4-.1.4-.3l.3-4.8v-.3c-.3-1-.8-1.5-.8.1v.2ZM189.4 382.7v.4l3.8 3.8a85.8 85.8 0 0 1 6.3 11.2c0 .3.4.4.6.3.3-.1.4-.4.3-.7a86 86 0 0 0-6.3-11.5l-4-4-.9.2c0 .1 0 .2.2.3Zm0 0h-.1ZM43 336.5a247.6 247.6 0 0 1 33.3 10.7c.2 0 .4 0 .5-.2 0-.2 0-.4-.2-.5a297 297 0 0 0-33.4-10.7c-.3 0-.5 0-.5.3 0 .2 0 .4.3.4ZM42.3 329.9c2.7 2.5 6.7 4.2 11 5.5 6.2 2 13.1 3 18 4.1.3.1.6 0 .6-.3.1-.3 0-.6-.3-.7-5-1-11.8-2-18-3.9-4.2-1.2-8.1-2.9-10.8-5.3a.4.4 0 0 0-.5 0v.6ZM41 322c2.4 0 5.3.6 8.3 1.5 6.4 2.1 13.5 5.8 18.8 7.3.2 0 .4 0 .5-.2 0-.2-.1-.4-.3-.5-5.3-1.5-12.3-5.2-18.8-7.3-3.1-1-6-1.6-8.6-1.5-.2 0-.4.1-.4.4 0 .2.2.3.4.3ZM44.2 314.9l-.3-.2h-.5c0 .1-.3.5.2.8l3 1.1 20.6 6.2c.2 0 .4 0 .5-.3 0-.2-.1-.4-.3-.4l-20.6-6.2-2.6-1Zm0 .1c.3.3.5.7-.4.4.2 0 .4 0 .4-.2v-.2ZM44.4 307.5c1.7 1.8 4.8 3 8.2 4 4.7 1.3 10.1 2 13.4 2.4a.4.4 0 1 0 0-.7c-3.2-.4-8.5-1.1-13.2-2.4-3.3-1-6.2-2.1-7.8-3.8a.4.4 0 0 0-.6 0v.5ZM43.5 297.7c1.8 1.2 3.8 2.1 5.8 3A57 57 0 0 0 59 303c0-.2 0-.3-.2-.3-3-.7-6.3-1.5-9.2-2.7-2-.9-4-1.9-5.7-3a.4.4 0 0 0-.5 0c-.1.2 0 .4.1.6ZM44 286.9l9.8 4.3.4-.1c.1-.2 0-.4-.1-.5a127 127 0 0 0-8.1-3.8c-1.3-.5-2.3-.7-2.5-.5-.2 0-.2.3-.1.5s.4.2.5 0ZM49.7 278.2l10.7 3c.3 0 .5-.2.6-.4 0-.3-.1-.6-.4-.6l-10.8-2.8c-.2 0-.4.2-.4.4s0 .4.3.4ZM60.6 269.5l2.5.9a.4.4 0 0 0 .2-.8c-.7-.1-2-.8-2.6-.9-.8-.2-1.1 0-.8.8.1.2.4.3.5.2l.2-.2ZM67 249c3.1 2 6.6 3.3 10.3 4.2 8.3 2 17.5 2.4 25.5 4.5.2 0 .4-.1.4-.3.1-.2 0-.5-.2-.5-8-2.2-17.1-2.7-25.5-4.7-3.6-.9-7-2-10.2-3.8a.4.4 0 0 0-.4.7ZM63.7 237.5c.9.2 3.2 1.5 3.5 1.6l8.8 3.5c5.6 1.9 11.7 3.9 17.8 5.3a74 74 0 0 0 12.2 1.9.8.8 0 0 0 .1-1.6c-4-.1-8-.7-12-1.6-6.1-1.3-12.2-3.1-17.7-5l-9-3.3c-.2-.1-2.6-1.3-3.5-1.6h-.7c-.1.2-.2.3-.1.6a.4.4 0 0 0 .6.2ZM61.8 226.6l.9.4 11.3 4a297 297 0 0 0 27.3 7.4.4.4 0 0 0-.1-.8c-1 0-15.5-4.8-26.7-8.2-3.7-1.2-7.1-2.1-9.5-2.8l-.1-.1a46 46 0 0 0-3.4-1c-.2.1-.7.6 0 1l.3.1ZM57.3 211c3.6 3.7 9.6 6.6 15.9 8.8a69.7 69.7 0 0 0 17.7 3.6c.2 0 .4-.2.4-.4s-.1-.3-.3-.4c-5-.2-11.4-1.5-17.6-3.6-6.2-2-12-5-15.6-8.5a.4.4 0 0 0-.5 0c-.2.2-.2.4 0 .5ZM63 202.2c3.2 1.5 6.5 2.7 9.9 3.7a101 101 0 0 0 10.5 2v-.1a95 95 0 0 1-10.4-2.4c-3.3-1-6.6-2.3-9.7-3.9-.2 0-.5 0-.5.2-.1.2 0 .4.1.5ZM70.5 192.9l2 .7c.2 0 .4-.1.5-.3 0-.2-.1-.5-.3-.5-.6-.1-1.5-.7-2-.7-.4 0-.7.1-.9.4 0 .2 0 .5.2.6.2 0 .4 0 .5-.2ZM70.7 180l5.9.7c4.5.3 9 .1 13.6.4.2 0 .4-.2.4-.4s-.1-.4-.3-.4c-4.7-.2-9.2 0-13.7-.4a44 44 0 0 1-5.7-.7c-.2 0-.4 0-.5.3 0 .2.1.4.3.4ZM129.5 254l.3-.2c.1 0 0 .2.3.2 4.7 1.2 9.6 2 14.5 2.6 4.8.6 9.7 1 14.5 1.3.4 0 .7-.3.7-.6 0-.4-.3-.7-.6-.7-4.8-.2-9.7-.5-14.5-1a127 127 0 0 1-14.4-2.3l-.6-.3c-.2 0-.4.1-.8.5v.6h.6ZM138 246.1c-.1.3.5.3 1.1.5l3.2.5c6 .8 16.4 1.7 18.2 1.7.3 0 .5-.3.5-.6s-.3-.5-.5-.5c-1.9 0-12-1.6-18-2.1a28 28 0 0 0-5 0l.1.5h.4ZM146 239c.3.2 1.1.1 1.3.1l8.6.5c.3 0 .5-.2.5-.4 0-.3-.2-.5-.4-.5l-8.6-.3-1.4-.3c-.7 0-1 .2-.4.8 0 .2.3.2.4.1Zm.2-.4v-.2.2ZM148.6 227a8 8 0 0 1 2.3-.5l5.7.2c.2 0 .4-.2.4-.5 0-.2-.2-.4-.4-.4-1.8 0-3.9-.2-5.8 0-.9 0-1.7.1-2.5.4-.2 0-.3.3-.2.5 0 .2.3.3.5.2ZM167.8 290c1.3.4 2.7.7 4.1.8 3.2.4 6.5.4 9.7 1.1a.4.4 0 1 0 .1-.7c-3.1-.7-6.4-.7-9.7-1.1-1.3-.2-2.7-.5-4-.9-.2 0-.4 0-.5.3 0 .2 0 .4.3.5ZM171.7 295.8c1.7.7 3.6 1 5.6 1 4.4.2 9.3-.6 13-.7.2 0 .4-.2.4-.4s-.2-.4-.4-.4c-3.8.1-8.6 1-13 .8-1.9 0-3.7-.4-5.3-1-.2 0-.4 0-.5.2 0 .2 0 .4.2.5ZM182 304.5c.9.5 2.4.6 4 .3 3.1-.4 7-1.8 9-1.8.1 0 .3-.2.3-.4s-.2-.4-.4-.4c-2 .1-5.8 1.4-9 1.9-1.4.2-2.7.2-3.5-.3a.4.4 0 0 0-.6.2c0 .1 0 .4.2.5ZM200.6 324.3c1 .3 1.8.4 2.6.3 1.2 0 2.2-.4 3.6-.5.3 0 .4-.2.4-.4 0-.3-.2-.4-.4-.4-1.4.1-2.5.5-3.6.6-.7 0-1.5 0-2.3-.3-.2 0-.4 0-.5.2 0 .2 0 .5.2.5ZM188.4 195.4c2 1 4 1 6 .8 2.9-.4 5.8-1.6 8.5-2 .2 0 .3-.3.3-.5s-.2-.3-.4-.3c-2.7.5-5.6 1.6-8.5 2-2 .3-3.8.2-5.5-.6-.2-.1-.5 0-.5.1-.1.2 0 .5.1.5ZM193.5 205.3c1.4.2 2.6.1 3.8 0 1.7-.2 3.3-.7 5.3-1 .2 0 .4-.3.3-.5 0-.2-.2-.3-.4-.3-2 .4-3.6.8-5.3 1-1.2.2-2.3.2-3.6 0-.2 0-.4.2-.4.4s.1.4.3.4ZM199.1 210.5l3.2.2c.2 0 .3-.2.3-.4s-.2-.3-.4-.3l-3-.2c-.1 0-.3 0-.4.3 0 .2.1.4.3.4ZM85 147.5c.7-.2 1.8 0 3.3.2 7.8 1.3 24.5 6.5 30.6 6.9.4 0 .8-.3.8-.8 0-.4-.3-.7-.7-.8-5.3-.2-18.5-4.5-27-6-3.4-.6-6-.7-7.2-.2-.2 0-.3.2-.3.4s.3.3.5.3ZM86.5 140.4c2-.3 5 .2 8.3.9 6.6 1.4 14.6 3.9 19.3 4.7a.7.7 0 1 0 .2-1.3c-4.7-.8-12.6-3.4-19.3-4.6-3.4-.6-6.5-.9-8.6-.4-.3 0-.4.2-.4.4s.3.4.5.3ZM85.8 130.4c4.4 1.6 9.4 3 14.5 3.9 5 .9 10 1.5 14.8 1.7.3 0 .5-.2.6-.5 0-.3-.3-.6-.6-.6-4.6-.2-9.7-.7-14.7-1.5-5-1-10-2.1-14.3-3.7-.2-.1-.4 0-.5.2 0 .2 0 .4.2.5ZM84 117.7c1.7 2.4 5.8 4 10.5 5.1 6.4 1.5 13.9 2 17.3 1.9.2 0 .4-.2.3-.4 0-.2-.1-.4-.3-.4-3.4.2-10.8-.3-17.2-1.8-4.4-1-8.4-2.6-10-4.8a.4.4 0 0 0-.4-.1c-.2 0-.3.3-.1.5ZM86.7 109.7c1.8 1.4 3.8 2.4 6 3 3 1.1 6.5 1.6 9.6 2.3 0 0 .2 0 .2-.2l-.1-.2c-3.1-.8-6.4-1.5-9.5-2.6-2-.7-4-1.6-5.7-3a.4.4 0 0 0-.5.1c-.2.2-.1.4 0 .6ZM91.4 103.4a14 14 0 0 0 4.8 1.5c2.3.3 4.5 0 7.5.2.2 0 .3-.2.4-.4 0-.2-.2-.4-.4-.4-2.9-.1-5.1.2-7.4-.1-1.4-.2-2.9-.6-4.6-1.5-.2 0-.4 0-.5.2 0 .2 0 .4.2.5ZM96.3 90.9a30.4 30.4 0 0 0 8.3 2.1c.3 0 .4 0 .5-.3 0-.2-.1-.4-.4-.4a31 31 0 0 1-8-2.2c-.3 0-.5 0-.6.3 0 .1 0 .4.2.5ZM146.2 144c.8-.7 2.3-1.2 4-1.4 2.4-.4 5.1-.5 6.7-.5 0 0 .2-.1.2-.3l-.3-.1c-1.7 0-5.1 0-7.8.5-1.4.2-2.6.6-3.3 1.2-.1.1-.2.4 0 .5.1.2.4.2.5 0ZM145 130.9l13.9.5c.2 0 .4-.2.4-.4 0-.3-.1-.5-.4-.5l-14-.4c-.2 0-.3.2-.3.4s.1.4.4.4ZM146 117.6c.6-.3 1.5-.4 2.4-.5l6.1-.4a.7.7 0 1 0-.1-1.3c-1.3.1-3.4.1-5.3.4-1.4.2-2.6.6-3.5 1.2-.2 0-.2.3-.1.5 0 .2.3.2.5.1ZM184.5 67.3h-.2c-.3-.1-.7.4 0 .8l1.8.6c2 .5 5.3.6 8 .2 2.9-.4 5.1-1.5 5.3-3.8a.2.2 0 0 0-.4 0c-.2 1.5-1.6 2.3-3.3 2.7-2.8.6-6.6-.2-9-.4-1-.2-1.7 0-2-.1h-.2Zm0 .6h.1ZM185.7 62.1c-1.2 0-1.5.3-1.4.4-.1.2.3.4 1.4.4h.3l3.4-.2c1.8 0 4.3-.2 6.5-.8 1.6-.4 3-1.1 4-2.1v-.6a.4.4 0 0 0-.6 0c-.9 1-2.2 1.5-3.6 2a29 29 0 0 1-6.3.8H186l-.3.1ZM191.4 56c.4.5.9.7 1.4.6.6 0 1.3-.4 1.8-.6.1 0 .2-.2.1-.3 0-.1-.1-.2-.3-.1-.4.1-1 .4-1.6.4a.7.7 0 0 1-.7-.4.4.4 0 0 0-.5-.1c-.2 0-.3.3-.2.5ZM200.7 45.8c.3 0 .4-.3.3-.5 0-.2-.3-.3-.5-.2-.2 0-.3.3-.3.5.1.2.3.3.5.2ZM178.5 68.2c-.8-.8-2.5-.8-4.4-.3-3.3.9-7.5 3-9.2 3.3-.2 0-.3.2-.3.3 0 .2.2.3.4.3 1.7-.2 6-2.2 9.3-3 1.6-.4 3-.7 3.6 0h.6v-.6ZM178.4 65.6c0-.3-1-.8-2.7-.7-3.3 0-9 .8-9.9 1-.2 0-.4.2-.3.4 0 .2.2.4.5.3l11.6-1 .4.4c.2 0 .4-.2.4-.4ZM179.3 59.3c.7-.7.2-1.3-1.3-1.3-2 0-6 .8-6.4.8-.3 0-.4.2-.4.5 0 .2.2.3.4.3l7.2-.8c-.2.1-.2.4 0 .5.1.2.4.1.5 0ZM162 34.6c.1-.5.9-.6 1.9-.7 3.2-.3 8.8.2 10.3-.4.1 0 .2-.2.1-.3 0 0-.1-.1-.2 0-1.5.5-7.1-.4-10.3-.1-1.4.1-2.4.6-2.6 1.3 0 .2.1.4.3.5.2 0 .4-.1.5-.3ZM161.6 30.5l6.7.9c2 .1 3.9.1 5-.3a.4.4 0 1 0-.2-.7c-2.4.9-8.5-.3-10.9-.6-1.3-.1-1.7.5-1.2.8h.5v-.1ZM161.7 26v-.5a.4.4 0 0 0-.6 0c-.7.4-.5 1 .6 1.3 1 .3 3.2.2 3.8.2 1.8 0 4.2 0 6.5-.2 1.6-.2 3.1-.4 4.3-.9l.1-.3h-.3c-1.1.3-2.6.5-4.1.6-2.3 0-4.7 0-6.5-.2-.6 0-3.2.3-3.8 0Zm0 0c0-.2 0-.3-.1-.2v.2ZM162.5 21l8.7-2c.1 0 .2-.1.2-.3l-.3-.1c-.6 0-5.2.4-7.6 1.2-1.4.4-2 1.2-1.7 1.6 0 .2.3.3.5.2.2-.1.3-.4.2-.5ZM154 61.9l-11 4a1 1 0 0 0 .4 2c1.6-.5 3.2-1 4.7-1.8l6.6-3c.4-.4.6-.6.5-.7 0-.4-.6-.7-.7-.7-.2-.1-.4 0-.5.2ZM151 56.5c-.8-.3-1.3-.4-2-.3-.7.1-1.4.5-2.4.9-.2 0-.4.3-.3.5.1.3.4.4.6.3l2.3-.9c.5 0 1 0 1.5.2a.4.4 0 1 0 .2-.7ZM122.8 48.1c4.9 0 9.2 1 13.8 1 3 .1 6-.3 9.1-1.6l.1-.2h-.2a23 23 0 0 1-6.7 1.1c-5.4.2-10.4-1.2-16.1-1-.2 0-.4.1-.4.4 0 .2.2.3.4.3ZM124.6 45.6c2.8-1 12.6-1.6 18.3-3.1 2.3-.6 3.9-1.4 4.3-2.3 0-.1 0-.4-.2-.4-.2-.1-.4 0-.5.1-.5 1.1-3 1.8-6 2.4-5.8 1.1-13.7 1.7-16.2 2.6-.2 0-.3.3-.2.5 0 .2.3.3.5.2ZM121.1 41.7l1.7-.5c.2 0 .3-.3.3-.5s-.3-.3-.5-.3l-2 .7v.5c0 .2.3.2.5.1ZM110.8 38c.3-.5 1.3-1 2.6-1.4 2.6-.9 6.3-1.4 7.5-1.8l.2-.2-.3-.2c-1.3.4-5 .8-7.6 1.6-1.5.4-2.7 1-3 1.8a.4.4 0 0 0 .6.3ZM114.7 31.4l.2-.6a.4.4 0 0 0-.7-.3l-.2 1.2c.1.2.3.3.5.2.2-.1.3-.4.2-.5ZM116.5 65.6c-.3 0-.4.2-.3.4 0 .2 0 .3.2.3h8.1a.4.4 0 0 0 0-.9l-7.3.2h-.7ZM111.8 58.8l9.6-.8c.2 0 .4-.2.4-.4s-.2-.3-.4-.3l-9.7.7c-.2 0-.4.2-.4.4s.3.4.5.4ZM37.4 316.8c-2.9.6-5.1.8-7.6 1.5-1.5.4-3 1-4.8 2-.2.1-.3.4-.2.6.1.2.4.2.6.1 1.7-1 3.2-1.6 4.6-2 2.4-.6 4.7-.8 7.6-1.4.2 0 .3-.3.3-.5s-.3-.3-.5-.3ZM16.4 329.4c-1 .3-1.7.8-2.3 1.4-1 .8-1.7 2-2.3 3.2-.1.1 0 .4.1.5.2 0 .4 0 .5-.2.7-1 1.3-2.2 2.2-3a5 5 0 0 1 2-1.1c.2-.1.3-.3.3-.5s-.3-.3-.5-.3ZM286.4 317.1h-.3c-.4.3-.3.7.3.8h.5c1.7.2 6.3.9 7.3 1.2 3.3.8 7.1 1.4 10.4 2.8 2.3.9 4.3 2.1 5.7 4 0 0 .1.1.2 0v-.1c-1.3-2-3.3-3.5-5.6-4.5-3.3-1.5-7.2-2.2-10.4-3.2a94.7 94.7 0 0 0-8.1-1ZM287 321.5c0-.2.1-.2.2-.2l-.1.2.1-.2c.4 0 1 .2 1.1.3l6.7 2.2c2.2.7 4 1.5 5.9 2.4 2.9 1.4 5.6 3 8.5 4.5h.3l-.1-.3c-2.9-1.7-5.4-3.5-8.3-5-1.8-1-3.7-2-5.9-2.7l-7-2a9 9 0 0 0-1.4 0c-.2 0-.4 0-.4.2v.5h.5ZM294.8 328.4c1.4.4 5.3 1.1 8 2.3 1.2.6 2.2 1.2 2.5 2.1 0 .1.1.2.2.1l.1-.1c-.3-1.3-1.8-2.4-3.7-3.2-2.5-1-5.6-1.5-6.9-2-.2 0-.4 0-.4.3-.1.2 0 .4.2.5ZM300.5 336l1 .9c.2 0 .4 0 .5-.2 0-.2 0-.4-.2-.5l-.6-.6a.4.4 0 0 0-.5-.1c-.2 0-.3.3-.2.5ZM294.2 338.6c-2.4 3-3.5 4.7-5 5.8-1.6 1-3.5 1.6-7.2 2.7-.2 0-.3.2-.3.4s.3.3.5.3c3.9-1.1 5.8-1.8 7.4-2.8 1.6-1.2 2.8-2.8 5.2-6 .2 0 .1-.3 0-.5a.4.4 0 0 0-.6.1Z" clip-rule="evenodd"/>
  <path fill="#0A0000" fill-rule="evenodd" d="M296.7 338.1c1 1-.7 2.2-3 3.4-4.2 2.3-11.1 4.4-12.1 4.7-8.9 3.2-17.9 7.1-27 10.2-3.9 1.3-7.8 2.5-11.8 3.4l-18.5 2.3c-.2 0-.3.1-.3.3 0 .2.2.3.4.2l18.7-1.8c5.3-1 10.6-2.6 15.9-4.5 7.8-2.7 15.4-6.1 23-8.9 1-.4 8-2.7 12.2-5.1 2.7-1.6 4.2-3.4 3-4.7a.4.4 0 0 0-.5 0c-.2.1-.2.4 0 .5Z" clip-rule="evenodd"/>
  <path fill="#0A0000" fill-rule="evenodd" d="M275.1 350.7a58.9 58.9 0 0 1-17 5.9c-9.1 2-19 2.8-26.9 4-17.1 2.9-35.4 6.4-53.5 8.3a174.6 174.6 0 0 1-36.2.9l.1.2c11.8 1.6 24 1.5 36.2.4 18.2-1.7 36.4-5.6 53.6-8.5 8-1.4 17.8-2.4 27-4.4a60 60 0 0 0 17-6.2.4.4 0 0 0-.3-.6Z" clip-rule="evenodd"/>
  <path fill="#0A0000" fill-rule="evenodd" d="M155.8 368.8c-.1.5-4 .2-8.5 0A814.5 814.5 0 0 1 64 358l.2.2a580.9 580.9 0 0 0 69.8 10.6c3.1.3 12.3 1 17.9 1 2.7 0 4.6-.5 4.7-.8 0-.2 0-.4-.3-.5-.2 0-.4.1-.4.3Z" clip-rule="evenodd"/>
  <path fill="#0A0000" fill-rule="evenodd" d="M131 367.7a222 222 0 0 1-63.9-8.5l-28-8.1c-.7-.2-3.1-1.5-3.5-2.2-.2-.4.1-.5 1.3-.5v-.2c-1.5 0-1.8.3-1.5.8.3.8 2.8 2.2 3.6 2.5l11 3.7 16.8 5a220.8 220.8 0 0 0 64.2 8.2.4.4 0 0 0 0-.7Z" clip-rule="evenodd"/>
  <path fill="#0A0000" fill-rule="evenodd" d="M39.2 351.2c-.4-.9-1.7-2-3.1-3.2-2-1.5-4.3-3-5.4-3.7a.4.4 0 0 0-.6.2c0 .1 0 .4.2.5 1.1.6 3.4 2 5.3 3.6 1.3 1 2.5 2.1 2.9 2.9 0 .2.3.3.5.2.2-.1.3-.3.2-.5Z" clip-rule="evenodd"/>
  <mask id="e" width="6" height="21" x="18" y="103" maskUnits="userSpaceOnUse" style="mask-type:luminance">
    <path fill="#fff" d="M23.8 103.1h-5.4v20h5.4v-20Z"/>
  </mask>
  <g mask="url(#e)">
    <mask id="f" width="5" height="5" x="19" y="115" maskUnits="userSpaceOnUse" style="mask-type:luminance">
      <path fill="#fff" d="M19.8 115.1h3.8v4h-3.8v-4Z"/>
    </mask>
    <g mask="url(#f)">
      <path fill="#000" d="M20.3 117.1c0-.3 0-.5.3-.7.2-.2.5-.3.8-.3.3 0 .6.1.8.3.2.2.3.4.3.7 0 .4 0 .6-.3.8-.2.2-.5.3-.8.3-.3 0-.6-.1-.8-.3a1 1 0 0 1-.3-.8Z"/>
    </g>
  </g>
  <mask id="g" width="7" height="21" x="159" y="143" maskUnits="userSpaceOnUse" style="mask-type:luminance">
    <path fill="#fff" d="M165.1 143.1h-5.3v20h5.3v-20Z"/>
  </mask>
  <g mask="url(#g)">
    <path fill="#000" d="M161.3 157.9c0-.4 0-.6.3-.8.2-.2.5-.3.8-.3.4 0 .6 0 .8.3.3.2.4.4.4.8 0 .3-.1.5-.4.7-.2.2-.4.3-.8.3-.3 0-.6 0-.8-.3a1 1 0 0 1-.3-.7Z"/>
  </g>
  <path fill="#000" d="M161 394.3c0-.4.2-.7.4-1 .3-.2.6-.3 1-.3s.7.1 1 .4c.3.2.4.5.4.9s-.1.7-.4 1c-.3.1-.6.3-1 .3s-.7-.2-1-.4c-.2-.2-.3-.5-.3-1ZM78.1 255.4c0-.3.2-.6.4-.9.3-.2.6-.3 1-.3s.7 0 1 .3c.2.3.4.6.4 1 0 .3-.2.6-.4.9-.3.2-.6.3-1 .3s-.7-.1-1-.3c-.2-.3-.4-.6-.4-1Z"/>
</svg>
