<svg xmlns="http://www.w3.org/2000/svg" xmlns:xlink="http://www.w3.org/1999/xlink" fill="none" viewBox="0 0 196 164">
  <defs>
    <path id="reuse-0" fill="#fff" d="M142.7 105.3h1.3v.8h-1.3v-.8Z"/>
    <path id="reuse-1" fill="#fff" d="M137.3 88.1h1.4v1.2h-1.4v-1.2Z"/>
    <path id="reuse-2" fill="#fff" d="M28.2 1H168v48.7H28.2V1Z"/>
  </defs>
  <mask id="a" width="196" height="164" x="0" y="0" maskUnits="userSpaceOnUse" style="mask-type:luminance">
    <path fill="#fff" d="M196 0H0v164h196V0Z"/>
  </mask>
  <g mask="url(#a)">
    <path stroke="#000" d="M19.6 69.1H168"/>
    <mask id="b" width="2" height="2" x="142" y="105" maskUnits="userSpaceOnUse" style="mask-type:luminance">
      <use xlink:href="#reuse-0"/>
    </mask>
    <g mask="url(#b)">
      <path fill="#ED1F24" d="M143.4 106c-.1 0 0 0 0 0Z"/>
    </g>
    <path fill="#ED1F24" d="M144.2 104.8v-.2.2ZM145 103.8c-.2 0-.3.3-.5.5v.2c.2-.3.3-.6.5-.7ZM145.6 103.4s0-.2 0 0ZM145.5 103.5c.1 0 0 0 0 0ZM146 103l-.2.1s.2-.1.2 0v-.2ZM146 102.8Z"/>
    <path fill="#ED1F24" d="m145.8 103 .1-.2v.2ZM145.7 103.1s-.1.2 0 0c-.3.3-.2.3 0 0ZM145 103.6l-.2.1v.1l.2-.2ZM146.7 102s-.1.1-.1 0l-.1.2.2-.1ZM146.6 102ZM145.9 102.7l-.2.3.2-.4ZM147.2 101.5v.1-.2ZM147.5 101c0 .2.1 0 0 .1.2-.1.2-.2.2-.3l-.2.3ZM147.8 100.6v.2-.2ZM146.9 101.6h.1-.1ZM147 101.6v-.2.2ZM146.9 101.7ZM146.3 102.3c0-.1.1-.4 0-.2v.2ZM146.7 101.7l-.1.1v.1l.1-.2ZM146.8 101.6ZM147.5 100.8l.2-.2-.2.3ZM147.2 101.2ZM148.4 99.7ZM147.4 100.9v.1-.1ZM148 100.3l-.2.1h.2ZM147.3 101.2ZM147.3 101.2v-.2.2ZM148.3 99.2l-.3.4c0 .2.2.2.4 0v-.1s-.3.3-.2.1l.2-.2c-.1 0 .1-.4 0-.4l-.1.2Z"/>
    <path fill="#ED1F24" d="m148.1 100 .2-.1v-.2.2l-.2.1ZM147.8 100.4c0-.1.1-.3 0-.2-.2.2 0 .2-.1.3l.1-.1-.1.2.1-.2c.1 0 0 0 0 0l.2-.1v-.2l-.2.3ZM146.3 101.8ZM146.4 101.7v.2c-.1 0 0 0 0 0-.1 0-.2.1 0 0l.3-.2h-.3ZM147.1 101l.2-.2h-.1v.3ZM148.4 99.7l.1-.2v.2ZM148.7 99.3Z"/>
    <mask id="c" width="2" height="2" x="137" y="88" maskUnits="userSpaceOnUse" style="mask-type:luminance">
      <use xlink:href="#reuse-1"/>
    </mask>
    <g mask="url(#c)">
      <path fill="#ED1F24" d="M138.2 89Z"/>
    </g>
    <path fill="#ED1F24" d="M148 89.7h-.3c0-.1 0-.1 0 0h.2ZM142.2 93.1ZM142 93.4l-.1-.3v.3ZM134.6 90.2Z"/>
    <mask id="d" width="2" height="2" x="150" y="94" maskUnits="userSpaceOnUse" style="mask-type:luminance">
      <path fill="#fff" d="M150.7 94.7h.5V96h-.5v-1.3Z"/>
    </mask>
    <g mask="url(#d)">
      <path fill="#ED1F24" d="M151 95.2v-.4.4Z"/>
    </g>
    <mask id="e" width="2" height="2" x="137" y="88" maskUnits="userSpaceOnUse" style="mask-type:luminance">
      <use xlink:href="#reuse-1"/>
    </mask>
    <g mask="url(#e)">
      <path fill="#ED1F24" d="M138 88.2h-.1.1Z"/>
    </g>
    <mask id="f" width="2" height="3" x="150" y="93" maskUnits="userSpaceOnUse" style="mask-type:luminance">
      <path fill="#fff" d="M150.7 93.3h.5V96h-.5v-2.7Z"/>
    </mask>
    <g mask="url(#f)">
      <path fill="#ED1F24" d="M151.1 94.5V94.9v-.3Z"/>
    </g>
    <path fill="#ED1F24" d="M140 102ZM143.1 105ZM149.8 97.8s0 .1 0 0ZM149.3 98Z"/>
    <mask id="g" width="2" height="2" x="150" y="93" maskUnits="userSpaceOnUse" style="mask-type:luminance">
      <path fill="#fff" d="M150.7 93.3h.5v1.4h-.5v-1.4Z"/>
    </mask>
    <g mask="url(#g)">
      <path fill="#ED1F24" d="M150.8 93.5Z"/>
    </g>
    <path fill="#ED1F24" d="M149.7 98v-.2.1ZM149.7 98ZM149.9 97.7l-.1.1ZM135 96.4ZM145.5 90.6ZM145.3 90.8a.4.4 0 0 1 0-.1h.2v-.1l-.1-.1a1.2 1.2 0 0 0-.1.2Z"/>
    <mask id="h" width="19" height="19" x="133" y="88" maskUnits="userSpaceOnUse" style="mask-type:luminance">
      <path fill="#fff" d="M133.3 88.1h18v18h-18V88Z"/>
    </mask>
    <g mask="url(#h)">
      <path fill="#ED1F24" d="M136 88.9h.2-.1v.1h-.1.2l.2-.1h.2l.1-.1H137h-.1.2l.1-.1H137.6c.1 0 .1 0 0 0h.1v.1h.2c.1 0 .1 0 0 0h.2l.2.1H138.5v.1h.2v.1h-.2l.1.1h.2v.1l.2.1h-.2.1v.1h.1v.1h.1l.1.2v-.1l-.1-.1v-.1H139.4v.2h.1l.1.1v.1h.2v.1l.1.1v.2l.1.1v-.1h.1l.3.4.1.1a6.3 6.3 0 0 1 .2.3h.1v.1l.2.2.2.2c0 .2 0 .4.2.5h-.1v.1h.1l.1.2h.1v.2h.1a9.2 9.2 0 0 0 .2.3l.2.1v.1a4.5 4.5 0 0 1 0-.2h.1V93.3s.1.1 0 .2v-.2h-.1V93.9l.2.2v.2l.1.1v-.1l.2-.3v-.3l.2-.5v-.4l.1-.1v-.1l.1-.1h.2v.2h-.1v.1l-.1.2v.1h-.1v.1l-.1.2v-.1h.1V93l.1-.1v-.2h.1v-.1h.1v-.1h.2l-.1-.1v-.2h.1V92l.1-.2h.1v.1l-.1.2.1-.2V92l.1-.2h.1l.1-.1.1-.1a2 2 0 0 0 .2-.2h.1v-.1h.2l.1-.2h.1v-.1h.1l.1-.1v-.1h.1v.1h.1v-.2l.2-.1v-.2h.1l.1-.1.1.1v.2H146v-.1h-.1.5v-.2h.1v.1h.2l.1-.1.2.1H147.2a5.4 5.4 0 0 0 .3 0l.3-.1h.2v.2H148.4l.1-.1H149v.1h.2l.1.1h-1.1l.1.1h.1c.1 0 .1.1 0 .1h-.1.2v.1h.1l.2.1H149.1 148.7v-.1h-.2l.1-.1H149a5.6 5.6 0 0 0 .2.1h.1v.1h.1v.1h-.2l.1.1h.1l.1.1h-.1l.1.1h.1l.2.2V91.8c.1 0 .1.1.1 0l.2-.2h.3v.2l.1.4H150.2h.1V92.6h.1v.2l.1.1v.1l.2.2.1.3v.6l-.1.5-.1.2v.2h-.1v-.1.5V94.7l.2.1v.4a1.3 1.3 0 0 1 0 .3l-.1.3s0-.1 0 0l-.1.1V96.3l-.1.1v.4h-.1v.1H150a1.3 1.3 0 0 1 .2-.3l.1-.3v.1a.8.8 0 0 1-.1.1v-.2l.1-.1-.1.2-.1.2-.1.2-.1.2h-.1v.2h-.1v.2l-.2.1c0 .1-.1.3 0 .2v-.1c.1 0 0 0 0 0v.1a2.4 2.4 0 0 0 0 .2 4.4 4.4 0 0 1-.1.3l-.2.2.1-.2-.2.2s-.2.2-.1.3v-.1h.1l-.3.6.2-.1.1-.3.1-.1s0-.1 0 0l.2-.2v-.2h.2v-.5l.2-.2c0-.2 0 0 0 0v-.1h.1v-.1h.2c0-.1 0-.1 0 0V97h.1l.1-.1v-.2l.2-.2v-.2l.1-.1V96l.1-.2v-.1l.1-.2v-.2l.1-.1a5.3 5.3 0 0 1 .2-.8V94h.1V92.6l-.1-.1v-.2l-.1-.1V92h-.1v-.2h-.1l-.1-.1-.1-.2-.1-.1-.1-.1v-.1h-.2V91l-.2-.1v-.1l-.2-.1v-.1h-.1v-.1h-.1v-.1.1-.1a.9.9 0 0 0-.3-.2l-.2-.1h-.2V90H148.5V90h-.2v-.1H148l-.2-.2.1.1H147.7v-.1h-.1l-.2.1H147l-.2-.1h-.4v.1h-.1l-.1.1h-.5l-.1.1h-.1v.1h-.2V90l-.2.1-.1.1h-.1l-.2.2-.2.1-.1.1h-.2v.1h-.1l-.1.1-.2.2-.2.2-.5.4-.4.5c.1 0 0 0 0 .2h-.1v.1h-.1l-.1.2v.2V92.5l-.1.1v.4l-.1-.2h-.1v-.2a1.2 1.2 0 0 0 0-.2h-.1v-.1l-.2-.1V92l-.2-.2v-.2l-.2-.2-.1-.2-.1-.1-.1-.3h-.1l-.2-.4h-.2v-.2h-.1V90l-.2-.2-.1-.2-.1-.3h-.1c0-.1 0-.1 0 0v-.2H139.7V89l-.2-.1-.2-.1-.2-.1h-.1v-.1h-.2v-.1s0 .1-.1 0H138.5v-.1h-.1a1 1 0 0 0-.4-.2H137l-.1-.1h-.5l-.1.1h-.5l-.1.1h-.1l-.1.1h-.2l-.1.1-.1.1c-.2.1-.2.2-.2.3-.1 0 0 0 0 0a2.4 2.4 0 0 0-.4.2l-.1.1a1.3 1.3 0 0 0 0 .2h-.1v.1l-.1.1h-.1l-.1.2-.2.3-.2.4v.4h-.1v.4l-.1.2v.3l-.1.1v.5l.1.1v.4-.1l.1-.1s.1.2.1 0v.4-.1 1.3l.1.2v.2h.1v.4l.1.1v.2l.1.2.1.1v.2l.1.1.1.2v.2l.1-.1a2.7 2.7 0 0 0 .1.2c0 .1 0 .2 0 0v.2h.1v.1l.1.1c-.1 0-.2-.1-.2 0h.1l.2.2.1.2V97.6h.1l.1.1v.2h.1v-.2.1l.1.1.5.7v.1l.2.1v.1l.1.1.1.2.6.6h.2v.3l.2.1v.1l.1.1v.1l.3.2.1.1s.1 0 0 0c.2.1 0 0 .1.2h.2v.1l.1.1.2.2h.1v.1l.4.4.4.3s0-.1 0 0l.2.2h.2l.2.2.2.1.2.2.3.3.8.5c.6.4 1.1.7 1.6 1.2-.1-.2 0-.1 0 0l.1-.1.4.4c.2 0 .5.3.6.2h-.1v-.3s-.1-.2 0-.2c-.2 0-.3-.2-.5-.3l-.2-.2-.3-.1c0-.1.1 0 0 0l-.3-.3-1.3-1-.2-.1v.1l.2.1-.2-.2-.3-.2-.2-.1-.1-.1-.2-.2c-.2-.2 0 0-.1 0v-.2h-.2c0-.1-.1-.2 0-.2v.1-.1l-.3-.1v-.1a.3.3 0 0 1-.1 0l-.7-.6h-.1l-.1-.2-.2-.2h-.1l-.1-.1-.2-.2a2.8 2.8 0 0 0-.1 0h-.1l-.1-.2-.4-.4h-.1l-.1-.2v-.1s0-.1 0 0l-.2-.2-.1-.1-.2-.1V99h-.2v-.1l-.2-.2c.1.1.1 0 .1 0v-.2l-.1-.1-.1-.1-.1-.1-.1-.2v-.1l-.1-.1c-.1 0 0 0 0 .2 0 0 .1.2 0 .1.1.1 0 0 0 0l-.2-.2V97.6l-.2-.5v.1-.1l-.1-.1-.1-.1v-.2h-.1l-.2-.2a4.8 4.8 0 0 0 .2.4v-.2l-.2-.1-.1-.2h-.1v-.2l.1.2v-.2l-.1-.2v.1h.1v.2h.1v.2l.2.2-.1-.3-.1-.2-.1-.1v-.2l-.1-.1h-.1V95.4a7.3 7.3 0 0 0 0 .1V95h-.1V95 95.4l-.1-.2a.5.5 0 0 1 0-.3V94.5l-.1-.1v-.1.2V94.2c-.1-.3-.2-.3-.2-.2 0 0 0 .1 0 0v-.2h-.1v-.2l-.1-.3V93v.2-.7l-.1-.3V92v.2l.1.1v-1h.1v.1V91.1l.1-.1.2-.4v-.2l.1-.2V90l.2-.2.2-.2.1-.1.1-.2h.2l.1-.1h-.1v-.1h.1V89H135.8l.1-.1v-.1h.2l.1-.1h.1-.1Zm3.1.5h-.1v-.1l.1.1Zm3.3 4.5-.1-.2v.2Zm7.9 3c0-.2 0-.1 0 0Zm-.2.2Zm-15.1.4Z"/>
    </g>
    <path fill="#ED1F24" d="M142 93.4v-.1ZM134.6 90.1ZM150.2 92.3v-.1.1ZM149.2 98.7l.1-.2v.1ZM147.8 99.8v.1s.1-.2 0 0ZM149 98.7c-.1 0-.2 0-.3.2 0 0 .2 0 .2-.2ZM148.7 99ZM150 97.5c-.1 0 0 .1 0 .1v-.1c0-.1 0-.2 0 0ZM148.7 98.7v-.1ZM149.4 97.8a10.3 10.3 0 0 1-.2.2l.2-.2ZM149.2 98v.2-.2ZM148.9 98.4l.1-.2-.1.2ZM150.6 95.5v-.2.2ZM150 96.2l.2-.1h-.1ZM150.3 95.5v-.2V95.7v-.1ZM150.3 91.9h.2-.2ZM147.6 90.5H148h-.1v-.1h-.2ZM147.8 90.4Z"/>
    <mask id="i" width="2" height="2" x="142" y="105" maskUnits="userSpaceOnUse" style="mask-type:luminance">
      <use xlink:href="#reuse-0"/>
    </mask>
    <g mask="url(#i)">
      <path fill="#ED1F24" d="m143.7 105.4.1.1h-.1Z"/>
    </g>
    <mask id="j" width="2" height="2" x="144" y="105" maskUnits="userSpaceOnUse" style="mask-type:luminance">
      <path fill="#fff" d="M144 105.3h1.3v.8H144v-.8Z"/>
    </mask>
    <g mask="url(#j)">
      <path fill="#ED1F24" d="M144 105.5v.1h.2-.1Z"/>
    </g>
    <path fill="#ED1F24" d="M139.4 89.9v-.1Z"/>
    <mask id="k" width="3" height="2" x="136" y="88" maskUnits="userSpaceOnUse" style="mask-type:luminance">
      <path fill="#fff" d="M136 88.1h2.7v1.2H136v-1.2Z"/>
    </mask>
    <g mask="url(#k)">
      <path fill="#ED1F24" d="M137.3 88.8Z"/>
    </g>
    <mask id="l" width="2" height="2" x="134" y="88" maskUnits="userSpaceOnUse" style="mask-type:luminance">
      <path fill="#fff" d="M134.7 88.1h1.3v1.2h-1.3v-1.2Z"/>
    </mask>
    <g mask="url(#l)">
      <path fill="#ED1F24" d="m135.6 89.3.1-.1h-.1Z"/>
    </g>
    <mask id="m" width="195" height="131" x="1" y="32" maskUnits="userSpaceOnUse" style="mask-type:luminance">
      <path fill="#fff" d="M1 32h194.5v130.7H1V32.1Z"/>
    </mask>
    <g mask="url(#m)">
      <path fill="#231F20" d="M171.8 162.7h-147a23.2 23.2 0 0 1-15-5.4 23.5 23.5 0 0 1-8.7-16V55.8a24.7 24.7 0 0 1 4-13.2 24.2 24.2 0 0 1 15-10 24.6 24.6 0 0 1 4.7-.5h147a24.8 24.8 0 0 1 11.2 2.8 23.4 23.4 0 0 1 11.5 14 25.5 25.5 0 0 1 1 7v83a24.8 24.8 0 0 1-2.8 11.3 23 23 0 0 1-7.7 8.5 23.3 23.3 0 0 1-13.2 4ZM24.8 34.5A21.5 21.5 0 0 0 3.6 53.7l-.1 2.1V139a21.5 21.5 0 0 0 15 20.4 21.6 21.6 0 0 0 6.3.9h147a20 20 0 0 0 8.1-1.6 22.4 22.4 0 0 0 8.3-6.2A20.8 20.8 0 0 0 193 141V55.8a21.7 21.7 0 0 0-6.2-15 21.8 21.8 0 0 0-13-6.2h-149Z"/>
    </g>
    <mask id="n" width="141" height="50" x="28" y="0" maskUnits="userSpaceOnUse" style="mask-type:luminance">
      <use xlink:href="#reuse-2"/>
    </mask>
    <g mask="url(#n)">
      <mask id="o" width="142" height="51" x="28" y="0" maskUnits="userSpaceOnUse" style="mask-type:luminance">
        <path fill="#fff" d="M169.3 0H28v50.7h141.3V0Z"/>
      </mask>
      <g mask="url(#o)">
        <mask id="p" width="140" height="50" x="28" y="0" maskUnits="userSpaceOnUse" style="mask-type:luminance">
          <use xlink:href="#reuse-2"/>
        </mask>
        <g mask="url(#p)">
          <use xlink:href="#reuse-2"/>
        </g>
      </g>
    </g>
    <mask id="q" width="151" height="13" x="20" y="50" maskUnits="userSpaceOnUse" style="mask-type:luminance">
      <path fill="#fff" d="M170.7 50.7H20v12h150.7v-12Z"/>
    </mask>
    <g mask="url(#q)">
      <mask id="r" width="7" height="7" x="20" y="53" maskUnits="userSpaceOnUse" style="mask-type:luminance">
        <path fill="#fff" d="M20.6 53.3h6V60h-6v-6.7Z"/>
      </mask>
      <g mask="url(#r)">
        <path fill="#CDB079" d="M25.7 54v5.3h-1.1v-4.5h-2.2v4.5h-1.1v-5.4h4.4Z"/>
      </g>
      <path fill="#CDB079" d="M28.8 59.3v-5.4H30v2.2h2.3V54h1.1v5.4h-1.1V57H30v2.2h-1.2ZM44 59.3v-5.4H46c.6 0 1 .1 1.3.4.3.3.5.6.5 1 0 .3-.1.5-.3.7-.2.2-.4.4-.7.4a1.3 1.3 0 0 1 1 .7l.2.7c0 .3 0 .5-.2.8l-.6.5-1 .2H44Zm1.1-1h1l.6-.1c.2-.2.2-.3.2-.5 0-.3 0-.4-.2-.6a1 1 0 0 0-.7-.2h-.9v1.4Zm0-2.2h.8l.6-.1c.2-.2.2-.3.2-.5s0-.4-.2-.5a.8.8 0 0 0-.5-.2H45v1.3ZM50.7 54.8V54h4.4v1h-1.6v4.4h-1.2v-4.5h-1.6ZM70.2 55.8H69a1 1 0 0 0-.4-.7c-.2-.2-.4-.3-.7-.3-.4 0-.8.2-1 .5a2 2 0 0 0-.4 1.3c0 .6.1 1 .4 1.3.2.3.6.4 1 .4.3 0 .5 0 .7-.2.2-.2.4-.4.4-.7h1.2a2.2 2.2 0 0 1-1.2 1.7c-.3.2-.7.2-1.1.2-.5 0-1 0-1.3-.3-.4-.2-.7-.5-1-1l-.2-1.4c0-.6 0-1.1.3-1.5.2-.4.5-.7.9-1 .4-.2.8-.3 1.3-.3.4 0 .7.1 1 .3.4.1.7.3.9.6l.4 1ZM73 59.3v-5.4h2.2c.4 0 .7 0 1 .2l.7.7.2 1c0 .3 0 .6-.2.9-.2.2-.4.5-.7.6-.3.2-.6.2-1 .2h-1v1.8H73Zm1.2-2.7h.8c.3 0 .5 0 .7-.2l.2-.7c0-.2 0-.5-.2-.6-.2-.2-.4-.3-.7-.3h-.8v1.8ZM87.7 54h1v1.6c0 .3.1.6.3.7l.8.2a6.3 6.3 0 0 0 1-.1v-2.5H92v5.4h-1.1v-2a9.6 9.6 0 0 1-1.1 0 3 3 0 0 1-1.1-.1c-.4-.1-.6-.3-.8-.6l-.2-1V54ZM95 54.8V54h4.4v1h-1.7v4.4h-1.1v-4.5H95ZM114.3 54v5.3H113v-4.5H111v4.5h-1.1v-5.4h4.4ZM117.2 54.8V54h4.4v1H120v4.4h-1.2v-4.5h-1.6ZM136.7 55.8h-1.2a1 1 0 0 0-.3-.7c-.2-.2-.5-.3-.8-.3-.4 0-.8.2-1 .5a2 2 0 0 0-.4 1.3c0 .6.1 1 .4 1.3.2.3.6.4 1 .4.3 0 .5 0 .7-.2.3-.2.4-.4.4-.7h1.2a2.2 2.2 0 0 1-1.1 1.7c-.4.2-.8.2-1.2.2-.5 0-1 0-1.3-.3-.4-.2-.7-.5-1-1l-.2-1.4c0-.6 0-1.1.3-1.5.2-.4.5-.7.9-1 .4-.2.8-.3 1.3-.3.4 0 .8.1 1 .3.4.1.7.3.9.6l.4 1ZM139.6 59.3v-5.4h3.5v1h-2.4v1h.9c.4 0 .8 0 1 .2.4.1.6.3.8.6.2.2.3.5.3.9l-.3.9-.7.6-1.1.2h-2Zm1.1-1h.9c.3 0 .5 0 .7-.2l.2-.6c0-.2 0-.3-.2-.5l-.7-.2h-.9v1.5ZM154 59.3v-5.4h1.1v2.2h2.3V54h1.2v5.4h-1.2V57h-2.3v2.2H154ZM161.3 60.6v-2.2h.3l.4-.4.2-.7.2-1.1.2-2.3h3.5v4.5h.6v2.2h-1.1v-1.3h-3.2v1.3h-1.1Zm1.7-2.2h2v-3.6h-1.4l-.1 1.4-.2 1.3-.3.9Z"/>
    </g>
    <mask id="s" width="111" height="21" x="45" y="21" maskUnits="userSpaceOnUse" style="mask-type:luminance">
      <path fill="#fff" d="M156 21.3H45.3v20H156v-20Z"/>
    </mask>
    <g mask="url(#s)">
      <mask id="t" width="18" height="13" x="45" y="25" maskUnits="userSpaceOnUse" style="mask-type:luminance">
        <path fill="#fff" d="M45.5 25.3h17.2v12H45.5v-12Z"/>
      </mask>
      <g mask="url(#t)">
        <path fill="#CDB079" d="M55 26v4.6h1.3l2.4-4.6h3l-3.4 5.3 3.5 5.8H59l-2.4-4.3h-1.5V37h-2.3v-4.3h-1.5L48.9 37H46l3.5-5.8-3.4-5.3h3l2.4 4.6h1.2V26H55Z"/>
      </g>
      <path fill="#CDB079" d="M77.1 31.6c0 1.2-.2 2.2-.7 3-.4 1-1 1.6-1.8 2-.8.5-1.7.7-2.7.7-1 0-1.8-.2-2.6-.7-.8-.4-1.4-1-1.9-2-.4-.8-.7-1.8-.7-3s.3-2.2.7-3.1a4.8 4.8 0 0 1 4.5-2.6c1 0 1.9.2 2.7.7.8.4 1.4 1 1.8 1.9.5.9.7 1.9.7 3Zm-2.3 0c0-1.2-.3-2-.8-2.7-.5-.6-1.2-1-2-1-1 0-1.6.4-2.1 1s-.8 1.5-.8 2.7c0 1.2.3 2 .8 2.7.5.6 1.2 1 2 1 .9 0 1.6-.4 2-1 .6-.6.9-1.5.9-2.7ZM83.1 37.1v-11h4.5c1.2 0 2.1.2 2.7.8.7.5 1 1.2 1 2 0 .7-.2 1.2-.6 1.6-.4.4-.9.6-1.5.8a2.7 2.7 0 0 1 2.5 2.8 3 3 0 0 1-.4 1.6 3 3 0 0 1-1.3 1 5 5 0 0 1-2.1.4H83Zm2.4-1.9h1.9c.6 0 1.1 0 1.4-.3.3-.3.5-.6.5-1 0-.5-.2-.9-.5-1.2-.4-.3-.8-.4-1.3-.4h-2v3Zm0-4.5h1.7c.5 0 .9-.1 1.2-.4.3-.2.5-.6.5-1s-.2-.7-.4-1c-.3-.2-.7-.4-1.2-.4h-1.8v2.8ZM97 28v-2h9.2v2h-3.4V37h-2.3V28H97ZM112 37.1v-11h7.4V28h-5.1v2.6h4.8v2h-4.8v2.6h5.2v2h-7.6ZM125.6 37.1v-11h2.3v4.5h4.8V26h2.3v11.1h-2.3v-4.5h-4.8V37h-2.3ZM143.6 30.1h1.8c.9 0 1.7.2 2.3.5.6.3 1.1.7 1.5 1.2.3.5.5 1.1.5 1.8s-.2 1.3-.5 1.9c-.4.5-.9 1-1.5 1.2-.6.3-1.4.4-2.3.4h-4.1v-11h2.3v4Zm0 1.9v3.3h1.8c.7 0 1.1-.2 1.5-.5.3-.4.5-.8.5-1.2 0-.5-.2-.8-.5-1.1a2 2 0 0 0-1.5-.5h-1.8Z"/>
    </g>
    <mask id="u" width="101" height="11" x="70" y="76" maskUnits="userSpaceOnUse" style="mask-type:luminance">
      <path fill="#fff" d="M170.7 76h-100v10.7h100V76Z"/>
    </mask>
    <g mask="url(#u)">
      <mask id="v" width="4" height="7" x="70" y="77" maskUnits="userSpaceOnUse" style="mask-type:luminance">
        <path fill="#fff" d="M70.8 77.3h2.5V84h-2.5v-6.7Z"/>
      </mask>
      <g mask="url(#v)">
        <path fill="#000" d="M73 78.5V84h-.6v-4.4l-.2.2a2 2 0 0 1-.4.1h-.6v-.5h.6l.3-.3.3-.3v-.2h.7Z"/>
      </g>
      <path fill="#000" d="M93.2 83.9v-.5l1.8-2 .5-.5.3-.5.1-.5c0-.2-.1-.5-.3-.6a1 1 0 0 0-.7-.3 1 1 0 0 0-.8.3 1 1 0 0 0-.2.7h-.6c0-.3 0-.5.2-.8.1-.2.3-.4.6-.5.2-.2.5-.2.8-.2.3 0 .6 0 .8.2.3.1.5.3.6.5.2.2.2.5.2.7l-.1.6-.4.7-.7.8-1.2 1.3h2.5v.6h-3.4ZM118.1 84c-.3 0-.6 0-1-.2l-.6-.5-.2-.7h.7c0 .2 0 .4.3.6l.8.2c.4 0 .6 0 .9-.2.2-.2.3-.5.3-.8 0-.2-.1-.5-.3-.7-.3-.2-.6-.3-1-.3h-.4V81h.4c.3 0 .6-.1.8-.3.2-.2.3-.4.3-.7 0-.2 0-.5-.3-.6a1 1 0 0 0-.7-.3l-.5.1-.4.3-.2.5h-.6c0-.3 0-.5.2-.7.2-.3.4-.4.7-.5a2 2 0 0 1 1.7 0l.5.5c.2.2.2.5.2.7 0 .3 0 .6-.2.8l-.6.4.7.5c.2.2.3.5.3.8 0 .3 0 .6-.2.8l-.7.6a2 2 0 0 1-.9.2ZM139.5 82.8v-.5l2.4-3.8h.7v3.7h.8v.6h-.8v1.1h-.6v-1.1h-2.5Zm2.5-.6v-2.8l-1.8 2.8h1.8ZM164.7 84c-.4 0-.6 0-.9-.2l-.6-.5-.2-.7h.6l.3.6.8.2.5-.1.5-.5a1.3 1.3 0 0 0 0-1.2 1 1 0 0 0-.5-.4 1 1 0 0 0-.6-.2 1.9 1.9 0 0 0-1 .3l-.5-.1.3-2.7h2.8v.6h-2.3l-.1 1.6.4-.2a1.7 1.7 0 0 1 1.4.1c.3.2.5.4.6.7l.2.9a1.8 1.8 0 0 1-.8 1.6l-1 .2Z"/>
    </g>
    <mask id="w" width="150" height="11" x="24" y="92" maskUnits="userSpaceOnUse" style="mask-type:luminance">
      <path fill="#fff" d="M173.3 92H24v10.7h149.3V92Z"/>
    </mask>
    <g mask="url(#w)">
      <mask id="x" width="6" height="7" x="24" y="93" maskUnits="userSpaceOnUse" style="mask-type:luminance">
        <path fill="#fff" d="M24.8 93.3h4.5v6.7h-4.5v-6.7Z"/>
      </mask>
      <g mask="url(#x)">
        <path fill="#000" d="M27.1 99.8a3 3 0 0 1-.6-.2c-.2 0-.4-.2-.6-.4a2 2 0 0 1-.5-.8l-.1-1.2c0-1 .2-1.7.5-2.2.4-.5.8-.8 1.4-.8.5 0 .9.2 1.1.4.3.3.5.6.6 1h-.7L28 95a1 1 0 0 0-.7-.2c-.4 0-.7.2-1 .5-.2.4-.3 1-.3 1.6a1.5 1.5 0 0 1 1.3-.7c.3 0 .6 0 .9.2l.6.6c.2.3.2.6.2 1a1.9 1.9 0 0 1-.8 1.5c-.3.2-.6.3-1 .3Zm0-.6c.3 0 .5 0 .6-.2l.4-.4c.2-.2.2-.4.2-.7l-.1-.6-.5-.4a1 1 0 0 0-.5-.2 1 1 0 0 0-.6.2l-.5.5-.1.6.1.6.4.4.6.2Z"/>
      </g>
      <path fill="#000" d="m48.8 99.7 2.4-4.8h-2.8v-.6h3.4v.6l-2.4 4.8h-.6ZM73.1 99.8l-1-.2-.6-.6-.2-.7c0-.3 0-.5.2-.7 0-.2.2-.3.3-.5l.5-.2a1 1 0 0 1-.6-.5l-.2-.8c0-.2 0-.5.2-.7.2-.2.3-.4.6-.5l.8-.2c.4 0 .6 0 .9.2l.6.5.2.7c0 .3-.1.6-.3.8a1 1 0 0 1-.6.5 1.2 1.2 0 0 1 .9.7l.2.7c0 .2-.1.5-.3.7l-.6.6-1 .2Zm0-.6c.4 0 .7-.1.9-.3.2-.2.3-.4.3-.7l-.1-.5a1 1 0 0 0-.5-.4 1.3 1.3 0 0 0-1.2 0 1 1 0 0 0-.4.4 1 1 0 0 0-.1.5c0 .3 0 .5.3.7.2.2.5.3.8.3Zm0-2.6c.3 0 .6 0 .7-.2.2-.2.3-.4.3-.7 0-.3 0-.5-.3-.7a1 1 0 0 0-.7-.2 1 1 0 0 0-.7.2c-.2.2-.3.4-.3.7 0 .3.1.5.3.7l.7.2ZM96.3 94.2a1.8 1.8 0 0 1 1.3.6l.4.7.2 1.3a4 4 0 0 1-.6 2.2c-.3.5-.8.8-1.4.8-.4 0-.8-.2-1.1-.4-.3-.3-.5-.7-.5-1h.6c0 .2.1.4.3.5.2.2.4.3.7.3a1 1 0 0 0 1-.6c.2-.3.4-.8.4-1.5l-.6.5-.8.2c-.3 0-.6 0-.9-.2l-.6-.7-.2-.9c0-.3 0-.6.2-.9l.6-.6c.3-.2.6-.3 1-.3Zm0 .6c-.2 0-.4 0-.6.2-.2 0-.3.2-.4.4l-.2.6a1.2 1.2 0 0 0 .6 1c.2.2.4.2.6.2l.6-.1.4-.5.2-.6-.2-.6c0-.2-.2-.3-.4-.4a1 1 0 0 0-.6-.2ZM115.4 94.3v5.4h-.7v-4.4l-.2.1a2 2 0 0 1-.4.2h-.5v-.5l.5-.1c.2 0 .3-.2.4-.3l.2-.2.1-.2h.6ZM120.8 99.8c-.6 0-1.1-.3-1.4-.8-.4-.5-.5-1.1-.5-2 0-.9.1-1.6.5-2 .3-.5.8-.8 1.4-.8.5 0 1 .3 1.3.8.3.4.5 1.1.5 2 0 .9-.2 1.5-.5 2s-.8.8-1.3.8Zm0-.6c.3 0 .6-.2.9-.6.2-.4.3-1 .3-1.6 0-.7-.1-1.2-.3-1.6-.3-.4-.6-.6-1-.6-.3 0-.6.2-.9.6-.2.4-.3.9-.3 1.6 0 .7.1 1.2.3 1.6.3.4.6.6 1 .6ZM139.8 94.3v5.4h-.6v-4.4l-.3.1a2 2 0 0 1-.4.2h-.5v-.5l.5-.1c.2 0 .3-.2.4-.3l.2-.2.1-.2h.6ZM145.1 94.3v5.4h-.6v-4.4l-.3.1a2 2 0 0 1-.3.2h-.6v-.5l.5-.1c.2 0 .3-.2.4-.3l.3-.2v-.2h.6ZM162.9 94.3v5.4h-.7v-4.4l-.2.1a2 2 0 0 1-.4.2h-.5v-.5l.5-.1.3-.3c.2 0 .2-.2.3-.2v-.2h.7ZM166.5 99.7v-.5l1.7-2 .5-.5.3-.5.1-.5c0-.3 0-.5-.2-.7a1 1 0 0 0-.8-.2 1 1 0 0 0-.7.3 1 1 0 0 0-.3.7h-.6c0-.3 0-.6.2-.8l.6-.6.8-.2.9.2.6.6.2.7c0 .2 0 .4-.2.6l-.3.6-.7.9-1.2 1.2h2.5v.7h-3.4Z"/>
    </g>
    <mask id="y" width="157" height="10" x="18" y="108" maskUnits="userSpaceOnUse" style="mask-type:luminance">
      <path fill="#fff" d="M174.7 108h-156v9.3h156V108Z"/>
    </mask>
    <g fill="#000" mask="url(#y)">
      <path d="M22 110v5.4h-.7V111l-.3.2a2 2 0 0 1-.4.1l-.5.1v-.5l.5-.1.4-.3.2-.3.1-.1h.6ZM27.3 115.5c-.3 0-.6 0-.9-.2-.3-.1-.5-.3-.6-.5-.2-.2-.3-.4-.3-.7h.7c0 .2.1.5.3.6.2.2.5.2.8.2.4 0 .6 0 .9-.2.2-.2.3-.4.3-.7 0-.3-.1-.6-.3-.7-.3-.2-.6-.3-1-.3h-.4v-.6h.4c.3 0 .6 0 .8-.3.2-.1.3-.4.3-.6 0-.3 0-.5-.3-.7a1 1 0 0 0-.7-.2h-.5l-.4.4-.1.4h-.7c0-.3.1-.5.3-.7.1-.2.3-.4.6-.5a2 2 0 0 1 1.7 0l.6.5.1.7c0 .3 0 .6-.2.8-.2.2-.4.4-.6.4l.8.5.2.9c0 .3 0 .5-.2.8l-.6.5a2 2 0 0 1-1 .2ZM46.4 110v5.4h-.6V111l-.3.2a2 2 0 0 1-.4.1l-.5.1v-.5l.5-.1.4-.3.2-.3.1-.1h.6ZM49.9 114.3v-.5l2.3-3.7h.8v3.7h.8v.5H53v1.1h-.6v-1H50Zm2.5-.5v-3l-1.8 3h1.8ZM71 110v5.4h-.7V111l-.2.2a2 2 0 0 1-.4.1l-.6.1v-.5l.5-.1.4-.3.3-.3v-.1h.6ZM76.2 115.5c-.3 0-.6 0-.8-.2-.3-.1-.4-.3-.6-.5-.2-.2-.2-.4-.2-.7h.6l.3.6c.2.2.4.2.7.2l.6-.1.4-.5a1.3 1.3 0 0 0 0-1.2 1 1 0 0 0-.4-.4 1 1 0 0 0-.6-.2 1.9 1.9 0 0 0-1 .3l-.6-.1.4-2.6h2.8v.5h-2.3l-.2 1.6.5-.2a1.7 1.7 0 0 1 1.4.2l.6.6.2 1a1.8 1.8 0 0 1-.9 1.5l-.9.2ZM95.2 110v5.4h-.6V111l-.3.2a2 2 0 0 1-.3.1l-.6.1v-.5l.5-.1.4-.3.3-.3v-.1h.6ZM100.6 115.5l-.7-.1c-.2 0-.4-.2-.6-.4a2 2 0 0 1-.4-.8l-.1-1.2c0-1 .1-1.7.5-2.2.3-.5.8-.8 1.4-.8.5 0 .8.1 1.1.4.3.2.5.6.6 1h-.7l-.3-.6a1 1 0 0 0-.7-.2c-.4 0-.8.1-1 .5-.2.4-.3.9-.3 1.5a1.5 1.5 0 0 1 1.3-.7c.3 0 .6.1.8.3.3.1.5.3.7.6l.2.9c0 .3 0 .6-.2 1l-.7.6-.9.2Zm0-.6.6-.1.4-.5.2-.6c0-.2 0-.4-.2-.6 0-.2-.2-.3-.4-.4a1 1 0 0 0-.6-.2 1 1 0 0 0-.6.2l-.4.4-.2.6c0 .2 0 .4.2.6l.4.5.6.1ZM115.5 110v5.4h-.7V111l-.2.2a2 2 0 0 1-.4.1l-.5.1v-.5l.5-.1.4-.3.2-.3.1-.1h.6ZM119.3 115.4l2.4-4.7h-2.8v-.6h3.4v.6l-2.4 4.7h-.6ZM139.5 110v5.4h-.6V111l-.3.2a2 2 0 0 1-.4.1l-.5.1v-.5l.5-.1.4-.3.2-.3.1-.1h.6ZM144.8 115.5c-.3 0-.7 0-1-.2l-.6-.5-.2-.8.1-.6.4-.5.5-.3a1 1 0 0 1-.6-.4l-.2-.8c0-.3 0-.5.2-.7.1-.2.3-.4.6-.5l.8-.2c.3 0 .6 0 .9.2l.5.5c.2.2.3.5.3.7 0 .3-.1.6-.3.8a1 1 0 0 1-.6.4c.2 0 .4.2.5.3l.4.5.2.6c0 .3-.1.6-.3.8l-.6.5c-.3.2-.6.2-1 .2Zm0-.6c.4 0 .7 0 .9-.2.2-.2.3-.4.3-.7 0-.2 0-.4-.2-.5a1 1 0 0 0-.4-.4 1.3 1.3 0 0 0-1.2 0 1 1 0 0 0-.4.4 1 1 0 0 0-.2.5c0 .3.1.5.4.7l.8.2Zm0-2.5c.3 0 .6 0 .7-.3.2-.1.3-.4.3-.6 0-.3 0-.5-.3-.7a1 1 0 0 0-.7-.2 1 1 0 0 0-.7.2c-.2.2-.3.4-.3.7 0 .2.1.5.3.6.2.2.4.3.7.3ZM163.9 110v5.4h-.7V111l-.2.2a2 2 0 0 1-.4.1l-.6.1v-.5l.6-.1.3-.3.3-.3v-.1h.7ZM169.2 110a1.8 1.8 0 0 1 1.2.5l.5.8.1 1.2a4 4 0 0 1-.5 2.2c-.3.6-.8.8-1.4.8-.5 0-.8-.1-1.2-.4l-.5-1h.7l.3.6c.2.2.4.2.7.2a1 1 0 0 0 1-.5c.2-.4.3-.9.3-1.6l-.6.6-.7.2-.9-.3-.6-.6-.2-1c0-.2 0-.5.2-.8.1-.3.4-.5.6-.7l1-.2Zm0 .6-.6.1-.4.5-.2.6a1.2 1.2 0 0 0 .6 1l.6.2c.2 0 .4 0 .5-.2a1.3 1.3 0 0 0 .6-1l-.1-.6-.4-.5a1 1 0 0 0-.6-.1Z"/>
    </g>
    <mask id="z" width="161" height="12" x="18" y="122" maskUnits="userSpaceOnUse" style="mask-type:luminance">
      <path fill="#fff" d="M178.7 122.7h-160v10.6h160v-10.6Z"/>
    </mask>
    <g fill="#000" mask="url(#z)">
      <path d="M20.2 131.2v-.5l1.8-2 .5-.5.3-.5v-.5c0-.2 0-.5-.2-.6a1 1 0 0 0-.8-.3 1 1 0 0 0-.7.3 1 1 0 0 0-.3.7h-.6c0-.3 0-.6.2-.8l.6-.5c.3-.2.6-.2.9-.2.3 0 .6 0 .8.2.3 0 .4.3.6.5l.2.7-.1.6-.4.7-.7.8-1.2 1.3h2.5v.6h-3.4ZM28.5 131.3c-.6 0-1-.3-1.4-.8-.3-.4-.5-1.1-.5-2 0-.9.2-1.5.5-2s.8-.7 1.4-.7c.6 0 1 .2 1.3.7.4.5.5 1.1.5 2 0 .9-.1 1.6-.5 2-.3.5-.7.8-1.3.8Zm0-.6c.4 0 .7-.2.9-.6.2-.3.3-.9.3-1.6 0-.7-.1-1.2-.3-1.6-.2-.4-.5-.6-1-.6-.3 0-.6.2-.8.6-.3.4-.4 1-.4 1.6 0 .7.1 1.3.4 1.6.2.4.5.6.9.6ZM45.8 131.2v-.5l1.8-2 .5-.5.3-.5v-.5c0-.2 0-.5-.2-.6a1 1 0 0 0-.7-.3 1 1 0 0 0-.8.3 1 1 0 0 0-.3.7h-.6c0-.3.1-.6.3-.8.1-.2.3-.4.6-.5.2-.2.5-.2.8-.2.3 0 .6 0 .8.2.3 0 .5.3.6.5l.2.7-.1.6-.4.7-.7.8-1.2 1.3h2.5v.6h-3.4ZM54 125.8v5.4h-.6v-4.4l-.2.1a2 2 0 0 1-.4.2h-.6v-.5h.6l.3-.3.3-.3v-.2h.7ZM70 131.2v-.5l1.9-2 .5-.5.2-.5.2-.5c0-.2-.1-.5-.3-.6a1 1 0 0 0-.8-.3 1 1 0 0 0-.7.3 1 1 0 0 0-.3.7h-.6c0-.3 0-.6.2-.8l.6-.5c.3-.2.5-.2.9-.2.3 0 .5 0 .8.2.2 0 .4.3.6.5l.2.7-.1.6-.4.7-.7.8-1.2 1.3h2.5v.6H70ZM76.6 131.2v-.5l1.8-2 .5-.5.3-.5v-.5c0-.2 0-.5-.2-.6a1 1 0 0 0-.7-.3 1 1 0 0 0-.8.3 1 1 0 0 0-.3.7h-.6l.2-.8.6-.5c.3-.2.6-.2.9-.2.3 0 .6 0 .8.2.3 0 .5.3.6.5l.2.7-.1.6-.4.7-.7.8-1.2 1.3H80v.6h-3.4ZM95.6 131.2v-.5l1.7-2 .5-.5c.2-.2.3-.3.3-.5l.1-.5c0-.2 0-.5-.3-.6a1 1 0 0 0-.7-.3 1 1 0 0 0-.8.3 1 1 0 0 0-.2.7h-.6c0-.3 0-.6.2-.8.1-.2.3-.4.6-.5.2-.2.5-.2.8-.2.3 0 .6 0 .9.2.2 0 .4.3.5.5.2.2.2.5.2.7v.6l-.5.7-.7.8-1.2 1.3H99v.6h-3.3ZM103.9 131.3c-.4 0-.7 0-1-.2l-.6-.5-.2-.7h.6c0 .2.2.4.4.6l.8.2c.3 0 .6 0 .8-.3.2-.1.4-.4.4-.7 0-.3-.2-.5-.4-.7-.2-.2-.5-.3-1-.3h-.3v-.5h.4c.3 0 .6-.1.8-.3.2-.2.3-.4.3-.7 0-.2-.1-.5-.3-.6a1 1 0 0 0-.7-.3l-.5.1-.4.3-.2.5h-.6c0-.3 0-.5.2-.8l.6-.5a2 2 0 0 1 1.8 0l.5.6.2.7c0 .3 0 .6-.3.8-.1.2-.3.3-.6.4.4.1.6.2.8.5.2.2.3.5.3.8 0 .3 0 .6-.2.8l-.7.6a2 2 0 0 1-1 .2ZM117.1 131.2v-.5l1.8-2 .5-.5.3-.5v-.5c0-.2 0-.5-.2-.6a1 1 0 0 0-.7-.3 1 1 0 0 0-.8.3 1 1 0 0 0-.3.7h-.6l.2-.8.7-.5c.2-.2.5-.2.8-.2.3 0 .6 0 .8.2.3 0 .5.3.6.5l.2.7-.1.6-.4.7-.7.8-1.2 1.3h2.5v.6H117ZM123.4 130v-.4l2.4-3.8h.7v3.7h.8v.6h-.8v1h-.6v-1h-2.5Zm2.5-.5v-2.8l-1.8 2.8h1.8ZM138.6 131.2v-.5l1.8-2 .5-.5.3-.5v-.5c0-.2 0-.5-.2-.6a1 1 0 0 0-.7-.3 1 1 0 0 0-.8.3 1 1 0 0 0-.3.7h-.6l.2-.8.6-.5c.3-.2.6-.2.9-.2.3 0 .6 0 .8.2.3 0 .5.3.6.5l.2.7-.1.6-.4.7-.7.8-1.2 1.3h2.5v.6h-3.4ZM146.8 131.3c-.3 0-.6 0-.8-.2-.3-.1-.5-.3-.6-.5-.2-.2-.2-.5-.3-.7h.7l.3.6.7.2c.2 0 .4 0 .6-.2.2 0 .3-.2.4-.4a1.3 1.3 0 0 0 0-1.2 1 1 0 0 0-.4-.5 1 1 0 0 0-.6-.1 1.9 1.9 0 0 0-1 .2h-.6l.4-2.7h2.8v.6H146l-.2 1.6.4-.2a1.7 1.7 0 0 1 1.4.1l.7.7.2.9a1.8 1.8 0 0 1-.9 1.5c-.2.2-.5.3-.9.3ZM164.1 131.2v-.5l1.8-2 .5-.5.3-.5v-.5c0-.2 0-.5-.2-.6a1 1 0 0 0-.7-.3 1 1 0 0 0-.8.3 1 1 0 0 0-.3.7h-.6l.2-.8.6-.5c.3-.2.6-.2.9-.2.3 0 .6 0 .8.2.3 0 .5.3.6.5l.2.7-.1.6-.4.7-.7.8-1.2 1.3h2.5v.6H164ZM172.4 131.3a3 3 0 0 1-.7-.1l-.6-.5a2 2 0 0 1-.4-.7l-.1-1.3c0-1 .1-1.7.5-2.2.3-.5.8-.7 1.4-.7.4 0 .8 0 1.1.4.3.2.5.5.6 1h-.7c0-.3-.2-.5-.3-.6a1 1 0 0 0-.7-.3c-.4 0-.8.2-1 .6-.2.3-.3.8-.3 1.5a1.5 1.5 0 0 1 1.3-.7c.3 0 .6 0 .8.2l.7.6.2 1c0 .3 0 .6-.2.9-.2.3-.4.5-.7.6-.2.2-.5.3-.9.3Zm0-.6c.2 0 .4 0 .6-.2.2 0 .3-.2.4-.4l.2-.6c0-.3 0-.5-.2-.6 0-.2-.2-.4-.4-.5a1 1 0 0 0-.6-.1 1 1 0 0 0-.6.1l-.4.5-.2.6c0 .2 0 .4.2.6l.4.4.6.2Z"/>
    </g>
    <mask id="A" width="126" height="12" x="18" y="138" maskUnits="userSpaceOnUse" style="mask-type:luminance">
      <path fill="#fff" d="M144 138.7H18.7v10.6H144v-10.6Z"/>
    </mask>
    <g fill="#000" mask="url(#A)">
      <path d="M20.2 147v-.5l1.8-2 .5-.5.3-.5v-.5c0-.3 0-.5-.2-.7a1 1 0 0 0-.8-.2 1 1 0 0 0-.7.3 1 1 0 0 0-.3.7h-.6c0-.3 0-.6.2-.8l.6-.6.9-.2c.3 0 .6 0 .8.2l.6.6.2.7-.1.6-.4.6-.7.8-1.2 1.3h2.5v.7h-3.4ZM26.9 147l2.4-4.8h-2.8v-.6H30v.6l-2.4 4.8h-.7ZM45.4 147v-.5l1.8-2 .5-.5.3-.5v-.5c0-.3 0-.5-.2-.7a1 1 0 0 0-.7-.2 1 1 0 0 0-.8.3 1 1 0 0 0-.3.7h-.6l.2-.8.7-.6.8-.2c.3 0 .6 0 .8.2.3.2.5.3.6.6l.2.7-.1.6a9.5 9.5 0 0 1-1 1.4l-1.3 1.3h2.5v.7h-3.4ZM53.7 147l-1-.1-.7-.6-.2-.8c0-.2 0-.4.2-.6 0-.2.2-.4.3-.5l.6-.2a1 1 0 0 1-.6-.5c-.2-.2-.3-.5-.3-.8l.2-.7.6-.5.9-.2c.3 0 .5 0 .8.2l.6.5.2.7c0 .3-.1.6-.3.8a1 1 0 0 1-.6.4 1.2 1.2 0 0 1 1 .8v.6c0 .3 0 .6-.2.8l-.6.6-1 .1Zm0-.5c.3 0 .6-.1.8-.3.2-.2.3-.4.3-.7l-.1-.5a1 1 0 0 0-.4-.4 1.3 1.3 0 0 0-1.3 0 1 1 0 0 0-.4.4 1 1 0 0 0-.1.5c0 .3 0 .5.3.7.2.2.5.3.9.3Zm0-2.6c.2 0 .5 0 .7-.2.2-.2.3-.4.3-.7 0-.3-.1-.5-.3-.7a1 1 0 0 0-.7-.2 1 1 0 0 0-.8.2c-.2.2-.2.4-.2.7 0 .3 0 .5.2.7l.8.2ZM71 147v-.5l1.7-2 .5-.5.3-.5.1-.5c0-.3 0-.5-.3-.7a1 1 0 0 0-.7-.2 1 1 0 0 0-.7.3 1 1 0 0 0-.3.7H71c0-.3 0-.6.2-.8l.6-.6.8-.2c.4 0 .6 0 .9.2l.6.6.2.7c0 .2 0 .4-.2.6l-.3.6-.7.8-1.3 1.3h2.5v.7H71ZM79.2 141.5a1.8 1.8 0 0 1 1.3.5l.4.8.2 1.3a4 4 0 0 1-.6 2.2c-.3.5-.8.7-1.4.7-.4 0-.8 0-1.1-.4-.3-.2-.5-.6-.5-1h.6c0 .3.1.5.3.6.2.2.4.3.7.3a1 1 0 0 0 1-.6c.2-.3.4-.9.4-1.5l-.6.5-.8.2c-.3 0-.6 0-.9-.2l-.6-.7-.2-.9c0-.3 0-.6.2-.9l.6-.6c.3-.2.6-.3 1-.3Zm0 .6c-.2 0-.4 0-.6.2-.2 0-.3.2-.4.4l-.2.6a1.2 1.2 0 0 0 .6 1c.2.2.4.2.6.2l.6-.1a1.3 1.3 0 0 0 .6-1.1l-.2-.6c0-.2-.2-.3-.4-.4a1 1 0 0 0-.6-.2ZM98.4 147l-1-.1-.6-.5-.2-.8h.6c0 .3.2.5.4.6.2.2.5.3.8.3.3 0 .6-.1.8-.3.2-.2.4-.4.4-.7 0-.3-.2-.5-.4-.7-.2-.2-.5-.3-1-.3H98v-.6h.4c.3 0 .6 0 .8-.2.2-.2.3-.4.3-.7 0-.3-.1-.5-.3-.7a1 1 0 0 0-.7-.2h-.5l-.4.4-.2.4h-.6c0-.2 0-.5.2-.7l.6-.5a2 2 0 0 1 1.8 0c.2.2.4.3.5.6l.2.7c0 .3 0 .5-.3.7-.1.2-.3.4-.6.5.4 0 .6.2.8.4l.3.9c0 .3 0 .6-.2.8l-.7.5a2 2 0 0 1-1 .2ZM105 147c-.5 0-1-.2-1.3-.7-.3-.5-.5-1.2-.5-2 0-.9.2-1.6.5-2 .3-.5.8-.8 1.4-.8.6 0 1 .3 1.3.8.4.4.5 1.1.5 2 0 .8-.1 1.5-.5 2-.3.5-.7.7-1.3.7Zm0-.5c.5 0 .8-.2 1-.6.2-.4.3-1 .3-1.6 0-.7 0-1.3-.3-1.6-.2-.4-.5-.6-1-.6-.3 0-.6.2-.8.6-.3.3-.4.9-.4 1.6 0 .7.2 1.2.4 1.6.2.4.5.6.9.6ZM120.1 147l-1-.1-.6-.5-.2-.8h.6c0 .3.2.5.4.6.2.2.5.3.8.3.3 0 .6-.1.8-.3.3-.2.4-.4.4-.7 0-.3-.1-.5-.4-.7-.2-.2-.5-.3-.9-.3h-.4v-.6h.4c.3 0 .6 0 .8-.2.2-.2.3-.4.3-.7 0-.3-.1-.5-.3-.7a1 1 0 0 0-.7-.2h-.5l-.4.4-.2.4h-.6c0-.2 0-.5.2-.7l.7-.5a2 2 0 0 1 1.7 0c.2.2.4.3.5.6.2.2.2.4.2.7 0 .3 0 .5-.2.7l-.7.5c.4 0 .6.2.8.4l.3.9c0 .3 0 .6-.2.8l-.7.5a2 2 0 0 1-.9.2ZM126.8 141.6v5.4h-.7v-4.5l-.2.2a2 2 0 0 1-.4.2h-.5v-.5l.5-.1.3-.3c.2 0 .2-.2.3-.2v-.2h.7Z"/>
    </g>
  </g>
</svg>
