<svg xmlns="http://www.w3.org/2000/svg" fill="none" viewBox="0 0 760 95">
  <mask id="a" width="371" height="95" x="0" y="0" maskUnits="userSpaceOnUse" style="mask-type:luminance">
    <path fill="#fff" d="M0 0h370.88v95H0V0Z"/>
  </mask>
  <g mask="url(#a)">
    <path fill="#2A7C54" d="M292.22 91.66c1.88-.38 3.74-1.07 5.11-2.43 7.66-7.64 14.27-16.18 24.1-23.13-3.47-.75-5.11.36-6.7 1.41-4.85 3.23-9.64 6.52-14.46 9.8-1.23.84-2.5 2.7-4 1.04-1.47-1.6.46-2.9 1.77-3.49 8.4-3.82 14.52-11.07 23.74-13.67.68-.19 1.24-.76 2.54-1.6-4.64-.65-8.04.55-11.31 1.93a495.36 495.36 0 0 0-20.1 8.89c-4.64 2.2-8.3 5.73-11.48 9.44-1.8 2.1-2.43 5.1-.2 7.52 2.83 3.09 6.31 5.22 11 4.29Zm15.24-48.24c.87-.84-.06-1.6-.67-2.26-3.8-4.17-9.07-6.7-13.5-10.15-2.7-2.12-5.6-4.04-8.35-6.1-.95-.72-2.46-1.55-1.23-2.86 1.12-1.2 2.36-.25 3.4.48 3.72 2.64 7.4 5.3 11.12 7.93.98.7 1.84 1.74 4.47 1.02-6.02-8.09-11-16.3-21.38-19.73-3.6-1.2-6.59-.39-9.43 1.76-2.05 1.55-2.67 3.18-1.36 5.45 7.53 13.1 19.78 20.5 34.69 24.67.69.19 1.84.18 2.24-.21Zm-248 1.22c-10.63-.5-21.27-.87-31.9-1.45-2.1-.12-5.93.51-5.83-1.63.13-2.54 3.71-1.04 5.72-1.1 10.19-.32 20.35.22 30.5 1.02 1.89.16 3.85.45 6.26-.63-5.16-6.37-12.73-7.59-19.79-9.1a53.73 53.73 0 0 0-29.98 2.01c-.6.22-1.27.29-1.84.54-4.67 2.04-9.01 7.48-8.2 10.77 1.19 4.8 5.66 6.6 10.06 7.31 15.6 2.5 31.14 2.65 46.18-3 1.69-.63 4.63-.73 4.22-2.84-.44-2.2-3.35-1.8-5.4-1.9Zm183.64-2.83a99.2 99.2 0 0 0-17.19-15.14c-1.02-.7-2.15-1.29-3.22-1.96-.94-.57-2.2-1.17-1.45-2.42.81-1.34 2.25-.99 3.4-.38 3.68 1.92 6.56 4.8 9.84 7.2 1.43 1.04 2.29 3 4.61 2.82.15-.32.45-.62.4-.83-2.6-9.36-18-20.1-28.53-19.94-7.08.12-9.54 4.1-6.02 9.78 2.76 4.47 7.38 7.14 11.87 9.67 7.28 4.1 14.7 8.05 22.56 11.16.87.34 1.7.9 3.73.04Zm-95.43-27.13c6.86.43 10.38 5.05 14.56 8.81 4.23 3.82 8.12 8.01 13.24 10.85 1.13-1.04.5-1.91.06-2.62-5.84-9.56-12.7-18.28-22.86-24.4a11.45 11.45 0 0 0-11.88-.22c-3.67 2.05-3.62 6.06-2.74 9.75.97 4.13 3.72 7.27 7.03 9.96 8.82 7.18 20.13 9.66 30.8 13.65-9.91-8.2-17.9-18.08-28.21-25.78Zm-59.1.5c-1.24-.9-3.07-1.94-1.49-3.57 1.77-1.84 3.1-.08 4.4.99 5.82 4.79 10.49 10.48 15.12 16.22 1.71 2.12 3.37 4.38 6.34 6.21-1.38-7.83-6.15-13.62-10.38-19.57a38.66 38.66 0 0 0-7.46-7.6c-5.13-4.1-11.13-4.59-17.3-3.57-4.64.76-6.54 5.36-3.92 10.1 3.52 6.34 7.13 12.73 14.23 16.58 7.32 3.96 14.28 8.57 23.28 9.13-7.74-8.35-13.5-18.05-22.83-24.92Zm38.15 41.52c-10.5 2.49-20.43 6.34-29.4 12.13-.12.09-.28.13-.41.22-3.94 2.4-7.24 8.01-6.42 10.92.78 2.72 7.5 6.96 11.58 7.2 8 .48 15.13-1.41 20.3-7.37 5.43-6.25 10.54-12.74 15.79-19.12l-1.24-1.32c-9 5.84-20.38 8.03-27.7 16.41-1.1 1.26-2.2 2.63-3.85 1.21-1.63-1.4.37-2.28 1.2-3.24 5.57-6.46 14.2-8.56 21.33-12.8 3.2-1.9 6.57-3.56 10.87-5.88-5.11-1.07-8.57.81-12.05 1.64Zm58.01 1.21c-11.28 3.43-21.72 8.34-29.66 16.87-2.6 2.78-6.24 5.78-3.57 9.78 2.68 4.05 7.65 4.61 12.46 4.54 13.4-.17 22.83-6.28 29.39-16.8a68.95 68.95 0 0 1 9.7-12.26c.7-.69 1.89-1.34 1.13-2.74-2.43-.26-3.55 1.78-5.21 2.73-9.68 5.57-20.09 10.15-28.48 17.53-1.05.92-2.4 2.1-3.7.66-1.47-1.6-.01-2.62 1.37-3.59 8.63-6.05 18-11.08 27.11-16.44 1.33-.78 2.86-1.35 3.9-3.48-5.67-.62-9.96 1.84-14.44 3.2Zm38.13 12.4c-3.72 2.88-3.84 7.63-1.12 12.36a11.3 11.3 0 0 0 11.71 5.31c5.08-1.05 9.2-3.37 12.04-7.56 3.87-5.72 6.1-12.38 11.87-17.13-6.64.65-10.97 4.8-15.91 7.89-2.92 1.82-5.61 3.95-8.42 5.92-.62.43-1.36 1-2.1.26-.62-.63-.44-1.43 0-2.08.78-1.18 2.12-1.73 3.3-2.52 5.5-3.7 10.9-7.56 16.05-11.83-9.94 1.29-19.55 3.31-27.42 9.38Zm53.55 15.31c-1.54-6 2.81-9.06 6.78-12.37 6.7-5.59 14.61-9.2 22.79-12.52 3.45-1.4 7.33-2.43 11.08-5.73-6.96-.96-12.8-.53-18.49-1.54-6.43-1.13-12.71-1-18.65 2.44-8 4.63-17.65 6.8-23.92 14.03-3.59 4.12-5.37 9.19-8.66 13.47-4.75 6.2-12.97 9.55-19.74 7.52-6.24-1.86-10.05-6-11.1-11.94-1.14-6.31 1.52-10.08 8.8-14 10.8-5.8 23.21-7.1 34.72-10.9 1.33-.44 3.97.13 3.6-1.98-.29-1.7-2.67-1.22-4.2-1.29-4.04-.18-8.04-.13-12.07-.85-16.74-3.01-31.38-.86-42.7 12.94-5.25 6.42-9.63 13.4-15.4 19.5-8.24 8.68-24.55 12.48-35.83 7.84-6.41-2.63-7.98-7.55-4.44-13.18 6.12-9.72 16.17-14.9 26.54-19.49 8.26-3.65 17.23-5.69 26.08-7.9l-.15-1.47c-9.7 0-19.41.46-29.05-.17-5.7-.36-10.27-.44-15.74 2.6A69.2 69.2 0 0 0 136.2 68c-4.18 5.14-7.89 10.72-12.76 15.21-10.28 9.45-25.04 10.94-35.21-.21-1.66-1.82-2.1-3.58-1.28-6.12 2.18-6.78 7.5-10.7 13.66-13.84 9.66-4.92 20-8.25 30.64-10.92 4.1-1.04 8.47-1.25 12.51-3.1-1.6-1.88-3.68-1.52-5.53-1.84-10.52-1.79-21.06.86-31.62-.08-6.4-.56-13.11.86-19.34-.26-7.81-1.4-14.08.7-20.65 3.86-16.35 7.86-33.75 8.18-51.44 5.41-4.23-.66-8-2.46-11.2-5.06-3.39-2.76-5.32-6.14-2.9-10.33 3.23-5.62 7.67-9.96 14.8-11.24 3.01-.54 5.95-1.57 8.98-1.82 16.08-1.35 31.46.01 43.28 11.81 2.6 2.6 5.32 3.69 8.86 3.63 3.9-.05 7.75.45 11.6.6 4.4.18 9.03.98 14.18-1.24-2.19-1.07-3.42-1.73-4.69-2.3-11.79-5.2-21.83-11.97-27.32-23.6C68.07 10.84 69.43 3 74.9 1.35 81.7-.71 88.5-.73 94.7 3.6c4.73 3.3 8.29 7.44 11.62 11.9 5.28 7.08 8.78 14.96 12.48 22.76 1.07 2.24 2 4.99 5.63 4.74 6.82-.45 13.5 1.16 20.3 1.11 7.94-.06 15.89-.02 24.17-.02-.86-2.57-2.45-2.58-3.73-3.11-6.8-2.79-13.68-5.38-19.74-9.5-5.99-4.08-10.42-9.04-10.85-16.2-.25-4.2-.24-8.56 4.52-11.07 5.2-2.74 10.5-3.32 15.4.37 7 5.27 14.02 10.43 18.72 17.96 3.76 6.05 7.52 12.16 11.88 17.93 2.35 3.11 4.61 4.79 8.9 4.9 12.56.31 25.15-1 37.7.53 1.27.16 2.97.53 4.27-1.6-3.07-1.52-6.14-3-9.17-4.52-8.53-4.28-17-8.67-23.58-15.5-3.43-3.56-4.56-7.88-2.54-12.1 1.82-3.84 6.23-4.47 10.43-4.34 10.82.3 19 5.55 25.6 12.82 5.32 5.85 7.6 13.53 12.4 19.75 2.22 2.88 3.7 6.99 8.43 7.15 6.13.21 12.14 1.41 18.32 1.44 4.67.01 9.48-.78 13.99.05a126.8 126.8 0 0 0 23.03 2.06c.96 0 2.24.53 3.02-1.07-2.48-.6-4.8-1.1-7.1-1.7-16.3-4.21-30.66-11.06-39.62-25.2-2.06-3.25-4.7-6.51-1.62-10.26 3.41-4.16 8.11-6.12 13.7-4.63a26.95 26.95 0 0 1 12.93 7.6c5.16 5.56 9.53 11.63 13.9 17.75 8.06 11.28 18.9 18.62 34.3 19.55 8.42.5 16.74.02 25.1-.12 1.44-.02 3.27-.42 3.33 1.53.06 1.78-1.68 1.95-3.19 1.97-5.46.04-10.9-.64-16.4-.08-10.27 1.05-19.9 3.26-27.32 10.64-4.83 4.8-9.97 9.33-14.81 14.12-3.64 3.6-6.74 7.69-10.58 11.07-6.73 5.94-19.94 1.77-22.12-6.67Z"/>
  </g>
  <mask id="b" width="372" height="95" x="389" y="0" maskUnits="userSpaceOnUse" style="mask-type:luminance">
    <path fill="#fff" d="M389.12 0H760v95H389.12V0Z"/>
  </mask>
  <g mask="url(#b)">
    <path fill="#2A7C54" d="M478.78 87.37c2.22-2.42 1.6-5.42-.2-7.52-3.2-3.71-6.85-7.24-11.49-9.44a494.75 494.75 0 0 0-20.1-8.9c-3.27-1.37-6.67-2.57-11.3-1.92 1.29.84 1.85 1.41 2.53 1.6 9.22 2.6 15.33 9.85 23.75 13.67 1.3.6 3.23 1.88 1.76 3.49-1.5 1.66-2.77-.2-4-1.04-4.82-3.28-9.61-6.57-14.47-9.8-1.58-1.05-3.22-2.16-6.69-1.41 9.83 6.95 16.44 15.49 24.1 23.13 1.37 1.36 3.23 2.05 5.1 2.43 4.69.93 8.17-1.2 11-4.29Zm-24-43.74c14.9-4.18 27.16-11.56 34.7-24.67 1.3-2.27.68-3.9-1.37-5.45-2.84-2.15-5.82-2.95-9.43-1.76-10.38 3.43-15.36 11.64-21.38 19.73 2.63.72 3.49-.32 4.47-1.02 3.71-2.63 7.4-5.29 11.12-7.93 1.03-.73 2.28-1.68 3.4-.48 1.23 1.31-.28 2.14-1.23 2.85-2.76 2.07-5.65 3.99-8.36 6.11-4.42 3.46-9.68 5.98-13.49 10.15-.6.67-1.54 1.42-.67 2.26.4.39 1.55.4 2.24.21Zm240.36 2.9c-.41 2.12 2.53 2.22 4.22 2.86 15.04 5.64 30.57 5.5 46.18 2.99 4.4-.7 8.86-2.5 10.05-7.3.82-3.3-3.52-8.74-8.18-10.78-.58-.25-1.25-.32-1.85-.54a53.77 53.77 0 0 0-30-2c-7.04 1.5-14.61 2.72-19.76 9.1 2.4 1.07 4.37.78 6.24.62 10.16-.8 20.32-1.34 30.5-1.03 2.02.07 5.6-1.43 5.73 1.11.1 2.14-3.73 1.51-5.83 1.63-10.63.58-21.27.96-31.9 1.45-2.05.1-4.96-.3-5.4 1.9Zm-174.51-4.76c7.87-3.11 15.28-7.05 22.56-11.16 4.5-2.53 9.1-5.2 11.87-9.67 3.52-5.68 1.06-9.66-6.02-9.78-10.53-.16-25.92 10.58-28.52 19.94-.06.21.23.5.39.83 2.32.17 3.18-1.78 4.6-2.82 3.3-2.4 6.17-5.28 9.85-7.2 1.15-.6 2.58-.96 3.4.38.74 1.25-.51 1.85-1.45 2.42-1.06.67-2.2 1.25-3.23 1.96a99.17 99.17 0 0 0-17.18 15.14c2.04.85 2.86.3 3.73-.04Zm63.5-1.3c10.66-4 21.97-6.48 30.79-13.66 3.31-2.68 6.06-5.83 7.03-9.96.88-3.7.93-7.7-2.74-9.75-3.57-2-7.86-2.22-11.88.21-10.16 6.13-17.02 14.85-22.87 24.4-.43.72-1.06 1.6.07 2.63 5.12-2.84 9-7.03 13.24-10.85 4.18-3.76 7.7-8.38 14.56-8.81-10.3 7.7-18.3 17.58-28.2 25.78Zm64.48-.37c9-.56 15.96-5.17 23.28-9.13 7.11-3.84 10.7-10.24 14.23-16.58 2.62-4.74.72-9.34-3.92-10.1-6.17-1.02-12.17-.53-17.3 3.57a38.85 38.85 0 0 0-7.47 7.6c-4.22 5.95-8.99 11.74-10.38 19.57 2.99-1.83 4.64-4.09 6.35-6.2 4.63-5.75 9.3-11.44 15.12-16.23 1.3-1.07 2.63-2.83 4.4-1 1.58 1.64-.25 2.67-1.49 3.58-9.33 6.87-15.08 16.57-22.82 24.92Zm-27.38 14.96c4.3 2.31 7.67 3.97 10.87 5.87 7.13 4.25 15.76 6.35 21.33 12.81.83.96 2.83 1.83 1.2 3.24-1.64 1.42-2.76.05-3.85-1.2-7.32-8.39-18.7-10.58-27.7-16.42-.4.45-.82.88-1.24 1.32 5.25 6.38 10.36 12.87 15.79 19.12 5.17 5.96 12.3 7.85 20.3 7.37 4.08-.24 10.81-4.48 11.58-7.2.82-2.9-2.48-8.52-6.42-10.92-.13-.09-.29-.13-.42-.22-8.95-5.79-18.89-9.64-29.39-12.13-3.48-.83-6.94-2.7-12.05-1.64Zm-60.39-.35c1.03 2.13 2.56 2.7 3.89 3.48 9.12 5.36 18.48 10.39 27.12 16.44 1.37.97 2.83 2 1.37 3.6-1.32 1.43-2.66.25-3.71-.67-8.4-7.38-18.8-11.96-28.48-17.53-1.66-.95-2.78-2.99-5.2-2.73-.77 1.4.43 2.05 1.1 2.74a68.76 68.76 0 0 1 9.72 12.27c6.56 10.5 16 16.62 29.39 16.8 4.82.06 9.78-.5 12.47-4.55 2.66-4-.98-7-3.58-9.78-7.94-8.53-18.38-13.44-29.66-16.87-4.48-1.36-8.77-3.82-14.43-3.2Zm-51.12 6.22a193.68 193.68 0 0 0 16.06 11.83c1.17.79 2.51 1.34 3.3 2.52.43.65.61 1.45 0 2.08-.75.75-1.49.17-2.1-.26-2.82-1.97-5.5-4.1-8.43-5.92-4.94-3.09-9.27-7.24-15.91-7.9 5.77 4.76 8 11.42 11.87 17.14 2.83 4.19 6.96 6.5 12.04 7.56a11.3 11.3 0 0 0 11.71-5.3c2.72-4.74 2.6-9.5-1.12-12.37-7.86-6.07-17.48-8.1-27.42-9.38Zm-48.25 31.36c-3.84-3.38-6.94-7.48-10.58-11.07-4.84-4.79-9.98-9.32-14.81-14.12-7.41-7.38-17.05-9.6-27.32-10.64-5.5-.56-10.94.12-16.4.08-1.51-.02-3.25-.2-3.2-1.97.07-1.95 1.9-1.55 3.33-1.53 8.37.14 16.7.63 25.12.12 15.39-.93 26.23-8.27 34.28-19.55 4.38-6.12 8.75-12.19 13.9-17.76a26.95 26.95 0 0 1 12.95-7.59c5.58-1.5 10.27.47 13.7 4.63 3.08 3.75.43 7.01-1.63 10.26-8.96 14.14-23.33 20.99-39.63 25.2-2.3.6-4.61 1.1-7.09 1.7.79 1.6 2.06 1.08 3.02 1.08 7.75 0 15.38-.67 23.03-2.07 4.51-.83 9.32-.04 14-.05 6.17-.03 12.18-1.23 18.3-1.44 4.74-.16 6.21-4.27 8.44-7.15 4.8-6.22 7.08-13.9 12.4-19.75 6.6-7.27 14.78-12.51 25.6-12.82 4.2-.13 8.6.5 10.43 4.33 2.02 4.23.9 8.55-2.54 12.11-6.57 6.83-15.04 11.22-23.58 15.5-3.03 1.53-6.1 3-9.17 4.51 1.3 2.14 3 1.77 4.27 1.61 12.55-1.53 25.14-.22 37.7-.53 4.28-.11 6.55-1.79 8.9-4.9 4.36-5.77 8.12-11.88 11.88-17.93 4.7-7.53 11.72-12.69 18.72-17.96 4.9-3.69 10.2-3.1 15.4-.37 4.76 2.51 4.77 6.87 4.52 11.08-.42 7.15-4.86 12.11-10.85 16.19-6.06 4.12-12.95 6.71-19.74 9.5-1.28.53-2.88.54-3.73 3.11 8.28 0 16.23-.04 24.17.02 6.8.05 13.48-1.56 20.3-1.11 3.62.25 4.56-2.5 5.62-4.74 3.71-7.8 7.21-15.68 12.5-22.76 3.32-4.46 6.88-8.6 11.6-11.9C671.5-.73 678.3-.71 685.1 1.35c5.47 1.65 6.83 9.49 4.13 15.22-5.49 11.63-15.53 18.4-27.32 23.6-1.27.57-2.5 1.23-4.69 2.3 5.15 2.22 9.78 1.42 14.18 1.25 3.85-.16 7.7-.66 11.6-.6 3.54.05 6.26-1.04 8.86-3.64 11.82-11.8 27.2-13.16 43.28-11.81 3.03.25 5.97 1.28 8.98 1.82 7.13 1.28 11.57 5.62 14.8 11.24 2.42 4.19.49 7.57-2.9 10.33-3.2 2.6-6.98 4.4-11.2 5.06-17.7 2.77-35.09 2.45-51.44-5.4-6.57-3.16-12.84-5.27-20.65-3.87-6.23 1.12-12.94-.3-19.34.26-10.57.94-21.1-1.7-31.62.08-1.85.32-3.92-.04-5.53 1.84 4.03 1.85 8.41 2.06 12.51 3.1 10.63 2.67 20.98 6 30.64 10.92 6.16 3.14 11.48 7.06 13.66 13.84.82 2.54.38 4.3-1.28 6.12-10.17 11.15-24.93 9.66-35.2.21-4.88-4.49-8.6-10.07-12.77-15.21a69.21 69.21 0 0 0-20.46-17.39c-5.47-3.03-10.04-2.95-15.74-2.59-9.64.63-19.36.17-29.05.17l-.15 1.47c8.85 2.21 17.82 4.25 26.08 7.9 10.37 4.59 20.42 9.77 26.53 19.5 3.55 5.62 1.98 10.54-4.43 13.17-11.28 4.64-27.59.84-35.83-7.85-5.77-6.08-10.15-13.07-15.4-19.49-11.32-13.8-25.96-15.95-42.7-12.94-4.03.72-8.03.67-12.06.85-1.54.07-3.92-.41-4.21 1.3-.37 2.1 2.27 1.53 3.6 1.96 11.5 3.81 23.93 5.1 34.72 10.91 7.27 3.92 9.94 7.69 8.8 14-1.05 5.95-4.86 10.08-11.1 11.94-6.77 2.03-15-1.32-19.74-7.52-3.29-4.28-5.07-9.35-8.66-13.47-6.27-7.22-15.92-9.4-23.92-14.03-5.94-3.44-12.22-3.57-18.65-2.44-5.7 1-11.53.58-18.49 1.54 3.75 3.3 7.63 4.33 11.08 5.73 8.18 3.31 16.1 6.93 22.79 12.52 3.97 3.31 8.32 6.38 6.78 12.37-2.18 8.44-15.39 12.6-22.12 6.67Z"/>
  </g>
  <mask id="c" width="4" height="6" x="378" y="19" maskUnits="userSpaceOnUse" style="mask-type:luminance">
    <path fill="#fff" d="M381.33 19.52h-2.66v5.33h2.66v-5.33Z"/>
  </mask>
  <g mask="url(#c)">
    <mask id="d" width="2" height="2" x="379" y="22" maskUnits="userSpaceOnUse" style="mask-type:luminance">
      <path fill="#fff" d="M379.36 22.19h1.28v1.33h-1.28V22.2Z"/>
    </mask>
    <g mask="url(#d)">
      <path fill="#000" d="M380 22.98c-.1 0-.14-.07-.14-.2 0-.12.04-.18.14-.18s.14.06.14.19c0 .12-.05.19-.14.19Z"/>
    </g>
  </g>
</svg>
