<svg xmlns="http://www.w3.org/2000/svg" fill="none" viewBox="0 0 413 123">
  <mask id="a" width="202" height="53" x="0" y="70" maskUnits="userSpaceOnUse" style="mask-type:luminance">
    <path fill="#fff" d="M0 70.2h201.5V123H0V70.2Z"/>
  </mask>
  <g mask="url(#a)">
    <path fill="#2A7C54" d="M158.8 121.1c1-.2 2-.5 2.8-1.3 4.1-4.3 7.7-9 13-12.9-1.8-.4-2.7.2-3.6.8l-7.8 5.5c-.7.4-1.4 1.5-2.2.5-.8-.8.2-1.6 1-1.9 4.5-2.1 7.8-6.1 12.9-7.6l1.3-.9c-2.5-.3-4.3.3-6.1 1l-11 5a19.5 19.5 0 0 0-6.2 5.3c-1 1.1-1.3 2.8 0 4.2 1.5 1.7 3.4 2.9 5.9 2.3Zm8.3-26.8c.5-.4 0-.9-.4-1.2-2-2.3-5-3.7-7.3-5.7l-4.6-3.4c-.5-.4-1.3-.8-.6-1.6.6-.6 1.3 0 1.8.3l6 4.4c.6.4 1 1 2.5.6-3.3-4.5-6-9-11.6-11-2-.6-3.6-.2-5.2 1-1 .9-1.4 1.8-.7 3 4.1 7.3 10.8 11.4 18.9 13.7h1.2ZM32.3 95 15 94.2c-1.2 0-3.2.3-3.2-.9 0-1.4 2-.6 3.1-.6 5.6-.2 11 .1 16.6.6 1 0 2 .2 3.4-.4-2.8-3.5-7-4.2-10.8-5-5.4-1.3-11-1-16.3 1l-1 .4c-2.5 1-4.9 4.1-4.4 6 .6 2.6 3 3.6 5.5 4 8.4 1.4 16.9 1.5 25-1.7 1-.3 2.6-.4 2.3-1.5-.2-1.3-1.8-1-2.9-1Zm99.8-1.6c-2.9-3.2-6-6-9.3-8.4l-1.8-1c-.5-.4-1.2-.7-.8-1.4.5-.8 1.3-.6 1.9-.2 2 1 3.5 2.6 5.3 4 .8.6 1.3 1.6 2.5 1.5.1-.1.3-.3.2-.4-1.4-5.2-9.7-11.2-15.5-11.1-3.8 0-5.1 2.3-3.2 5.4 1.5 2.5 4 4 6.4 5.4 4 2.3 8 4.5 12.3 6.2.5.2.9.5 2 0Zm-51.9-15c3.8.2 5.7 2.8 8 4.9 2.3 2 4.4 4.4 7.2 6 .6-.6.2-1 0-1.5A38 38 0 0 0 83 74.3a6.1 6.1 0 0 0-6.5-.2c-2 1.2-2 3.4-1.5 5.5.5 2.3 2 4 3.8 5.5 4.8 4 11 5.4 16.8 7.6-5.4-4.6-9.8-10-15.4-14.3Zm-32 .2c-.7-.5-1.7-1-.9-2 1-1 1.7 0 2.4.6 3.2 2.7 5.7 5.8 8.2 9 1 1.2 1.9 2.4 3.5 3.5-.8-4.4-3.4-7.6-5.7-11-1-1.5-2.5-2.9-4-4.1-2.8-2.3-6-2.6-9.4-2-2.5.4-3.6 3-2.1 5.6 1.9 3.5 3.8 7 7.7 9.2 4 2.2 7.7 4.8 12.6 5-4.2-4.6-7.3-10-12.4-13.8Zm20.7 23.1a50.1 50.1 0 0 0-16 6.8h-.2c-2.2 1.4-4 4.5-3.5 6.1.4 1.6 4 4 6.3 4 4.3.3 8.2-.7 11-4 3-3.5 5.7-7.1 8.6-10.7l-.7-.7c-4.9 3.2-11 4.5-15 9.1-.6.7-1.2 1.5-2.1.7-1-.8.2-1.3.6-1.8 3-3.6 7.7-4.8 11.6-7.1l6-3.3c-2.9-.6-4.7.5-6.6 1Zm31.5.7c-6.1 1.9-11.8 4.6-16.1 9.4-1.4 1.5-3.4 3.2-2 5.4 1.5 2.2 4.2 2.6 6.8 2.5a18 18 0 0 0 16-9.3c1.5-2.5 3.2-4.8 5.2-6.8.4-.4 1-.8.7-1.6-1.4-.1-2 1-2.9 1.6-5.2 3-10.9 5.6-15.5 9.7-.5.5-1.3 1.2-2 .4-.8-1 0-1.5.8-2 4.7-3.4 9.8-6.2 14.7-9.2.7-.4 1.6-.7 2.1-1.9-3-.3-5.4 1-7.8 1.8Zm20.7 6.9c-2 1.6-2 4.2-.6 6.8 1.2 2.3 4 3.5 6.4 3 2.7-.6 5-1.9 6.5-4.2 2.1-3.2 3.3-6.9 6.5-9.5-3.7.3-6 2.6-8.7 4.4-1.6 1-3 2.2-4.6 3.3-.3.2-.7.5-1.1 0-.3-.3-.2-.7 0-1 .4-.7 1.1-1 1.8-1.5 3-2 6-4.2 8.7-6.5-5.4.7-10.6 1.8-14.9 5.2Zm29.1 8.5c-.8-3.3 1.5-5 3.7-6.9 3.6-3.1 8-5.1 12.4-7 1.8-.7 4-1.3 6-3.1-3.8-.6-7-.3-10-.9-3.5-.6-7-.5-10.2 1.4-4.3 2.5-9.6 3.8-13 7.8-2 2.3-2.9 5-4.7 7.5-2.6 3.4-7 5.3-10.7 4.1a8.1 8.1 0 0 1-6-6.6c-.7-3.5.8-5.6 4.7-7.8 5.9-3.2 12.6-4 18.9-6 .7-.3 2.2 0 2-1.1-.2-1-1.5-.7-2.3-.8-2.2 0-4.4 0-6.6-.4-9-1.7-17-.5-23.2 7.2-2.8 3.5-5.2 7.4-8.4 10.8a19 19 0 0 1-19.4 4.4c-3.5-1.5-4.4-4.2-2.4-7.4 3.3-5.4 8.7-8.3 14.4-10.8 4.5-2 9.3-3.2 14.2-4.4l-.1-.8c-5.3 0-10.6.2-15.8-.1-3.1-.2-5.6-.3-8.6 1.4-4.5 2.6-8 5.8-11 9.7-2.4 2.9-4.4 6-7 8.5-5.6 5.2-13.6 6-19.2-.2-.9-1-1.1-2-.6-3.4 1.1-3.7 4-6 7.4-7.7a77.4 77.4 0 0 1 16.6-6c2.3-.6 4.6-.7 6.8-1.8-.9-1-2-.8-3-1-5.7-1-11.4.5-17.2 0-3.4-.3-7 .5-10.5-.2-4.2-.7-7.6.4-11.2 2.2a45.4 45.4 0 0 1-28 3C6 101 4 100 2.2 98.6.3 97-.8 95.2.6 92.8c1.7-3 4.2-5.5 8-6.2 1.7-.3 3.3-.9 5-1 8.6-.8 17 0 23.4 6.5 1.4 1.5 3 2 4.8 2 2.2 0 4.3.3 6.3.4 2.4 0 5 .5 7.8-.7l-2.6-1.3a27.4 27.4 0 0 1-14.8-13.1c-1.5-3.2-.8-7.5 2.2-8.5 3.7-1.1 7.4-1.1 10.8 1.3 2.5 1.8 4.5 4.1 6.3 6.6 2.9 4 4.8 8.3 6.8 12.7.5 1.2 1 2.7 3 2.6 3.7-.3 7.4.6 11 .6h13.2c-.5-1.4-1.3-1.4-2-1.7-3.7-1.6-7.5-3-10.8-5.3-3.2-2.3-5.6-5-5.9-9-.1-2.3 0-4.8 2.5-6.2 2.8-1.5 5.7-1.8 8.4.2 3.8 3 7.6 5.8 10.1 10 2 3.4 4.1 6.8 6.5 10 1.3 1.7 2.5 2.7 4.8 2.7 6.9.2 13.7-.5 20.5.3.7.1 1.6.3 2.3-.9l-5-2.5a45.3 45.3 0 0 1-12.8-8.6c-1.8-2-2.4-4.4-1.3-6.7 1-2.2 3.3-2.5 5.6-2.4a19 19 0 0 1 14 7c2.8 3.3 4 7.6 6.7 11 1.2 1.7 2 4 4.6 4 3.3.2 6.6.8 10 .8 2.5 0 5-.4 7.5 0 4.2.8 8.3 1.2 12.5 1.2.6 0 1.2.3 1.7-.6l-3.9-1c-8.8-2.3-16.6-6-21.5-14-1.1-1.7-2.6-3.6-.9-5.6 1.9-2.4 4.4-3.4 7.4-2.6 2.8.7 5.2 2.1 7 4.2 2.9 3.1 5.3 6.5 7.6 9.9a23.5 23.5 0 0 0 18.7 10.8c4.5.3 9 0 13.6 0 .8 0 1.8-.3 1.8.8 0 1-.9 1.1-1.7 1.1-3 0-6-.3-9 0-5.5.6-10.7 1.8-14.8 5.9-2.6 2.7-5.4 5.2-8 7.8-2 2-3.7 4.3-5.8 6.2-3.6 3.3-10.8 1-12-3.7Z"/>
  </g>
  <mask id="b" width="202" height="53" x="211" y="70" maskUnits="userSpaceOnUse" style="mask-type:luminance">
    <path fill="#fff" d="M211.5 70.2H413V123H211.5V70.2Z"/>
  </mask>
  <g mask="url(#b)">
    <path fill="#2A7C54" d="M260.2 118.8c1.2-1.4.8-3-.1-4.2-1.8-2-3.8-4-6.3-5.3a265 265 0 0 0-10.9-5c-1.8-.7-3.6-1.3-6.1-1l1.3 1c5 1.4 8.4 5.4 13 7.5.7.3 1.7 1 .9 2-.8.9-1.5-.2-2.2-.6l-7.8-5.5c-.9-.6-1.8-1.2-3.7-.8 5.4 3.9 9 8.6 13.1 12.9.8.8 1.8 1.1 2.8 1.3 2.5.6 4.4-.6 6-2.3Zm-13-24.4A29.6 29.6 0 0 0 266 80.7c.7-1.2.4-2.1-.7-3-1.6-1.2-3.2-1.6-5.2-1-5.6 2-8.3 6.5-11.6 11 1.4.4 1.9-.2 2.4-.6l6-4.4c.6-.4 1.3-1 2-.3.6.8-.2 1.2-.7 1.6l-4.6 3.4c-2.4 2-5.2 3.4-7.3 5.7-.3.3-.9.8-.4 1.2.2.2.9.2 1.2.1Zm130.6 1.7c-.3 1.1 1.3 1.2 2.2 1.5 8.2 3.2 16.7 3.1 25.1 1.7 2.4-.4 4.9-1.4 5.5-4 .5-1.9-2-5-4.4-6l-1-.3c-5.4-2-10.9-2.4-16.3-1.2-3.9.9-8 1.6-10.8 5.1 1.3.6 2.4.4 3.4.4 5.5-.5 11-.8 16.6-.6 1 0 3-.8 3 .6.1 1.2-2 .8-3 .9l-17.4.8c-1.1 0-2.7-.2-3 1Zm-94.9-2.7c4.3-1.7 8.3-4 12.3-6.2 2.4-1.4 5-2.9 6.4-5.4 2-3.1.6-5.3-3.2-5.4-5.8 0-14.1 5.9-15.5 11 0 .2 0 .4.2.5 1.2.1 1.7-1 2.5-1.5 1.8-1.4 3.3-3 5.3-4 .7-.4 1.4-.6 1.9.2.4.7-.3 1-.8 1.3l-1.8 1.1a54.3 54.3 0 0 0-9.3 8.4c1.1.5 1.5.2 2 0Zm34.5-.7c5.8-2.2 12-3.6 16.8-7.6 1.8-1.5 3.3-3.2 3.8-5.5.5-2 .5-4.3-1.5-5.5a6.1 6.1 0 0 0-6.5.2 38 38 0 0 0-12.4 13.5c-.2.4-.6.9 0 1.5 2.8-1.6 5-4 7.2-6 2.3-2.1 4.2-4.7 8-5-5.6 4.3-10 9.8-15.4 14.4Zm35-.2c5-.3 8.7-2.9 12.7-5 3.9-2.2 5.8-5.8 7.8-9.3 1.4-2.6.3-5.2-2.2-5.6-3.3-.6-6.6-.3-9.4 2-1.5 1.2-3 2.6-4 4.2-2.3 3.3-5 6.5-5.7 10.9 1.6-1 2.5-2.3 3.5-3.5 2.5-3.2 5-6.3 8.2-9 .7-.6 1.4-1.6 2.4-.6.8 1-.2 1.5-.8 2-5.1 3.9-8.2 9.2-12.4 13.9Zm-14.8 8.3c2.3 1.3 4.2 2.2 5.9 3.3 3.9 2.3 8.6 3.5 11.6 7 .4.6 1.5 1.1.6 1.9-.8.8-1.5 0-2-.7-4-4.6-10.2-5.9-15.1-9.1l-.7.7c2.9 3.6 5.6 7.2 8.6 10.6 2.8 3.4 6.7 4.4 11 4.1 2.3 0 6-2.4 6.3-4 .5-1.6-1.3-4.7-3.5-6l-.2-.1a50.1 50.1 0 0 0-16-6.8c-1.9-.4-3.7-1.5-6.5-.9Zm-32.8-.2c.5 1.2 1.4 1.5 2 2 5 3 10.1 5.7 14.8 9 .8.6 1.6 1.2.8 2-.7.9-1.5.2-2-.3-4.6-4.1-10.3-6.6-15.5-9.7-1-.6-1.5-1.7-2.9-1.6-.4.8.3 1.2.7 1.6 2 2 3.7 4.3 5.2 6.8a18 18 0 0 0 16 9.3c2.6 0 5.3-.3 6.8-2.5 1.4-2.2-.6-3.9-2-5.4a35 35 0 0 0-16-9.4c-2.5-.8-4.9-2.1-8-1.8Zm-27.8 3.5c2.8 2.3 5.7 4.5 8.7 6.5.7.5 1.4.8 1.8 1.4.2.4.3.8 0 1.2-.4.4-.8 0-1.1-.1-1.6-1.1-3-2.3-4.6-3.3-2.7-1.8-5-4-8.7-4.4 3.2 2.6 4.4 6.3 6.5 9.5a9.9 9.9 0 0 0 6.5 4.2c2.5.5 5.2-.8 6.4-3 1.5-2.6 1.4-5.2-.6-6.8A29.4 29.4 0 0 0 277 104Zm-26.2 17.4c-2.1-1.9-3.8-4.2-5.8-6.2-2.6-2.6-5.4-5.1-8-7.8-4-4.1-9.3-5.3-14.9-6-3-.2-6 .1-8.9.1-.8 0-1.7 0-1.7-1 0-1.2 1-1 1.8-1 4.5.2 9 .4 13.6.1 8.4-.5 14.3-4.6 18.7-10.8 2.3-3.4 4.7-6.8 7.5-9.9 1.9-2 4.3-3.5 7-4.2 3-.8 5.6.2 7.5 2.6 1.7 2 .2 3.9-.9 5.7-4.9 7.8-12.7 11.6-21.5 14l-3.9 1c.5.8 1.1.5 1.7.5 4.2 0 8.3-.4 12.5-1.1 2.4-.5 5 0 7.6 0 3.3 0 6.6-.7 10-.9 2.5 0 3.3-2.3 4.5-4 2.6-3.4 3.9-7.7 6.8-11 3.6-4 8-6.9 13.9-7 2.3-.1 4.6.2 5.6 2.4 1.1 2.3.5 4.7-1.3 6.7a45.3 45.3 0 0 1-12.9 8.6l-5 2.5c.8 1.2 1.7 1 2.4 1 6.8-1 13.6-.2 20.5-.4 2.3 0 3.5-1 4.8-2.7 2.4-3.2 4.4-6.6 6.5-10 2.5-4.2 6.3-7 10.1-10 2.7-2 5.6-1.7 8.4-.2 2.6 1.4 2.6 3.9 2.5 6.2-.3 4-2.7 6.7-6 9-3.2 2.3-7 3.7-10.7 5.3-.7.3-1.5.3-2 1.7h13.1c3.7 0 7.4-.9 11-.6 2 .1 2.6-1.4 3.1-2.6 2-4.4 4-8.8 6.8-12.7 1.8-2.5 3.8-4.8 6.3-6.6 3.4-2.4 7.1-2.4 10.8-1.3 3 1 3.7 5.3 2.2 8.5-3 6.5-8.4 10.2-14.8 13.1l-2.6 1.3c2.8 1.2 5.4.8 7.8.7 2 0 4.1-.4 6.3-.3 1.9 0 3.4-.6 4.8-2 6.4-6.6 14.8-7.4 23.5-6.6 1.6.1 3.2.7 4.9 1 3.8.7 6.3 3.1 8 6.2 1.3 2.4.3 4.2-1.6 5.8a12.6 12.6 0 0 1-6 2.8c-9.7 1.5-19.1 1.3-28-3-3.6-1.8-7-3-11.2-2.2-3.4.7-7-.1-10.5.2-5.8.5-11.5-1-17.2 0-1 .2-2.1 0-3 1 2.2 1 4.5 1.2 6.8 1.8a77.5 77.5 0 0 1 16.6 6c3.4 1.8 6.3 4 7.5 7.7.4 1.4.2 2.4-.7 3.4-5.6 6.2-13.6 5.4-19.2.2-2.6-2.5-4.6-5.6-7-8.5-3-3.9-6.5-7.1-11-9.7-3-1.7-5.5-1.6-8.6-1.4-5.2.3-10.5 0-15.8 0v.9c4.8 1.2 9.6 2.4 14.1 4.4 5.7 2.5 11.1 5.4 14.4 10.8 2 3.2 1.1 5.9-2.4 7.4a19 19 0 0 1-19.4-4.4c-3.2-3.4-5.6-7.3-8.4-10.8-6.2-7.7-14.1-9-23.2-7.2-2.2.4-4.4.3-6.6.4-.8 0-2.1-.2-2.3.8-.2 1.1 1.3.8 2 1 6.3 2.2 13 2.9 18.9 6.1 4 2.2 5.4 4.3 4.8 7.8a8.1 8.1 0 0 1-6 6.6c-3.8 1.2-8.2-.7-10.8-4.1-1.8-2.4-2.8-5.2-4.7-7.5-3.4-4-8.7-5.3-13-7.8-3.2-2-6.7-2-10.2-1.4-3 .6-6.2.3-10 .9 2 1.8 4.2 2.4 6 3.2 4.5 1.8 8.8 3.8 12.4 7 2.2 1.8 4.5 3.5 3.7 6.8-1.2 4.7-8.4 7-12 3.7Z"/>
  </g>
  <mask id="c" width="4" height="12" x="128" y="34" maskUnits="userSpaceOnUse" style="mask-type:luminance">
    <path fill="#fff" d="M131.4 34.4h-2.9v11h3v-11Z"/>
  </mask>
  <g mask="url(#c)">
    <mask id="d" width="3" height="3" x="129" y="41" maskUnits="userSpaceOnUse" style="mask-type:luminance">
      <path fill="#fff" d="M129.2 41h2.1v2.2h-2V41Z"/>
    </mask>
    <g mask="url(#d)">
      <path fill="#000" d="M129.5 42.1c0-.1 0-.3.2-.4l.4-.1.5.1.1.4-.1.5-.5.1-.4-.1a.6.6 0 0 1-.2-.5Z"/>
    </g>
  </g>
  <mask id="e" width="3" height="12" x="205" y="56" maskUnits="userSpaceOnUse" style="mask-type:luminance">
    <path fill="#fff" d="M208 56.6h-3v11.1h3V56.6Z"/>
  </mask>
  <g mask="url(#e)">
    <path fill="#000" d="m205.9 64.8.1-.5.5-.1.4.1c.2.1.2.3.2.5 0 .1 0 .3-.2.4l-.4.2-.5-.2a.6.6 0 0 1-.1-.4Z"/>
  </g>
  <path fill="#000" d="M205.8.7c0-.2 0-.4.2-.5l.5-.2c.2 0 .4 0 .5.2.2.1.2.3.2.5s0 .4-.2.5l-.5.2c-.2 0-.4 0-.5-.2a.7.7 0 0 1-.2-.5ZM205.8 55.5c0-.2 0-.3.2-.5l.5-.2.5.2c.2.2.2.3.2.5 0 .3 0 .4-.2.6l-.5.2-.5-.2a.7.7 0 0 1-.2-.6Z"/>
</svg>
