<svg xmlns="http://www.w3.org/2000/svg" fill="none" viewBox="0 0 301 291">
  <path fill="#000" d="M239.5 7.6 240 9c1.2 3.6 2.3 7.5 3.4 11.2 1.2 3.7 2.4 9.2 3.6 14 5.1 20.7 10.6 41.3 11.2 62.8a102 102 0 0 1-8 48.1 50 50 0 0 1-4.8 8.5c-1.6 2-1.7 1.5-2.3 2.1-.6.7-1.2 2.6-2.7 2.7.4 3 0 6.3.2 9.3.1 3.1.4 6.4 1 8 .5 1.5 1 .8 1.2 1.5.2 1-1 2-.4 3l1.1-1.3c2.3-5.4 8.2-12.3 14.8-12 3.2.2 6.5 1 9.8 1 4.1 0 8-1.5 12.4-1.2 3.8.2 11.1 2.6 10.1 7.4-1 4.8-1.9 4.3-2.5 4.8-2 1.7-1.1-.8-1.8-2-2.6-4.6-10.6-5.6-15.4-5.2-1.5.1-3 .7-4.5 1-4.3.5-8.4-.3-12.6-.4-4 0-5.5 1.8-8 4.5-1.1 1.3-2 2.8-3 4.2-.3 1.9 1.7.3 2.6 0 7.4-2.9 14-1 21 2.2 2.9 1.3 5.4 3 8.5 4 3.2.9 1.9 0 3-.5 3.8-2 5-6.4 5.1-10.1.1-3.8-.2-.8-.2-1.3 1-.4 1.4.3 1.8 1 1.6 3 2.3 9.3-1.1 11.2a21 21 0 0 1-10.5 2c-4.6-.3-8.6-2.8-12.8-4.2a38.7 38.7 0 0 0-13.5-2.2c-2 .2-2.2.7-.6 1.8 4.1 3.2 8 6.2 13 8a46 46 0 0 0 19.3.3c4-.4 8.9.8 12.8 2 4 1.2 8 4.3 9 8.8 1 4.4.3 2.5.3 3 0 .8-.8 1.2-1.5 1.2 0-.2 0-.4-.2-.6-5-9.2-10.4-10.7-21-10.1-4.4.2-8.5 1.7-12.9 2-5.9.2-10-.7-15.2-3.2-2-1-3.4-2.3-5.2-3.4l4.4 25.6c3.4 16.8 8.1 34.9 21 47.3.4.2 1 .1 1.3.1 5.8-.2 11.2-.4 17 .5 1.7.3 4.9.9 5.8 2.3.9 1.5 1.4 4.3-.3 6.1-5.4 6-14.1 8-22 10.3-5.8 1.6-10.2 1.8-16 2.7-10.8 1.6-19.2 4-30.5 2.2-2.4-.3-6.3-1.7-6.6-4.5-.4-4 .4-5.6 3.8-7.7 3.4-2 11.4-4.7 16.5-6.5.6-.3 3.3-1.3 3.5-1.7l.3-1c.4-2.2.4-4.3.5-6.4.5-18-1.1-36-5.8-53.5-.2 0-.1.2-.2.4-.7 1.9-1 3.8-2 5.8a31.7 31.7 0 0 1-13.1 14.5c-1.4.7-1.5.4-2-.8-.4-1.3-.6-3-.4-4 .4-2.7 2.2-3.3 3.8-5 5.3-5.4 6.4-11.6 7.7-18.7.8-4 1.7-8 1.7-12.1-.7-.2-1.1.5-1.5 1-.5 1-.8 2-1.3 2.8-2.5 5-4.6 8.1-10.6 9.2-6 1.1-6-1.8-9.7-2-2.8-.3-5.7.5-8.4.6-2.8 0-2.1-.2-2.8-1-1.6-1.7-2.1-6.8-1.4-9 .7-2.2.2-1 .5-.8.4.4.2.8.4 1.3 1.4 3.6 7.1 1.8 10 1.7 5.3-.3 6.8 1.7 11.1 2.9a8.6 8.6 0 0 0 9.9-4.4c.6-1.1 1-2.4 1.6-3.6.6-1.2 2.4-3 1-3.8l-4.2-1.6c-4.8-2.3-7.6-5.6-13.6-5.2-6 .4-3 .5-3.5 1-.5.6-1.2 2.4-1.6 3a16 16 0 0 1-5.8 6.3c-2.4 1-4.4 1-6.2 2.2-.5 1.8-1 3.5-.8 5.4.2 2 .6 1.2.5 2-.3.2-1.5-1-1.7-1-.8-.4-1.8 0-1.8-1.2-.2-4.3 3.7-10 7.7-11.7 4-1.7 5.1-1.2 5.8-2 .8-.7 1.2-2.7 1.7-3.5 5-8.6 13.7-6.3 20.8-1.5.2.2 1.7 1.5 1.8 1.3-.2-.7-.1-1.4-.2-2a58.9 58.9 0 0 0-3.6-14.3c-1.8-4-.6-1.1-.7-1.2-.2-.3-3-.9-3.8-1.2-1-.6-1.6-1.3-2.5-2-16.7-12-25.8-31-32.3-49.7-6.7-19.4-9.2-39.3-12-59.5-.4-2-.9-3.9-1.2-5.9-.8-5.8-.8-11.7-1.4-17.6-.6-5.8-.6-2.3-.5-3.6.2-1.2.3-.5.5-.8 1.3-1.5 7.6-3 9.8-3.4 14.4-3.2 29.3-5.8 43.9-8 14.6-2 6.4-1.1 9.6-1 .8 0 2.8.3 3.3.8l-.2-.2Zm-.7 1.5c-3-.5-6-.2-9 0-12.5 1-25.3 3.2-37.5 6.2-5 1.2-10.7 2.4-15.4 4.1-1 .4-2.6 1-3.3 1.8.6-.2 1.3.1 1.7.1a416.1 416.1 0 0 0 62-11.4c1.3-.4 1.2-.5 1.5-.8Zm.9.8c-.1-.1-2.1 1-2.5 1.2-9 3.4-19.9 4.6-29.4 6.4-10 1.8-19 3.8-29.3 4.5l-2.5.3-2.8-.3c1 4.2 1.6 8.3 2.2 12.5.9 6.2 1.3 12.5 2 18.8 1 7.3 2.6 15 3.8 22.3 2.7 16.7 7.9 31.8 14.3 47.4a90 90 0 0 0 17.3 24.4 39 39 0 0 0 13 10.1c1.5.6 3.1.7 4.6 1.4 0 .4 0 .3-.3.4-.4.2-1 .2-1.5.3-.6 0-.6-.2-.4.2.1.3.7.7 1 1.2l.6 2.1c1 3.5 2 7.8 2.7 11.4.7 3.6.3 5 1.5 5.4l1-1.9c1-1.4 1.4-.3 1.8-.4.4-.8 1.5-.8 1.5-1.7l-.3-3.9 1 3.8c1.4 0 .5-2.2.4-3.2-.3-2.3-.5-4.8-.6-7.1 0-2.3.3-4.4 0-6.3-.2-2 0-.6-.2-.6h-2c-.1-.7.5-.5 1-.8l1.5-1.5c2.4-1.8 3.3-2.2 5.2-4.9 4.1-5.9 6.7-14.4 9.1-21.3a68 68 0 0 0 3.3-22.9 206 206 0 0 0-4.3-44c-1.6-7.1-3-14.3-4.8-21.3-1.7-7-3.9-13.4-5.5-20.2-1.7-6.7-2-7.8-2.5-11.8Zm-1.9 170.6c-.8-.5-1.4 1.5-1.3 1.6.2.3.3-.3.4-.3l1-1.3Zm4.1 10.3c-.3-.3-.4-.8-.8-1-.2 0 0 .5 0 .6.2 2.4.9 5 1.3 7.4.3 2.4.7 6.3 1.2 9.4 1 6.3 2.9 12.5 3.3 18.9l-.6-1-1-2.8c-2-7.5-2.8-15.6-3.8-23.2-1-7.7-.9-5.3-1.2-8-.2 0-.3.5-.3.7-.5 4.3-1.2 8.6-2 13 4.8 17.6 8 35.6 7.2 54-.7 18.3-.3 7-1.2 10.8-1 3.7-1.6 4.2-3 6 0-1.5.9-2.8 1.2-4.2.3-1.4 0-.3-.3-.3-.6.2-2 1.2-2.7 1.5l-5.4 2.4c-3.5 1.4-12 3.3-13.8 6.6-1.8 3.3.9 4.6 3.7 5.4 4.2 1.2 8 1.2 12.2 1 6.3-.4 12-1.6 18.2-2.6 7.7-1.3 14.7-2.6 22.3-4.7 4.6-1.3 15-4.2 17-8.8 1.8-4.6.1-2.8-2.2-3.5-4-1-8.6-.8-12.7-1.2l-6.9.2c.6.6 3.3 3.2 3.2 3.8-.1.6-.5.3-.7.2-.2 0-3.4-2.2-3.7-2.5-11.6-9.5-18.2-27.5-21.2-41.5-1-5-1.6-10.2-2.6-15.2s-1-3.7-1.5-5.6c-.4-2-1.5-14-2.7-15.4-1.1-1.3-.4-.2-.5-.4ZM90.2 154.2c-.4 1.8-1.8 3.4-2.8 5-3.1 5.8-4.8 11-7.2 17-2.3 6.1-5.1 12.6-7.1 19.1 1.3-.6 2.5-1.6 3.8-2.1 2.9-1.3 7-2.3 10.1-1.5 4.6 1 6.4 5.5 8.3 9.2 3.6 1.5 7 1.8 9.7 5 2.7 3.1 4 6.7 3.5 9-.5 2.5-1 .6-1.6.8-.7.2-1.1 1-2 1.1-.1-.7.5-1.1.6-1.7l.1-2.4c0-1-1-2.3-.9-3.3-1.9-1.2-4.2-1.4-6.1-2.3-2-1-4.3-3.9-5.6-6-1.3-2-1.1-3.5-3.7-4.1-6.7-1.6-11.4 3.5-17.1 5.7-5.8 2.1-2.7.3-2.9 2 .9 1.2 1.5 2.5 2.2 3.8.7 1.3.7 2 1.2 2.9 1 1.8 4.5 3.6 6.6 4 3.4.6 7.2-2.3 10.6-3 3.2-.4 6.4.7 9.6.7 2 0 3.7-1 4-2.8.3-1.8.4-1 .7-.4.3.7.4 1.8.5 2.4.1 1.8-.6 6.7-2.5 7.7-1.8.9-1.4.3-2.1.3-3-.1-6.6-1.2-9.6-.6-3.6.8-5 2.9-9.3 1.7a11.8 11.8 0 0 1-8.3-6.1c-2.2-3.6-2.4-5.6-3.4-6.6-1.1-1-1.1-.7-1.2-.2-.2.4.4 1.5.4 2 .6 7 1.7 16.4 4.7 22.8 1.7 3.7 3.5 5 6.2 8 2 2 2 4.1 1.3 6.8-.8 2.7-.4 1.8-1.4 1.4a31.4 31.4 0 0 1-15-18.6c-2.4-8-.9-4.4-1.4-6.6-.6-2.1 0-.5-.3-.4l-.8 2.7c-1.9 8-3 16.8-2.5 24.9.4 8.1 1 7 2 10.3 1.8 1 3.7 1.7 5.4 2.6a69 69 0 0 1 10.3 6.6c3 2.4 3.8 3 3.8 4.7 0 1.8-.8 4-2.7 4.8-5.4 2.1-8.7 1.7-14.3.9-5.7-1-12.7-2.2-18-4-5.2-1.7-5.8-2.5-8.7-3.6-3-1-6.9-2-10.2-3.3a73 73 0 0 1-15.2-7.8c-4.5-3.1-6.9-5.2-5-8.8 1.3-2.6 2.5-3.8 5.5-4.2 3.1-.4 10.6.6 14.8 1.1 4.1.6 7.3 1.7 8.4 1 1.1-.7 2.4-3 2.7-3.4 6.4-9.4 13-22.5 17.3-33 0-.4.9-2.3.7-2.5-1.5 1-2.9 2.1-4.6 3a28 28 0 0 1-15.3 3c-4.4-.2-8.6-1.8-13-2.1-6.8-.4-14.5 0-18.7 6-4.3 6-1.7 3.1-2.7 4.5-.4 0-1.1-.4-1.2-.7-.2-.4 0-2.6 0-3 1.3-7.8 9.8-9.7 16.4-11 4.8-1 9.1 1 13.9 1.2 10.6.5 16.4-3.2 24.2-9.3 1.6-1.2 1.2-1.6-.9-1.8-6.6-.5-12.2 1.8-18.2 4.1-6 2.2-12.2 3-18.1 0-3.6-1.8-3-7.5-1.6-10.6 1.4-3 .9-2 2-1.8v2.2c.2 2.9.8 5.6 2.9 7.8 2 2.2 2.8 2.2 4 2.2 1 0 4-1.2 4.7-1.5 2.9-1.3 5.5-3 8.6-4.1a22.7 22.7 0 0 1 19.6.7c.4-.4 1.6-1.4 1.6-2 0-.7-1.8-1.7-1.2-3a3 3 0 0 1 2-1.8c.6-.2 1 .5 1.6.6 2.7-9.6 6-19 9.5-28.5 2-5.3 4.9-11.8 5.4-17.5.6-5.6 0-.8 0-1 0-.7-1.6-1.9-2.1-2.5a52.4 52.4 0 0 1-5.7-15c-3.7-16-2.1-31.2 1-47.2 4-20 12-38.7 19.7-57.5l2-5.8c2.8-6.6 6.5-12.6 9.2-19.2 1-1.3 4.5-.4 6-.1 6 1.1 12.6 3.6 18.6 5.5a572 572 0 0 1 30.6 10.2c2.3.9 6.4 2.4 8.2 3.9 2.2 1.6.8 3.3.3 5.4-1.5 5.7-2.4 11.6-4 17.3a772 772 0 0 1-13.2 41.7c-4 11-9.6 22-15.6 32.1-7.7 13-20.5 28-34.7 34.7-14.1 6.7-2.8.9-4.3 1.5s-1.9.8-3 .7Zm74.5-130.8c.3-.3-2.2-1.7-2.5-1.9l-6.3-3c-14-6-29-11-44-14.4-3.3-.8-6.6-1.6-10-1.6.4.4 1 .9 1.4 1 3.8 2.1 8.4 3.4 12.5 4.9 13.1 4.9 26.4 9.3 40 13 2.2.7 6 1.7 8.3 1.7l.6.2v.1Zm.3.8c-2.2.2-4.4-.4-6.7-.8-9.4-2-17.9-5.3-27-8.3-9-3-19.8-5.7-28-10.4-.7-.3-1.3-1-1.9-1.3-.5-.3 0-.3-.3 0-2.5 7.8-5.9 15.3-9.1 22.8-4.2 9.6-8 19.2-11.6 29a205.8 205.8 0 0 0-11.2 47.2 91.7 91.7 0 0 0 7.5 42c2.3 4 3.5 3.5 4.8 5.6l-2.3-.4c.4 1 0 2-.1 3-1 4.5-2.9 9.4-4.4 13.7-3.4 9.3-7.4 18.3-10 28-2.8 9.5-.8 2-.6 2.5.5 1 1 .4 1.4.4.5 0 1.4.9 1.4 1.4l14.4-33.3c.3 0 .1.5 0 .6-.3 2.5-1.9 5-2.8 7.2-2.2 5.4-4 10.9-6.2 16.3-2 5.4-3 6.4-3.7 9.2-.7 2.8-.2.4 0 .4.4-.5 1.5-1 1.8-1.4a371.6 371.6 0 0 0 8-19.7c1.4-4 2.5-8.1 4.1-12 1.6-3.8 4.1-7.9 6.3-11.8.2-1-1.6-.9-1.5-1.8 1.2.3 2-.3 3.2-.5 2.1-.4 3.6-.3 5.8-1.2 7-3 14.3-10 20.1-14.9 8.6-7.4 15-19 20.2-28.8 5.3-9.8 9.6-20.2 13-30.7 2.1-7 4.7-14.2 6.7-21.1 2-7 3-12.5 4.8-18.6 1.8-6.2 2.5-8.1 4-12v-.3ZM65 201.8c-.2-.7-.3-1.8-1.3-1.6l1.3 1.6Zm-2.5 67a39.3 39.3 0 0 1-3.2-8.2c-2.5-10-1.3-22.9 1-33 2.5-10 2.5-6.3 2-9.6s-.9-4-1-6c-.1-2.1.2-3-.2-3-.4-.2-1.1.7-1.3 1-1 2.1-1.8 5.7-2.8 8.1a179 179 0 0 1-12 24 41.4 41.4 0 0 1-11.2 13.3c-.7.4-1.5.8-2.3 1 .8-1 2.2-1.8 3-2.8.8-1 .3-.2.2-.4-2.6.1-5.2-.4-7.8-.7-2.7-.3-1.3 0-1.9 0-3.9-.4-11.8-2.8-15.2-.6-2.2 1.6-1.8 3.4-.3 5.3 4 5 14 9.1 20.2 11.5 10.8 4 22.3 7.4 33.6 9.8 4.4.9 12.3 2.6 16-.6 1.5-1.2 1.2-1.8 0-3.2-2.5-3-12.7-8.9-16.5-10.5-3.8-1.6-.3-.2-.6-.1.6 1.5 1 3.1 1 4.7h-.7Z"/>
  <path fill="#000" d="M59.1 200.6c-.4.1-.4-.1-.5-.3-.8-1-1.5-2.3-2.4-3.3a33 33 0 0 0-4-4c-3-2-9.4-.4-13-.5-5.3-.2-9.3-2.1-14.8-1.2-3.3.6-7.2 1.8-9 4.8-.6 1-.4 1.4-.6 2.4 0 1-1-.2-1.3-.3-.8-.7-2.3-3.9-2.4-4.8-.4-1.6 0-2.5 1-3.8 2.3-3 8.4-3.8 12-3.6 3.8.2 5.2 1 7.8 1.2 3.8.2 7-.4 10.8-.7 7.6-.6 12.3 6.4 15.3 12 .4.8 1.3 1.3 1 2.2h.1ZM241.5 149.1c-.6.6-1.8 1.2-2.7 1a7 7 0 0 1 1.3-3.7c.7-1 1-.9 1.4-1.5a39.1 39.1 0 0 0 5.5-13.7c-.3-2.6-.4-1-.4-1.6.1-1.9 1.3-4.3 1.3-6.4 0-4.1.9-7.6 1.3-11.7.6-6.5.4-13.3 1-19.9.6-6.6-1.2-3.9-1.5-6.4-.3-2.5 0-2.3 0-3.4-.4-5-1-10-3.3-14.6-1.8-.6-3.8-.3-5.6-.4-1.8-.1-3.6-.6-5.3-.7-1.8 0-2.6.3-4 .2-1.3 0-3.9-.5-5.8-.6-5.7-.4-11.4-.3-17.2-.5-8.6-.4-17.1-1.7-25.7-2.8-.8-.1-1.7-1.1-.8-1.7 1-.5 2.4 0 3.6 0 4.6.4 9.3.3 14 .6 11.4.4 23 .5 34.3 1.4 4 .4 8 1.1 12 1.3.3-3.3-.6-6.6-.8-9.9-.3-4-.4-6.8-1.3-11-1.2-5.9-2-11.7-3.1-17.6-1.2-5.8-.8-4.7-1.3-7 .3 0 .3.3.4.6.6 2.2.7 4.8 1.4 7 2 7.4 3 15 4.8 22.5 1.8 7.4 3.9 10.5 3.7 16 0 .5 1.5.7 1.6 1.4.1.8-1.2.6-1.8.9-1 1.3 1.2 9.9 1.5 12 .6 5 .4 10 .8 15 .4 5.1 1.9 10.5 2.2 15.4.4 5-.9 7.5-1.5 11.3-.3 2.3-.4 6.3-1.6 8.5-1.2 2.2-2 3-2.8 5.2-1 3.2-1.2 7.7-2.5 10.4s-2.9 4-3.2 4.4Zm3.7-84.5c-4.9-.7-9.8-1.1-14.8-1.6-11.6-.6-23.3-.9-35-1.2-3.5 0-7 0-10.4-.3-1 0-2.5-.8-3.5 0 1.7.4 3.4.6 5.2.8 11.8 1.6 23.3 1.9 35 2.4 4.2.3 8.3.5 12.5.5 4.2 0 7 .8 10.3 1h1l-.3-1.6Zm4.8 1.5c-.3-.5-.8-.6-1.2-.8v.8h1.2ZM224.6 16.8c0 .2-.4.2-.6.3-2.7.9-5.7 1.1-8.3 1.9-3 .8-5.9 2.3-9 3-3 .5-6 0-8.7.3-2.7.4-8.3 3.7-11.6 3.7-3.3 0-2-.4-3-.4-2.5-.1-3.6 0-6-.5-2.5-.4-1.5.2-2-.5-.6-.8-.6-1 0-1 .5 0 1.4.4 2.2.5 2.2.2 4.5-.7 6.7-1 2.2-.4 4.4-.2 6.5-.4 4.5-.4 8.8-1.6 13.2-2.5 4.3-.9 7.6-1 11.5-1.5 3.1-.5 6.1-1.4 9.2-2h-.1Z"/>
  <path fill="#000" d="M218.3 106v.9c.6 2.6 1 7 4.8 6.5.4-.4.6-2.6.5-3.2-.2-1.4-1.6-1.8-1.8-3 1 .7 2.2 1.3 2.5 2.7.4 2.1 0 4.3-2.6 4.6-2.6.3-1.8 0-2.3 0-1-.3-2.4-3-2.5-4-.1-1-.3-4 1.3-4.4l.1-.1ZM201.3 128.6l-1-2c-2-2-3-4.8-4.2-7.3-4-8.5-5.8-16-8.4-24.9-2.7-8.8-1.6-4.4-2-6.7l3.8 12.3c1.5 6.8 4.7 12.7 7.5 19 .8 1.8 1.6 4.2 2.4 5.7.9 1.6 1.9 2.4 2 4ZM233 154.9c.5.4-2.2 1-2.5 1.1-1.4.1-3.8-.3-5-.9l-3.8-2c-3.8-2-7.7-5.2-10.7-8.4-.6-.6-1.3-1.4-1.6-2.2 2 2.3 3.8 4 6.4 5.7 2.5 1.7 2.8 2 4.5 3.3 3.9 2.8 8 3 12.6 3.4ZM181.5 63.2c1.2 6.8 2.6 13.6 3.2 20.5L183 77c-.5-4.6-1.6-9-1.9-13.7h.5ZM202.2 76l-.8-1.4c-.1-2.3 1.7-1.8 3.1-.7 1.4 1 2.1 2 2.2 3.4 0 1.4-1.6 2.7-2.5 1.7-.8-1 .7-1.5.7-1.8.3-1.3-.7-4.3-2.3-3.7-1.6.6-.6 1.6-.5 2.5ZM198.8 98.7c.3-.3 1 1.3 1.3 1.3.3 0 .4-.5.4-.6.1-1.3-1.3-3-2.7-3 0-.3.2-.3.4-.3 2.3-.4 4.9 2.7 2.7 4-2.3 1.4-2.3.3-2.1-1.4ZM221 140.2l-.2-.8 1.2.5c0-1-.9-2-1.8-2.4l-1 .4c-.4-.3.9-1 1.2-1 1.2 0 2.4 1.4 2.3 2.5-.2 1.1-1.2 1.1-1.7.7ZM193.8 92.3c-.7 1.2.6 3.7.6 1.2h.6c.8 1.4-1.9 2-2.2 1-.3-1 0-2.2 1-2.1ZM209.2 139.7c-1-.4-2-1.5-2.3-2.6.7 1 1.4 1.8 2.3 2.6ZM206.4 136.1c-.3-.1-.5-.7-.5-1 .3.2.5.6.5 1ZM250.7 238c.2.1.5.8.6 1 2.4 4.7 3.7 10.6 5.4 15.6 1.2 3.7 3 6.7 5.5 9.8a50.5 50.5 0 0 1-9.2-14.5c-1.8-4.3-2.5-7.8-3.3-11.7l.8-.3c.1 0 .2 0 .3.2ZM265.6 280l6.2-1.7c3.6-1.5 8-2.9 11.5-4.5 1-.4 3.2-2 3.5-2.8.3-.8-.9-.1-.5-.6s1 .3 1.1.6c.6 1.8-3 4.2-4.4 4.8a62 62 0 0 1-11.3 3.4c-3.6.8-4 .9-6.1.8ZM247 270.9c-.1-.6-.6-1.2-.6-1.8-.1-2.5.2-6.8 1-9.2 1-2.4.6-1.3 1-1.3.5.1 1.2 3.6 1.2 4.1 0 1.8-1.3 6.3-2.2 7.8-1 1.5-.2.4-.5.3ZM101.3 144c-.3.3-5.1 2.4-5.5 2.5-2.2.4-3.3-.3-1.3-2 2-1.5 2.7-1.2 4.3-2 2.4-1.1 10.5-6.8 11.4-9.2.8-2.3 0-1 .4-1.5.4-.6 2-2 2.7-2.8 1.2-1.5 2-3 3-4.5 2.2-3.2 5-5.8 7.1-9.2 2.1-3.3 5.4-9 8.3-13.3 2.9-4.4 1.7-2 2.1-3 .5-1 .5-3 .9-4.4.4-1.4 2.4-4.5 3.2-6.2 1.8-4.2 2.2-6.8 3.1-11 1-4.4 2.4-5.1 3.6-7.5l2-5c.8-1.7 2-3.3 2.7-5 1.3-2.9 1.8-5.8 2.7-8.7 1-2.9 2.9-6 4-9.2-1.3.2-2.7.6-4 .6-2 .2-4.7 0-6.8-.1a567 567 0 0 0-17.1-.5c-6.4 0-12.9.2-19.3-.1-4.7-.2-9.3-.8-14-1.3-1-.2-5.9-.3-6.3-1-.4-.7-.3-1.2.4-1.4 1.4-.6 2.4 0 3.7 0 5.2.3 10.8 0 16 0 13.4 0 26.9-.4 40.2 1.2 2 .3 5.3.2 7 1.4 1.6 1.3.2.6.4.6l.9-3.2 2.7-7c-.4 1.7-1 3.5-1.6 5.3-2.6 7.7-5.6 16-7.9 23.8-1.5 5.3-2 10.9-4.8 15.6-.8 1.4-2.1 2.8-3 4.2-1.2 2.6-2 5.8-3 8.4-2 5-4.8 9.5-7.2 14.3-2 4.2-3.5 9-5.4 13.2-1.9 4.4-4.3 6.4-7.1 10-3 3.4-2.5 3.6-4.3 5.4-2.2 2.1-4.9 3-7.2 5-2.2 2-4.5 5.6-7.1 7.6Zm54.3-102.3c.1-.5-.3-.5-.6-.7-1.3-.7-3.6-.8-5.2-1-17.6-1.8-35.4-.9-53-.6-1.4 0-3 0-4.3-.2-1.3-.1-2.3-.6-3.6-.2 0 .4 0 .3.3.4.4.2 1.3.2 1.8.3l9.6 1c11 .9 22.3.4 33.5.6l4.4.2c4 0 7.7.4 11.6.5 3.9 0 3.7-.3 5.6-.3ZM148.6 23.3l-4-1c-1.2-.3-3.6-1.3-5.3-1.6-4.3-.8-8-.8-12.2-2.8-1.5-.8-3.3-2.2-4.9-2.6-3.3-.9-9-.8-11.7-2.3-2.7-1.5-1.6-1.3-2.4-1.8-2-1.2-3.1-1.6-5-3.1-1.7-1.6-2-1-1.4-2.4.4-.3 2 1.4 2.3 1.7 1.3.8 4 1.4 5.7 2 3.4 1.2 6.5 3.1 10 4.3 3 1 6.1 1.7 9 2.6 5.3 1.6 10 4 15.3 5.6 5.3 1.5 2.9.5 4 1 1.2.4.5.1.5.4Z"/>
  <path fill="#000" d="m113 88.2-.6.3c-1.6 1.4-3.2 2.4-4 4.3-1 2-.6 1-.6 1.4 0 .3.7 1.7 1 1.8.5.1 3-1 3.4-1.5.6-.9.5-2 1.3-2.7.6 2.2-2.1 5-4.3 4.9-2.1-.2-3.1-2-3.3-3.3 0-1.3 1.1-3.1 1.9-3.8.8-.6 4-2.6 5-1.4h.1ZM72.4 109.3c-.3 0-.2-.4-.2-.6v-2.8c0-1.7 0-1.7-.3-3.3-.3-1.6.4-5.2.5-6.6 1-10.4 3.8-19.8 6.1-30l.8-2.2c-1 5-2.2 9.9-3.4 14.8-1.3 5.2-1.6 8.9-2.1 14.3-.4 3.7-1 7.4-1 11 0 .7-.3 1.5-.4 2.2v3.2ZM85.7 147.4v.3c-2.2.3-5.5-1.8-6.5-3.5-1.4-2-4-5.8-4.8-7.9-.9-2-1.3-3.7-1.8-5.2-.4-1.4-1.2-4.4-1.2-6.5l1.2 5.3 4 8.8c1.8 4.3 5.2 6.2 9 8.7ZM88.2 39.9l-4 11.2c-1.3 2.4-2 5.2-3.2 7.6-1.1 2.4 0 .5-.3.5.8-3.7 2-7.2 3.4-10.8.8-2.2 1.8-4.9 2.8-7 1-2 .8-2 1.3-1.5ZM141.3 61.7l-.6 1.6c0 .5 1 0 1.2-.2 1-.8 1.4-2.4 1-3.5 1.7.6 1 3.8-.3 4.5-1.2.8-4.4-1.8-1.3-2.4ZM103.8 125.3c-1 1-3.1-.6-1.3-1.2l-.2 1c.1.8 1.2-1 1.2-1.4.1-.3.2-1 0-1.4l-.8-.6c2 0 2.2 2.5 1 3.6ZM144.2 54.2c-.8 0-1.9.6-1.7 1.4l1.3-.3c0 1.9-2.8.1-2-1 .8-1 2.4-1.2 2.4-.2ZM73.6 120c-.2 0-.4-.4-.4-.6-1-2.3 0-4.7-.4-7.1l.3 1.8c-.3 2.1-.2 4 .5 6ZM55.7 256.9 55 254c-1.2-6.5 0-15.3 1.6-21.7l1.2-4c.5-1 .3-.5.6-.5 1 .1.8 1.1.7 1.9-.5 5.3-2.3 10.8-3.3 16-.8 3.8-.7 7.3 0 11ZM14 253.5c-1-.3 0 1.1.3 1.4 2.7 3.4 10 6 13.7 8.8l5 2c-1.8 0-3.5-.8-5.2-1.4a62.5 62.5 0 0 1-11.7-5.5c-1.4-.9-4-3.4-3.2-5.2.8-1.8 1-.8 1.1 0v-.1ZM46.4 245c.4 0 0 1.5 0 1.8-.5 2.2-1.5 3.5-3 5.2-1.6 1.7-3.6 3.4-4 3.3-.5-.2-.2-.3-.2-.5 0-1.2 3.2-6.1 4.1-7.2 1-1.1 2-1.9 3.1-2.6Z"/>
  <mask id="a" width="5" height="14" x="94" y="98" maskUnits="userSpaceOnUse" style="mask-type:luminance">
    <path fill="#fff" d="M98.1 98.2h-3.7v13.5h3.7V98.2Z"/>
  </mask>
  <g mask="url(#a)">
    <mask id="b" width="3" height="4" x="95" y="106" maskUnits="userSpaceOnUse" style="mask-type:luminance">
      <path fill="#fff" d="M95.4 106.3H98v2.7h-2.6v-2.7Z"/>
    </mask>
    <g mask="url(#b)">
      <path fill="#000" d="M95.7 107.7c0-.2 0-.4.2-.5l.6-.2c.2 0 .4 0 .6.2l.2.5-.2.5-.6.2c-.2 0-.4 0-.6-.2a.7.7 0 0 1-.2-.5Z"/>
    </g>
  </g>
</svg>
