<svg xmlns="http://www.w3.org/2000/svg" fill="none" viewBox="0 0 770 225">
  <path fill="#FF9C27" d="M61.4 217s-8-69 16.7-117.3c0 0 8 6 18.1 20.8 0 0 33.5-13.4 57.7 3.3 0 0 10-16.7 20-24 0 0 24.2 91 14.8 117.2H61.4Z"/>
  <path fill="#FF9C27" d="M188.4 216.3H61.8a284.1 284.1 0 0 1-.4-46.7v-1.1a301.7 301.7 0 0 1 1.2-11.5c2.2-18.7 6.8-39.1 15.7-56.7a99 99 0 0 1 17.5 20.3l.3.3.3-.2c.1 0 3.3-1.2 8.4-2.5l1-.2a96.9 96.9 0 0 1 14.7-2.2 70 70 0 0 1 18.3 1.6c2.5.6 5 1.5 7.5 2.5l1 .5c2.1 1 4.2 2.2 6.3 3.6l.4.3.3-.4c.1-.2 9.7-16.1 19.4-23.6a754 754 0 0 1 12.1 56.3l.2 1 1 6.5.2 1 .4 3 .2 1 .7 5.4.2 1c2 16.9 2.6 32.2-.3 40.8Zm1.3-41.4v-.3l-1-6.2v-.6c-4.6-32-13.6-66.1-14.2-68.4l-.2-.7-.6.4c-9 6.7-18.3 21-20 23.8a42 42 0 0 0-7-3.8 49 49 0 0 0-8.1-2.7l-.3-.1a57.3 57.3 0 0 0-17.8-1.5l-1 .1-6.8.7-1 .2c-7.9 1.3-13.8 3.3-15.3 3.9a93.7 93.7 0 0 0-18-20.6l-.4-.4-.3.6C53.1 147 60.8 216.2 60.9 216.8v.5h128.2l.1-.3c3.2-8.8 2.6-24.8.5-42Z"/>
  <path fill="#FF5E00" d="M188.5 174.5c-1.7.8-3.5 1.4-5.2 1.9-.2 0-.4 0-.7.2-1.1.3-4.2 1.2-5 .6l-.2-.4c0-.6.6-1.4 1-2 1-1 2.5-1.8 4-2.6l.8-.4 4.6-2.6.7 5.3ZM187 164.1c-2 1-4.1 1.8-6.2 2.5l-1.6.6c-1.7.6-3.5 1-3.9 0-.4-1.1 1-2.7 2.2-3.7 2-1.7 5.2-4.2 8.5-5.9l1 6.5ZM72.6 176.5l-.1.4c-.8.7-4 0-5-.2l-.7-.1A37 37 0 0 1 61 175l.3-5.5c1.7 1 3.5 1.7 5 2.4l1 .4c1.4.6 3 1.2 4 2.3.5.4 1.1 1.2 1.2 1.8ZM74 166.8c-.4 1.1-2.2.8-4 .3l-1.5-.5c-2.2-.6-4.5-1.2-6.7-2l.7-6.5c3.4 1.4 6.7 3.6 9 5.2 1.4.9 2.8 2.4 2.5 3.5ZM146.3 120c0 4.5 0 9.6-1.9 14-.3 1-1.1 2.5-2.4 2.5-.7 0-1.4-.5-1.8-1.2-.4-.7-.6-1.5-.8-2.4-.9-5.1-1.1-10.3-.6-15.5 2.5.6 5 1.5 7.4 2.5ZM127.3 137.5c-.6 1.2-1.6 2.5-2.7 2.3-.5-.1-1-.5-1.4-1.2-2-2.6-2.1-6.4-2.2-9.3l-.5-13.5a70 70 0 0 1 8.8.1v2.4c.3 6.6.6 13.3-2 19.2ZM111.4 136c0 .5-.2 1-.4 1.2-.3.4-.8.6-1.4.6-1.3 0-2.3-1.1-2.8-2.2-.5-1.2-.6-2.7-.6-4l-.4-13.6a96 96 0 0 1 6-1.2v4.2c.1 4.9.2 10-.4 15Z"/>
  <path fill="#000" d="M140.8 185.8a.5.5 0 0 1-.5-.5c0-.2.2-.5.5-.5l25.7-4.4c.3 0 .6.2.6.4 0 .3-.1.6-.4.6l-25.8 4.3ZM141.6 190a.5.5 0 0 1-.5-.4c0-.3.2-.6.4-.6l22.4-2.2c.2 0 .5.2.5.4 0 .3-.2.6-.4.6l-22.4 2.2ZM142 193.5a.5.5 0 0 1 0-1l19.3-.4c.3 0 .5.2.5.5s-.2.5-.5.5l-19.4.4ZM107.3 186c.2 0 .4-.2.5-.5 0-.2-.2-.5-.4-.6l-25.8-4.3c-.3 0-.5.1-.6.4 0 .3.1.5.4.6l25.8 4.3ZM106.5 190.2c.3 0 .5-.2.5-.4 0-.3-.1-.6-.4-.6L84.3 187c-.3 0-.6.2-.6.4 0 .3.2.6.5.6l22.3 2.2ZM106.2 193.7c.3 0 .5-.3.5-.5 0-.3-.2-.5-.5-.6l-19.4-.3c-.3 0-.5.2-.5.5s.2.5.5.5l19.4.4ZM90.8 154.8h-.3c-5.3-2.8-6-9.4-6-9.7 0-.3.2-.5.5-.5.2 0 .5.1.5.4 0 0 .6 6.3 5.5 8.8.2.2.3.5.2.7 0 .2-.3.3-.4.3ZM86.7 156l-.3-.1c-4.4-2.6-5.4-6-5.4-6.1 0-.3.1-.5.4-.6.2 0 .5 0 .6.4 0 0 .8 3 5 5.4.2.2.3.5.1.7 0 .2-.2.3-.4.3ZM84 158c-3.5-.8-5.7-5-5.8-5.2-.1-.2 0-.6.2-.7.3-.1.6 0 .7.2 0 0 2.1 4 5 4.7.4 0 .5.3.5.6 0 .2-.3.4-.5.4ZM102.4 167.6c0 .3-.3.5-.6.4a.5.5 0 0 1-.3-.6s1-6.3-1.6-9.5v-.1l-.8-.7c-1-.7-2.1-1.1-3.5-1.1-1.9 0-3.3.5-4.2 1.7-.5.6-1 1.4-1.2 2.2l-.2 1c-.5 3.1.2 6.5.2 6.5 0 .3-.1.6-.4.6h-.1a.5.5 0 0 1-.5-.4c0-.3-1.5-7 1.4-10.6 1.2-1.4 2.9-2 5-2a6.8 6.8 0 0 1 4.7 1.8l.4.5c3 3.5 1.8 10 1.7 10.3Z"/>
  <path fill="#000" d="M99 157a6.9 6.9 0 0 1-3.6 3.4 6 6 0 0 1-5.2-.5c.3-.8.7-1.6 1.2-2.2 1-1.2 2.3-1.8 4.2-1.7 1.4 0 2.5.4 3.5 1Z"/>
  <path fill="#000" d="M100 156.9v.2a7.4 7.4 0 0 1-4.3 4.1 6.8 6.8 0 0 1-5.4-.3l-.6-.3a.5.5 0 0 1-.1-.7c.1-.2.4-.3.6-.1l.3.1c1.4.8 3.2 1 4.8.4a6.5 6.5 0 0 0 3.5-3.1l.3-.5c0-.2.2-.3.4-.3h.2c.2.1.3.3.3.5ZM156.6 154.8a.5.5 0 0 1-.4-.3c-.2-.2 0-.5.2-.7 4.8-2.5 5.4-8.7 5.5-8.8 0-.3.2-.5.5-.4.3 0 .5.2.5.5s-.7 6.9-6 9.6h-.3ZM160.7 156c-.2 0-.4-.1-.5-.3 0-.2 0-.5.2-.7 4.1-2.3 5-5.4 5-5.4 0-.3.3-.5.6-.4.3 0 .4.3.4.6 0 .1-1 3.5-5.5 6.1h-.2ZM163.3 158a.5.5 0 0 1-.1-1c3-.6 5-4.6 5-4.7.2-.2.5-.3.8-.2.2.2.3.5.2.7-.1.2-2.4 4.4-5.8 5.2h-.1ZM158.2 167.6c-.1.3-.4.5-.6.4a.5.5 0 0 1-.4-.6s1.4-6.6-1.2-9.8h-.1l-.8-.8c-.9-.6-2-.9-3.3-.8a5.5 5.5 0 0 0-5.5 4l-.3 1c-.7 3 0 6.4 0 6.4 0 .3-.2.6-.5.6a.5.5 0 0 1-.6-.4c0-.2-.7-3.9.3-7.3a8.8 8.8 0 0 1 1.5-3c1.2-1.5 3-2.3 5-2.3 2.2 0 3.9.6 5 2 3 3.6 1.5 10.3 1.5 10.6Z"/>
  <path fill="#000" d="M155.1 156.8c-.8 1.7-2.2 3-3.8 3.6-1.6.6-3.5.4-5-.4.3-.8.6-1.5 1.2-2.1 1-1.3 2.4-1.9 4.3-2 1.3 0 2.4.3 3.3 1Z"/>
  <path fill="#000" d="m156.2 157-.3.5a7.9 7.9 0 0 1-4.3 3.8 7.1 7.1 0 0 1-6.2-.7.5.5 0 0 1-.1-.7c.2-.2.4-.2.6-.1l.4.2c1.5.8 3.4 1 5 .4a6.9 6.9 0 0 0 4-3.8c0-.3.3-.4.6-.3.2.1.4.4.3.7ZM129 190a.8.8 0 0 1-1.6 0c0-.5.4-.9.8-.9.5 0 .9.4.9.9ZM129 194.6c0 .4-.3.8-.8.8a.8.8 0 1 1 .9-.8ZM131.5 192.3c0 .5-.3.9-.8.9a.8.8 0 1 1 .8-.9ZM118.6 190c0 .5.3.9.8.9a.8.8 0 1 0-.8-.9ZM118.6 194.6a.8.8 0 1 0 1.6 0 .8.8 0 0 0-1.6 0ZM116 192.4c0 .4.4.8 1 .8a.8.8 0 1 0-1-.8ZM129.2 178.9c-.3-.6-.8-1-1.5-1l-7-.2c-.7 0-1.2.3-1.5.8-.3.5-.3 1.2 0 1.7l3.9 5.7v18a.5.5 0 0 0 1 0v-18l4.8-5.3c.4-.5.5-1.1.3-1.7Z"/>
  <path fill="#FBFBFB" d="M80.8 107.8c-.5-.6-1.4-.6-1.8.1-1.7 3.7-3.1 11-2.9 14.2 0 .5.1 1 .4 1.4.6.7 1.7.7 2.6.7l5.9-.5c.7 0 1.4 0 2-.4.6-.5 1-1.5.9-2.4 0-.8-.4-1.7-.8-2.5-.5-1.2-4-7.8-6.3-10.6ZM170 107.8c.5-.6 1.3-.6 1.7.1 1.7 3.7 3.1 11 2.9 14.2 0 .5-.1 1-.4 1.4-.6.7-1.6.7-2.6.7l-5.9-.5c-.6 0-1.4 0-2-.4-.6-.5-1-1.5-.9-2.4.1-.8.5-1.7.8-2.5.5-1.2 4-7.8 6.4-10.6ZM93.8 157.6a.8.8 0 1 1-1.6 0 .8.8 0 0 1 1.6 0ZM150.7 157.6a.8.8 0 0 1-1.6 0c0-.5.3-.8.8-.8.4 0 .8.3.8.8Z"/>
  <mask id="a" width="125" height="68" x="2" y="0" maskUnits="userSpaceOnUse" style="mask-type:luminance">
    <path fill="#fff" d="M2.7 0h124.1v67.7H2.8V0Z"/>
  </mask>
  <g mask="url(#a)">
    <path fill="#FBFBFB" d="M70 2.2c-11.3-.5-26-.4-39 5.1a41.3 41.3 0 0 0-25 28c-1 4.6-.8 8.8.5 12.3 3.2 8.1 12 12 17 13.7 11.4 3.8 23.8 3.8 36.5 3.4l28-1.2c8.1-.4 16.6-.8 24-4.3 7.9-3.7 13-10.6 13.1-17.6 0-4.3-1.6-8.8-5.2-14-4-6-16.2-24-50-25.4ZM23 62.9c-5.3-1.7-14.7-6-18-14.7A23.6 23.6 0 0 1 4.3 35 43 43 0 0 1 30.4 5.8 92.3 92.3 0 0 1 70.1.5c34.5 1.5 47.1 20 51.2 26.1a26.4 26.4 0 0 1 5.5 15c-.1 7.7-5.6 15.2-14 19.1-7.8 3.6-16.4 4-24.7 4.5a1433.8 1433.8 0 0 1-37.6 1.3c-9.5 0-18.8-.7-27.5-3.6Z"/>
  </g>
  <path fill="#FBFBFB" d="M44.8 40.1H88c.5 0 .9-.3.9-.8s-.4-.9-.9-.9H44.8c-.5 0-.9.4-.9.9s.4.8.9.8Z"/>
  <path fill="#FBFBFB" d="M82.2 40.1a.8.8 0 0 0 .7-1.3L71.7 23.5a.8.8 0 0 0-1.2-.1c-.3.2-.4.8-.2 1.1l11.2 15.3c.2.2.5.3.7.3ZM45.6 39.8c-4.6-.4-9.2 1.7-13 4.4a18.7 18.7 0 0 0-5.9 5.8c-1.3 2.3-3 5.8-1.8 8.2 5.5-.3 9.9-3.7 13.4-6.6 3.5-3 6.4-7.3 7.3-11.8v-.1c-1-4.5-3.8-8.9-7.3-11.8-3.5-3-8-6.3-13.4-6.7-1.2 2.5.5 6 1.8 8.3 1.4 2.4 3.6 4.2 5.8 5.8C36.4 38 41 40 45.6 39.7Z"/>
  <path fill="#FBFBFB" d="M70.2 52.2c.1 0 .3 0 .5-.2 1.4-1 2.6-2.3 3.8-3.5l2.2-2.2 5-5.2c.4-.4.9-1 1-1.7a.8.8 0 0 0-1.6-.3 197.7 197.7 0 0 1-5.5 6l-2.3 2.2c-1.1 1.2-2.3 2.4-3.6 3.4-.4.2-.5.8-.2 1.1.2.3.4.4.7.4ZM72 40c.2 0 .4-.2.5-.3.4-.2.5-.8.2-1.1l-11-14.8a.8.8 0 0 0-1-.2c-.5.3-.5.8-.3 1.2l11 14.8c.1.2.4.3.6.3ZM62 40c.3 0 .6-.2.7-.4.3-.3.3-.8 0-1.1A40 40 0 0 1 56 32L52 26.6a.8.8 0 0 0-1.4 1l4.2 5.4 2.2 2.6c1.4 1.6 3 2.9 4.6 4.2l.5.2Z"/>
  <path fill="#FBFBFB" d="M48.7 48.7h.2c2-.4 3.5-1.6 5-2.7 2.6-2 5.2-3.8 8-5.6.3-.2.4-.7.2-1.1a.8.8 0 0 0-1.2-.3l-8 5.6c-1.4 1-2.8 2.1-4.3 2.4-.5 0-.8.5-.7 1 0 .4.4.7.8.7ZM59.3 51l.5-.1a15 15 0 0 0 2-2l.7-.6c1.2-1.3 2.6-2.4 4-3.4a26 26 0 0 0 5.9-5.4c.2-.4.1-1-.2-1.2a.8.8 0 0 0-1.2.2c-1.4 2-3.4 3.5-5.5 5-1.4 1.1-3 2.3-4.2 3.6l-.8.8c-.5.6-1 1.2-1.7 1.6-.4.3-.5.8-.2 1.2.2.2.4.4.7.4ZM91 35.3a2.3 2.3 0 1 1 4.7 0 2.3 2.3 0 0 1-4.6 0Zm-5.3 16.1c0 .4.2.7.4 1 .6.7 1.7.5 2.6.3 7.2-2 14.2-4.7 20.8-8l1-.7c.7-.7.7-1.8.3-2.8-.3-.9-1-1.6-1.7-2.3l-4.2-4.4a81 81 0 0 0-15.2-12.1c-3-2-3.8 3.1-3.8 4 0 1.6.3 3.3.6 4.9.8 4.9.6 10-.4 14.8-.4 1.7-.6 3.5-.4 5.3ZM115.5 100.4c-.8.4-1.3.8-1.6 1.3a2 2 0 0 0-.3 1.7c.2.5.7 1 1.4 1.2.7.3 1.5.3 2.3.4 1.1 0 2.5 0 3.6-.7.8-.4 1.7-1.4 1.6-2.4 0-1.2-1.3-2-2.4-2.2l-1.4-.1c-1.2 0-2.3.3-3.2.8Zm1.7 6.4c-1 0-2-.1-3-.5a4 4 0 0 1-2.3-2.4c-.3-1-.1-2.2.5-3.1.5-.8 1.2-1.5 2.2-2 1.7-1 3.7-1.3 5.9-.9 1.7.3 3.7 1.7 3.8 3.8.2 1.7-.9 3.4-2.5 4.2a9 9 0 0 1-4.2.9h-.4ZM109.9 88.1l-.6-.3a12 12 0 0 0-5.3-.8c-1.3 0-5.3.5-5.3 3.3 0 1.5 1.5 2.6 2.9 3 2.1.6 4.8.5 6.6-.2a4.5 4.5 0 0 0 2.6-2.4 2 2 0 0 0-.2-1.8c-.1-.3-.4-.5-.7-.8Zm-8.8 7c-2.1-.6-4.3-2.3-4.3-4.8 0-3 2.7-5 7.1-5.1 2.4-.1 4.4.2 6 1 .4 0 .7.2 1 .4.6.4 1 .9 1.3 1.4.6 1 .7 2.1.3 3.3-.6 1.7-2.2 3-3.6 3.5a13.5 13.5 0 0 1-7.8.3Z"/>
  <path fill="#000" d="M123.2 205c-4.7 0-9.2-1.9-12.2-5.1a.5.5 0 1 1 .7-.7c2.9 3.1 7.3 5 11.8 4.9 4.2-.1 8.6-2 12-5h.6c.2.3.2.6 0 .8-3.5 3.2-8.1 5-12.6 5.2h-.3Z"/>
  <path fill="#000" d="M130.4 208.4a4 4 0 0 1-.3 0c-2.3-.2-3-2.4-3.5-4 0-.3 0-.6.3-.7.3 0 .6 0 .7.3.5 1.8 1 3.2 2.6 3.4 1 0 2.3-.4 3-1.4.5-1-.2-2.6-1.2-3.3a.5.5 0 0 1-.2-.7c.2-.3.5-.3.7-.2 1.5 1 2.4 3.1 1.5 4.7-.8 1.3-2.3 1.9-3.6 1.9Z"/>
  <path fill="#FFE8CD" d="M701.4 216.7c7.2-8.3 14.8-17.8 14.5-28.8-.2-7.7-4.3-14.7-6.8-22a55.2 55.2 0 0 1-2.4-26.2c1-5.9 2.8-11.6 2.8-17.6-.1-8.6-4.6-17-11.7-22a43 43 0 0 0-11.8-5.5 61.8 61.8 0 0 0-33.4-2.3c-4 1-7.8 2.5-10.7 5.3a26 26 0 0 0-5.2 7.6c-7.6 15.8-9.4 34.5-20.7 47.8-4.6 5.5-10.8 10-13.7 16.5-1 2.1-1.5 4.4-1.9 6.7a45.5 45.5 0 0 0 14.2 40.2l86.8.3Z"/>
  <path fill="#000" d="M655.5 140.5a5.5 5.5 0 1 1-11 0 5.5 5.5 0 0 1 11 0ZM665.4 172c-1.7 0-1.7 2.6 0 2.6s1.7-2.7 0-2.7ZM664.3 177.7c-1.7 0-1.7 2.6 0 2.6s1.7-2.6 0-2.6ZM669.5 175c-1.7 0-1.7 2.6 0 2.6s1.7-2.7 0-2.7ZM651.2 171.3c-1.7 0-1.7 2.6 0 2.6s1.7-2.6 0-2.6ZM650.4 176.2c-1.7 0-1.7 2.7 0 2.7s1.7-2.7 0-2.7ZM645.7 173c-1.7 0-1.7 2.7 0 2.7s1.7-2.7 0-2.7Z"/>
  <path fill="#E7A776" d="M631.4 182.4a7.5 7.5 0 1 1-15 0 7.5 7.5 0 0 1 15 0ZM698.6 185a7.5 7.5 0 1 1-15 0 7.5 7.5 0 0 1 15 0Z"/>
  <path fill="#000" d="M671.4 165c-.3 2.9-5.3 4.8-11.2 4.3-6-.5-10.5-3.3-10.3-6.2.3-2.9 5.3-4.8 11.2-4.3 6 .5 10.5 3.2 10.3 6.2Z"/>
  <path fill="#40362B" d="M688 131.6a9 9 0 0 0-8-4.6h-.1c-4 .1-7.5 3-9.2 6.5a16 16 0 0 0-.2 11.6 30.3 30.3 0 0 0 12 15 8.3 8.3 0 0 0 7.3.1c2.4-1.3 3.8-4 4.5-6.8 1.7-6.5-3.3-16.6-6.4-21.8ZM643.5 92.3c-7.4 1.9-14 6.2-20.7 9.5-5.8 3-11.5 6.2-16.3 10.7-4.2 4-8.1 8.9-8.9 14.6-.2 1.8-.1 3.7 0 5.5a61 61 0 0 0 5.2 25.5 8.4 8.4 0 0 0 3.5 4c2.4 1.1 5.5 0 7.4-2 1.9-2 2.9-4.6 4-7.2 3-7 7-13.8 11.7-20 2.3-2.9 4.7-5.7 6.1-9.1 2.4-5.8 1.4-12.7 4.6-18.1 2.8-4.8 8-7.3 12.6-10.5.6-.4 1.2-.8 1.4-1.5 1.6-3.9-9.2-1.7-10.6-1.4ZM719.3 108.6c5.9 5 9.8 11.9 13 18.9 2.5 5.4 4.7 11.5 2.7 17.1-.7 1.9-1.8 3.5-2.8 5.2-3.2 5.2-6 10.7-8.3 16.3-1.5 3.4-2.8 7-5.6 9.5-2.8 2.4-7.7 3-10 .2-.8-1-1.2-2.1-1.6-3.2-1.2-4-2-8-2.3-12.2-.3-3.7-.2-7.5-1-11.1-.7-3.7-2.3-7.2-3.1-10.8-1.4-6-.6-12.3-.7-18.5 0-6.2-1.4-12.9-6-17a11.8 11.8 0 0 1-2.7-6.3c2.7-2.9 24.1 8.2 28.4 11.9Z"/>
  <path fill="#000" d="M650.6 184c-.5 0-1 0-1.6-.2-2-.5-3.8-2-4.7-4.1-.2-.3 0-.6.2-.7.3-.2.6 0 .8.2a6 6 0 0 0 4 3.5 6 6 0 0 0 5.2-1.2c1.9-1.4 2.5-3.8 3.1-6 .5-1.7.8-3.5 1-5.2l.4-2.8c0-.3.4-.5.7-.4.3 0 .5.3.4.6l-.4 2.7c-.3 1.8-.5 3.6-1 5.3-.7 2.5-1.4 5-3.5 6.7-1.4 1-3 1.6-4.6 1.6Z"/>
  <path fill="#000" d="M665.7 185.7c-.6 0-1 0-1.6-.2a7.3 7.3 0 0 1-4.5-3.4c-1.2-2-1-8-.7-13.6 0-.3.3-.5.6-.5s.5.3.5.6c-.2 3.6-.5 11.1.5 13a6.2 6.2 0 0 0 3.9 2.8c1.6.4 3.5 0 4.9-1 .7-.4 1.5-1.3 1.7-2.7 0-.3.3-.5.6-.4.3 0 .5.3.5.6a5 5 0 0 1-2.2 3.5 7.5 7.5 0 0 1-4.2 1.3Z"/>
  <path fill="#000" d="M657.2 192.7c-.5 0-1 0-1.6-.2-3.8-.8-6.7-4.9-6.4-9 0-.3.3-.6.6-.5.3 0 .5.2.5.5-.2 3.6 2.3 7.2 5.6 8 1.6.3 3.2 0 4.6-1 1.8-1.2 3.1-3.2 3.5-5.4a.5.5 0 1 1 1 .2c-.4 2.5-1.8 4.8-3.9 6.1a7 7 0 0 1-4 1.3ZM686.6 143.1a5.5 5.5 0 1 1-11 0 5.5 5.5 0 0 1 11 0Z"/>
  <path fill="#E6DCD0" d="m238.6 217.3 2.7-110s50.2-40.2 122.6 0c0 0 3.2 83.2 0 110H238.6Z"/>
  <path fill="#B39572" d="M347.5 182.5c-1.5-6-7.3-7.7-12.4-9.7a19.5 19.5 0 0 1-8-5.9c-4.5-5.4-7-12.6-13-16.8a20 20 0 0 0-24.3 0c-5.5 4.7-8.5 11.4-13 16.8a19.5 19.5 0 0 1-8 5.9c-5 2-11 3.7-12.4 9.7a13.2 13.2 0 0 0 6 13.8c17 10.4 68.5 7.8 79 0 4.3-3 7.5-8.4 6.1-13.8Z"/>
  <path fill="#000" d="M282.1 137a6.3 6.3 0 1 1-12.6 0 6.3 6.3 0 0 1 12.6 0ZM334.4 137a6.3 6.3 0 1 1-12.6 0 6.3 6.3 0 0 1 12.6 0ZM310.5 171c-2 0-2 3 0 3s2-3 0-3ZM310.8 177.5c-1.9 0-1.9 3 0 3 2 0 2-3 0-3ZM316.4 173.8c-2 0-2 3 0 3s2-3 0-3ZM293 170.6c-1.9 0-1.9 3 0 3 2 0 2-3 0-3ZM293.4 177c-2 0-2 3 0 3s2-3 0-3ZM287.5 175c-1.9 0-1.9 3 0 3 2 0 2-3 0-3Z"/>
  <path fill="#40270A" d="M328.7 95.2c4.6 12.5 20.5 52.7 37.1 61 0 0 17.9-9.6 11.7-50.3-2-13.4-34.6-14.5-46.1-14.5-2 0-3.4 2-2.7 3.8ZM276 95.2c-4.7 12.5-20.6 52.7-37.2 61 0 0-17.9-9.6-11.7-50.3 2-13.4 34.6-14.5 46.2-14.5 2 0 3.3 2 2.6 3.8Z"/>
  <path fill="#000" d="M293.8 156.2c-1 .8-2 2.3-2 3.5-.1 3 2.7 5.9 4.8 7.8 1.8 1.6 3.4 3 5.6 4.7.2.2 5.2-4.4 6-5.2 2.7-2.1 7-7 3.7-10.3-2.8-2.8-15-3-18.1-.5ZM267 128.5a.7.7 0 0 1-.5-1.2c2.9-3.3 8.2-5.4 12.4-5 .4 0 .7.4.6.8 0 .4-.4.7-.8.7-3.7-.4-8.5 1.5-11.1 4.4l-.6.3ZM336.9 127c-.2 0-.4-.2-.5-.3a14.8 14.8 0 0 0-11.2-4.5.7.7 0 0 1-.8-.6c0-.4.2-.8.6-.8 4.2-.4 9.6 1.7 12.4 5a.7.7 0 0 1-.5 1.1Z"/>
  <path fill="#000" d="M283 190.6c-4.9 0-8-1.3-9.5-4-.2-.3 0-.6.2-.8.3-.1.6 0 .7.2 1.8 3.1 6.2 4.2 13.2 3.2 5.7-.8 9.5-2.9 11.6-6.3 1.9-3 2.7-7 2.6-12.1a.5.5 0 1 1 1 0c.2 5.3-.7 9.5-2.7 12.7-2.3 3.7-6.3 6-12.3 6.8l-4.9.3Z"/>
  <path fill="#000" d="M317.6 189.6h-1.2c-2-.1-8.3-.8-11.5-5-3-4-3.2-9.3-3-12.2 0-.3.2-.5.5-.5s.5.3.5.6c-.1 2.7.1 7.8 2.8 11.3 2.4 3.2 7.1 4.5 10.7 4.7 6 .2 12-1.7 16.1-5.2.2-.2.6-.1.8.1.2.2.1.6-.1.8-4 3.4-9.8 5.4-15.6 5.4Z"/>
  <path fill="#FBFBFB" d="M548.6 216.2c0-1.4 3.5-58.3 32.4-105.7 0 0-20.7-6.4-41.6 12.2 0 0-18.8-16.6-60.6-13.5 0 0 5.1-19.5 0-29.5 0 0-62.1 14.2-44.5 136.9l114.3-.4Z"/>
  <path fill="#000" d="M580.5 110.3a46.4 46.4 0 0 0-41 12.4c-.3-.2-19.5-16.6-60.7-13.4 0-.2 5-19.3.1-29.4l-.1-.2h-.3c-2.7.8-16.5 5.3-28.6 22.5-8.5 12.1-18.7 34.7-18.7 73.8v.3h.3c9 1 23.8-2.8 31.6-6.8 7.3-3.7 27.4-22 31.7-28.8.1-.2.4-.3.6-.2.3 0 .4.3.4.5-1 14.9 9 30.4 24 37.8a68.7 68.7 0 0 0 16 5.6 65.4 65.4 0 0 0 17.3 1.6h.3v-.3c3.9-19.9 11.8-49 27.3-74.8l.3-.4-.5-.2Z"/>
  <path fill="#FBFBFB" d="M465.1 143a6.1 6.1 0 1 1-12.2 0 6.1 6.1 0 0 1 12.2 0ZM535.6 154.2a6.1 6.1 0 1 1-12.2 0 6.1 6.1 0 0 1 12.2 0Z"/>
  <path fill="#000" d="M488.2 182.8c-1.8 0-1.8 3 0 3 2 0 2-3 0-3ZM486.5 190.3c-2 0-2 3 0 3 1.8 0 1.8-3 0-3ZM492.2 188c-2 0-2 3 0 3 1.8 0 1.8-3 0-3ZM477.2 180.6c-2 0-2 2.9 0 2.9 1.9 0 1.9-3 0-3ZM475.7 188.2c-1.9 0-1.9 3 0 3s1.9-3 0-3ZM472.4 183.7c-1.8 0-1.9 2.9 0 2.9 2 0 2-3 0-3Z"/>
  <path fill="#FBFBFB" d="M468.2 109.3c2-3.4 6-14.6 5.8-21.3a52.4 52.4 0 0 0-18.4 21.3h12.6ZM556.7 135.4c4.9-7.7 8.5-12.5 11.4-18.7-14 1.3-19.6 13-19.5 13.7l8.1 5Z"/>
  <path fill="#000" d="m481.5 200.4-1.9-.1a16 16 0 0 1-11.6-9.5c-.2-.3 0-.6.2-.7.3-.2.6 0 .8.2a15 15 0 0 0 10.8 8.9c4.5.6 10.5-1.4 14.3-5a.5.5 0 1 1 .7.8 20.6 20.6 0 0 1-13.3 5.4ZM489.4 165.5a46.7 46.7 0 0 0-7.4 8.3c-.3.4-.1 1 .3 1a30 30 0 0 0 8.2 1.8c.5 0 .8-.4.8-.8-.3-3.4.1-6.4-.7-10a.7.7 0 0 0-1.2-.3Z"/>
  <path fill="#000" d="M480 200a.5.5 0 0 1-.5-.5c0-5.4 2.6-18.9 6.9-25.8.1-.2.5-.3.7-.1.3.1.4.5.2.7-4.2 6.7-6.6 20-6.7 25.2 0 .3-.3.5-.6.5ZM419 148.4a.4.4 0 0 1-.4-.3l.3-3.4c0-.2.2-.4.4-.4s.4.2.4.4l-.4 3.4c0 .2-.1.3-.3.3ZM401.5 152.7l-.3-.1-2.3-3.5v-.5h.6l2.3 3.6a.4.4 0 0 1-.3.5ZM394.6 168.6l-4.1-.6a.4.4 0 0 1-.3-.4c0-.3.2-.4.4-.4l4 .7c.3 0 .4.2.4.4s-.2.3-.4.3ZM434 156l-.4-.1a.4.4 0 0 1 .1-.5l3.8-2.7.5.1-.1.5-3.8 2.7h-.2Z"/>
  <path fill="#FBFBFB" d="M416 216.4c.1-9.5-.7-19-2.4-28.4-.4-2.4-1-4.9-2.3-6.9-3-4.2-8.6-5.2-13.2-7.5-2.2-1-4.5-3.1-3.6-5.7.3-1 1.1-1.8 2.1-2.2 2.1-1 4.4-.4 6.5 0a20 20 0 0 1-3.7-6.6c-.6-2.5-.1-5.4 2-7 2-1.6 5.9-1.4 7.6.6 1.5 1.8 2.8 3.5 4.3 7.3.2-2.9-.9-7.4.7-9.7 2.1-3.2 7.5-5 9 .3 1 3.3 0 7.6-1.2 10.8 1.4-4 5-7.2 9.1-8.2 1.5-.3 3 0 4.2 1 1.9 1.9 1 4.4-.4 6-1.1 1.2-2.5 2-3.6 3.2-3.8 3.9-4 9.9-3.6 15.2a179 179 0 0 0 6.4 37.8"/>
  <path fill="#000" d="M433.6 216.5c-3.5-12.3-5.7-25-6.5-37.9-.3-5.4-.1-11.5 3.7-15.4l1.7-1.6c.7-.5 1.3-1 1.9-1.7 1.3-1.4 2.2-3.7.4-5.4-1-.9-2.4-1.2-3.8-1-4 1-7.5 4-8.8 8l-.7-.2c1-3 2-7.3 1.1-10.6-.5-1.8-1.5-2.8-2.9-3-1.8-.3-4.1.9-5.4 2.8-1 1.4-.8 4-.7 6.2v3.3l-.1 1.6-.6-1.5a21.2 21.2 0 0 0-4.2-7.1c-1.6-1.8-5.2-2.2-7.2-.6-2 1.5-2.3 4.4-1.8 6.6.7 2.5 2.3 4.7 3.7 6.6l.6.8-1-.3c-2-.4-4.2-1-6.2 0-1 .4-1.7 1-2 2-1 2.7 2.4 4.7 3.5 5.2l4 1.7c3.5 1.4 7.1 2.8 9.3 5.9 1.4 2 2 4.5 2.4 7 1.7 9.4 2.5 19 2.4 28.5h-.7c0-9.5-.8-19-2.4-28.3-.5-2.5-1-4.8-2.3-6.8-2-2.9-5.4-4.2-8.9-5.6-1.4-.5-2.8-1-4.2-1.8-3.1-1.5-4.5-3.8-3.8-6 .4-1.1 1.2-2 2.4-2.5 1.9-.9 3.9-.6 5.7-.2a18.1 18.1 0 0 1-3.2-6c-.6-2.4-.2-5.7 2-7.4 2.4-1.8 6.4-1.4 8.3.7 1.2 1.5 2.4 3 3.6 5.7v-1.4c-.2-2.5-.3-5.1.8-6.7 1.4-2.2 4-3.5 6.1-3.1 1.2.2 2.8 1 3.5 3.5.7 2.3.4 5-.1 7.6a13 13 0 0 1 7.6-5.2 5 5 0 0 1 4.5 1c2 2 1.3 4.7-.4 6.5-.6.7-1.3 1.2-2 1.8l-1.6 1.5c-3.6 3.7-3.7 9.6-3.4 14.9.8 12.7 3 25.4 6.4 37.7l-.7.2Z"/>
  <path fill="#E7A776" d="M413.3 165V166.7c-.3 1.4-.5 2.3-1.7 3.2-2.8 2.3-3 5.3-.4 6.3 1.8.6 4.1.2 6-.1a11 11 0 0 0 5.2-2.2c.7-.6 1.4-1.6 1.3-2.6-.2-1.5-1.8-2.4-3.3-2.8-1.4-.4-3-.7-4-1.9l-.8-1.4c-.2-.4-.6-.9-1.1-1a1 1 0 0 0-1.2.8ZM407.4 157.8a2.2 2.2 0 1 1-4.3 0 2.2 2.2 0 0 1 4.3 0ZM421.2 153.6a2 2 0 1 1-4.1 0 2 2 0 0 1 4 0ZM432.4 158.3a1.7 1.7 0 1 1-3.3 0 1.7 1.7 0 0 1 3.3 0ZM400.9 169.7a1.7 1.7 0 1 1-3.4 0 1.7 1.7 0 0 1 3.4 0Z"/>
  <path fill="#3F3429" d="M770 217.4H0V216h770v1.4Z"/>
  <path fill="#FBFBFB" d="m67 220 .9 3.4 1-3.6-1.8.2ZM47.4 220.3l.9 3.4 1-3.6-1.9.2ZM57.7 219.5l1.1 4.5 1.3-4.8-2.4.3Z"/>
  <path fill="#FF9C27" d="M44.3 211.5a9.4 9.4 0 0 0-.2 6.6 4.8 4.8 0 0 0 3.2 2.8c1.5.4 3 0 4.2-1 1.2-1 1.8-2.5 2.2-4 .3-1.4.4-3 0-4.3a5.3 5.3 0 0 0-2.5-3.4c-1.3-.7-5-.7-6.9 3.3Z"/>
  <path fill="#FF5E00" d="m49.6 208.2-1.7.3c-1 .4-2.3 1.2-3.2 3.2a8.9 8.9 0 0 0-.7 4.2c0 .8.2 1.5.4 2a4.4 4.4 0 0 0 3 2.7c1.3.3 2.8 0 3.9-1 1-.7 1.6-2 2-3.8.4-1.6.4-3 0-4.1a4.9 4.9 0 0 0-2.3-3.2c-.3-.1-.8-.3-1.4-.3Zm-1.1 13.2-1.3-.1a5.2 5.2 0 0 1-3.4-3.1 9.7 9.7 0 0 1 .3-6.8c1-2.3 2.5-3.2 3.6-3.6a5 5 0 0 1 3.7 0c1.3.8 2.3 2 2.7 3.7.3 1.3.3 2.8 0 4.4-.5 2-1.3 3.4-2.4 4.3-.9.8-2 1.2-3.2 1.2Z"/>
  <path fill="#FF9C27" d="M53.9 209.7c-.3 1-.5 2.1-.5 3.3 0 1.8.3 3.8 1.3 5.3 1 1.6 3 2.7 4.8 2.3a5 5 0 0 0 3.3-3c1-2.4 1.2-6.2 0-8.7-1-2.4-3.2-3.6-5.7-2.7-.6.2-2.6 1-3.2 3.5Z"/>
  <path fill="#FF5E00" d="M58.7 206.3c-.5 0-1 0-1.5.3-.7.2-2.5 1-3 3.2-.2 1-.4 2-.4 3.2 0 2.2.4 3.8 1.2 5.1 1 1.6 2.8 2.5 4.4 2.1a4.5 4.5 0 0 0 3-2.7c1.1-2.6 1.2-6.2.1-8.4-.8-1.8-2.2-2.8-3.8-2.8Zm0 14.7c-1.6 0-3.3-1-4.3-2.5A9.9 9.9 0 0 1 53 213c0-1.2.3-2.3.5-3.4A5.3 5.3 0 0 1 57 206c2.6-1 5 .2 6.3 2.8 1.1 2.5 1 6.4-.1 9-.7 1.7-2 3-3.6 3.2a4 4 0 0 1-.8.1Z"/>
  <path fill="#FF9C27" d="M71.9 208.7a4.6 4.6 0 0 0-7.6.7 9.8 9.8 0 0 0-.2 8.7c.4.9 1 1.6 1.8 2.1 1.5 1 3.8.6 5.1-.7 1.4-1.2 2-3.1 2.3-5 .2-2-.2-4.1-1.4-5.8Z"/>
  <path fill="#FF5E00" d="M68.3 207.3H68c-1.5.2-2.7 1-3.4 2.2a9.4 9.4 0 0 0-.2 8.5c.5.9 1 1.5 1.6 2 1.4.8 3.4.5 4.8-.7 1.2-1 2-2.8 2.1-4.8a8 8 0 0 0-1.3-5.5l.3-.3-.3.2a4 4 0 0 0-3.3-1.6Zm-.5 13.9a4 4 0 0 1-2.1-.6 5.4 5.4 0 0 1-2-2.3c-1.3-2.8-1.2-6.2.3-9a4.8 4.8 0 0 1 4-2.7c1.6-.1 3.2.6 4.2 1.9a8.6 8.6 0 0 1 1.4 6 8.1 8.1 0 0 1-2.3 5.3c-1 .9-2.2 1.4-3.5 1.4Z"/>
  <path fill="#FBFBFB" d="m203.6 220.8-.9 3.4-1-3.6 1.9.2ZM184 220.5l-1 3.5-.9-3.7 1.8.2ZM193.3 220l-1.1 4.5-1.3-4.7 2.4.3Z"/>
  <path fill="#FF9C27" d="M206.6 212.1a9.4 9.4 0 0 1 .3 6.5 4.8 4.8 0 0 1-3.2 2.9c-1.5.3-3 0-4.2-1a7.2 7.2 0 0 1-2.2-4 9.2 9.2 0 0 1 0-4.4 5.2 5.2 0 0 1 2.5-3.3c1.2-.7 5-.7 6.8 3.3Z"/>
  <path fill="#FF5E00" d="M201.4 208.8c-.6 0-1.1.1-1.5.3-1 .6-2 1.7-2.3 3.1a9 9 0 0 0 0 4.1c.5 1.8 1.1 3.1 2.1 4a4.4 4.4 0 0 0 6.8-1.8c.3-.6.4-1.2.5-2a9 9 0 0 0-.7-4.3c-.9-2-2.3-2.8-3.2-3.1l-1.7-.3Zm1.1 13.2c-1.1 0-2.3-.4-3.2-1.2a7.5 7.5 0 0 1-2.3-4.3 9.6 9.6 0 0 1 0-4.5c.3-1.6 1.3-2.9 2.6-3.6a5 5 0 0 1 3.7 0c1.1.4 2.7 1.3 3.7 3.6a9.7 9.7 0 0 1 .2 6.8 5.2 5.2 0 0 1-4.7 3.2Z"/>
  <path fill="#FF9C27" d="M197.1 210.3c.3 1 .5 2.1.5 3.2 0 1.9-.3 3.8-1.3 5.4-1 1.6-3 2.6-4.8 2.3a5 5 0 0 1-3.3-3c-1-2.5-1.2-6.3 0-8.7 1-2.4 3.2-3.6 5.7-2.7.6.2 2.6 1 3.2 3.5Z"/>
  <path fill="#FF5E00" d="M192.3 206.9c-1.6 0-3 1-3.9 2.7-1 2.3-1 5.9.2 8.5a4.5 4.5 0 0 0 3 2.7c1.6.3 3.4-.5 4.4-2.1.8-1.3 1.2-3 1.2-5.2a14 14 0 0 0-.4-3.2c-.6-2.1-2.3-3-3-3.2-.5-.2-1-.2-1.5-.2Zm0 14.7h-.8a5.2 5.2 0 0 1-3.6-3.3 12.2 12.2 0 0 1-.1-9c1.2-2.7 3.7-3.8 6.3-2.9.8.3 2.8 1.3 3.4 3.8l.5 3.3c0 2.4-.5 4.2-1.4 5.6a5.4 5.4 0 0 1-4.3 2.5Z"/>
  <path fill="#FF9C27" d="M179.1 209.3c2-2.6 6.1-2.3 7.6.6 1.4 2.7 1.6 6 .2 8.8-.4.8-1 1.6-1.8 2.1-1.5 1-3.8.6-5.2-.7a7.7 7.7 0 0 1-2.2-5c-.2-2 .2-4.2 1.4-5.8Z"/>
  <path fill="#FF5E00" d="m179.1 209.3.3.2a8 8 0 0 0-1.3 5.5c.1 1.5.6 3.5 2 4.8 1.5 1.3 3.5 1.6 4.8.7.7-.4 1.2-1 1.7-2a9.5 9.5 0 0 0-.2-8.4c-.7-1.3-2-2-3.4-2.2a4 4 0 0 0-3.6 1.6l-.3-.2Zm4 12.4c-1.2 0-2.4-.4-3.4-1.3a8.1 8.1 0 0 1-2.3-5.3c-.3-2.3.2-4.5 1.4-6 1-1.4 2.6-2 4.3-2 1.7.2 3.2 1.2 4 2.7 1.4 2.8 1.5 6.3.1 9-.5 1-1.1 1.8-1.9 2.3a4 4 0 0 1-2.1.6Z"/>
  <path fill="#FFE8CD" d="m597 217.4.3 2.3.4-2.3h-.7Z"/>
  <path fill="#625443" d="M597.3 220.2c-.3 0-.3-.4-.3-.5a35.6 35.6 0 0 0-.3-2.3c0-.2.1-.3.3-.3h.7l.2.1.1.3-.3 2v.3c0 .2-.1.3-.3.4Z"/>
  <path fill="#FFE8CD" d="m604.2 217.6.3 2.2.3-2.2h-.6Z"/>
  <path fill="#625443" d="M604.5 220.2a.4.4 0 0 1-.4-.3c0-.8-.3-2-.3-2.2 0-.3.2-.4.4-.4H605v.4l-.3 2.2c0 .2-.2.3-.3.3Z"/>
  <path fill="#FFE8CD" d="m611.4 217.6.3 2.2.3-2.2h-.6Z"/>
  <path fill="#625443" d="M611.7 220.2a.4.4 0 0 1-.3-.3 150.4 150.4 0 0 0-.4-2.3c0-.2.2-.3.4-.3H612.3l.1.4-.3 2.2c0 .2-.2.3-.4.3Z"/>
  <path fill="#FFE8CD" d="m618.3 217.6.4 2.2.3-2.2h-.7Z"/>
  <path fill="#625443" d="M618.7 220.2a.4.4 0 0 1-.4-.3l-.3-2.2c0-.3.2-.4.3-.4h1v.4l-.3 2.2c0 .2-.2.3-.3.3Z"/>
  <path fill="#FFE8CD" d="M600.7 212.2c0 2.9-1.5 5.3-3.4 5.3-1.8 0-3.3-2.4-3.3-5.3 0-3 1.5-5.4 3.3-5.4 1.9 0 3.4 2.4 3.4 5.4Z"/>
  <path fill="#625443" d="M597.3 207.2c-1.6 0-3 2.2-3 5 0 2.7 1.4 4.9 3 4.9 1.7 0 3-2.2 3-5 0-2.7-1.3-4.9-3-4.9Zm0 10.6c-2 0-3.7-2.5-3.7-5.6 0-3.2 1.7-5.7 3.7-5.7s3.7 2.5 3.7 5.7c0 3-1.6 5.6-3.7 5.6Z"/>
  <path fill="#FFE8CD" d="M608 211.7c0 3.2-1.6 5.8-3.6 5.8s-3.6-2.6-3.6-5.8c0-3.2 1.6-5.8 3.6-5.8s3.6 2.6 3.6 5.8Z"/>
  <path fill="#625443" d="M604.4 206.3c-1.8 0-3.3 2.4-3.3 5.4 0 3 1.5 5.4 3.3 5.4 1.8 0 3.3-2.4 3.3-5.4 0-3-1.5-5.4-3.3-5.4Zm0 11.5c-2.2 0-4-2.7-4-6.1 0-3.4 1.8-6.1 4-6.1s4 2.7 4 6c0 3.5-1.8 6.2-4 6.2Z"/>
  <path fill="#FFE8CD" d="M615.3 211.7c0 3.2-1.6 5.8-3.6 5.8s-3.7-2.6-3.7-5.8c0-3.2 1.7-5.8 3.7-5.8s3.6 2.6 3.6 5.8Z"/>
  <path fill="#625443" d="M611.7 206.3c-1.8 0-3.3 2.4-3.3 5.4 0 3 1.5 5.4 3.3 5.4 1.8 0 3.2-2.4 3.2-5.4 0-3-1.4-5.4-3.2-5.4Zm0 11.5c-2.2 0-4-2.7-4-6.1 0-3.4 1.8-6.1 4-6.1s4 2.7 4 6c0 3.5-1.8 6.2-4 6.2Z"/>
  <path fill="#FFE8CD" d="M622 212.2c0 2.9-1.6 5.3-3.4 5.3-1.8 0-3.3-2.4-3.3-5.3 0-3 1.5-5.4 3.3-5.4 1.8 0 3.3 2.4 3.3 5.4Z"/>
  <path fill="#625443" d="M618.6 207.2c-1.6 0-3 2.2-3 5 0 2.7 1.4 4.9 3 4.9s3-2.2 3-5c0-2.7-1.4-4.9-3-4.9Zm0 10.6c-2 0-3.7-2.5-3.7-5.6 0-3.2 1.7-5.7 3.7-5.7s3.7 2.5 3.7 5.7c0 3-1.7 5.6-3.7 5.6Z"/>
  <path fill="#FFE8CD" d="m717 218.6-.4 2.2-.3-2.2h.7Z"/>
  <path fill="#625443" d="M716.6 221.3a.4.4 0 0 1-.3-.3v-.2l-.4-2.1.1-.3.3-.1h.7c.1 0 .3.1.3.3v.2l-.3 2c0 .2 0 .5-.4.5Z"/>
  <path fill="#FFE8CD" d="m709.8 218.8-.3 2.2-.3-2.2h.6Z"/>
  <path fill="#625443" d="M709.5 221.4a.3.3 0 0 1-.4-.3l-.3-2.2.1-.3.3-.1h.6c.2 0 .4.1.4.3v.1l-.3 2.2c0 .2-.2.3-.4.3Z"/>
  <path fill="#FFE8CD" d="m702.6 218.8-.4 2.2-.3-2.2h.7Z"/>
  <path fill="#625443" d="M702.2 221.4a.4.4 0 0 1-.3-.3l-.3-2.2v-.3l.3-.1h.7c.2 0 .3.1.3.3v.1l-.3 2.2c0 .2-.2.3-.4.3Z"/>
  <path fill="#FFE8CD" d="m695.6 218.8-.3 2.2-.3-2.2h.6Z"/>
  <path fill="#625443" d="M695.3 221.4a.4.4 0 0 1-.4-.3l-.3-2.2.1-.3.3-.1h.6c.2 0 .4.1.4.3v.1l-.3 2.2c0 .2-.2.3-.4.3Z"/>
  <path fill="#FFE8CD" d="M713.3 213.3c0 3 1.5 5.4 3.3 5.4 1.9 0 3.4-2.4 3.4-5.4 0-2.9-1.5-5.3-3.4-5.3-1.8 0-3.3 2.4-3.3 5.3Z"/>
  <path fill="#625443" d="M716.6 208.4c-1.6 0-3 2.2-3 5 0 2.7 1.4 4.9 3 4.9 1.7 0 3-2.2 3-5 0-2.7-1.3-4.9-3-4.9Zm0 10.6c-2 0-3.7-2.5-3.7-5.7 0-3 1.7-5.6 3.7-5.6s3.7 2.5 3.7 5.6c0 3.2-1.6 5.7-3.7 5.7Z"/>
  <path fill="#FFE8CD" d="M706 212.9c0 3.2 1.6 5.8 3.6 5.8s3.6-2.6 3.6-5.8c0-3.2-1.6-5.8-3.6-5.8s-3.7 2.6-3.7 5.8Z"/>
  <path fill="#625443" d="M709.6 207.5c-1.8 0-3.3 2.4-3.3 5.4 0 3 1.5 5.4 3.3 5.4 1.8 0 3.2-2.4 3.2-5.4 0-3-1.4-5.4-3.2-5.4Zm0 11.5c-2.2 0-4-2.7-4-6.1 0-3.4 1.8-6.1 4-6.1s4 2.7 4 6c0 3.5-1.8 6.2-4 6.2Z"/>
  <path fill="#FFE8CD" d="M698.7 212.9c0 3.2 1.6 5.8 3.6 5.8s3.6-2.6 3.6-5.8c0-3.2-1.6-5.8-3.6-5.8s-3.6 2.6-3.6 5.8Z"/>
  <path fill="#625443" d="M702.3 207.5c-1.8 0-3.3 2.4-3.3 5.4 0 3 1.5 5.4 3.3 5.4 1.8 0 3.3-2.4 3.3-5.4 0-3-1.5-5.4-3.3-5.4Zm0 11.5c-2.2 0-4-2.7-4-6.1 0-3.4 1.8-6.1 4-6.1s4 2.7 4 6c0 3.5-1.8 6.2-4 6.2Z"/>
  <path fill="#FFE8CD" d="M692 213.3c0 3 1.5 5.4 3.4 5.4 1.8 0 3.3-2.4 3.3-5.4 0-2.9-1.5-5.3-3.3-5.3-1.9 0-3.4 2.4-3.4 5.3Z"/>
  <path fill="#625443" d="M695.4 208.4c-1.7 0-3 2.2-3 5 0 2.7 1.3 4.9 3 4.9 1.6 0 3-2.2 3-5 0-2.7-1.4-4.9-3-4.9Zm0 10.6c-2 0-3.7-2.5-3.7-5.7 0-3 1.6-5.6 3.7-5.6 2 0 3.7 2.5 3.7 5.6 0 3.2-1.7 5.7-3.7 5.7Z"/>
  <path fill="#FFE8CD" d="m224.9 222 .4 2.6.4-2.7h-.8Z"/>
  <mask id="b" width="3" height="5" x="224" y="220" maskUnits="userSpaceOnUse" style="mask-type:luminance">
    <path fill="#fff" d="M224.2 221h2.7v4h-2.7v-4Z"/>
  </mask>
  <g mask="url(#b)">
    <path fill="#40270A" d="M225.3 225a.4.4 0 0 1-.4-.3 112.5 112.5 0 0 0-.4-2.8c0-.2.2-.3.4-.3h.8l.2.1.1.3-.4 2.7c0 .2-.2.3-.3.3Z"/>
  </g>
  <path fill="#FFE8CD" d="m233.5 221.8.4 2.7.4-2.7h-.8Z"/>
  <path fill="#40270A" d="M233.9 224.9a.4.4 0 0 1-.4-.3 117.5 117.5 0 0 0-.4-2.8c0-.2.2-.4.4-.4h.8a.4.4 0 0 1 .3.5l-.4 2.7c0 .1-.1.3-.3.3Z"/>
  <path fill="#FFE8CD" d="m242.3 221.8.4 2.7.4-2.7h-.8Z"/>
  <path fill="#40270A" d="M242.7 224.9a.4.4 0 0 1-.3-.3l-.4-2.7v-.1c0-.2.1-.4.3-.4h.8c.1 0 .2 0 .3.2v.3l-.3 2.7c0 .1-.2.3-.4.3Z"/>
  <path fill="#FFE8CD" d="m250.8 221.8.4 2.7.4-2.7h-.8Z"/>
  <path fill="#40270A" d="M251.2 224.9c-.2 0-.4-.2-.4-.3l-.4-2.7v-.1c0-.2.2-.4.4-.4h.8s.2 0 .2.2l.1.3-.4 2.7c0 .1-.1.3-.3.3Z"/>
  <path fill="#FFE8CD" d="M229.3 215.5c0 3.6-1.8 6.5-4 6.5-2.3 0-4-3-4-6.5 0-3.6 1.7-6.5 4-6.5 2.2 0 4 3 4 6.5Z"/>
  <path fill="#40270A" d="M225.3 209.4c-2 0-3.7 2.7-3.7 6.1 0 3.4 1.6 6.1 3.7 6.1 2 0 3.7-2.7 3.7-6 0-3.5-1.7-6.2-3.7-6.2Zm0 13c-2.5 0-4.5-3.1-4.5-6.9 0-3.8 2-6.8 4.5-6.8 2.4 0 4.4 3 4.4 6.8s-2 6.8-4.4 6.8Z"/>
  <path fill="#FFE8CD" d="M238.3 215c0 3.8-2 7-4.4 7-2.5 0-4.4-3.2-4.4-7 0-4 2-7 4.4-7 2.4 0 4.4 3 4.4 7Z"/>
  <path fill="#40270A" d="M233.9 208.3c-2.2 0-4 3-4 6.6 0 3.7 1.8 6.7 4 6.7s4-3 4-6.7c0-3.6-1.8-6.6-4-6.6Zm0 14c-2.6 0-4.8-3.3-4.8-7.4 0-4 2.2-7.3 4.8-7.3 2.6 0 4.8 3.3 4.8 7.3 0 4.1-2.2 7.4-4.8 7.4Z"/>
  <path fill="#FFE8CD" d="M247.1 215c0 3.8-2 7-4.4 7-2.4 0-4.4-3.2-4.4-7 0-4 2-7 4.4-7 2.5 0 4.4 3 4.4 7Z"/>
  <path fill="#40270A" d="M242.7 208.3c-2.2 0-4 3-4 6.6 0 3.7 1.8 6.7 4 6.7 2.3 0 4-3 4-6.7 0-3.6-1.7-6.6-4-6.6Zm0 14c-2.6 0-4.8-3.3-4.8-7.4 0-4 2.2-7.3 4.8-7.3 2.7 0 4.8 3.3 4.8 7.3 0 4.1-2.1 7.4-4.8 7.4Z"/>
  <path fill="#FFE8CD" d="M255.2 215.5c0 3.6-1.8 6.5-4 6.5-2.3 0-4-3-4-6.5 0-3.6 1.7-6.5 4-6.5 2.2 0 4 3 4 6.5Z"/>
  <path fill="#40270A" d="M251.2 209.4c-2 0-3.7 2.7-3.7 6.1 0 3.4 1.6 6.1 3.7 6.1 2 0 3.7-2.7 3.7-6 0-3.5-1.7-6.2-3.7-6.2Zm0 13c-2.5 0-4.4-3.1-4.4-6.9 0-3.8 2-6.8 4.4-6.8 2.4 0 4.4 3 4.4 6.8s-2 6.8-4.4 6.8Z"/>
  <path fill="#FFE8CD" d="m378.3 222-.4 2.6-.4-2.7h.8Z"/>
  <mask id="c" width="4" height="5" x="376" y="220" maskUnits="userSpaceOnUse" style="mask-type:luminance">
    <path fill="#fff" d="M376.4 221h2.6v4h-2.6v-4Z"/>
  </mask>
  <g mask="url(#c)">
    <path fill="#40270A" d="M378 225c.1 0 .3-.1.3-.3l.4-2.7c0-.3-.2-.4-.4-.4h-.8l-.3.1v.3l.4 2.7c0 .2.1.3.3.3Z"/>
  </g>
  <path fill="#FFE8CD" d="m369.7 221.8-.4 2.7-.4-2.7h.8Z"/>
  <path fill="#40270A" d="M369.3 224.9c.2 0 .3-.2.4-.3a169.3 169.3 0 0 1 .3-2.8c0-.2-.1-.4-.3-.4h-.8c-.1 0-.2 0-.3.2v.3l.3 2.7c0 .1.2.3.4.3Z"/>
  <path fill="#FFE8CD" d="m360.9 221.8-.4 2.7-.4-2.7h.8Z"/>
  <path fill="#40270A" d="M360.5 224.9c.2 0 .3-.2.3-.3a169.3 169.3 0 0 1 .4-2.8c0-.2-.2-.4-.3-.4h-.8c-.1 0-.2 0-.3.2v.3l.3 2.7c0 .1.2.3.4.3Z"/>
  <path fill="#FFE8CD" d="m352.4 221.8-.4 2.7-.4-2.7h.8Z"/>
  <path fill="#40270A" d="M352 224.9c.2 0 .3-.2.4-.3l.3-2.7v-.1c0-.2-.1-.4-.3-.4h-.8s-.2 0-.3.2v.3l.3 2.7c0 .1.2.3.4.3Z"/>
  <path fill="#FFE8CD" d="M373.9 215.5c0 3.6 1.8 6.5 4 6.5 2.3 0 4-3 4-6.5 0-3.6-1.7-6.5-4-6.5-2.2 0-4 3-4 6.5Z"/>
  <path fill="#40270A" d="M374.2 215.5c0 3.4 1.7 6.1 3.7 6.1s3.7-2.7 3.7-6c0-3.5-1.6-6.2-3.7-6.2-2 0-3.7 2.7-3.7 6.1Zm-.7 0c0-3.8 2-6.8 4.4-6.8 2.5 0 4.4 3 4.4 6.8s-2 6.8-4.4 6.8c-2.4 0-4.4-3-4.4-6.8Z"/>
  <path fill="#FFE8CD" d="M364.9 215c0 3.8 2 7 4.4 7 2.4 0 4.4-3.2 4.4-7 0-4-2-7-4.4-7-2.4 0-4.4 3-4.4 7Z"/>
  <path fill="#40270A" d="M365.2 215c0 3.6 1.9 6.6 4.1 6.6 2.2 0 4-3 4-6.7 0-3.6-1.8-6.6-4-6.6s-4 3-4 6.6Zm-.7 0c0-4.1 2.2-7.4 4.8-7.4 2.6 0 4.8 3.3 4.8 7.3 0 4.1-2.2 7.4-4.8 7.4-2.6 0-4.8-3.3-4.8-7.4Z"/>
  <path fill="#FFE8CD" d="M356 215c0 3.8 2 7 4.5 7 2.4 0 4.4-3.2 4.4-7 0-4-2-7-4.4-7-2.5 0-4.5 3-4.5 7Z"/>
  <path fill="#40270A" d="M356.4 215c0 3.6 1.8 6.6 4 6.6 2.3 0 4.1-3 4.1-6.7 0-3.6-1.8-6.6-4-6.6-2.3 0-4 3-4 6.6Zm-.7 0c0-4.1 2.1-7.4 4.8-7.4 2.6 0 4.7 3.3 4.7 7.3 0 4.1-2.1 7.4-4.7 7.4-2.7 0-4.8-3.3-4.8-7.4Z"/>
  <path fill="#FFE8CD" d="M348 215.5c0 3.6 1.8 6.5 4 6.5 2.3 0 4-3 4-6.5 0-3.6-1.7-6.5-4-6.5-2.2 0-4 3-4 6.5Z"/>
  <path fill="#40270A" d="M348.3 215.5c0 3.4 1.7 6.1 3.7 6.1s3.7-2.7 3.7-6c0-3.5-1.7-6.2-3.7-6.2s-3.7 2.7-3.7 6.1Zm-.7 0c0-3.8 2-6.8 4.4-6.8 2.4 0 4.4 3 4.4 6.8s-2 6.8-4.4 6.8c-2.4 0-4.4-3-4.4-6.8Z"/>
  <path fill="#FBFBFB" d="m551.8 220.4-.7 3-.8-3.2 1.5.2ZM534.7 220.2l-.8 3-.8-3.2 1.6.2ZM542.9 219.7l-1 4-1.1-4.2 2 .2Z"/>
  <path fill="#FBFBFB" d="M555 213a8.1 8.1 0 0 1-.2 5.7c-.6 1.2-1.7 2-3 2.3-1.3.2-2.6-.2-3.6-1-1-1-1.4-2.4-1.6-3.8a8 8 0 0 1 .2-3.7 4.6 4.6 0 0 1 2.4-2.8c1.2-.5 4.5-.3 5.8 3.3Z"/>
  <path fill="#000" d="m550.4 209.8-1 .2c-1 .4-1.9 1.4-2.3 2.6-.3 1-.4 2.2-.2 3.6a6 6 0 0 0 1.6 3.5c.8.8 2 1.2 3.2 1 1.2-.3 2.3-1 2.8-2.1l.4-1.8c.2-1.4.1-2.6-.3-3.7a4.8 4.8 0 0 0-2.6-3l-1.6-.3Zm.7 11.6c-1.2 0-2.3-.4-3.1-1.2-1-.9-1.5-2.2-1.8-4-.2-1.4-.1-2.7.2-3.9a5 5 0 0 1 2.7-3c.7-.3 2-.3 3.2.2 1 .4 2.3 1.4 3 3.4a8.5 8.5 0 0 1-.2 6 4.6 4.6 0 0 1-4 2.5Z"/>
  <path fill="#FBFBFB" d="M546.2 211.2c.2.9.4 1.8.4 2.8 0 1.6-.2 3.3-1.1 4.7-1 1.4-2.6 2.3-4.2 2-1.3-.3-2.3-1.4-2.9-2.6-1-2.2-1-5.5 0-7.6.9-2.1 2.8-3.2 5-2.4.5.2 2.3.9 2.8 3Z"/>
  <path fill="#000" d="M542 208.2c-1.4 0-2.6.9-3.4 2.4-.9 2-.8 5.1.2 7.4a4 4 0 0 0 2.6 2.3c1.3.3 2.9-.4 3.8-1.8a8 8 0 0 0 1-4.5c0-1-.2-1.9-.4-2.8a4 4 0 0 0-3.8-3Zm0 13-.8-.1a4.6 4.6 0 0 1-3.1-2.8c-1-2.4-1.1-5.9-.1-8 1-2.3 3.3-3.3 5.5-2.5.8.2 2.5 1 3 3.3.3.9.5 1.9.5 3 0 2-.4 3.6-1.2 4.8a4.7 4.7 0 0 1-3.8 2.2Z"/>
  <path fill="#FBFBFB" d="M530.4 210.3a4 4 0 0 1 6.7.6 8.6 8.6 0 0 1 .2 7.6c-.4.8-.9 1.5-1.6 1.9-1.4.9-3.3.5-4.5-.6a6.8 6.8 0 0 1-2-4.4 7.2 7.2 0 0 1 1.2-5.1Z"/>
  <path fill="#000" d="M530.7 210.5a6.8 6.8 0 0 0-1.1 4.8c.2 1.8.8 3.3 1.8 4.2 1.2 1 3 1.3 4.1.6.6-.4 1-1 1.4-1.7 1.1-2.2 1-5-.1-7.4-.6-1-1.7-1.8-3-1.9-1.2 0-2.4.4-3 1.4Zm3.3 10.7c-1.1 0-2.2-.4-3-1.2a7.1 7.1 0 0 1-2.1-4.6c-.2-2 .2-4 1.2-5.3a4.2 4.2 0 0 1 3.8-1.7c1.5.1 2.8 1 3.5 2.3a9 9 0 0 1 .2 8c-.5 1-1 1.6-1.7 2-.6.4-1.2.5-2 .5Z"/>
  <mask id="d" width="4" height="7" x="381" y="84" maskUnits="userSpaceOnUse" style="mask-type:luminance">
    <path fill="#fff" d="M384.4 85h-2.7v5.3h2.7V85Z"/>
  </mask>
  <g mask="url(#d)">
    <mask id="e" width="2" height="2" x="382" y="87" maskUnits="userSpaceOnUse" style="mask-type:luminance">
      <path fill="#fff" d="M382.4 87.7h1.3V89h-1.3v-1.3Z"/>
    </mask>
    <g mask="url(#e)">
      <path fill="#000" d="m383 88.4-.1-.1.1-.2c.1 0 .2 0 .2.2l-.2.1Z"/>
    </g>
  </g>
</svg>
